<?xml version="1.0" encoding="UTF-8"?>
<svg width="16px" height="16px" viewBox="0 0 16 16" version="1.1" xmlns="http://www.w3.org/2000/svg" xmlns:xlink="http://www.w3.org/1999/xlink">
    <!-- Generator: Sketch 46 (44423) - http://www.bohemiancoding.com/sketch -->
    <title>Bubble Icon</title>
    <desc>Created with Sketch.</desc>
    <defs></defs>
    <g id="Components" stroke="none" stroke-width="1" fill="none" fill-rule="evenodd">
        <g id="SliceIcon" transform="translate(-46.000000, -123.000000)" fill="#000000">
            <g id="Icons" transform="translate(46.000000, 54.000000)">
                <g id="Icons/Bubble-Icon" transform="translate(0.000000, 69.000000)">
                    <path d="M8.01714455,13.9963275 C5.2924013,13.9939877 2.91051575,12.1585269 2.21463076,9.5249597 C1.51874577,6.89139249 2.68318471,4.11944328 5.05132165,2.77221143 C7.41945858,1.42497958 10.398061,1.83995478 12.3074979,3.78313293 C14.2169348,5.72631108 14.5788809,8.71091435 13.189235,11.053928 C13.0490807,11.2911486 13.0128336,11.5755998 13.0890201,11.8403712 L13.5900946,13.5434966 L11.8714092,13.0525957 C11.6062476,12.9761434 11.3212848,13.0123869 11.0837202,13.1527796 C10.1564826,13.7056398 9.09678006,13.9971408 8.01714455,13.9963275 L8.01714455,13.9963275 L8.01714455,13.9963275 Z M14.7495809,15.9579272 C15.0994377,16.0577204 15.4759156,15.9601238 15.7331749,15.7029442 C15.9904342,15.4457646 16.088061,15.0694033 15.9882369,14.7196549 C15.8884128,14.3699064 15.1213781,11.6931009 15.1223803,11.6840844 C16.9409039,8.18212162 15.9328918,3.87761168 12.7484051,1.54650706 C9.56391835,-0.784597565 5.15467789,-0.445619063 2.36417628,2.34483737 C-0.426325323,5.13529381 -0.764114112,9.54326772 1.56864787,12.7260833 C3.90140985,15.9088989 8.20754946,16.9153346 11.7100633,15.0963462 C11.7190826,15.0983498 14.7535895,15.9589291 14.7535895,15.9589291 L14.7495809,15.9579272 L14.7495809,15.9579272 Z" id="Bubble-Icon"></path>
                </g>
            </g>
        </g>
    </g>
</svg>