<?xml version="1.0" encoding="UTF-8"?>
<svg width="16px" height="16px" viewBox="0 0 16 16" version="1.1" xmlns="http://www.w3.org/2000/svg" xmlns:xlink="http://www.w3.org/1999/xlink">
    <!-- Generator: Sketch 46 (44423) - http://www.bohemiancoding.com/sketch -->
    <title>Cart Icon</title>
    <desc>Created with Sketch.</desc>
    <defs></defs>
    <g id="Components" stroke="none" stroke-width="1" fill="none" fill-rule="evenodd">
        <g id="SliceIcon" transform="translate(-165.000000, -55.000000)" fill="#000000">
            <g id="Icons" transform="translate(46.000000, 54.000000)">
                <g id="Icons/Cart-Icon" transform="translate(118.000000, 1.000000)">
                    <path d="M16.9395891,6.178 L15.3196617,14.224 C15.1045997,15.2421671 14.217527,15.9779213 13.1784013,16 L4.79512737,16 C3.755625,15.9783803 2.86801601,15.2425246 2.6528683,14.224 L1.03393964,6.178 C0.908570158,5.64515296 1.03620657,5.08420118 1.3797218,4.6583152 C1.72323703,4.23242923 2.24405965,3.98942944 2.79069196,4 L4.99487181,4 C4.99487181,1.790861 6.78344441,-5.68434189e-14 8.98976052,-5.68434189e-14 C11.1960766,-5.68434189e-14 12.9846492,1.790861 12.9846492,4 L15.181838,4 C15.728644,3.9891155 16.2497562,4.23198215 16.5935026,4.65791256 C16.937249,5.08384298 17.0650059,5.64497917 16.9395891,6.178 L16.9395891,6.178 Z M4.57740593,13.822 C4.61310756,13.9167526 4.69712567,13.9848179 4.79712481,14 L13.1784013,14 C13.2779358,13.9842853 13.3614163,13.9163467 13.3971215,13.822 L13.7666487,12 L4.21187362,12 L4.57740593,13.822 Z M8.98976052,2 C7.88660246,2 6.99231616,2.8954305 6.99231616,4 L10.9872049,4 C10.9872049,2.8954305 10.0929186,2 8.98976052,2 L8.98976052,2 Z M3.0044185,6 L3.80938858,10 L14.1721299,10 L14.9820936,5.994 L2.99742745,5.994 L3.0044185,6 Z" id="Cart-Icon"></path>
                </g>
            </g>
        </g>
    </g>
</svg>