<?xml version="1.0" encoding="UTF-8"?>
<svg width="16px" height="16px" viewBox="0 0 16 16" version="1.1" xmlns="http://www.w3.org/2000/svg" xmlns:xlink="http://www.w3.org/1999/xlink">
    <!-- Generator: Sketch 46 (44423) - http://www.bohemiancoding.com/sketch -->
    <title>Gear Icon</title>
    <desc>Created with Sketch.</desc>
    <defs></defs>
    <g id="Components" stroke="none" stroke-width="1" fill="none" fill-rule="evenodd">
        <g id="SliceIcon" transform="translate(-362.000000, -90.000000)" fill="#000000">
            <g id="Icons" transform="translate(46.000000, 54.000000)">
                <g id="Icons/Gear-Icon" transform="translate(316.000000, 36.000000)">
                    <path d="M15.9599308,10.175759 L15.1672605,12.0874039 C15.0593226,12.3477126 14.7609609,12.4713685 14.5016895,12.3639446 L13.600417,11.9905203 C13.1878864,11.8195965 12.5932854,11.9412077 12.2810343,12.2534507 C11.9374156,12.5970606 11.8193304,13.1867135 11.9906228,13.5999136 L12.3640567,14.5007293 C12.471639,14.7602445 12.3537916,15.0558121 12.0880139,15.1662253 L10.1783682,15.9595579 C9.91833173,16.067586 9.62006085,15.9438989 9.51250939,15.6841351 L9.13864177,14.7811509 C8.96751506,14.3678369 8.46091896,14.0327797 8.01942317,14.0327797 C7.53357618,14.0327797 7.03284963,14.3669561 6.86135823,14.7811509 L6.48749061,15.6841351 C6.37978341,15.944275 6.08718956,16.070191 5.82112678,15.9600629 L3.90943281,15.1687785 C3.64911742,15.0610293 3.52535683,14.7629274 3.63265875,14.5037875 L4.00565892,13.6029718 C4.1763886,13.1906504 4.05461335,12.5962255 3.74236233,12.2839825 C3.39874361,11.9403726 2.80891501,11.8222904 2.39550535,11.9935785 L1.49423283,12.3670028 C1.23458602,12.4745823 0.939276094,12.3562981 0.829335155,12.0899571 L0.0393958946,10.176264 C-0.0681701414,9.91567645 0.0558970161,9.61696103 0.315667463,9.50941234 L1.21867487,9.13555433 C1.63199949,8.96443201 1.96706531,8.45920635 1.96706531,8.019351 C1.96706531,7.53530924 1.63288031,7.03593266 1.21867487,6.86444567 L0.315667463,6.49058766 C0.0555208532,6.38288323 -0.0702517878,6.09029689 0.0400692413,5.82424095 L0.832739493,3.9125961 C0.940677408,3.6522874 1.23893767,3.52832705 1.49808427,3.63537668 L2.39892307,4.00749985 C2.81125508,4.1778281 3.40569522,4.05573412 3.71794624,3.74349112 C4.06156496,3.39988123 4.17981069,2.81022829 4.00871719,2.3970282 L3.63571701,1.49621255 C3.52825972,1.23669736 3.64620835,0.941349684 3.91198606,0.83122153 L5.82163179,0.0399371066 C6.08166827,-0.0678121002 6.37993915,0.0561011394 6.48749061,0.315864912 L6.86135823,1.21884911 C7.03248494,1.63216312 7.53908104,1.96722032 7.98057683,1.96722032 C8.46642382,1.96722032 8.96715037,1.63304391 9.13864177,1.21884911 L9.51250939,0.315864912 C9.62021659,0.0557249861 9.91281044,-0.0701910479 10.1788732,0.0399371066 L12.0905672,0.83122153 C12.3508826,0.938970737 12.4746432,1.23707261 12.3673413,1.49621255 L11.9967686,2.39116564 C11.8246982,2.80672486 11.9453867,3.40377448 12.2576377,3.71601747 C12.6012564,4.05962737 13.1885354,4.17876594 13.6103602,4.00399124 L14.5057672,3.6329972 C14.765414,3.52541772 15.0607239,3.64370191 15.1706648,3.91004291 L15.9606041,5.82373595 C16.0681701,6.08432355 15.944103,6.38303897 15.6843325,6.49058766 L14.7813251,6.86444567 C14.3680005,7.03556799 14.0329347,7.54079365 14.0329347,7.980649 C14.0329347,8.46469076 14.3671197,8.96406734 14.7813251,9.13555433 L15.6843325,9.50941234 C15.9444791,9.61711677 16.0702518,9.90970311 15.9599308,10.175759 Z M8,4 C5.790861,4 4,5.790861 4,8 C4,10.209139 5.790861,12 8,12 C10.209139,12 12,10.209139 12,8 C12,6.93913404 11.5785726,5.92171839 10.8284271,5.17157288 C10.0782816,4.42142736 9.06086596,4 8,4 L8,4 L8,4 L8,4 L8,4 Z M8,10 C6.8954305,10 6,9.1045695 6,8 C6,6.8954305 6.8954305,6 8,6 C9.1045695,6 10,6.8954305 10,8 C10,8.53043298 9.78928632,9.03914081 9.41421356,9.41421356 C9.03914081,9.78928632 8.53043298,10 8,10 L8,10 L8,10 L8,10 L8,10 Z" id="Gear-Icon"></path>
                </g>
            </g>
        </g>
    </g>
</svg>