<?xml version="1.0" encoding="UTF-8"?>
<svg width="16px" height="15px" viewBox="0 0 16 15" version="1.1" xmlns="http://www.w3.org/2000/svg" xmlns:xlink="http://www.w3.org/1999/xlink">
    <!-- Generator: Sketch 46 (44423) - http://www.bohemiancoding.com/sketch -->
    <title>Heart Icon</title>
    <desc>Created with Sketch.</desc>
    <defs></defs>
    <g id="Components" stroke="none" stroke-width="1" fill="none" fill-rule="evenodd">
        <g id="SliceIcon" transform="translate(-124.000000, -124.000000)" fill="#000000">
            <g id="Icons" transform="translate(46.000000, 54.000000)">
                <g id="Icons/Heart-Icon" transform="translate(77.000000, 70.000000)">
                    <path d="M11.2798561,13.6605888 C10.8330795,14.067845 10.4802559,14.3710357 10.2703608,14.5461459 C9.53022836,15.1608744 8.45776964,15.1608744 7.71763718,14.5461459 C7.50674263,14.3720364 7.15491854,14.067845 6.70814193,13.6605888 C5.96651274,12.9841633 5.22388406,12.2597076 4.52623288,11.5072342 C3.80461936,10.7412779 3.13858937,9.92468676 2.53322939,9.06369709 C1.62645902,7.91277125 1.0906851,6.51302041 0.996997501,5.05017234 C0.945678934,3.68985443 1.46799325,2.37061017 2.43627786,1.41488552 C4.22867509,-0.338286095 7.04926948,-0.46740274 8.993999,1.11469669 C10.9379686,-0.469709365 13.7602899,-0.340513671 15.5517201,1.41488552 C16.5150392,2.36792592 17.0358929,3.6811473 16.988002,5.03616353 C16.899455,6.50186772 16.3647423,7.90528492 15.4557681,9.05769331 C14.848866,9.92106135 14.1808142,10.7396806 13.4567676,11.5072342 C12.7611154,12.2577063 12.0214853,12.9841633 11.2798561,13.6605888 Z M10.0274823,2.83878124 L8.993999,3.86142454 L7.96051574,2.83878124 C6.81587725,1.71863342 4.98721321,1.71863342 3.84257471,2.83878124 C3.2615679,3.41007432 2.95237347,4.20287049 2.9929995,5.01715157 C2.95401899,8.00002797 8.990001,13.0041759 8.990001,13.0041759 C8.990001,13.0041759 15.0269825,8.0010286 14.9870025,5.01515031 C15.0279598,4.20198904 14.7199085,3.41005452 14.1404258,2.83878124 C13.0012116,1.71608786 11.1706945,1.71608786 10.0274823,2.83878124 Z" id="Heart-Icon"></path>
                </g>
            </g>
        </g>
    </g>
</svg>