<?xml version="1.0" encoding="UTF-8"?>
<svg width="16px" height="12px" viewBox="0 0 16 12" version="1.1" xmlns="http://www.w3.org/2000/svg" xmlns:xlink="http://www.w3.org/1999/xlink">
    <!-- Generator: Sketch 46 (44423) - http://www.bohemiancoding.com/sketch -->
    <title>Menu Icon</title>
    <desc>Created with Sketch.</desc>
    <defs></defs>
    <g id="Components" stroke="none" stroke-width="1" fill="none" fill-rule="evenodd">
        <g id="SliceIcon" transform="translate(-47.000000, -57.000000)" fill-rule="nonzero" fill="#000000">
            <g id="Icons" transform="translate(46.000000, 54.000000)">
                <g id="Icons/Menu-Icon" transform="translate(1.000000, 3.000000)">
                    <path d="M1,12 L15,12 C15.5522847,12 16,11.5522847 16,11 C16,10.4477153 15.5522847,10 15,10 L1,10 C0.44771525,10 0,10.4477153 0,11 C0,11.5522847 0.44771525,12 1,12 L1,12 Z M1,7 L15,7 C15.5522847,7 16,6.55228475 16,6 C16,5.44771525 15.5522847,5 15,5 L1,5 C0.44771525,5 0,5.44771525 0,6 C0,6.55228475 0.44771525,7 1,7 L1,7 Z M1,2 L15,2 C15.5522847,2 16,1.55228475 16,1 C16,0.44771525 15.5522847,0 15,0 L1,0 C0.44771525,0 0,0.44771525 0,1 C0,1.55228475 0.44771525,2 1,2 L1,2 Z" id="Menu-Icon"></path>
                </g>
            </g>
        </g>
    </g>
</svg>