<?xml version="1.0" encoding="UTF-8"?>
<svg width="16px" height="16px" viewBox="0 0 16 16" version="1.1" xmlns="http://www.w3.org/2000/svg" xmlns:xlink="http://www.w3.org/1999/xlink">
    <!-- Generator: Sketch 46 (44423) - http://www.bohemiancoding.com/sketch -->
    <title>Pencil Filled Icon</title>
    <desc>Created with Sketch.</desc>
    <defs></defs>
    <g id="Components" stroke="none" stroke-width="1" fill="none" fill-rule="evenodd">
        <g id="SliceIcon" transform="translate(-46.000000, -158.000000)" fill="#000000">
            <g id="Icons" transform="translate(46.000000, 54.000000)">
                <g id="Icons/Pencil-Filled-Icon" transform="translate(0.000000, 104.000000)">
                    <path d="M15.0911666,5.38239142 L14.653353,5.81933364 L10.2552248,1.42591459 L10.6930385,0.988972372 C11.477617,0.20309186 12.6217369,-0.104401188 13.694419,0.182322897 C14.7671012,0.469046983 15.6053798,1.30642799 15.8934832,2.37903255 C16.1815867,3.45163711 15.8757454,4.59651107 15.0911666,5.38239142 L15.0911666,5.38239142 Z M13.2409541,7.23214682 L10.3231959,10.1487611 L6.38887035,14.082241 C5.89129001,14.5387545 5.29607925,14.8756038 4.648611,15.0671108 L0.804247169,16.0279837 C0.588017766,16.1235485 0.335308134,16.076413 0.168041302,15.9093184 C0.000774469264,15.7422238 -0.0466816403,15.4895027 0.0485687864,15.2730835 L1.01015953,11.4295918 C1.2010535,10.7816975 1.53787169,10.1861924 1.99474049,9.68882197 L5.92906604,5.7553421 L8.84682424,2.83872777 L13.2409541,7.23214682 Z" id="Pencil-Filled-Icon"></path>
                </g>
            </g>
        </g>
    </g>
</svg>