<?xml version="1.0" encoding="UTF-8"?>
<svg width="16px" height="16px" viewBox="0 0 16 16" version="1.1" xmlns="http://www.w3.org/2000/svg" xmlns:xlink="http://www.w3.org/1999/xlink">
    <!-- Generator: Sketch 46 (44423) - http://www.bohemiancoding.com/sketch -->
    <title>Shape</title>
    <desc>Created with Sketch.</desc>
    <defs></defs>
    <g id="Components" stroke="none" stroke-width="1" fill="none" fill-rule="evenodd">
        <g id="SliceIcon" transform="translate(-164.000000, -158.000000)" fill-rule="nonzero" fill="#000000">
            <g id="Icons" transform="translate(46.000000, 54.000000)">
                <g id="Group-2" transform="translate(118.000000, 104.000000)">
                    <g id="Icon/cart_white">
                        <path d="M15.9135491,5.30618182 L14.2161394,10.1192727 C13.9829787,10.7781818 13.3221347,11.2567273 12.6466349,11.2567273 L5.89563418,11.2567273 C5.17350226,11.2567273 4.51798768,10.704 4.3700972,9.96945455 L2.72731371,1.77890909 L0,1.77890909 L0,0 L2.85122195,0 C3.57468622,0 4.2302008,0.552727273 4.37675893,1.28727273 L4.83242151,3.55636364 L14.7384193,3.55636364 C15.1700996,3.55636364 15.5511508,3.75418182 15.7843114,4.09745455 C16.0161398,4.44363636 16.0641043,4.88436364 15.9135491,5.30618182 L15.9135491,5.30618182 Z M5.18815808,5.33236364 L6.01954242,9.48072727 L12.6453026,9.48072727 L14.0855694,5.33236364 L5.18949043,5.33236364 L5.18815808,5.33236364 Z M6.46454622,12.4436364 C7.40784769,12.4436364 8.17661174,13.2421818 8.17661174,14.2210909 C8.17661174,15.2 7.40784769,16 6.46587857,16 C5.52390945,16 4.75381305,15.2029091 4.75381305,14.2225455 C4.75381305,13.2421818 5.52124476,12.4450909 6.46454622,12.4450909 L6.46454622,12.4436364 Z M12.4561094,12.4436364 C13.3994108,12.4436364 14.1668425,13.2421818 14.1668425,14.2210909 C14.1668425,15.2 13.3994108,16 12.4561094,16 C11.5101432,16 10.7440438,15.2029091 10.7440438,14.2225455 C10.7440438,13.2421818 11.5114756,12.4436364 12.4574417,12.4436364 L12.4561094,12.4436364 Z" id="Shape"></path>
                    </g>
                </g>
            </g>
        </g>
    </g>
</svg>