<?xml version="1.0" encoding="UTF-8"?>
<svg width="16px" height="16px" viewBox="0 0 16 16" version="1.1" xmlns="http://www.w3.org/2000/svg" xmlns:xlink="http://www.w3.org/1999/xlink">
    <!-- Generator: Sketch 46 (44423) - http://www.bohemiancoding.com/sketch -->
    <title>Zoom In Icon</title>
    <desc>Created with Sketch.</desc>
    <defs></defs>
    <g id="Components" stroke="none" stroke-width="1" fill="none" fill-rule="evenodd">
        <g id="SliceIcon" transform="translate(-323.000000, -123.000000)" fill-rule="nonzero" fill="#000000">
            <g id="Icons" transform="translate(46.000000, 54.000000)">
                <g id="Icons/Zoom-In-Icon" transform="translate(277.000000, 69.000000)">
                    <path d="M11.2057961,12.6168208 L14.2949876,15.7034836 C14.6854752,16.0988388 15.3166468,16.0988388 15.7071344,15.7034836 C16.0976219,15.3081284 16.0976219,14.6685538 15.7071344,14.2731986 L12.6256862,11.1935002 C13.4971809,10.0254641 14.0131106,8.57653931 14.0131106,7.0071032 C14.0131106,3.13718696 10.876169,0 7.00655532,0 C3.13694167,0 0,3.13718696 0,7.0071032 C0,10.8770194 3.13694167,14.0142064 7.00655532,14.0142064 C8.5817732,14.0142064 10.0355807,13.4943463 11.2057961,12.6168208 L11.2057961,12.6168208 L11.2057961,12.6168208 L11.2057961,12.6168208 Z M7.00655532,12.0121769 C4.24254557,12.0121769 2.00187295,9.77132909 2.00187295,7.0071032 C2.00187295,4.24287732 4.24254557,2.00202949 7.00655532,2.00202949 C9.77056508,2.00202949 12.0112377,4.24287732 12.0112377,7.0071032 C12.0112377,9.77132909 9.77056508,12.0121769 7.00655532,12.0121769 L7.00655532,12.0121769 L7.00655532,12.0121769 L7.00655532,12.0121769 L7.00655532,12.0121769 Z" id="Zoom-In-Icon"></path>
                </g>
            </g>
        </g>
    </g>
</svg>