<?xml version="1.0" encoding="UTF-8"?>
<svg width="16px" height="15px" viewBox="0 0 16 15" version="1.1" xmlns="http://www.w3.org/2000/svg" xmlns:xlink="http://www.w3.org/1999/xlink">
    <!-- Generator: Sketch 46 (44423) - http://www.bohemiancoding.com/sketch -->
    <title>Camera Icon</title>
    <desc>Created with Sketch.</desc>
    <defs></defs>
    <g id="Components" stroke="none" stroke-width="1" fill="none" fill-rule="evenodd">
        <g id="SliceIcon" transform="translate(-203.000000, -124.000000)" fill="#000000">
            <g id="Icons" transform="translate(46.000000, 54.000000)">
                <g id="Icons/Camera-Icon" transform="translate(157.000000, 70.000000)">
                    <path d="M13.993,15 L2.007,15 C1.47535522,15.0018608 0.964847232,14.7919688 0.588259142,14.4166942 C0.211671052,14.0414196 -3.25635423e-06,13.531648 0,13 L0,4 C-1.11483323e-05,2.89893569 0.889946843,2.00495479 1.991,2 L3.586,2 L5.122,0.463 C5.43042261,0.173559979 5.83512202,0.00861646859 6.258,0 L9.742,0 C10.164878,0.00861646859 10.5695774,0.173559979 10.878,0.463 L12.414,2 L14.009,2 C15.1100532,2.00495479 16.0000111,2.89893569 16,4 L16,13.01 C15.9944897,14.1133989 15.0964058,15.0038757 13.993,15 L13.993,15 L13.993,15 Z M14,4 L12.258,4 C11.8341872,3.99597207 11.4278836,3.83037473 11.122,3.537 L9.586,2 L6.414,2 L4.878,3.537 C4.57211641,3.83037473 4.16581278,3.99597207 3.742,4 L2,4 L2,13 L14,13 L14,4 L14,4 L14,4 Z M8,4 C10.209139,4 12,5.790861 12,8 C12,10.209139 10.209139,12 8,12 C5.790861,12 4,10.209139 4,8 C4,5.790861 5.790861,4 8,4 L8,4 L8,4 Z M8,10 C9.1045695,10 10,9.1045695 10,8 C10,6.8954305 9.1045695,6 8,6 C6.8954305,6 6,6.8954305 6,8 C6,9.1045695 6.8954305,10 8,10 L8,10 L8,10 Z" id="Camera-Icon"></path>
                </g>
            </g>
        </g>
    </g>
</svg>