<?xml version="1.0" encoding="UTF-8"?>
<svg width="16px" height="16px" viewBox="0 0 16 16" version="1.1" xmlns="http://www.w3.org/2000/svg" xmlns:xlink="http://www.w3.org/1999/xlink">
    <!-- Generator: Sketch 46 (44423) - http://www.bohemiancoding.com/sketch -->
    <title>Close Circle Icon</title>
    <desc>Created with Sketch.</desc>
    <defs></defs>
    <g id="Components" stroke="none" stroke-width="1" fill="none" fill-rule="evenodd">
        <g id="SliceIcon" transform="translate(-280.000000, -90.000000)" fill="#000000">
            <g id="Icons" transform="translate(46.000000, 54.000000)">
                <g id="Icons/Close-Circle-Icon" transform="translate(234.000000, 36.000000)">
                    <path d="M8,16 C3.581722,16 0,12.418278 0,8 C0,3.581722 3.581722,0 8,0 C12.418278,0 16,3.581722 16,8 C16,12.418278 12.418278,16 8,16 L8,16 Z M8,2 C4.6862915,2 2,4.6862915 2,8 C2,11.3137085 4.6862915,14 8,14 C11.3137085,14 14,11.3137085 14,8 C14,4.6862915 11.3137085,2 8,2 L8,2 Z M10.8285,11.8282867 C10.5630908,11.8282867 10.3085683,11.722777 10.121,11.535 L8,9.414 L5.879,11.535 C5.48853468,11.9257415 4.85524146,11.9259653 4.4645,11.5355 C4.07375854,11.1450347 4.07353468,10.5117415 4.464,10.121 L6.586,8 L4.464,5.879 C4.21141323,5.6262346 4.11286216,5.25791629 4.20547004,4.91278703 C4.29807792,4.56765776 4.56777539,4.29815089 4.91297004,4.20578703 C5.25816469,4.11342317 5.62641323,4.2122346 5.879,4.465 L8,6.586 L10.121,4.465 C10.3735868,4.21223456 10.7418353,4.11342311 11.08703,4.20578697 C11.4322247,4.29815082 11.7019221,4.56765771 11.79453,4.912787 C11.8871379,5.25791628 11.7885868,5.6262346 11.536,5.879 L9.414,8 L11.536,10.121 C11.723777,10.3085683 11.8292867,10.5630908 11.8292867,10.8285 C11.8292867,11.0939092 11.723777,11.3484317 11.536,11.536 C11.3484317,11.722777 11.0939092,11.8282867 10.8285,11.8282867 Z" id="Close-Circle-Icon"></path>
                </g>
            </g>
        </g>
    </g>
</svg>