<?xml version="1.0" encoding="UTF-8"?>
<svg width="32px" height="31px" viewBox="0 0 32 31" version="1.1" xmlns="http://www.w3.org/2000/svg" xmlns:xlink="http://www.w3.org/1999/xlink">
    <!-- Generator: Sketch 46.2 (44496) - http://www.bohemiancoding.com/sketch -->
    <title>Combined Shape</title>
    <desc>Created with Sketch.</desc>
    <defs></defs>
    <g id="Icon/Font" stroke="none" stroke-width="1" fill="none" fill-rule="evenodd">
        <g id="SliceIcon" transform="translate(-319.000000, -144.000000)" fill-rule="nonzero" fill="#000000">
            <g id="Icons" transform="translate(103.000000, 44.000000)">
                <path d="M231.148513,100.475625 C231.539054,99.8414585 232.460946,99.8414585 232.851487,100.475625 L240.000587,112.084421 L246.379172,107.033057 C247.034716,106.513915 248,106.980795 248,107.817004 L248,129.916288 C248,130.468572 247.552285,130.916288 247,130.916288 L217,130.916288 C216.447715,130.916288 216,130.468572 216,129.916288 L216,107.817004 C216,106.980795 216.965284,106.513915 217.620828,107.033057 L223.999413,112.084421 L231.148513,100.475625 Z M225.112284,114.091389 C224.798248,114.601325 224.109457,114.72276 223.639969,114.350961 L218,109.884525 L218,128.916288 L246,128.916288 L246,109.884525 L240.360031,114.350961 C239.890543,114.72276 239.201752,114.601325 238.887716,114.091389 L232,102.907031 L225.112284,114.091389 Z" id="Combined-Shape"></path>
            </g>
        </g>
    </g>
</svg>