<?xml version="1.0" encoding="UTF-8"?>
<svg width="9px" height="16px" viewBox="0 0 9 16" version="1.1" xmlns="http://www.w3.org/2000/svg" xmlns:xlink="http://www.w3.org/1999/xlink">
    <!-- Generator: Sketch 46 (44423) - http://www.bohemiancoding.com/sketch -->
    <title>Facebook Icon</title>
    <desc>Created with Sketch.</desc>
    <defs></defs>
    <g id="Components" stroke="none" stroke-width="1" fill="none" fill-rule="evenodd">
        <g id="SliceIcon" transform="translate(-282.000000, -123.000000)" fill="#000000">
            <g id="Icons" transform="translate(46.000000, 54.000000)">
                <g id="Icons/Facebook-Icon" transform="translate(236.000000, 69.000000)">
                    <path d="M2.6676666,16 L2.6676666,8.68304873 L-5.68434189e-14,8.68304873 L-5.68434189e-14,5.88421491 L2.66830941,5.88421491 L2.66830941,3.77176177 C2.66830941,1.3394419 4.25605314,5.68434189e-14 6.60552818,5.68434189e-14 C7.73044783,5.68434189e-14 8.71780587,0.0733027905 9,0.106622241 L9,2.68554769 L7.32869081,2.68554769 C6.05078209,2.68554769 5.81165631,3.24531445 5.81165631,4.07163682 L5.81165631,5.88421491 L8.86950932,5.88421491 L8.47225198,8.68304873 L5.81165631,8.68304873 L5.81165631,16 L2.66188129,16 L2.6676666,16 Z" id="Facebook-Icon"></path>
                </g>
            </g>
        </g>
    </g>
</svg>