<?xml version="1.0" encoding="UTF-8"?>
<svg width="16px" height="16px" viewBox="0 0 16 16" version="1.1" xmlns="http://www.w3.org/2000/svg" xmlns:xlink="http://www.w3.org/1999/xlink">
    <!-- Generator: Sketch 46 (44423) - http://www.bohemiancoding.com/sketch -->
    <title>Pencil Icon</title>
    <desc>Created with Sketch.</desc>
    <defs></defs>
    <g id="Components" stroke="none" stroke-width="1" fill="none" fill-rule="evenodd">
        <g id="SliceIcon" transform="translate(-362.000000, -123.000000)" fill="#000000">
            <g id="Icons" transform="translate(46.000000, 54.000000)">
                <g id="Icons/Pencil-Icon" transform="translate(316.000000, 69.000000)">
                    <path d="M15.0148874,5.35598224 L6.3565774,14.0121666 C5.86151211,14.4664411 5.26930989,14.8016382 4.6251143,14.9922059 L1.98366343,15.6528618 L1.98366343,15.6528618 L0.800182051,15.9513509 C0.585045593,16.0464469 0.333613298,15.9995427 0.167191926,15.8332676 C0.00077055466,15.6669926 -0.046445685,15.415511 0.0483232924,15.2001533 L0.346679942,14.0171414 L0.346679942,14.0171414 L1.00704266,11.3755128 C1.19697175,10.7307962 1.53208747,10.1382119 1.986647,9.64328092 L10.644957,0.987096527 C11.4149474,0.158346995 12.5758815,-0.183515133 13.6718637,0.0957585069 C14.7678459,0.375032147 15.6238641,1.23084574 15.9037623,2.32712352 C16.1836605,3.42340131 15.842743,4.58508415 15.0148874,5.35598224 L15.0148874,5.35598224 L15.0148874,5.35598224 Z M3.3909123,11.0471747 C3.1906886,11.2864809 3.03566943,11.5602449 2.9334321,11.8550853 L2.5296561,13.4689164 L4.14277105,13.0649612 C4.43709968,12.9616304 4.71083381,12.8070182 4.95131758,12.6082728 L11.7737396,5.78580656 L11.7389314,5.75098283 L10.2471481,4.25853725 L10.2113453,4.22271855 L3.3909123,11.0471747 L3.3909123,11.0471747 Z M13.6096276,2.39099034 C13.1778162,1.96118535 12.4800391,1.96118535 12.0482278,2.39099034 L11.6185942,2.82180963 L11.6534025,2.85663336 L13.1451857,4.34907895 L13.179994,4.38390268 L13.6106221,3.95407835 C14.0419444,3.5214557 14.0414994,2.82107406 13.6096276,2.38900041 L13.6096276,2.39099034 L13.6096276,2.39099034 Z" id="Pencil-Icon"></path>
                </g>
            </g>
        </g>
    </g>
</svg>