<?xml version="1.0" encoding="UTF-8"?><svg id="_レイヤー_2" xmlns="http://www.w3.org/2000/svg" viewBox="0 0 591.02334 591.02334"><defs><style>.cls-1{fill:#040000;}</style></defs><path class="cls-1" d="m483.47261,194.0229H107.55073c-23.74805,0-43-19.25195-43-43s19.25195-43,43-43h375.92188c23.74805,0,43,19.25195,43,43s-19.25195,43-43,43Z"/><path class="cls-1" d="m483.47261,338.51118H107.55073c-23.74805,0-43-19.25195-43-43s19.25195-43,43-43h375.92188c23.74805,0,43,19.25195,43,43s-19.25195,43-43,43Z"/><path class="cls-1" d="m483.47261,483.00044H107.55073c-23.74805,0-43-19.25195-43-43s19.25195-43,43-43h375.92188c23.74805,0,43,19.25195,43,43s-19.25195,43-43,43Z"/></svg>