<?xml version="1.0" encoding="UTF-8"?><svg id="_レイヤー_2" xmlns="http://www.w3.org/2000/svg" viewBox="0 0 591.02334 591.02334"><defs><style>.cls-1{fill:#040000;}.cls-2{fill:#231815;}</style></defs><path class="cls-1" d="m295.51167,16.52679C140.32187,16.52679,14.51558,142.33309,14.51558,297.52288s125.8063,280.99609,280.99609,280.99609,280.99609-125.8063,280.99609-280.99609S450.7016,16.52679,295.51167,16.52679Zm0,497.97974c-119.8367,0-216.9835-97.1468-216.9835-216.98364s97.1468-216.98378,216.9835-216.98378,216.98378,97.14694,216.98378,216.98378-97.14694,216.98364-216.98378,216.98364Z"/><path class="cls-2" d="m205.36355,138.93889v317.16751h55.17754v-133.24261h53.54248c76.02292,0,116.48644-34.74136,116.48644-93.18865s-35.14916-90.73624-113.21633-90.73624h-111.99014Zm55.17754,41.28085h53.95135c42.09853,0,60.49081,18.39264,60.49081,49.86425,0,32.28897-20.43616,51.49894-62.53439,51.49894h-51.90777v-101.36319Z"/></svg>