<?xml version="1.0" encoding="utf-8"?>
<!-- Generator: Adobe Illustrator 21.0.2, SVG Export Plug-In . SVG Version: 6.00 Build 0)  -->
<svg version="1.1" id="レイヤー_2" xmlns="http://www.w3.org/2000/svg" xmlns:xlink="http://www.w3.org/1999/xlink" x="0px"
	 y="0px" viewBox="0 0 1000 1000" style="enable-background:new 0 0 1000 1000;" xml:space="preserve">
<style type="text/css">
	.st0{fill:#040000;}
	.st1{fill:#070001;}
</style>
<g id="Components_10_">
	<g id="SliceIcon_10_" transform="translate(-280.000000, -90.000000)">
		<g id="Icons_10_" transform="translate(46.000000, 54.000000)">
			<g id="Icons_x2F_Close-Circle-Icon" transform="translate(234.000000, 36.000000)">
				<path id="Close-Circle-Icon" class="st0" d="M511.3,894.2c-215.2,0-389.7-174.5-389.7-389.7s174.5-389.7,389.7-389.7
					s389.7,174.5,389.7,389.7S726.5,894.2,511.3,894.2L511.3,894.2z M511.3,212.3C349.9,212.3,219,343.1,219,504.5
					s130.8,292.2,292.2,292.2s292.2-130.8,292.2-292.2S672.7,212.3,511.3,212.3L511.3,212.3z M649,691c-12.9,0-25.3-5.1-34.5-14.3
					L511.3,573.4L408,676.7c-19,19-49.9,19-68.9,0c-19-19-19-49.9,0-68.9l103.4-103.3L339,401.2c-12.3-12.3-17.1-30.3-12.6-47.1
					s17.6-29.9,34.5-34.4c16.8-4.5,34.7,0.3,47.1,12.6l103.3,103.3l103.3-103.3c12.3-12.3,30.2-17.1,47.1-12.6
					c16.8,4.5,29.9,17.6,34.5,34.4s-0.3,34.7-12.6,47.1L580.1,504.5l103.4,103.3c9.1,9.1,14.3,21.5,14.3,34.5
					c0,12.9-5.1,25.3-14.3,34.5C674.4,685.8,662,691,649,691z"/>
			</g>
		</g>
	</g>
</g>
</svg>
