<?xml version="1.0" encoding="utf-8"?>
<!-- Generator: Adobe Illustrator 21.0.2, SVG Export Plug-In . SVG Version: 6.00 Build 0)  -->
<svg version="1.1" id="レイヤー_2" xmlns="http://www.w3.org/2000/svg" xmlns:xlink="http://www.w3.org/1999/xlink" x="0px"
	 y="0px" viewBox="0 0 1000 1000" style="enable-background:new 0 0 1000 1000;" xml:space="preserve">
<style type="text/css">
	.st0{fill:#040000;}
	.st1{fill:#070001;}
</style>
<g id="Components_11_">
	<g id="SliceIcon_11_" transform="translate(-124.000000, -158.000000)">
		<g id="Icons_11_" transform="translate(46.000000, 54.000000)">
			<g id="Group-3" transform="translate(78.000000, 104.000000)">
				<g id="Icons_x2F_Close-Icon">
					<path id="Close-Icon" class="st0" d="M433,521.3L126.5,214.8c-19-19-19-49.9,0-68.9s49.9-19,68.9,0l306.5,306.5l306.5-306.5
						c19-19,49.9-19,68.9,0c19,19,19,49.9,0,68.9L570.8,521.3l306.5,306.5c19,19,19,49.9,0,68.9c-19,19-49.9,19-68.9,0L501.9,590.2
						L195.4,896.7c-19,19-49.9,19-68.9,0c-19-19-19-49.9,0-68.9L433,521.3L433,521.3z"/>
				</g>
			</g>
		</g>
	</g>
</g>
</svg>
