<?xml version="1.0" encoding="utf-8"?>
<!-- Generator: Adobe Illustrator 21.0.2, SVG Export Plug-In . SVG Version: 6.00 Build 0)  -->
<svg version="1.1" id="レイヤー_2" xmlns="http://www.w3.org/2000/svg" xmlns:xlink="http://www.w3.org/1999/xlink" x="0px"
	 y="0px" viewBox="0 0 1000 1000" style="enable-background:new 0 0 1000 1000;" xml:space="preserve">
<style type="text/css">
	.st0{fill:#040000;}
	.st1{fill:#070001;}
</style>
<g id="Icon_x2F_Font_2_">
	<g id="SliceIcon_9_" transform="translate(-319.000000, -250.000000)">
		<g id="Icons_19_" transform="translate(103.000000, 44.000000)">
			<path id="Icons_x2F_Sad" class="st0" d="M716,1123.7c-230.8,0-417.8-187-417.8-417.7c0-230.7,187.1-417.7,417.8-417.7
				s417.8,187,417.8,417.7C1133.8,936.7,946.8,1123.7,716,1123.7z M713.6,1059.6c193.8,0,350.9-158.3,350.9-353.5
				S907.4,352.6,713.6,352.6c-193.8,0-350.9,158.3-350.9,353.5S519.8,1059.6,713.6,1059.6z M911.2,869.3
				c5.9,18.1-4.3,36.8-21.9,42.6c-18.1,5.9-37.3-4.3-43.2-22.4c-17.6-57-70.3-95.4-130-95.4s-112.4,38.4-130,95.4
				c-5.9,18.1-25,28.2-42.6,22.4c-18.1-5.9-28.2-24.5-22.4-42.6c26.6-85.8,105-143.3,195.1-143.3S884.6,783.5,911.2,869.3z
				 M884.4,661.4c-58.6,0-107.5-50.1-107.5-109.5c0-21.9,17.8-39.7,39.7-39.7c21.9,0,39.7,17.8,39.7,39.7c0,16.3,13.2,30.1,28,30.1
				c21.9,0,39.7,17.8,39.7,39.7C924.1,643.7,906.4,661.4,884.4,661.4z M651.6,552.9c0,58.6-50.1,107.5-109.5,107.5
				c-21.9,0-39.7-17.8-39.7-39.7c0-21.9,17.8-39.7,39.7-39.7c16.3,0,30.1-13.2,30.1-28c0-21.9,17.8-39.7,39.7-39.7
				S651.6,531,651.6,552.9z"/>
		</g>
	</g>
</g>
</svg>
