<?xml version="1.0" encoding="utf-8"?>
<!-- Generator: Adobe Illustrator 21.0.2, SVG Export Plug-In . SVG Version: 6.00 Build 0)  -->
<svg version="1.1" id="レイヤー_2" xmlns="http://www.w3.org/2000/svg" xmlns:xlink="http://www.w3.org/1999/xlink" x="0px"
	 y="0px" viewBox="0 0 1000 1000" style="enable-background:new 0 0 1000 1000;" xml:space="preserve">
<style type="text/css">
	.st0{fill:#040000;}
	.st1{fill:#070001;}
</style>
<g id="Icon_x2F_Font_1_">
	<g id="SliceIcon_6_" transform="translate(-319.000000, -196.000000)">
		<g id="Icons_9_" transform="translate(103.000000, 44.000000)">
			<path id="Icons_x2F_Nomal" class="st0" d="M637.7,508.4c0,36.2-29.1,65.3-65.3,65.3s-65.3-29.1-65.3-65.3s29.1-65.3,65.3-65.3
				S637.7,472.2,637.7,508.4z M924.9,508.4c0,36.2-29.1,65.3-65.3,65.3s-65.3-29.1-65.3-65.3s29.1-65.3,65.3-65.3
				S924.9,472.2,924.9,508.4z M1068.5,652c0-194.4-158.1-352.5-352.5-352.5S363.5,457.6,363.5,652s158.1,352.5,352.5,352.5
				S1068.5,846.4,1068.5,652z M1133.8,652c0,230.7-187.1,417.8-417.8,417.8S298.2,882.7,298.2,652S485.3,234.2,716,234.2
				S1133.8,421.3,1133.8,652z M507.1,782.5v26.2c0,14.5,11.8,26.1,26.3,26.1h339.1c14.6,0,26.3-11.7,26.3-26.1v-26.2
				c0-14.5-11.8-26.1-26.3-26.1H533.4C518.8,756.5,507.1,768.1,507.1,782.5z"/>
		</g>
	</g>
</g>
</svg>
