<?xml version="1.0" encoding="utf-8"?>
<!-- Generator: Adobe Illustrator 21.0.2, SVG Export Plug-In . SVG Version: 6.00 Build 0)  -->
<svg version="1.1" id="レイヤー_2" xmlns="http://www.w3.org/2000/svg" xmlns:xlink="http://www.w3.org/1999/xlink" x="0px"
	 y="0px" viewBox="0 0 1000 1000" style="enable-background:new 0 0 1000 1000;" xml:space="preserve">
<style type="text/css">
	.st0{fill:#040000;}
	.st1{fill:#070001;}
</style>
<path class="st0" d="M850.7,424.3H505v137.4v0.4h203.5c-9.6,58-61.7,155.9-203.1,155.9c-122.2,0-222-101.6-222-226s99.7-226,222-226
	c69.1,0,115.6,29.5,142.2,54.7l104.9-101.9c-63.9-59.8-147.4-96.4-247.1-96.4c-203.9,0-369.3,165.5-369.3,369.3
	s165.5,369.3,369.3,369.3c213.1,0,354.5-149.9,354.5-360.8C859.9,469.4,855.9,447.6,850.7,424.3z"/>
</svg>
