<?xml version="1.0" encoding="utf-8"?>
<!-- Generator: Adobe Illustrator 21.0.2, SVG Export Plug-In . SVG Version: 6.00 Build 0)  -->
<svg version="1.1" id="レイヤー_2" xmlns="http://www.w3.org/2000/svg" xmlns:xlink="http://www.w3.org/1999/xlink" x="0px"
	 y="0px" viewBox="0 0 1000 1000" style="enable-background:new 0 0 1000 1000;" xml:space="preserve">
<style type="text/css">
	.st0{fill:#040000;}
	.st1{fill:#070001;}
</style>
<g id="Components_14_">
	<g id="SliceIcon_14_" transform="translate(-163.000000, -124.000000)">
		<g id="Icons_14_" transform="translate(46.000000, 54.000000)">
			<g id="Icons_x2F_Heart-Filled-Icon" transform="translate(116.000000, 70.000000)">
				<path id="Heart-Filled-Icon" class="st0" d="M708.7,709c-34.1,36.6-70.1,72-106.2,104.9c-21.8,19.8-38.9,34.6-49.2,43.1
					c-36,29.9-88.3,29.9-124.3,0c-10.3-8.5-27.4-23.3-49.2-43.1c-36.1-32.9-72.3-68.2-106.3-104.9c-35.1-37.3-67.6-77.1-97.1-119
					c-44.2-56.1-70.3-124.2-74.8-195.5c-2.5-66.3,22.9-130.5,70.1-177.1c87.3-85.4,224.7-91.7,319.4-14.6
					c94.7-77.2,232.2-70.9,319.4,14.6c46.9,46.4,72.3,110.4,70,176.4c-4.3,71.4-30.4,139.7-74.6,195.9
					c-29.6,42.1-62.1,81.9-97.4,119.3L708.7,709z"/>
			</g>
		</g>
	</g>
</g>
</svg>
