<?xml version="1.0" encoding="utf-8"?>
<!-- Generator: Adobe Illustrator 21.0.2, SVG Export Plug-In . SVG Version: 6.00 Build 0)  -->
<svg version="1.1" id="レイヤー_2" xmlns="http://www.w3.org/2000/svg" xmlns:xlink="http://www.w3.org/1999/xlink" x="0px"
	 y="0px" viewBox="0 0 1000 1000" style="enable-background:new 0 0 1000 1000;" xml:space="preserve">
<style type="text/css">
	.st0{fill:#040000;}
	.st1{fill:#070001;}
</style>
<g id="Components_15_">
	<g id="SliceIcon_15_" transform="translate(-124.000000, -124.000000)">
		<g id="Icons_15_" transform="translate(46.000000, 54.000000)">
			<g id="Icons_x2F_Heart-Icon" transform="translate(77.000000, 70.000000)">
				<path id="Heart-Icon" class="st0" d="M631.5,813.9c-21.8,19.8-38.9,34.6-49.2,43.1c-36,29.9-88.3,29.9-124.3,0
					c-10.3-8.5-27.4-23.3-49.2-43.1c-36.1-32.9-72.3-68.2-106.3-104.9c-35.1-37.3-67.6-77.1-97.1-119
					c-44.2-56.1-70.3-124.2-74.8-195.5c-2.5-66.3,22.9-130.5,70.1-177.1c87.3-85.4,224.7-91.7,319.4-14.6
					c94.7-77.2,232.2-70.9,319.4,14.6c46.9,46.4,72.3,110.4,70,176.4c-4.3,71.4-30.4,139.7-74.6,195.9
					c-29.6,42.1-62.1,81.9-97.4,119.3C703.6,745.6,667.6,781,631.5,813.9z M570.5,286.9l-50.3,49.8l-50.3-49.8
					c-55.8-54.6-144.8-54.6-200.6,0c-28.3,27.8-43.4,66.4-41.4,106.1c-1.9,145.3,292.1,389,292.1,389S814,538.3,812,392.9
					c2-39.6-13-78.2-41.2-106C715.3,232.2,626.2,232.2,570.5,286.9z"/>
			</g>
		</g>
	</g>
</g>
</svg>
