<?xml version="1.0" encoding="utf-8"?>
<!-- Generator: Adobe Illustrator 21.0.2, SVG Export Plug-In . SVG Version: 6.00 Build 0)  -->
<svg version="1.1" id="レイヤー_2" xmlns="http://www.w3.org/2000/svg" xmlns:xlink="http://www.w3.org/1999/xlink" x="0px"
	 y="0px" viewBox="0 0 1000 1000" style="enable-background:new 0 0 1000 1000;" xml:space="preserve">
<style type="text/css">
	.st0{fill:#040000;}
	.st1{fill:#070001;}
</style>
<g id="Components_27_">
	<g id="SliceIcon_27_" transform="translate(-49.000000, -90.000000)">
		<g id="Icons_27_" transform="translate(46.000000, 54.000000)">
			<g id="Icons_x2F_Ribbon-Icon" transform="translate(2.000000, 36.000000)">
				<path id="Ribbon-Icon" class="st0" d="M706.1,221.8l0.8,566.5L536.4,686.8c-15.4-9.2-34.5-9.2-49.9,0L316.7,789.1V221.8h389.7
					H706.1L706.1,221.8z M219,824.8c-2.2,28.4,12.2,55.4,36.9,69.5s55.3,12.5,78.6-3.9l176.8-105l176.6,105
					c23.2,16.5,53.9,18,78.7,4s39.2-41.1,37-69.5V222.1c0-53.8-43.6-97.4-97.4-97.4H316.4c-53.8,0-97.4,43.6-97.4,97.4V824.8
					L219,824.8L219,824.8z"/>
			</g>
		</g>
	</g>
</g>
</svg>
