<svg id="レイヤー_2" data-name="レイヤー 2" xmlns="http://www.w3.org/2000/svg" viewBox="0 0 591.02 591.02"><defs><style>.cls-1{fill:#040000;}</style></defs><path id="_" data-name="" class="cls-1" d="M301.59,160.1c22.7,0,51.16-15.35,68.1-35.81,15.35-18.55,26.54-44.45,26.54-70.35a47.4,47.4,0,0,0-1-9.91C370,45,339.64,61,321.41,82.4c-14.39,16.31-27.5,41.89-27.5,68.11a43.9,43.9,0,0,0,1,9A36.77,36.77,0,0,0,301.59,160.1ZM221.65,547c31,0,44.76-20.78,83.45-20.78,39.33,0,48,20.14,82.5,20.14,33.89,0,56.59-31.33,78-62A281.82,281.82,0,0,0,500.15,413c-2.24-.64-67.15-27.18-67.15-101.68,0-64.59,51.16-93.69,54-95.92-33.89-48.61-85.37-49.88-99.44-49.88-38.05,0-69.07,23-88.57,23-21.1,0-48.92-21.75-81.86-21.75-62.67,0-126.3,51.8-126.3,149.64,0,60.76,23.67,125,52.76,166.59C168.57,518.21,190.32,547,221.65,547Z"/></svg>