<?xml version="1.0" encoding="UTF-8"?><svg id="_イヤー_2" xmlns="http://www.w3.org/2000/svg" viewBox="0 0 591.02334 591.02334"><defs><style>.cls-1{fill:#040000;}</style></defs><path id="_" class="cls-1" d="M301.58683,160.0995c22.70193,0,51.15927-15.34777,68.10574-35.81148,15.34779-18.54523,26.53885-44.44459,26.53885-70.34396,0-3.51722-.31971-7.03441-.95922-9.91211-25.25988,.95924-55.63571,16.9465-73.86115,38.36945-14.38857,16.30701-27.49812,41.88662-27.49812,68.10574,0,3.83695,.63949,7.6739,.95924,8.95287,1.59873,.31976,4.15668,.63949,6.71465,.63949Zm-79.93634,386.8919c31.01529,0,44.76435-20.78344,83.45353-20.78344,39.32867,0,47.96179,20.14393,82.49429,20.14393,33.89299,0,56.59492-31.33504,78.01788-62.03058,23.98091-35.17197,33.89299-69.70447,34.53251-71.3032-2.23824-.63951-67.14652-27.17837-67.14652-101.67903,0-64.58858,51.15922-93.68538,54.03698-95.92362-33.89304-48.6013-85.37202-49.88027-99.44084-49.88027-38.04967,0-69.06501,23.02166-88.56946,23.02166-21.1032,0-48.92103-21.74269-81.8548-21.74269-62.67009,0-126.29942,51.79876-126.29942,149.64082,0,60.75165,23.66115,125.02047,52.75798,166.58736,24.94015,35.17197,46.68284,63.94906,78.01788,63.94906Z"/></svg>