<?xml version="1.0" encoding="UTF-8"?><svg id="_イヤー_2" xmlns="http://www.w3.org/2000/svg" viewBox="0 0 591.02334 591.02334"><defs><style>.cls-1{fill:#040000;}</style></defs><path class="cls-1" d="M548.68882,275.60807l-75.13525-75.13574c-10.99561-10.99512-28.823-10.99512-39.8186,0-10.99561,10.99609-10.99561,28.82324,0,39.81885l25.93628,25.93604-137.11609,.00049,.00159-19.30273-.00781-.00879-.00952-117.55518,28.19275,28.19287c10.99548,10.99561,28.823,10.99561,39.81848,0h.00012c10.99573-10.99561,10.99548-28.82324-.00012-39.81885l-72.94824-72.94824c-.67163-.84766-1.39258-1.66895-2.17603-2.45215-10.99561-10.99561-28.823-10.99561-39.8186,0l-75.13525,75.13525c-10.99548,10.99561-10.99561,28.82275,0,39.81836h0c10.99561,10.99561,28.82312,10.99561,39.8186,0l25.93628-25.93604,.00012,134.87549-134.87549-.00049,25.93628-25.93604c10.99548-10.99561,10.99573-28.82275,.00012-39.81885h-.00012c-10.99548-10.99512-28.823-10.99512-39.81848,0l-75.13525,75.13574c-10.99561,10.99512-10.99573,28.82275-.00012,39.81836,.78333,.7832,1.60486,1.50439,2.45251,2.17578l72.94824,72.94824c10.99561,10.99561,28.823,10.99609,39.8186,.00049v-.00049c10.99561-10.99512,10.99548-28.82275,0-39.81836l-28.19275-28.19238,117.5553,.00928,.00879,.00781,19.30237-.00146-.00012,137.11621-25.93628-25.93652c-10.99548-10.99561-28.823-10.99561-39.8186,0s-10.99548,28.82324,0,39.81836l75.13525,75.13525c10.99561,10.99561,28.823,10.99561,39.8186,.00049v-.00049c.78345-.7832,1.50439-1.60449,2.17603-2.45215l72.94824-72.94824c10.99561-10.99561,10.99585-28.82324,.00012-39.81885h-.00012c-10.99548-10.99561-28.823-10.99561-39.81848,0l-28.19275,28.19287,.00952-117.55518,.00781-.00879-.00171-21.54346,21.54321,.00195,.00879-.00781,117.55518-.00928-28.19263,28.19238c-10.99561,10.99561-10.99561,28.82324-.00012,39.81836l.00012,.00049c10.99561,10.99561,28.823,10.99512,39.81848-.00049l72.94836-72.94824c.84766-.67139,1.66919-1.39258,2.45239-2.17578h0c10.99561-10.99561,10.99561-28.82324,0-39.81836Z"/></svg>