<svg id="レイヤー_2" data-name="レイヤー 2" xmlns="http://www.w3.org/2000/svg" viewBox="0 0 591.02 591.02"><defs><style>.cls-1{fill:#040000;}</style></defs><path class="cls-1" d="M548.69,275.61l-75.14-75.14a28.16,28.16,0,1,0-39.82,39.82l25.94,25.94H322.56V246.92h0V129.36l28.19,28.19a28.15,28.15,0,0,0,39.82,0h0a28.14,28.14,0,0,0,0-39.81L317.6,44.79a29.38,29.38,0,0,0-2.17-2.46,28.17,28.17,0,0,0-39.82,0l-75.14,75.14a28.17,28.17,0,0,0,0,39.82h0a28.17,28.17,0,0,0,39.82,0l25.94-25.94V266.23H131.35l25.94-25.94a28.17,28.17,0,0,0,0-39.82h0a28.17,28.17,0,0,0-39.82,0L42.33,275.61a28.17,28.17,0,0,0,0,39.82,29.38,29.38,0,0,0,2.46,2.17l72.95,72.95a28.14,28.14,0,0,0,39.81,0h0a28.15,28.15,0,0,0,0-39.82l-28.19-28.19H266.23V459.67l-25.94-25.93a28.15,28.15,0,1,0-39.82,39.81l75.14,75.14a28.17,28.17,0,0,0,39.82,0h0a29.26,29.26,0,0,0,2.17-2.45l72.95-72.95a28.15,28.15,0,0,0,0-39.82h0a28.15,28.15,0,0,0-39.82,0l-28.19,28.19V344.11h0V322.55h139.1l-28.19,28.19a28.15,28.15,0,0,0,0,39.82h0a28.15,28.15,0,0,0,39.82,0l72.95-72.95a29.26,29.26,0,0,0,2.45-2.17h0A28.17,28.17,0,0,0,548.69,275.61Z"/></svg>