<svg id="レイヤー_2" data-name="レイヤー 2" xmlns="http://www.w3.org/2000/svg" viewBox="0 0 591.02 591.02"><defs><style>.cls-1{fill:#040000;}</style></defs><circle class="cls-1" cx="269.77" cy="183.6" r="103.31"/><path class="cls-1" d="M283.87,448.49A118.34,118.34,0,0,1,401.94,330.16a65.79,65.79,0,0,0-50-22.91H188.19a66,66,0,0,0-66,66v77.94A28.8,28.8,0,0,0,151,480h137.1A118.49,118.49,0,0,1,283.87,448.49Z"/><path class="cls-1" d="M401.64,350.4a94.72,94.72,0,1,0,94.72,94.71A94.71,94.71,0,0,0,401.64,350.4Zm-9.07,158.45a7.3,7.3,0,0,1-10.34,0l-.5-.5a3.3,3.3,0,0,1-.35-.28l-53.19-53.19a8.43,8.43,0,0,1,0-11.92l16.23-16.23a8.41,8.41,0,0,1,11.92,0l31,31,59.56-59.56a7.32,7.32,0,0,1,10.35,0L475.09,416a7.32,7.32,0,0,1,0,10.35Z"/></svg>