<?xml version="1.0" encoding="UTF-8"?><svg id="_イヤー_2" xmlns="http://www.w3.org/2000/svg" viewBox="0 0 591.02334 591.02334"><defs><style>.cls-1{fill:#040000;}</style></defs><circle class="cls-1" cx="269.77421" cy="183.59845" r="103.31475"/><path class="cls-1" d="M283.87051,448.49258c0-65.26447,52.83472-118.18597,118.06494-118.33319-12.09668-14.02472-29.98157-22.91437-49.95764-22.91437H188.19155c-36.44257,0-65.98553,29.54279-65.98553,65.98572v77.94189c0,15.90839,12.89636,28.80481,28.80511,28.80481h137.10205c-2.76074-10.02588-4.24268-20.58167-4.24268-31.48486Z"/><path class="cls-1" d="M401.64424,350.39536c-52.31178,0-94.71879,42.40701-94.71879,94.71849s42.40701,94.71819,94.71879,94.71819,94.71759-42.40671,94.71759-94.71819-42.40641-94.71849-94.71759-94.71849Zm-9.07031,158.45931c-2.85726,2.85756-7.49045,2.85756-10.3483,0l-.50032-.50062c-.11298-.10162-.24089-.17664-.34969-.28543l-53.18749-53.18779c-3.29183-3.29153-3.29183-8.62827,0-11.9201l16.23438-16.23468c3.29183-3.29153,8.62917-3.29153,11.9204,0l31.02519,31.02519,59.56611-59.56611c2.85786-2.85756,7.49045-2.85756,10.3483,0l17.80647,17.80647c2.85726,2.85756,2.85726,7.49045,0,10.3483l-82.51506,82.51476Z"/></svg>