<?xml version="1.0" encoding="utf-8"?>
<!-- Generator: Adobe Illustrator 21.0.2, SVG Export Plug-In . SVG Version: 6.00 Build 0)  -->
<svg version="1.1" id="レイヤー_2" xmlns="http://www.w3.org/2000/svg" xmlns:xlink="http://www.w3.org/1999/xlink" x="0px"
	 y="0px" viewBox="0 0 1000 1000" style="enable-background:new 0 0 1000 1000;" xml:space="preserve">
<style type="text/css">
	.st0{fill:#040000;}
	.st1{fill:#070001;}
</style>
<g id="Components_8_">
	<g id="SliceIcon_8_" transform="translate(-165.000000, -55.000000)">
		<g id="Icons_8_" transform="translate(46.000000, 54.000000)">
			<g id="Icons_x2F_Cart-Icon" transform="translate(118.000000, 1.000000)">
				<path id="Cart-Icon" class="st0" d="M892.3,426.6l-78.9,391.9c-10.5,49.6-53.7,85.4-104.3,86.5H300.8
					c-50.6-1.1-93.9-36.9-104.3-86.5l-78.9-391.9c-6.1-26,0.1-53.3,16.8-74s42.1-32.6,68.7-32.1h107.4
					c0-107.6,87.1-194.8,194.6-194.8s194.6,87.2,194.6,194.8h107c26.6-0.5,52,11.3,68.8,32C892.2,373.3,898.4,400.6,892.3,426.6
					L892.3,426.6z M290.2,798.9c1.7,4.6,5.8,7.9,10.7,8.7h408.2c4.8-0.8,8.9-4.1,10.7-8.7l18-88.7H272.4L290.2,798.9z M505.1,223.1
					c-53.7,0-97.3,43.6-97.3,97.4h194.6C602.4,266.7,558.9,223.1,505.1,223.1L505.1,223.1z M213.6,417.9l39.2,194.8h504.7L797,417.6
					H213.3L213.6,417.9z"/>
			</g>
		</g>
	</g>
</g>
</svg>
