<?xml version="1.0" encoding="UTF-8"?><svg id="_イヤー_2" xmlns="http://www.w3.org/2000/svg" viewBox="0 0 591.02334 591.02334"><defs><style>.cls-1{fill:#040000;}</style></defs><g id="Components"><g id="SliceIcon" transform="translate(-165.000000, -55.000000)"><g id="Icons" transform="translate(46.000000, 54.000000)"><g id="Icons_Cart-Icon" transform="translate(118.000000, 1.000000)"><path id="Cart-Icon" class="cls-1" d="M525.33026,242.85998l-46.81221,232.51122c-6.21481,29.42274-31.8492,50.68437-61.87761,51.32239H174.38276c-30.03927-.62476-55.68917-21.88934-61.90645-51.32239l-46.78338-232.51122c-3.62289-15.39807,.06551-31.60831,9.99232-43.91546,9.92682-12.30715,24.97741-19.32929,40.77385-19.02382h63.69582c0-63.83913,51.68571-115.59096,115.44326-115.59096s115.44327,51.75184,115.44327,115.59096h63.49378c15.80147-.31454,30.86041,6.70376,40.7939,19.01219,9.93349,12.30842,13.62541,28.52399,10.00112,43.92709h0ZM168.09111,463.7543c1.0317,2.73816,3.45962,4.70507,6.34938,5.14381h242.19995c2.87634-.45412,5.28872-2.4174,6.32053-5.14381l10.67849-52.65167H157.52805l10.56306,52.65167ZM295.59818,122.12522c-31.87877,0-57.72162,25.87592-57.72162,57.79548h115.44325c0-31.91956-25.84285-57.79548-57.72162-57.79548h0ZM122.63533,237.71619l23.26182,115.59096H445.35695l23.40614-115.76435H122.4333l.20203,.17339Z"/></g></g></g></g></svg>