<svg id="レイヤー_2" data-name="レイヤー 2" xmlns="http://www.w3.org/2000/svg" viewBox="0 0 591.02 591.02"><defs><style>.cls-1{fill:#040000;}</style></defs><g id="Components"><g id="SliceIcon"><g id="Icons"><g id="Icons_Cart-Icon" data-name="Icons/Cart-Icon"><path id="Cart-Icon" class="cls-1" d="M525.33,242.86,478.52,475.37a64.67,64.67,0,0,1-61.88,51.32H174.38a64.65,64.65,0,0,1-61.9-51.32L65.69,242.86a51.2,51.2,0,0,1,50.77-62.94h63.69a115.45,115.45,0,1,1,230.89,0h63.5a51.19,51.19,0,0,1,50.79,62.94ZM168.09,463.75a8.09,8.09,0,0,0,6.35,5.15h242.2a8.11,8.11,0,0,0,6.32-5.15l10.68-52.65H157.53ZM295.6,122.13a57.75,57.75,0,0,0-57.72,57.79H353.32a57.75,57.75,0,0,0-57.72-57.79Zm-173,115.59L145.9,353.31H445.36l23.4-115.77H122.43Z"/></g></g></g></g></svg>