<?xml version="1.0" encoding="UTF-8"?><svg id="_イヤー_2" xmlns="http://www.w3.org/2000/svg" viewBox="0 0 591.02334 591.02334"><defs><style>.cls-1{fill:#231916;fill-rule:evenodd;}</style></defs><g id="Symbols"><g id="icons_beginner" transform="translate(-10.000000, -5.000000)"><g id="Group-3" transform="translate(10.000000, 5.000000)"><g id="Fill-1"><path id="path-1" class="cls-1" d="M290.72151,526.03019L127.85616,389.87116V75.75539l162.86535,100.73814v349.53666ZM484.37753,48.70483c-3.74114-1.13528-7.70547-1.69039-11.64235-1.69039-7.01402,0-13.93188,1.75664-19.33181,5.11145l-157.8917,94.80931L137.61881,52.12589c-5.39646-3.35481-12.31661-5.11145-19.32721-5.11145-3.93802,0-7.90466,.55511-11.64578,1.69039-10.40141,3.15873-17.11093,10.22468-17.11093,18.02302V392.03841c0,5.5627,3.4286,10.86754,9.44323,14.60287l176.21953,143.02109c5.39646,3.35302,12.31432,5.10877,19.32377,5.10877,.3297,0,.66053-.02774,.99023-.03402,.33083,.00629,.65938,.03402,.98908,.03402,7.0083,0,13.92616-1.75574,19.32377-5.10877l176.22412-143.02109c6.01233-3.73533,9.4398-9.04016,9.4398-14.60287V66.72785c0-7.79834-6.70838-14.86429-17.11091-18.02302h0Z"/></g></g></g></g></svg>