<svg id="レイヤー_2" data-name="レイヤー 2" xmlns="http://www.w3.org/2000/svg" viewBox="0 0 591.02 591.02"><defs><style>.cls-1{fill:#231916;fill-rule:evenodd;}</style></defs><g id="Symbols"><g id="icons_beginner" data-name="icons/beginner"><g id="Group-3"><g id="Fill-1"><path id="path-1" class="cls-1" d="M290.72,526,127.86,389.87V75.76L290.72,176.49ZM484.38,48.7A40.47,40.47,0,0,0,472.74,47a37.09,37.09,0,0,0-19.34,5.12L295.51,146.94,137.62,52.13A37.08,37.08,0,0,0,118.29,47a40.42,40.42,0,0,0-11.64,1.69c-10.41,3.16-17.12,10.23-17.12,18V392c0,5.56,3.43,10.87,9.45,14.6l176.22,143a37,37,0,0,0,19.32,5.11l1,0,1,0a37,37,0,0,0,19.32-5.11l176.23-143c6-3.73,9.44-9,9.44-14.6V66.73c0-7.8-6.71-14.87-17.11-18Z"/></g></g></g></g></svg>