<svg id="レイヤー_2" data-name="レイヤー 2" xmlns="http://www.w3.org/2000/svg" viewBox="0 0 591.02 591.02"><defs><style>.cls-1{fill:#040000;}</style></defs><path class="cls-1" d="M494.84,396.36c-53.34-39.45-53.3-78.78-53.26-124.32v-3.78c0-20.17-4-59.11-30.91-93.44a133.12,133.12,0,0,0-47.79-38.12,150.1,150.1,0,0,0-18-7.2c-.17-7.89-1.39-26.86-8.74-45.06-12.92-32-35.22-37.79-47.37-38.38l-2.5,0-1.05,0c-12.15.59-34.45,6.38-47.37,38.38-7.35,18.2-8.57,37.17-8.74,45.06a150.1,150.1,0,0,0-18,7.2,133,133,0,0,0-47.79,38.12c-26.9,34.33-30.91,73.27-30.91,93.44V272c0,45.54.08,84.87-53.26,124.32-25.65,19-24.79,38-22,47.68s12.06,25.9,43.23,28.17l.75.06h.76c17.11.22,59.78.36,110.57.43a75.57,75.57,0,1,0,149,0c50.79-.07,93.46-.21,110.57-.43h.76l.75-.06c31.17-2.27,40.46-18.62,43.23-28.17S520.49,415.34,494.84,396.36ZM277.62,100.48c1.67-4.13,5.08-11,9.39-11.58,4.32.54,7.73,7.45,9.4,11.58A83.47,83.47,0,0,1,301.36,121q-5.4-.43-11-.62l-6,0-.8,0q-5.56.18-11,.62A83.47,83.47,0,0,1,277.62,100.48Zm45.66,384.84A36.27,36.27,0,1,1,253,472.74h68A36.2,36.2,0,0,1,323.28,485.32Zm-197-62.87c56.28-50.71,56.23-105.6,56.18-150.46v-3.73c0-22.17,7.39-94.66,102.39-97.92h4.33c95,3.26,102.39,75.75,102.39,97.92V272c0,44.86-.09,99.75,56.19,150.46C375.36,422.83,198.66,422.83,126.28,422.45Z"/></svg>