<?xml version="1.0" encoding="utf-8"?>
<!-- Generator: Adobe Illustrator 22.0.1, SVG Export Plug-In . SVG Version: 6.00 Build 0)  -->
<svg version="1.1" id="レイヤー_2" xmlns="http://www.w3.org/2000/svg" xmlns:xlink="http://www.w3.org/1999/xlink" x="0px"
	 y="0px" viewBox="0 0 1000 1000" style="enable-background:new 0 0 1000 1000;" xml:space="preserve">
<style type="text/css">
	.st0{fill:#040000;}
	.st1{fill:#070001;}
	.st2{fill:#231916;}
	.st3{fill-rule:evenodd;clip-rule:evenodd;fill:#070102;}
	.st4{fill:#050101;}
</style>
<path class="st0" d="M845,666.6c-89.9-66.5-89.8-132.8-89.8-209.5l0-6.4c0-34-6.8-99.6-52.1-157.5c-21.4-27.3-48.5-48.9-80.6-64.3
	c-9.6-4.6-19.8-8.7-30.3-12.1c-0.3-13.3-2.3-45.3-14.7-75.9c-21.8-53.9-59.4-63.7-79.8-64.7l-4.2,0l-1.8,0
	c-20.5,1-58.1,10.8-79.8,64.7c-12.4,30.7-14.4,62.6-14.7,75.9c-10.5,3.5-20.7,7.5-30.3,12.1c-32.1,15.4-59.2,37-80.6,64.3
	C241,351,234.2,416.7,234.2,450.7l0,6.4c0.1,76.8,0.1,143-89.8,209.5c-43.2,32-41.8,64.1-37.1,80.4c4.7,16.1,20.3,43.7,72.9,47.5
	l1.3,0.1l1.3,0c28.8,0.4,100.8,0.6,186.4,0.7c-1.2,6.9-1.8,14-1.8,21.3c0,70.2,57.1,127.4,127.4,127.4s127.4-57.1,127.4-127.4
	c0-7.2-0.6-14.4-1.8-21.3c85.6-0.1,157.5-0.4,186.4-0.7l1.3,0l1.3-0.1c52.5-3.8,68.2-31.4,72.9-47.5
	C886.8,730.6,888.3,698.6,845,666.6z M478.9,167.9c2.8-7,8.6-18.6,15.8-19.5c7.3,0.9,13,12.5,15.8,19.5c4.4,10.8,7,23.4,8.3,34.5
	c-6.1-0.5-12.2-0.8-18.5-1.1l-10.1,0l-1.4,0c-6.2,0.2-12.4,0.6-18.5,1.1C471.9,191.3,474.5,178.7,478.9,167.9z M555.9,816.5
	c0,33.7-27.4,61.1-61.1,61.1s-61.1-27.4-61.1-61.1c0-7.5,1.3-14.6,3.8-21.2c18.9,0,38.1,0,57.3,0s38.4,0,57.3,0
	C554.5,801.9,555.9,809.1,555.9,816.5z M223.8,710.5c94.9-85.5,94.8-178,94.7-253.6l0-6.3c0-37.4,12.4-159.5,172.6-165h7.3
	c160.1,5.5,172.6,127.7,172.6,165l0,6.3c-0.1,75.6-0.2,168.1,94.7,253.6C643.7,711.2,345.8,711.2,223.8,710.5z"/>
</svg>
