<?xml version="1.0" encoding="UTF-8"?><svg id="_イヤー_2" xmlns="http://www.w3.org/2000/svg" viewBox="0 0 591.02334 591.02334"><defs><style>.cls-1{fill:#040000;}</style></defs><path class="cls-1" d="M494.83775,396.36135c-53.33977-39.45587-53.30209-78.78545-53.25848-124.32433l.00244-3.78113c0-20.16089-4.01557-59.1088-30.90978-93.43967-12.66737-16.16974-28.74745-28.99515-47.79298-38.12037-5.72524-2.74287-11.72976-5.13477-17.98059-7.19837-.16685-7.8902-1.38853-26.85339-8.73779-45.05988-12.91821-32.00177-35.2212-37.78266-47.3663-38.37993l-2.50598-.02582-1.05326,.02582c-12.1451,.59728-34.44844,6.37817-47.3663,38.37993-7.34918,18.20648-8.57094,37.16933-8.73779,45.05953-6.25091,2.06361-12.2556,4.45585-17.98093,7.19872-19.04553,9.12522-35.12526,21.95063-47.79263,38.12037-26.89456,34.33087-30.91013,73.27877-30.91013,93.43967l.00244,3.78182c.04361,45.53888,.08129,84.86776-53.25813,124.32363-25.6557,18.9782-24.79014,38.0178-21.99075,47.6775,2.76659,9.54666,12.06172,25.90061,43.22967,28.1718l.75113,.05512,.75357,.00907c17.10996,.21421,59.78134,.35516,110.57248,.42284-.69374,4.10663-1.05832,8.32385-1.05832,12.62515,0,41.66705,33.89861,75.56531,75.56531,75.56531s75.56531-33.89826,75.56531-75.56531c0-4.3013-.36458-8.51852-1.05832-12.62515,50.79114-.06768,93.46252-.20863,110.57248-.42284l.75357-.00907,.75113-.05512c31.16795-2.27119,40.46308-18.62514,43.22967-28.1718,2.79939-9.6597,3.66495-28.6993-21.99075-47.6775ZM277.62218,100.48454c1.66972-4.13698,5.07895-11.03986,9.39246-11.57992,4.31351,.54006,7.72239,7.44294,9.39246,11.57992,2.59686,6.43329,4.14884,13.8689,4.95021,20.47488-3.59866-.29027-7.2473-.50308-10.95438-.62309l-5.96823-.01326-.80835,.01326c-3.70716,.12001-7.35572,.33283-10.95438,.62309,.80137-6.60598,2.35335-14.04159,4.95021-20.47488Zm45.66029,384.83829c0,19.99831-16.26987,36.26783-36.26783,36.26783s-36.26783-16.26952-36.26783-36.26783c0-4.42411,.79971-8.66435,2.25671-12.58712,11.23156,.00628,22.62108,.00942,34.01112,.00942s22.77956-.00314,34.01112-.00942c1.457,3.92277,2.25671,8.16302,2.25671,12.58712Zm-197.00722-62.87597c56.28324-50.71133,56.23231-105.60011,56.18939-150.45729l-.00244-3.73368c0-22.16414,7.38328-94.65097,102.3887-97.91785h4.32747c95.00508,3.26688,102.38835,75.75371,102.38835,97.91785l-.00244,3.73298c-.04291,44.85718-.0935,99.74666,56.18974,150.45799-72.38914,.38097-249.08964,.38097-321.47878,0Z"/></svg>