<svg id="レイヤー_2" data-name="レイヤー 2" xmlns="http://www.w3.org/2000/svg" viewBox="0 0 591.02 591.02"><defs><style>.cls-1{fill:#050101;}</style></defs><title>box</title><path class="cls-1" d="M524.08,176.17a16.08,16.08,0,0,0-15.7-.47l-88.72,46.77L227,119.35l17.41-9a113.72,113.72,0,0,1,103.28-1.12L454,162.13a16,16,0,1,0,14.23-28.58L361.91,80.64A145.49,145.49,0,0,0,229.6,82L125.47,135.89a16,16,0,0,0,14.69,28.39l52.43-27.13,193,103.3-90.47,47.69L81.81,175.7a16,16,0,0,0-23.43,14.13V370.71a96.14,96.14,0,0,0,51.4,85.23L287.25,549.5a16.26,16.26,0,0,0,7.46,1.84h.75a16.26,16.26,0,0,0,7.46-1.84l177.47-93.56a96.14,96.14,0,0,0,51.42-85.23V189.83A16,16,0,0,0,524.08,176.17ZM278.74,508.88l-154-81.21a64.21,64.21,0,0,1-34.36-57V216.32l188.41,99.33ZM499.86,370.71a64.19,64.19,0,0,1-34.38,57l-154,81.21V315.65l88.09-46.44-1.6,52.61a16,16,0,0,0,15.49,16.45h.5a16,16,0,0,0,16-15.51L432,252.08l67.85-35.76Z"/></svg>