<?xml version="1.0" encoding="UTF-8"?><svg id="_レイヤー_2" xmlns="http://www.w3.org/2000/svg" viewBox="0 0 591.02334 591.02334"><defs><style>.cls-1{fill:#050101;stroke:#231815;stroke-miterlimit:10;stroke-width:9px;}</style></defs><path class="cls-1" d="m524.08425,176.16708c-4.7887-2.90131-10.74731-3.02606-15.70752-.46796l-88.71887,46.77075-192.677-103.11823,17.40948-9.00958c32.13257-16.90857,70.73846-17.28296,103.27667-1.12305l106.33386,52.90955c7.8927,3.99316,17.50134.71753,21.4165-7.17523,3.93079-7.89276.70203-17.47015-7.1908-21.40094l-106.31836-52.90955c-41.69434-20.80817-91.20349-20.24664-132.30511,1.37262l-104.13452,53.87671c-7.83038,4.05554-10.88763,13.69531-6.83209,21.5257,2.83893,5.4906,8.40753,8.64148,14.19452,8.64148,2.46454,0,4.97589-.56152,7.33124-1.7782l52.42719-27.13159,192.96698,103.29797-90.47119,47.69464-213.27643-112.44305c-4.97583-2.58929-10.93439-2.46454-15.70752.46796-4.7887,2.87012-7.72119,8.07996-7.72119,13.66418v180.87836c0,35.84497,19.70074,68.50793,51.39655,85.22931l177.47803,93.5589c2.3396,1.21667,4.89783,1.84058,7.45593,1.84058.12476,0,.24963-.00977.37439-.01276.12476.00299.24951.01276.37427.01276,2.55823,0,5.11633-.6239,7.45605-1.84058l177.47803-93.5589c31.71143-16.72137,51.41211-49.38434,51.41211-85.22931v-180.87836c0-5.58423-2.9325-10.79407-7.72119-13.66418Zm-245.34637,332.71265l-154.04919-81.20496c-21.19818-11.1684-34.36316-33.0061-34.36316-56.96515v-154.3924l188.41235,99.33026v193.23224Zm221.12213-138.1701c0,23.95905-13.16492,45.79675-34.37878,56.96515l-154.04919,81.20496v-193.23224l88.08813-46.43591-1.59534,52.61285c-.26514,8.79742,6.67603,16.15985,15.48914,16.44061h.49915c8.59473,0,15.69189-6.83203,15.95715-15.5047l2.14001-70.67603,67.84973-35.76709v154.3924Z"/></svg>