<svg id="レイヤー_2" data-name="レイヤー 2" xmlns="http://www.w3.org/2000/svg" viewBox="0 0 591.02 591.02"><defs><style>.cls-1{fill:#050101;}</style></defs><title>box</title><path class="cls-1" d="M530.09,169a16.53,16.53,0,0,0-11-14.59L291.23,73.91a16.57,16.57,0,0,0-12.88.79L73,177.31a16.52,16.52,0,0,0-9.12,15.4c0,.46.06.91.12,1.36a15.7,15.7,0,0,0-.13,2v216.7a16.46,16.46,0,0,0,1.58,7,16.46,16.46,0,0,0,9.74,10.69l211.33,83.95.14,0,.23.09c.11.05.22.08.33.12.36.13.71.26,1.08.37l.53.13c.33.09.65.18,1,.24s.51.08.77.12.52.09.79.11c.54,0,1.07.08,1.61.08a17.77,17.77,0,0,0,1.8-.1l.44-.07c.45-.06.9-.13,1.34-.23l.51-.13c.42-.11.82-.22,1.23-.36l.54-.2c.38-.14.76-.3,1.13-.48.11,0,.22-.08.33-.14L517.47,406.56l.22-.13c.26-.13.51-.28.77-.43l.67-.4c.2-.13.4-.28.59-.42s.51-.35.75-.55l.41-.35c.27-.23.54-.46.79-.71.11-.1.2-.22.31-.32.26-.27.52-.55.77-.83l.3-.4c.22-.27.44-.55.64-.84s.27-.41.4-.62.3-.45.43-.69.31-.6.46-.9l.24-.48c.15-.35.28-.7.41-1.06,0-.14.11-.27.16-.41.11-.34.2-.68.3-1,0-.18.1-.36.14-.53s.11-.59.16-.88.1-.5.13-.74,0-.49.06-.73,0-.62.06-.93a1.1,1.1,0,0,1,0-.18L530,172.65v-.26a2.83,2.83,0,0,0,0-.29A16.51,16.51,0,0,0,530.09,169ZM309.51,470.76V289l187.08-92.18-2.8,184.55ZM96.9,216.64,276.49,289.8V473.17L96.9,403.45ZM286.84,107.38l184.32,65.13-62.74,30.91L237.31,132.13Zm-88.56,44.25L369.1,222.8l-76.74,37.81-172-70.06Z"/></svg>