<?xml version="1.0" encoding="UTF-8"?><svg id="_レイヤー_2" xmlns="http://www.w3.org/2000/svg" viewBox="0 0 591.02334 591.02334"><defs><style>.cls-1{fill:#070001;}</style></defs><g id="Components"><g id="SliceIcon"><g id="Icons"><g id="Icons_Bubble-Icon"><path id="Bubble-Icon" class="cls-1" d="m295.30026,468.56935c-78.6718-.05932-147.37613-53.04118-167.48905-129.04311-20.11292-76.00193,13.52728-156.03833,81.87563-194.89959,68.34836-38.86126,154.31775-26.93589,209.43548,29.19045,55.11774,56.12634,65.55983,142.21441,25.45266,209.8508-4.03444,6.82297-5.10238,15.06988-2.90719,22.72345l14.47657,49.18472-49.6-14.17992c-7.65361-2.19522-15.90048-1.1866-22.72345,2.90719-26.81728,15.90044-57.37231,24.32533-88.52065,24.26602h0Zm194.30629,56.66031c10.08613,2.90719,20.94354.05932,28.41916-7.35695,7.41627-7.41627,10.26411-18.27368,7.35695-28.35981-2.90719-10.08613-25.03734-87.33401-24.97799-87.63066,52.5072-101.0986,23.3761-225.33596-68.52634-292.61638-91.90244-67.28042-219.16563-57.49093-299.736,23.02011-80.57038,80.51103-90.30051,207.77424-22.96077,299.61733,67.33973,91.84309,191.63642,120.91487,292.73504,68.40767.23734.05932,87.868,24.91867,87.868,24.91867l-.17806.00004h0Z"/></g></g></g></g></svg>