<?xml version="1.0" encoding="utf-8"?>
<!-- Generator: Adobe Illustrator 21.0.2, SVG Export Plug-In . SVG Version: 6.00 Build 0)  -->
<svg version="1.1" id="レイヤー_2" xmlns="http://www.w3.org/2000/svg" xmlns:xlink="http://www.w3.org/1999/xlink" x="0px"
	 y="0px" viewBox="0 0 1000 1000" style="enable-background:new 0 0 1000 1000;" xml:space="preserve">
<style type="text/css">
	.st0{fill:#040000;}
	.st1{fill:#070001;}
</style>
<g id="Components_2_">
	<g id="SliceIcon_19_" transform="translate(-46.000000, -123.000000)">
		<g id="Icons_20_" transform="translate(46.000000, 54.000000)">
			<g id="Icons_x2F_Bubble-Icon" transform="translate(0.000000, 69.000000)">
				<path id="Bubble-Icon" class="st1" d="M499.6,791.7c-132.6-0.1-248.4-89.4-282.3-217.5s22.8-263,138-328.5s260.1-45.4,353,49.2
					s110.5,239.7,42.9,353.7c-6.8,11.5-8.6,25.4-4.9,38.3l24.4,82.9l-83.6-23.9c-12.9-3.7-26.8-2-38.3,4.9
					C603.6,777.6,552.1,791.8,499.6,791.7L499.6,791.7L499.6,791.7z M827.1,887.2c17,4.9,35.3,0.1,47.9-12.4
					c12.5-12.5,17.3-30.8,12.4-47.8c-4.9-17-42.2-147.2-42.1-147.7c88.5-170.4,39.4-379.8-115.5-493.2s-369.4-96.9-505.2,38.8
					s-152.2,350.2-38.7,505s323,203.8,493.4,115.3c0.4,0.1,148.1,42,148.1,42L827.1,887.2L827.1,887.2z"/>
			</g>
		</g>
	</g>
</g>
</svg>
