<?xml version="1.0" encoding="utf-8"?>
<!-- Generator: Adobe Illustrator 21.0.2, SVG Export Plug-In . SVG Version: 6.00 Build 0)  -->
<svg version="1.1" id="レイヤー_2" xmlns="http://www.w3.org/2000/svg" xmlns:xlink="http://www.w3.org/1999/xlink" x="0px"
	 y="0px" viewBox="0 0 1000 1000" style="enable-background:new 0 0 1000 1000;" xml:space="preserve">
<style type="text/css">
	.st0{fill:#040000;}
	.st1{fill:#070001;}
</style>
<g id="Icons_6_" transform="translate(46.000000, 54.000000)">
	<g id="Icons_x2F_Camera-Filled-Icon" transform="translate(196.000000, 70.000000)">
		<g>
			<path class="st0" d="M270.6,307.5c-53.8-0.9-98.1,42-99,95.8c-0.9,53.8,42,98.1,95.8,99c53.8,0.9,98.1-42,99-95.8
				C367.3,352.7,324.4,308.4,270.6,307.5z"/>
			<path class="st0" d="M561.7,112.6H484l-74.8-74.9c-15-14.1-34.7-22.1-55.3-22.5H184.1c-20.6,0.4-40.3,8.4-55.3,22.5L54,112.6
				h-77.7c-53.6,0.2-97,43.8-97,97.4v438.4c0,25.9,10.3,50.7,28.7,69c18.3,18.3,43.2,28.5,69.1,28.4h583.8
				c53.7,0.2,97.5-43.2,97.7-96.9V210.1C658.6,156.4,615.3,112.9,561.7,112.6z M269,599.7c-107.6,0-194.8-87.2-194.8-194.8
				S161.4,210.1,269,210.1c107.6,0,194.8,87.2,194.8,194.8S376.6,599.7,269,599.7z"/>
		</g>
	</g>
</g>
</svg>
