<?xml version="1.0" encoding="UTF-8"?><svg id="_レイヤー_2" xmlns="http://www.w3.org/2000/svg" viewBox="0 0 591.02334 591.02334"><defs><style>.cls-1{fill:#040000;}</style></defs><g id="Components"><g id="SliceIcon"><g id="Icons"><g id="Icons_Camera-Icon"><path id="Camera-Icon" class="cls-1" d="m468.69583,512.24454H122.32751c-15.36333.05377-30.11586-6.01164-40.9984-16.85621-10.88255-10.84459-16.99945-25.57586-16.99936-40.93927V194.36939c-.00032-31.81827,25.71745-57.6523,57.5354-57.79548h46.09189l44.38694-44.41583c8.91272-8.36416,20.60761-13.13066,32.82782-13.37965h100.67972c12.22023.249,23.91512,5.01549,32.82785,13.37965l44.38691,44.41583h46.0919c31.81795.14318,57.53574,25.97721,57.53541,57.79548v260.36865c-.15924,31.88572-26.11183,57.6185-57.99777,57.5065h0Zm.20228-317.87515h-50.33985c-12.24723-.1164-23.98851-4.90179-32.82785-13.37966l-44.38691-44.41583h-91.66365l-44.38694,44.41583c-8.83934,8.47787-20.58059,13.26326-32.82782,13.37966h-50.33987v260.07967h346.77289V194.36939h0Zm-173.38645,0c63.83912,0,115.59096,51.75184,115.59096,115.59096s-51.75184,115.59096-115.59096,115.59096-115.59096-51.75184-115.59096-115.59096,51.75184-115.59096,115.59096-115.59096h0Zm0,173.38645c31.91956,0,57.79548-25.87592,57.79548-57.79548s-25.87592-57.79548-57.79548-57.79548-57.79548,25.87592-57.79548,57.79548,25.87592,57.79548,57.79548,57.79548h0Z"/></g></g></g></g></svg>