<svg id="レイヤー_2" data-name="レイヤー 2" xmlns="http://www.w3.org/2000/svg" viewBox="0 0 591.02 591.02"><defs><style>.cls-1{fill:#040000;}</style></defs><g id="Components"><g id="SliceIcon"><g id="Icons"><g id="Icons_Camera-Icon" data-name="Icons/Camera-Icon"><path id="Camera-Icon" class="cls-1" d="M468.7,512.24H122.33a57.79,57.79,0,0,1-58-57.79V194.37a57.81,57.81,0,0,1,57.54-57.8H168l44.38-44.41a49.44,49.44,0,0,1,32.83-13.38H345.85a49.42,49.42,0,0,1,32.83,13.38l44.39,44.41h46.09a57.8,57.8,0,0,1,57.53,57.8V454.74a57.79,57.79,0,0,1-58,57.5Zm.2-317.87H418.56A48.09,48.09,0,0,1,385.73,181l-44.39-44.42H249.68L205.29,181a48.09,48.09,0,0,1-32.82,13.38H122.13V454.45H468.9V194.37Zm-173.39,0A115.59,115.59,0,1,1,179.92,310,115.59,115.59,0,0,1,295.51,194.37Zm0,173.39A57.8,57.8,0,1,0,237.72,310a57.8,57.8,0,0,0,57.79,57.8Z"/></g></g></g></g></svg>