<?xml version="1.0" encoding="UTF-8"?><svg id="_レイヤー_2" xmlns="http://www.w3.org/2000/svg" viewBox="0 0 591.02334 591.02334"><defs><style>.cls-1{fill:#040000;}</style></defs><path class="cls-1" d="m296.47116,252.16486c-31.91733-.52208-58.21879,24.91866-58.74087,56.83599-.53619,31.91733,24.90455,58.21879,56.82188,58.74087,31.91733.53619,58.21879-24.90455,58.75498-56.82188.52208-31.91733-24.91866-58.21879-56.83599-58.75498Z"/><path class="cls-1" d="m469.16621,136.5739h-46.09811l-44.39077-44.41899c-8.90355-8.36736-20.60093-13.12251-32.82038-13.37649h-100.67646c-12.21945.25398-23.91683,5.00913-32.83449,13.37649l-44.39077,44.41899h-46.084c-31.81856.1411-57.5415,25.97692-57.5415,57.79548v260.07967c0,15.36604,6.12384,30.09711,17.00282,40.93376,10.87898,10.85076,25.63828,16.91816,41.00431,16.86172h346.36369c31.88911.11288,57.83781-25.62417,57.99303-57.51328V194.36938c0-31.81856-25.70883-57.65438-57.52739-57.79548Zm-173.65454,288.97741c-63.83466,0-115.59096-51.75631-115.59096-115.59096s51.75631-115.59096,115.59096-115.59096c63.84877,0,115.59096,51.75631,115.59096,115.59096s-51.7422,115.59096-115.59096,115.59096Z"/></svg>