<svg id="レイヤー_2" data-name="レイヤー 2" xmlns="http://www.w3.org/2000/svg" viewBox="0 0 591.02 591.02"><defs><style>.cls-1{fill:#040000;}</style></defs><title>camera-filled</title><g id="Icons"><g id="Icons_Camera-Filled-Icon" data-name="Icons/Camera-Filled-Icon"><path class="cls-1" d="M296.47,252.16a57.8,57.8,0,1,0,56.84,58.76A57.79,57.79,0,0,0,296.47,252.16Z"/><path class="cls-1" d="M469.17,136.57h-46.1L378.68,92.15a49.43,49.43,0,0,0-32.82-13.37H245.18a49.46,49.46,0,0,0-32.83,13.37L168,136.57H121.87a57.81,57.81,0,0,0-57.54,57.8V454.45a57.8,57.8,0,0,0,58,57.79H468.7a57.78,57.78,0,0,0,58-57.51V194.37A57.79,57.79,0,0,0,469.17,136.57Zm-173.66,289A115.59,115.59,0,1,1,411.1,310,115.59,115.59,0,0,1,295.51,425.55Z"/></g></g></svg>