<?xml version="1.0" encoding="utf-8"?>
<!-- Generator: Adobe Illustrator 21.0.2, SVG Export Plug-In . SVG Version: 6.00 Build 0)  -->
<svg version="1.1" id="レイヤー_2" xmlns="http://www.w3.org/2000/svg" xmlns:xlink="http://www.w3.org/1999/xlink" x="0px"
	 y="0px" viewBox="0 0 1000 1000" style="enable-background:new 0 0 1000 1000;" xml:space="preserve">
<style type="text/css">
	.st0{fill:#040000;}
	.st1{fill:#070001;}
</style>
<g id="Components_7_">
	<g id="SliceIcon_7_" transform="translate(-203.000000, -124.000000)">
		<g id="Icons_7_" transform="translate(46.000000, 54.000000)">
			<g id="Icons_x2F_Camera-Icon" transform="translate(157.000000, 70.000000)">
				<path id="Camera-Icon" class="st0" d="M803,869.8H219.2c-25.9,0.1-50.8-10.1-69.1-28.4c-18.3-18.3-28.7-43.1-28.7-69V334.1
					c0-53.6,43.3-97.2,97-97.4h77.7l74.8-74.9c15-14.1,34.7-22.1,55.3-22.6h169.7c20.6,0.4,40.3,8.5,55.3,22.6l74.8,74.9h77.7
					c53.6,0.2,97,43.8,97,97.4v438.8C900.5,826.6,856.7,870,803,869.8L803,869.8L803,869.8z M803.3,334.1h-84.8
					c-20.6-0.2-40.4-8.3-55.3-22.6l-74.8-74.9H433.8L359,311.5c-14.9,14.3-34.7,22.4-55.3,22.6h-84.8v438.4h584.5V334.1L803.3,334.1
					L803.3,334.1z M511.1,334.1c107.6,0,194.8,87.2,194.8,194.8s-87.2,194.8-194.8,194.8s-194.8-87.2-194.8-194.8
					S403.5,334.1,511.1,334.1L511.1,334.1L511.1,334.1z M511.1,626.3c53.8,0,97.4-43.6,97.4-97.4c0-53.8-43.6-97.4-97.4-97.4
					s-97.4,43.6-97.4,97.4C413.7,582.7,457.3,626.3,511.1,626.3L511.1,626.3L511.1,626.3z"/>
			</g>
		</g>
	</g>
</g>
</svg>
