<?xml version="1.0" encoding="utf-8"?>
<!-- Generator: Adobe Illustrator 21.0.2, SVG Export Plug-In . SVG Version: 6.00 Build 0)  -->
<svg version="1.1" id="レイヤー_2" xmlns="http://www.w3.org/2000/svg" xmlns:xlink="http://www.w3.org/1999/xlink" x="0px"
	 y="0px" viewBox="0 0 1000 1000" style="enable-background:new 0 0 1000 1000;" xml:space="preserve">
<style type="text/css">
	.st0{fill:#040000;}
	.st1{fill:#070001;}
</style>
<g id="Components_28_">
	<g id="SliceIcon_28_" transform="translate(-164.000000, -158.000000)">
		<g id="Icons_28_" transform="translate(46.000000, 54.000000)">
			<g id="Group-2" transform="translate(118.000000, 104.000000)">
				<g id="Icon_x2F_cart_x5F_white">
					<path id="Shape" class="st0" d="M885.4,368.8l-82.7,234.4c-11.4,32.1-43.5,55.4-76.4,55.4H397.5c-35.2,0-67.1-26.9-74.3-62.7
						l-80-398.9H110.3v-86.6h138.9c35.2,0,67.2,26.9,74.3,62.7l22.2,110.5h482.5c21,0,39.6,9.6,50.9,26.4
						C890.4,326.8,892.8,348.2,885.4,368.8L885.4,368.8z M363,370.1l40.5,202.1h322.7l70.2-202.1H363L363,370.1z M425.2,716.4
						c45.9,0,83.4,38.9,83.4,86.6s-37.4,86.6-83.3,86.6s-83.4-38.8-83.4-86.6S379.3,716.5,425.2,716.4L425.2,716.4z M717,716.4
						c45.9,0,83.3,38.9,83.3,86.6S763,889.7,717,889.7c-46.1,0-83.4-38.8-83.4-86.6S671,716.4,717,716.4L717,716.4z"/>
				</g>
			</g>
		</g>
	</g>
</g>
</svg>
