<svg id="レイヤー_2" data-name="レイヤー 2" xmlns="http://www.w3.org/2000/svg" viewBox="0 0 591.02 591.02"><defs><style>.cls-1{fill:#040000;}</style></defs><title>cart</title><g id="Components"><g id="SliceIcon"><g id="Icons"><g id="Group-2"><g id="Icon_cart_white" data-name="Icon/cart_white"><path id="Shape" class="cls-1" d="M524.2,226.15,475.14,365.23c-6.73,19-25.83,32.87-45.35,32.87H234.7c-20.87,0-39.81-16-44.08-37.2L143.14,124.22H64.33V72.81h82.39c20.91,0,39.85,16,44.09,37.2L204,175.58H490.24a35.87,35.87,0,0,1,30.22,15.64c6.7,10,8.09,22.74,3.74,34.93Zm-309.94.75,24,119.88H429.75L471.37,226.9H214.26Zm36.88,205.5c27.26,0,49.48,23.08,49.48,51.37s-22.22,51.4-49.44,51.4-49.48-23-49.48-51.36,22.18-51.37,49.44-51.37Zm173.14,0c27.26,0,49.44,23.08,49.44,51.37s-22.18,51.4-49.44,51.4-49.47-23-49.47-51.36S397,432.4,424.32,432.4Z"/></g></g></g></g></g></svg>