<?xml version="1.0" encoding="UTF-8"?><svg id="_イヤー_2" xmlns="http://www.w3.org/2000/svg" viewBox="0 0 591.02335 591.02334"><defs><style>.cls-1{fill:#040000;}</style></defs><g id="Components"><g id="SliceIcon" transform="translate(-164.000000, -158.000000)"><g id="Icons" transform="translate(46.000000, 54.000000)"><g id="Group-2" transform="translate(118.000000, 104.000000)"><g id="Icon_cart_white"><path id="Shape" class="cls-1" d="M524.19537,226.14624l-49.0513,139.08744c-6.73783,19.041-25.83472,32.86988-45.35514,32.86988H234.70026c-20.86798,0-39.81087-15.97255-44.08457-37.19927l-47.47273-236.68827H64.32975v-51.40645h82.39388c20.90648,0,39.84937,15.97257,44.08457,37.19927l13.16761,65.5716H490.23678c12.47457,0,23.48611,5.7165,30.22391,15.63631,6.69933,10.00387,8.08538,22.7399,3.73469,34.92949h0Zm-309.93958,.75659l24.02512,119.87834h191.46951l41.62045-119.87834H214.25579Zm36.88473,205.49971c27.25929,0,49.47483,23.07617,49.47483,51.36444s-22.21554,51.40644-49.43633,51.40644-49.47482-23.03412-49.47482-51.36442,22.17703-51.36442,49.43632-51.36442v-.04206Zm173.14263,0c27.2593,0,49.43633,23.07617,49.43633,51.36444s-22.17703,51.40644-49.43633,51.40644c-27.33627,0-49.47483-23.03412-49.47483-51.36442s22.17706-51.40647,49.51333-51.40647h-.0385Z"/></g></g></g></g></g></svg>