<?xml version="1.0" encoding="utf-8"?>
<!-- Generator: Adobe Illustrator 21.0.2, SVG Export Plug-In . SVG Version: 6.00 Build 0)  -->
<svg version="1.1" id="レイヤー_2" xmlns="http://www.w3.org/2000/svg" xmlns:xlink="http://www.w3.org/1999/xlink" x="0px"
	 y="0px" viewBox="0 0 1000 1000" style="enable-background:new 0 0 1000 1000;" xml:space="preserve">
<style type="text/css">
	.st0{fill:#040000;}
</style>
<g>
	<g>
		<path class="st0" d="M574.3,591.5c-8.2,2-11.8,20.2-11.8,20.2c-1.1,5.4-3.8,13.9-6.2,18.9c0,0-7.4,16-48.9,16
			c-46.6,0-54-11.3-54-11.3c-3-4.6-5.5-8.9-5.6-9.5c0,0,0,0-0.1-0.7c-2.8-15.2-11.8-23.4-20.1-18.3c-7.9,4.8-12.3,19.9-10.4,34.4
			c2,16.7,8.7,31,19.3,41.4c15.2,14.9,38.4,22.1,70.9,22.1c37.1,0,62.6-13.9,75.7-41.2c10.2-21.3,9.3-42.8,9-46.9
			C590.9,600.6,583,589.5,574.3,591.5z"/>
	</g>
	<g>
		<path class="st0" d="M709.7,395.9c-10.8-46.7-41.6-115.7-41.6-115.7c-2.2-5-3.4-9.4-2.6-9.7s1.2-5,0.9-10.5L618,180.7
			c-4.2-3.6-11.7-8.4-16.6-10.8c0,0-104.2-50.4-165-30.4c-10.6,3.5-33.7,14.7-33.7,14.7c-5,2.4-12.1,7.6-15.9,11.6
			c0,0-233.5,247.4-215.1,281.3c7.8,14.3,123.3-11.1,123.3-11.1c5.4-1.2,8.7,2.2,7.4,7.6c0,0-13.4,54.2-13.4,108.2
			s5.8,106.4,17.2,155.8c11,47.7,26.8,90.4,46.9,127.2c20.1,36.7,43.5,65.6,69.6,85.7c27,20.9,55.7,31.5,85.2,31.5
			c29.5,0,58.2-10.6,85.2-31.5c26.1-20.2,49.5-49,69.6-85.7c20.1-36.7,35.9-79.5,46.9-127.2c11.4-49.4,17.2-101.8,17.2-155.8
			S721.1,445.2,709.7,395.9z M631.9,778c-19.1,35-59.3,69.9-59.3,69.9c-4.1,3.6-7.9,2.1-8.4-3.4l-3.3-41.2c-0.4-5.5-2-14.3-3.6-19.6
			c0,0-1.1-5.7-4.5-8.9c-3.4-3.2-7.8-6.4-9.9-6.9c-2-0.6-7.2,0.6-11.5,2.6c-4.3,2-11.4,13.8-13.2,8.9s-11-10.9-13-11.5
			c-2-0.6-7.3,0.8-11.8,2.9c-4.4,2.1-10.1,22.1-10.6,25.9c-0.4,3.8-1,4.6-1.2,1.8c-0.2-2.8-1.7-9.5-3.2-14.8c0,0-1.1-5.7-4.5-8.9
			c-3.4-3.2-7.8-6.4-9.9-6.9c-2-0.6-7.3,0.8-11.8,2.9c-4.4,2.1-10.3,23.4-10.9,28.9l-3.9,34.4c-0.6,5.5-4.3,6.7-8.1,2.8
			c0,0-30.1-30.8-45.4-58.9c-33.1-60.5-51.3-140.9-51.3-226.4c0-39.1,9.6-102.8,9.6-102.8c0.8-5.4,3.8-13.7,6.7-18.4l4.1-6.8
			c2.8-4.7,8.8-11.2,13.3-14.4l79.9-58.1c4.4-3.2,7.6-1.4,6.9,4.1l-3,25.2c-0.6,5.5,2.5,7.3,7,4.2l144.5-87.3
			c4.3-3.4,10.4-2.5,13.6,2c0,0,9.5,13.5,16.4,26.1c3.5,6.4,5.7,10.9,5.7,10.9c2.4,5,5.7,13.3,7.3,18.6l26.9,87.9
			c1.6,5.3,3.5,14,4.2,19.5c0,0,7.3,55.2,7.3,89.5C683.2,637.2,664.9,717.6,631.9,778z"/>
	</g>
	<g>
		<path class="st0" d="M474.7,476.2c-0.4-5.5-5.1-9.7-10.6-9.3l-83.8,5.5c-5.5,0.4-9.7,5.1-9.3,10.6l1.9,29.3
			c0.4,5.5,5.1,9.7,10.6,9.3l83.8-5.5c5.5-0.4,9.7-5.1,9.3-10.6L474.7,476.2z"/>
	</g>
	<g>
		<path class="st0" d="M532.9,505.5c-0.4,5.5,3.8,10.3,9.3,10.6l83.8,5.5c5.5,0.4,10.3-3.8,10.6-9.3l1.9-29.3
			c0.4-5.5-3.8-10.3-9.3-10.6l-83.8-5.5c-5.5-0.4-10.3,3.8-10.6,9.3L532.9,505.5z"/>
	</g>
</g>
</svg>
