<svg id="レイヤー_2" data-name="レイヤー 2" xmlns="http://www.w3.org/2000/svg" viewBox="0 0 591.02 591.02"><defs><style>.cls-1{fill:#040000;}</style></defs><title>chart-up</title><path class="cls-1" d="M515.36,190.91V294.07a28.15,28.15,0,0,1-28.15,28.16h0a28.16,28.16,0,0,1-28.16-28.16V254.2L307.69,405.56c-.15.17-.31.33-.47.5h0a29.34,29.34,0,0,1-2.2,2,28.16,28.16,0,0,1-37.75-1.88h0a29.43,29.43,0,0,1-2-2.29l-75.34-75.34-64.4,64.4a28.14,28.14,0,0,1-39.81,0h0a28.15,28.15,0,0,1,0-39.82L170,268.79a28.17,28.17,0,0,1,39.82,0h0l.44.46,77.06,77.07L417.83,215.79H381.15A28.16,28.16,0,0,1,353,187.63h0a28.15,28.15,0,0,1,28.16-28.15H487.4a28.15,28.15,0,0,1,28.16,28.15h0A27.38,27.38,0,0,1,515.36,190.91Z"/></svg>