<?xml version="1.0" encoding="UTF-8"?><svg id="_レイヤー_2" xmlns="http://www.w3.org/2000/svg" viewBox="0 0 591.02334 591.02334"><defs><style>.cls-1{fill:#040000;}</style></defs><path class="cls-1" d="m515.36465,411.07662v-103.16449c0-15.55005-12.60571-28.15601-28.15588-28.15601h-.00012c-15.55005,0-28.15588,12.60596-28.15588,28.15601v39.87054l-151.3606-151.36053c-.15674-.16443-.30774-.33228-.46936-.49365v-.00012c-.70752-.70752-1.44434-1.3678-2.20483-1.98425-11.05981-9.07715-27.41687-8.45288-37.74609,1.87622h0c-.73438.73438-1.41577,1.50122-2.05212,2.29248l-75.33801,75.33813-64.39734-64.39722c-10.99554-10.99561-28.82288-10.99561-39.81848,0h-.00006c-10.99554,10.99561-10.99554,28.82288,0,39.81848l84.31793,84.31787c10.99554,10.99561,28.82294,10.99561,39.81848,0h.00006c.15015-.15015.29034-.3064.4364-.45905l77.06268-77.06256,130.5249,130.52496h-36.67944c-15.55005,0-28.15601,12.60583-28.15601,28.15594v.00006c0,15.55011,12.60596,28.15594,28.15601,28.15594h106.25732c15.55005,0,28.15601-12.60583,28.15601-28.15594v-.00006c0-1.10773-.07104-2.19843-.19556-3.27277Z"/></svg>