<svg id="レイヤー_2" data-name="レイヤー 2" xmlns="http://www.w3.org/2000/svg" viewBox="0 0 591.02 591.02"><defs><style>.cls-1{fill:#040000;}</style></defs><path class="cls-1" d="M515.36,411.08V307.91a28.15,28.15,0,0,0-28.15-28.15h0a28.15,28.15,0,0,0-28.16,28.15v39.87L307.69,196.42l-.47-.49h0a27.44,27.44,0,0,0-2.2-2,28.17,28.17,0,0,0-37.75,1.88h0a29.43,29.43,0,0,0-2,2.29l-75.34,75.34-64.4-64.4a28.16,28.16,0,0,0-39.81,0h0a28.15,28.15,0,0,0,0,39.82L170,333.19a28.15,28.15,0,0,0,39.82,0h0l.44-.46,77.06-77.06L417.83,386.19H381.15A28.16,28.16,0,0,0,353,414.35h0a28.16,28.16,0,0,0,28.16,28.16H487.4a28.16,28.16,0,0,0,28.16-28.16h0A27.09,27.09,0,0,0,515.36,411.08Z"/></svg>