<svg id="レイヤー_2" data-name="レイヤー 2" xmlns="http://www.w3.org/2000/svg" viewBox="0 0 591.02 591.02"><defs><style>.cls-1{fill:#070001;}</style></defs><path class="cls-1" d="M477.55,200H387.81V177.77a57,57,0,0,0-56.91-56.91H130.48a57,57,0,0,0-56.91,56.91V324.88a57,57,0,0,0,54.2,56.85l-.18,8.45A45.18,45.18,0,0,0,203.74,424l16.67-15.69a57,57,0,0,0,56.73,52.57h82.28l44.87,42.24a45.19,45.19,0,0,0,76.15-33.85l-.18-8.45A57,57,0,0,0,534.46,404V256.89A57,57,0,0,0,477.55,200ZM172.77,391.13l1.14-54.52H130.48a11.73,11.73,0,0,1-11.72-11.73V177.77a11.72,11.72,0,0,1,11.72-11.72H330.9a11.72,11.72,0,0,1,11.72,11.72V324.88a11.73,11.73,0,0,1-11.72,11.73H230.69ZM489.27,404a11.72,11.72,0,0,1-11.72,11.72H434.12l1.14,54.53-57.92-54.53H277.14A11.72,11.72,0,0,1,265.41,404V381.79H330.9a57,57,0,0,0,56.91-56.91V245.16h89.74a11.73,11.73,0,0,1,11.72,11.73Z"/></svg>