<?xml version="1.0" encoding="UTF-8"?><svg id="_イヤー_2" xmlns="http://www.w3.org/2000/svg" viewBox="0 0 591.02334 591.02334"><defs><style>.cls-1{fill:#070001;}</style></defs><path class="cls-1" d="M477.54795,199.97644h-89.7405v-22.20663c0-31.38089-25.53038-56.91113-56.91093-56.91113H130.48376c-31.3811,0-56.91148,25.53024-56.91148,56.91113v147.11214c0,30.47125,24.07087,55.42604,54.19655,56.84735l-.17816,8.45147c-.3828,18.19684,10.18898,34.84716,26.82,42.24096,5.89595,2.62088,12.14492,3.8974,18.34646,3.8974,11.29272,0,22.42713-4.23236,30.98175-12.28517l16.66742-15.68972c2.22898,29.35676,26.81117,52.56673,56.7289,52.56673h82.2841l44.87356,42.24068c8.55407,8.05212,19.69013,12.28517,30.98175,12.28517,6.20264,0,12.4494-1.27597,18.34646-3.89754,16.63101-7.39366,27.2028-24.04398,26.82-42.24082l-.17816-8.45147c30.12568-1.42145,54.196-26.3761,54.196-56.84735v-147.11201c0-31.3811-25.53038-56.9112-56.91093-56.9112ZM172.76705,391.13186l1.14786-54.52502h-43.43115c-6.47568,0-11.72516-5.24949-11.72516-11.72489V177.76981c0-6.47554,5.24949-11.72475,11.72516-11.72475h200.41277c6.47568,0,11.72461,5.24921,11.72461,11.72475v147.11214c0,6.4754-5.24894,11.72489-11.72461,11.72489h-100.20638l-57.92309,54.52502Zm316.50552,12.86778c0,6.47554-5.24949,11.72503-11.72461,11.72503h-43.43115l1.14786,54.52488-57.92309-54.52488h-100.20638c-6.47568,0-11.72516-5.24949-11.72516-11.72503v-22.20649h65.48651c31.38055,0,56.91093-25.5301,56.91093-56.9112v-79.7192h89.7405c6.47512,0,11.72461,5.24949,11.72461,11.72489v147.11201Z"/></svg>