<?xml version="1.0" encoding="utf-8"?>
<!-- Generator: Adobe Illustrator 21.0.2, SVG Export Plug-In . SVG Version: 6.00 Build 0)  -->
<svg version="1.1" id="レイヤー_2" xmlns="http://www.w3.org/2000/svg" xmlns:xlink="http://www.w3.org/1999/xlink" x="0px"
	 y="0px" viewBox="0 0 1000 1000" style="enable-background:new 0 0 1000 1000;" xml:space="preserve">
<style type="text/css">
	.st0{fill:#040000;}
	.st1{fill:#070001;}
</style>
<g>
	<path class="st0" d="M511,124.6c-215.2,0-389.7,174.4-389.7,389.7c0,215.2,174.4,389.7,389.7,389.7
		c215.2,0,389.7-174.5,389.7-389.7C900.6,299,726.1,124.6,511,124.6z M691.5,452.1L513.9,638.8c-13.7,13.9-32.1,21.6-51.6,21.6
		c-19.6,0-37.9-7.7-51.7-21.6l-80.2-89.3c-19-19.2-19-50.3,0-69.6c19-19.2,49.9-19.2,68.9,0l63,71.9l160.4-169.4
		c19-19.2,49.8-19.2,68.9,0C710.5,401.7,710.5,432.9,691.5,452.1z"/>
</g>
</svg>
