<?xml version="1.0" encoding="utf-8"?>
<!-- Generator: Adobe Illustrator 21.0.2, SVG Export Plug-In . SVG Version: 6.00 Build 0)  -->
<svg version="1.1" id="レイヤー_2" xmlns="http://www.w3.org/2000/svg" xmlns:xlink="http://www.w3.org/1999/xlink" x="0px"
	 y="0px" viewBox="0 0 1000 1000" style="enable-background:new 0 0 1000 1000;" xml:space="preserve">
<style type="text/css">
	.st0{fill:#040000;}
	.st1{fill:#070001;}
</style>
<g id="Icons_x2F_Ok-Circle-Icon" transform="translate(156.000000, 36.000000)">
	<g>
		<path class="st0" d="M464.6,346.5L304.2,515.9l-63-71.9c-19-19.2-49.8-19.2-68.9,0c-19,19.2-19,50.3,0,69.6l80.2,89.3
			c13.8,13.9,32.1,21.6,51.7,21.6c19.5,0,37.9-7.7,51.6-21.6l177.7-186.7c19-19.2,19-50.3,0-69.6
			C514.4,327.3,483.6,327.3,464.6,346.5z"/>
		<path class="st0" d="M352.9,88.6C137.7,88.6-36.7,263-36.7,478.2c0,215.2,174.4,389.7,389.7,389.7
			c215.2,0,389.7-174.5,389.7-389.7C742.6,263,568.1,88.6,352.9,88.6z M352.9,770.5c-161.4,0-292.2-130.9-292.2-292.2
			C60.7,316.8,191.5,186,352.9,186c161.4,0,292.2,130.8,292.2,292.2C645.1,639.6,514.3,770.5,352.9,770.5z"/>
	</g>
</g>
</svg>
