<svg id="レイヤー_2" data-name="レイヤー 2" xmlns="http://www.w3.org/2000/svg" viewBox="0 0 591.02 591.02"><defs><style>.cls-1{fill:#040000;}</style></defs><g id="Icons_Ok-Circle-Icon" data-name="Icons/Ok-Circle-Icon"><path class="cls-1" d="M361.79,217.36,266.63,317.83l-37.38-42.68a28.7,28.7,0,0,0-40.86,0,29.4,29.4,0,0,0,0,41.29l47.58,53a43.1,43.1,0,0,0,61.28,0l105.4-110.77a29.43,29.43,0,0,0,0-41.28A28.7,28.7,0,0,0,361.79,217.36Z"/><path class="cls-1" d="M295.51,64.33c-127.68,0-231.18,103.5-231.18,231.18s103.5,231.18,231.18,231.18S526.69,423.18,526.69,295.51,423.18,64.33,295.51,64.33Zm0,404.57A173.39,173.39,0,1,1,468.9,295.51,173.39,173.39,0,0,1,295.51,468.9Z"/></g></svg>