<?xml version="1.0" encoding="UTF-8"?><svg id="_イヤー_2" xmlns="http://www.w3.org/2000/svg" viewBox="0 0 591.02334 591.02334"><defs><style>.cls-1{fill:#040000;}</style></defs><path class="cls-1" d="M295.51167,64.32974c-127.68343,0-231.18193,103.4985-231.18193,231.18193,0,127.66932,103.4985,231.18193,231.18193,231.18193,127.66932,0,231.18193-103.51261,231.18193-231.18193,0-127.68343-103.51261-231.18193-231.18193-231.18193Zm107.13894,194.31191l-105.40338,110.76527c-8.1416,8.24037-19.03469,12.79797-30.61919,12.79797-11.62683,0-22.46348-4.5576-30.66152-12.79797l-47.57968-52.96978c-11.30229-11.41517-11.30229-29.87135,0-41.28652,11.30229-11.38695,29.58914-11.38695,40.86321,0l37.37799,42.68343,95.15936-100.47891c11.27407-11.38695,29.56092-11.38695,40.86321,0,11.25996,11.41517,11.25996,29.87135,0,41.28652Z"/></svg>