<svg id="レイヤー_2" data-name="レイヤー 2" xmlns="http://www.w3.org/2000/svg" viewBox="0 0 591.02 591.02"><defs><style>.cls-1{fill:#040000;}</style></defs><title>check-circle-filled</title><path class="cls-1" d="M295.51,64.33c-127.68,0-231.18,103.5-231.18,231.18s103.5,231.18,231.18,231.18S526.69,423.18,526.69,295.51,423.18,64.33,295.51,64.33ZM402.65,258.64,297.25,369.41a43.1,43.1,0,0,1-61.28,0l-47.58-53a29.36,29.36,0,0,1,0-41.29,28.7,28.7,0,0,1,40.86,0l37.38,42.68,95.16-100.47a28.7,28.7,0,0,1,40.86,0A29.45,29.45,0,0,1,402.65,258.64Z"/></svg>