<?xml version="1.0" encoding="UTF-8"?><svg id="_レイヤー_2" xmlns="http://www.w3.org/2000/svg" viewBox="0 0 591.02334 591.02334"><defs><style>.cls-1{fill:#040000;}</style></defs><path class="cls-1" d="m361.7874,217.35513l-95.15936,100.47891-37.37799-42.68343c-11.27407-11.38695-29.56092-11.38695-40.86321,0-11.28818,11.41517-11.28818,29.87135,0,41.28652l47.57968,52.96978c8.21215,8.24037,19.03469,12.79797,30.66152,12.79797,11.58449,0,22.47759-4.5576,30.61919-12.79797l105.40338-110.76527c11.27407-11.41517,11.27407-29.87135,0-41.28652-11.30229-11.38695-29.58914-11.38695-40.86321,0Z"/><path class="cls-1" d="m295.51167,64.32974c-127.68343,0-231.18193,103.4985-231.18193,231.18193,0,127.66932,103.4985,231.18193,231.18193,231.18193,127.66932,0,231.18193-103.51261,231.18193-231.18193,0-127.68343-103.51261-231.18193-231.18193-231.18193Zm0,404.56837c-95.7661,0-173.38645-77.63446-173.38645-173.38645,0-95.7661,77.62035-173.38645,173.38645-173.38645,95.75199,0,173.38645,77.62035,173.38645,173.38645,0,95.75199-77.63446,173.38645-173.38645,173.38645Z"/></svg>