<?xml version="1.0" encoding="UTF-8"?><svg id="_イヤー_2" xmlns="http://www.w3.org/2000/svg" viewBox="0 0 591.02334 591.02334"><defs><style>.cls-1{fill:#040000;}</style></defs><path class="cls-1" d="M510.14054,204.36787c-11.79358-27.74243-28.6449-52.64038-50.08533-74.0022-21.44019-21.36279-46.39966-38.12256-74.18457-49.81494-28.78052-12.1106-59.32483-18.22266-90.78491-18.16504-31.4599,.05762-61.98193,6.28101-90.71765,18.49683-27.74231,11.7937-52.64038,28.64478-74.00238,50.08569-21.3623,21.44019-38.12238,46.39941-49.81451,74.18481-12.11102,28.78003-18.22284,59.32471-18.16534,90.78467s6.28094,61.98169,18.49701,90.71777c11.79364,27.74194,28.64484,52.64038,50.08508,74.00244,21.44049,21.36206,46.39996,38.12231,74.18518,49.81421,28.78021,12.11133,59.32477,18.22314,90.78467,18.16553,31.46008-.05737,61.98206-6.28076,90.71777-18.49731,27.74207-11.79321,52.64014-28.64478,74.00244-50.08496,21.36206-21.44019,38.12207-46.40015,49.81421-74.18481,12.11133-28.78076,18.2229-59.32495,18.16528-90.78491-.05737-31.45996-6.28052-61.98218-18.49695-90.71777Z"/></svg>