<svg id="レイヤー_2" data-name="レイヤー 2" xmlns="http://www.w3.org/2000/svg" viewBox="0 0 591.02 591.02"><defs><style>.cls-1{fill:none;}.cls-2{fill:#040000;}</style></defs><path class="cls-1" d="M253.61,300.29a35.11,35.11,0,0,1,14-28.09v-122a21.17,21.17,0,1,1,42.33,0v122a35.21,35.21,0,0,1,13,36.31l56.14,56.14a18.91,18.91,0,0,1-26.74,26.74l-56.63-56.62a35.2,35.2,0,0,1-42.14-34.48Z"/><path class="cls-2" d="M295.51,50.43c-135.35,0-245.08,109.73-245.08,245.08S160.16,540.6,295.51,540.6,540.6,430.87,540.6,295.51,430.87,50.43,295.51,50.43Zm0,434.33C191,484.76,106.26,400,106.26,295.51S191,106.26,295.51,106.26,484.76,191,484.76,295.51,400,484.76,295.51,484.76Zm.24-150a35.2,35.2,0,0,1-42.14-34.48,35.11,35.11,0,0,1,14-28.09v-122a21.17,21.17,0,1,1,42.33,0v122a35.21,35.21,0,0,1,13,36.31l56.14,56.14a18.91,18.91,0,0,1-26.74,26.74Z"/></svg>