<?xml version="1.0" encoding="UTF-8"?><svg id="_イヤー_2" xmlns="http://www.w3.org/2000/svg" viewBox="0 0 591.02334 591.02334"><defs><style>.cls-1{fill:none;}.cls-2{fill:#040000;}</style></defs><path class="cls-1" d="M253.61144,300.28902c0-11.47656,5.49939-21.66675,14.00403-28.08618v-122.04492c0-11.68994,9.47632-21.16602,21.16614-21.16602s21.16626,9.47607,21.16626,21.16602v122.04492c8.50464,6.41943,14.00403,16.60962,14.00403,28.08618,0,2.83154-.34387,5.5813-.97571,8.21899l56.14502,56.14502c7.38428,7.38428,7.38428,19.35693,0,26.74146-7.38452,7.38452-19.35681,7.38452-26.74121,0l-56.62866-56.62866c-2.25305,.45312-4.58313,.69336-6.96973,.69336-19.42383,0-35.17017-15.74609-35.17017-35.17017Z"/><path class="cls-2" d="M295.51158,50.42793c-135.35596,0-245.08374,109.72778-245.08374,245.08374s109.72778,245.08374,245.08374,245.08374,245.08374-109.72778,245.08374-245.08374S430.86766,50.42793,295.51158,50.42793Zm0,434.33606c-104.52112,0-189.2522-84.73108-189.2522-189.25232S190.99046,106.25923,295.51158,106.25923s189.25244,84.7312,189.25244,189.25244-84.7312,189.25232-189.25244,189.25232Zm.23975-149.99817c-2.25305,.45312-4.58313,.69336-6.96973,.69336-19.42383,0-35.17017-15.74609-35.17017-35.17017,0-11.47656,5.49939-21.66675,14.00403-28.08618v-122.04492c0-11.68994,9.47632-21.16602,21.16614-21.16602s21.16626,9.47607,21.16626,21.16602v122.04492c8.50464,6.41943,14.00403,16.60962,14.00403,28.08618,0,2.83154-.34387,5.5813-.97571,8.21899l56.14502,56.14502c7.38428,7.38428,7.38428,19.35693,0,26.74146-7.38452,7.38452-19.35681,7.38452-26.74121,0l-56.62866-56.62866Z"/></svg>