<?xml version="1.0" encoding="UTF-8"?><svg id="_イヤー_2" xmlns="http://www.w3.org/2000/svg" viewBox="0 0 591.02334 591.02334"><defs><style>.cls-1{fill:#040000;}</style></defs><g id="Components"><g id="SliceIcon" transform="translate(-124.000000, -158.000000)"><g id="Icons" transform="translate(46.000000, 54.000000)"><g id="Group-3" transform="translate(78.000000, 104.000000)"><g id="Icons_Close-Icon"><path id="Close-Icon" class="cls-1" d="M254.64409,295.51167L72.79369,113.66127c-11.28527-11.28527-11.28527-29.58231,0-40.86758,11.28527-11.28527,29.58231-11.28527,40.86758,0l181.8504,181.85039L477.36207,72.79369c11.28526-11.28527,29.58231-11.28527,40.86757,0,11.28529,11.28527,11.28529,29.58231,0,40.86758l-181.8504,181.8504,181.8504,181.8504c11.28529,11.28526,11.28529,29.58231,0,40.86757-11.28526,11.28529-29.58231,11.28529-40.86757,0l-181.8504-181.8504-181.8504,181.8504c-11.28527,11.28529-29.58231,11.28529-40.86758,0-11.28527-11.28526-11.28527-29.58231,0-40.86757l181.85039-181.8504h0Z"/></g></g></g></g></g></svg>