<?xml version="1.0" encoding="UTF-8"?><svg id="_レイヤー_2" xmlns="http://www.w3.org/2000/svg" viewBox="0 0 591.02334 591.02334"><defs><style>.cls-1{fill:#040000;}</style></defs><g id="Components"><g id="SliceIcon"><g id="Icons"><g id="Icons_Close-Circle-Icon"><path id="Close-Circle-Icon" class="cls-1" d="m295.51167,526.6936c-127.67825,0-231.18193-103.50368-231.18193-231.18193s103.50368-231.18193,231.18193-231.18193,231.18193,103.50368,231.18193,231.18193-103.50368,231.18193-231.18193,231.18193h0Zm0-404.56837c-95.75868,0-173.38645,77.62776-173.38645,173.38645s77.62776,173.38645,173.38645,173.38645,173.38645-77.62776,173.38645-173.38645-77.62776-173.38645-173.38645-173.38645h0Zm81.73725,284.0153c-7.66973,0-15.02485-3.04899-20.44514-8.47534l-61.29212-61.29212-61.2921,61.29212c-11.28358,11.29154-29.58432,11.29802-40.87586.01444-11.29154-11.28355-11.29802-29.58429-.01444-40.87583l61.321-61.29212-61.321-61.2921c-7.29919-7.30436-10.1471-17.94792-7.47094-27.92138,2.67616-9.97345,10.4698-17.76159,20.44515-20.4307,9.97535-2.66911,20.6169.18631,27.91609,7.49067l61.2921,61.2921,61.29212-61.2921c7.29918-7.30436,17.94074-10.15978,27.91609-7.49067,9.97532,2.66911,17.76899,10.45725,20.44514,20.4307,2.67618,9.97346-.17175,20.61702-7.47092,27.92138l-61.32103,61.2921,61.32103,61.29212c5.42632,5.42028,8.47531,12.7754,8.47531,20.44514s-3.04899,15.02485-8.47531,20.44516c-5.42031,5.39744-12.77543,8.44643-20.44516,8.44643Z"/></g></g></g></g></svg>