<?xml version="1.0" encoding="utf-8"?>
<!-- Generator: Adobe Illustrator 21.0.2, SVG Export Plug-In . SVG Version: 6.00 Build 0)  -->
<svg version="1.1" id="レイヤー_2" xmlns="http://www.w3.org/2000/svg" xmlns:xlink="http://www.w3.org/1999/xlink" x="0px"
	 y="0px" viewBox="0 0 1000 1000" style="enable-background:new 0 0 1000 1000;" xml:space="preserve">
<style type="text/css">
	.st0{fill:#040000;}
	.st1{fill:#070001;}
</style>
<g>
	<path class="st0" d="M511.2,114.9c-215.2,0-389.7,174.4-389.7,389.7c0,215.2,174.5,389.7,389.7,389.7
		c215.2,0,389.7-174.5,389.7-389.7C900.8,289.3,726.4,114.9,511.2,114.9z M683.4,676.8c-9.1,9.1-21.5,14.2-34.5,14.2
		c-12.9,0-25.3-5.1-34.5-14.3L511.2,573.4L407.9,676.7c-19,19-49.9,19-68.9,0c-19-19-19-49.9,0-68.9l103.4-103.3L339,401.2
		c-12.3-12.3-17.1-30.3-12.6-47.1c4.5-16.8,17.6-29.9,34.5-34.4s34.7,0.3,47.1,12.6l103.3,103.3l103.3-103.3
		c12.3-12.3,30.3-17.1,47.1-12.6c16.8,4.5,29.9,17.6,34.4,34.4c4.5,16.8-0.3,34.7-12.6,47.1L580,504.5l103.4,103.3
		c9.2,9.1,14.3,21.5,14.3,34.5C697.7,655.2,692.6,667.6,683.4,676.8z"/>
</g>
</svg>
