<svg id="レイヤー_2" data-name="レイヤー 2" xmlns="http://www.w3.org/2000/svg" viewBox="0 0 591.02 591.02"><defs><style>.cls-1{fill:#040000;}</style></defs><path class="cls-1" d="M295.51,64.33c-127.67,0-231.18,103.5-231.18,231.18S167.84,526.69,295.51,526.69,526.69,423.18,526.69,295.51,423.2,64.33,295.51,64.33ZM397.7,397.7a28.95,28.95,0,0,1-40.89,0l-61.3-61.3-61.28,61.3a28.9,28.9,0,0,1-40.89-40.86l61.32-61.3-61.32-61.29a28.91,28.91,0,1,1,40.89-40.87l61.28,61.3,61.3-61.3a28.91,28.91,0,0,1,40.89,40.87l-61.33,61.29,61.33,61.3a28.89,28.89,0,0,1,0,40.89Z"/></svg>