<svg id="レイヤー_2" data-name="レイヤー 2" xmlns="http://www.w3.org/2000/svg" viewBox="0 0 591.02 591.02"><defs><style>.cls-1{fill:#040000;}</style></defs><title>close-circle</title><g id="Components"><g id="SliceIcon"><g id="Icons"><g id="Icons_Close-Circle-Icon" data-name="Icons/Close-Circle-Icon"><path id="Close-Circle-Icon" class="cls-1" d="M295.51,526.69c-127.68,0-231.18-103.5-231.18-231.18S167.83,64.33,295.51,64.33s231.18,103.5,231.18,231.18S423.19,526.69,295.51,526.69Zm0-404.56A173.39,173.39,0,1,0,468.9,295.51,173.37,173.37,0,0,0,295.51,122.13Zm81.74,284a28.93,28.93,0,0,1-20.45-8.47l-61.29-61.3-61.29,61.3a28.91,28.91,0,1,1-40.89-40.87l61.32-61.29-61.32-61.29a28.9,28.9,0,1,1,40.89-40.86l61.29,61.29,61.29-61.29a28.9,28.9,0,1,1,40.89,40.86l-61.32,61.29,61.32,61.29a28.9,28.9,0,0,1-20.44,49.34Z"/></g></g></g></g></svg>