<?xml version="1.0" encoding="UTF-8"?><svg id="_イヤー_2" xmlns="http://www.w3.org/2000/svg" viewBox="0 0 591.02334 591.02334"><defs><style>.cls-1{fill:#040000;}</style></defs><path class="cls-1" d="M295.51167,64.32974c-127.66932,0-231.18193,103.4985-231.18193,231.18193,0,127.66932,103.51261,231.18193,231.18193,231.18193,127.68343,0,231.18193-103.51261,231.18193-231.18193,0-127.68343-103.4985-231.18193-231.18193-231.18193Zm102.18625,333.36818c-5.41833,5.39011-12.76975,8.43791-20.44572,8.43791-7.66185,0-15.02739-3.04781-20.44572-8.46614l-61.29482-61.29482-61.28071,61.29482c-11.28818,11.28818-29.58914,11.28818-40.87732,.01411-11.30229-11.28818-11.30229-29.58914-.01411-40.87732l61.32304-61.29482-61.32304-61.29482c-7.3091-7.3091-10.15936-17.94821-7.47842-27.92414,2.68094-9.97593,10.46979-17.76477,20.44572-20.43161,9.97593-2.66683,20.61504,.18343,27.92414,7.49253l61.28071,61.29482,61.29482-61.29482c7.29499-7.3091,17.94821-10.15936,27.92414-7.49253,9.96182,2.66683,17.76477,10.45568,20.43161,20.43161,2.68094,9.97593-.16932,20.61504-7.46431,27.92414l-61.32304,61.29482,61.32304,61.29482c5.43244,5.41833,8.48025,12.76975,8.48025,20.44572,0,7.66185-3.04781,15.02739-8.48025,20.44572Z"/></svg>