<?xml version="1.0" encoding="UTF-8"?><svg id="_レイヤー_2" xmlns="http://www.w3.org/2000/svg" viewBox="0 0 591.02334 591.02334"><defs><style>.cls-1{fill:#040000;}</style></defs><path class="cls-1" d="m469.35579,151.06709l-63.15088-66.11987c-3.19482-3.3457-7.61963-5.23853-12.24609-5.23853h-149.09766c-15.02783,0-27.25342,12.22559-27.25342,27.25317v39.77246h-64.87109c-15.02808,0-27.25366,12.22559-27.25366,27.25293v301.57031c0,15.02759,12.22559,27.25317,27.25366,27.25317h201.9292c15.02783,0,27.25342-12.22559,27.25342-27.25317v-39.77222h64.87109c15.02832,0,27.25391-12.22559,27.25391-27.25317v-245.7688c0-4.35693-1.67969-8.5459-4.68848-11.69629Zm-121.30566,317.87402h-188.69775V180.60371h122.29785v48.40991c0,9.13916,7.40869,16.5481,16.54785,16.5481h49.85205v223.37939Zm92.12451-67.02539h-58.25537v-172.12695c0-4.35669-1.6792-8.5459-4.68848-11.69629l-63.15039-66.11987c-3.19482-3.3457-7.61963-5.23828-12.24609-5.23828h-50.35742v-33.15601h122.29785v48.40991c0,9.13916,7.40918,16.5481,16.54834,16.5481h49.85156v223.37939Z"/></svg>