<?xml version="1.0" encoding="UTF-8"?><svg id="_レイヤー_2" xmlns="http://www.w3.org/2000/svg" viewBox="0 0 591.02334 591.02334"><defs><style>.cls-1{fill:#231916;fill-rule:evenodd;}</style></defs><g id="mask0_13780_133859"><path class="cls-1" d="m497.52908,453.53799H93.50307c-24.20383,0-43.88344-19.68071-43.88344-43.87649v-228.2927c0-24.19578,19.67961-43.88344,43.88344-43.88344h404.02601c24.19578,0,43.87463,19.68766,43.87463,43.88344v228.2927c0,24.19578-19.67885,43.87649-43.87463,43.87649Zm-75.07139-90.74649h-24.5892v30.67047h24.5892v-30.67047Zm0-53.67847h-24.5892v30.67047h24.5892v-30.67047Zm-24.5892-53.67847h24.5892v30.67235h-24.5892v-30.67235Zm24.5892-53.66123h-24.5892v30.66259h24.5892v-30.66259Zm-167.92803,120.82238c9.05258,0,16.3928-7.33837,16.3928-16.3928,0-9.05258-7.34023-16.3928-16.3928-16.3928h-114.74962c-9.05351,0-16.3928,7.34023-16.3928,16.3928,0,9.05443,7.33929,16.3928,16.3928,16.3928h114.74962Zm73.76761-81.96401c0,9.05445-7.34023,16.3928-16.3928,16.3928h-172.12443c-9.05351,0-16.3928-7.33835-16.3928-16.3928,0-9.05258,7.33929-16.3928,16.3928-16.3928h172.12443c9.05258,0,16.3928,7.34023,16.3928,16.3928Z"/></g></svg>