<?xml version="1.0" encoding="utf-8"?>
<!-- Generator: Adobe Illustrator 21.0.2, SVG Export Plug-In . SVG Version: 6.00 Build 0)  -->
<svg version="1.1" id="レイヤー_2" xmlns="http://www.w3.org/2000/svg" xmlns:xlink="http://www.w3.org/1999/xlink" x="0px"
	 y="0px" viewBox="0 0 1000 1000" style="enable-background:new 0 0 1000 1000;" xml:space="preserve">
<style type="text/css">
	.st0{fill:#040000;}
	.st1{fill:#070001;}
	.st2{fill:#231916;}
</style>
<g id="Icon_x2F_Font_4_">
	<g id="SliceIcon_29_" transform="translate(-319.000000, -144.000000)">
		<g id="Icons_30_" transform="translate(103.000000, 44.000000)">
			<path id="Combined-Shape" class="st0" d="M697.5,275.1c8.5-13.8,28.5-13.8,36.9,0l155,251.7l138.3-109.5
				c14.2-11.3,35.1-1.1,35.1,17v479.2c0,12-9.7,21.7-21.7,21.7H390.7c-12,0-21.7-9.7-21.7-21.7V434.3c0-18.1,20.9-28.3,35.1-17
				l138.3,109.5L697.5,275.1z M566.6,570.4c-6.8,11.1-21.7,13.7-31.9,5.6l-122.3-96.9v412.7h607.2V479.1L897.3,576
				c-10.2,8.1-25.1,5.4-31.9-5.6L716,327.8L566.6,570.4z"/>
		</g>
	</g>
</g>
</svg>
