<?xml version="1.0" encoding="UTF-8"?><svg id="_レイヤー_2" xmlns="http://www.w3.org/2000/svg" viewBox="0 0 591.02334 591.02334"><defs><style>.cls-1{fill:#040000;}</style></defs><g id="SliceIcon"><g id="Icons"><path id="Combined-Shape" class="cls-1" d="m284.55651,102.74767c5.02457-8.15909,16.88574-8.15909,21.91031,0l91.9797,149.35788,82.0664-64.99043c8.43423-6.67924,20.85353-.67239,20.85353,10.08615v284.32779c0,7.10555-5.76018,12.86592-12.86592,12.86592H102.5228c-7.10575,0-12.86592-5.76038-12.86592-12.86592V197.20128c0-10.75854,12.4193-16.7654,20.85353-10.08615l82.0664,64.99043,91.9797-149.35788Zm-77.66161,175.17945c-4.04043,6.56077-12.90244,8.12317-18.94277,3.33957l-72.56341-57.46486v244.8613h360.24589v-244.8613l-72.56341,57.46486c-6.04033,4.78359-14.90234,3.22119-18.94277-3.33957l-88.61677-143.89719-88.61677,143.89719Z"/></g></g></svg>