<?xml version="1.0" encoding="utf-8"?>
<!-- Generator: Adobe Illustrator 26.3.1, SVG Export Plug-In . SVG Version: 6.00 Build 0)  -->
<svg version="1.1" id="_イヤー_2" xmlns="http://www.w3.org/2000/svg" xmlns:xlink="http://www.w3.org/1999/xlink" x="0px"
	 y="0px" viewBox="0 0 591 591" style="enable-background:new 0 0 591 591;" xml:space="preserve">
<style type="text/css">
	.st0{fill:#040000;}
</style>
<g id="SliceIcon" transform="translate(-319.000000, -144.000000)">
	<g id="Icons" transform="translate(103.000000, 44.000000)">
		<path id="Combined-Shape" class="st0" d="M500.6,202.7c5-8.2,16.9-8.2,21.9,0l92,149.4l82.1-65c8.4-6.7,20.9-0.7,20.9,10.1v284.3
			c0,7.1-5.8,12.9-12.9,12.9h-386c-7.1,0-12.9-5.8-12.9-12.9V297.2c0-10.8,12.4-16.8,20.9-10.1l82.1,65
			C408.6,352.1,500.6,202.7,500.6,202.7z M422.9,377.9c-4,6.6-12.9,8.1-18.9,3.3l-72.6-57.5v244.9h360.2V323.8l-72.6,57.5
			c-6,4.8-14.9,3.2-18.9-3.3L511.5,234L422.9,377.9z"/>
	</g>
</g>
</svg>
