<svg id="レイヤー_2" data-name="レイヤー 2" xmlns="http://www.w3.org/2000/svg" viewBox="0 0 591.02 591.02"><defs><style>.cls-1{fill:#040000;}</style></defs><g id="Icon_Font" data-name="Icon/Font"><g id="SliceIcon"><g id="Icons"><path id="Combined-Shape" class="cls-1" d="M284.56,102.75a12.86,12.86,0,0,1,21.91,0l92,149.36,82.06-65a12.87,12.87,0,0,1,20.86,10.08V481.53a12.87,12.87,0,0,1-12.87,12.86h-386a12.86,12.86,0,0,1-12.86-12.86V197.2a12.86,12.86,0,0,1,20.85-10.08l82.07,65ZM206.89,277.93A12.87,12.87,0,0,1,188,281.27L115.39,223.8V468.66H475.63V223.8l-72.56,57.47a12.87,12.87,0,0,1-18.94-3.34L295.51,134Z"/></g></g></g></svg>