<?xml version="1.0" encoding="utf-8"?>
<!-- Generator: Adobe Illustrator 21.0.2, SVG Export Plug-In . SVG Version: 6.00 Build 0)  -->
<svg version="1.1" id="レイヤー_2" xmlns="http://www.w3.org/2000/svg" xmlns:xlink="http://www.w3.org/1999/xlink" x="0px"
	 y="0px" viewBox="0 0 1000 1000" style="enable-background:new 0 0 1000 1000;" xml:space="preserve">
<style type="text/css">
	.st0{fill:#040000;}
</style>
<g>
	<rect x="305.4" y="439.1" class="st0" width="81.4" height="46.9"/>
	<rect x="618.4" y="439.1" class="st0" width="81.4" height="46.9"/>
	<path class="st0" d="M868.7,407.5c-20.2-47.7-49-90.4-85.7-127.2c-7.4-7.4-15-14.4-22.9-21.2c0.2-16.9-8.3-33.5-23.9-42.8
		c-61.4-36.6-169.2-108.7-197-146.5c-9.6-13.1-25.1-20.6-41.4-20c-16.3,0.6-31.2,9.3-39.7,23.2c-4.8,7.7-23,30.8-88.8,78
		c-42.4,30.4-86.3,57.9-110,72.7c-4.8,3-8.7,5.4-11.5,7.2c-14.8,9.4-22.8,25.4-22.7,41.6c-2.7,2.5-5.4,5.1-8,7.8
		c-36.7,36.7-65.6,79.5-85.7,127.2c-20.9,49.4-31.5,101.8-31.5,155.8s10.6,106.4,31.5,155.8c20.2,47.7,49,90.4,85.7,127.2
		c36.7,36.7,79.5,65.6,127.2,85.7c7,2.9,14,5.7,21.1,8.2l12.7-61.9c3.1-15.1,17.4-25.1,32.6-22.9l13.5,2
		c12.6,1.9,22.6,11.8,24.5,24.5l1.5,10.3l2.8-13.9c3.1-15.1,17.4-25.1,32.6-22.9l13.5,2c10.9,1.6,19.7,9.2,23.2,19.3
		c3.7-14.2,17.6-23.5,32.3-21.3l13.5,2c12.6,1.9,22.6,11.8,24.5,24.5l10.1,68.2l0,0c18-4.8,35.7-10.8,53-18.2
		c47.7-20.2,90.4-49,127.2-85.7c36.7-36.7,65.6-79.5,85.7-127.2c20.9-49.4,31.5-101.8,31.5-155.8S889.5,456.9,868.7,407.5z
		 M200.2,529.3V395.9c0-21.5,17.5-39,39-39H453c21.5,0,39,17.5,39,39v133.4c0,21.5-17.5,39-39,39H239.2
		C217.7,568.3,200.2,550.8,200.2,529.3z M675.8,739.2c-30.4,34.7-89.4,52.3-175.4,52.3c-75.2,0-128.9-9.2-164.2-28
		c-24.6-13.2-40.1-31.3-44.8-52.4c-4.5-18.4,5.8-37.5,24.1-43.6c19.3-6.4,40.1,4,46.5,23.2c0.3,0.8,0.5,1.6,0.7,2.3
		c4,4,29.7,25,137.7,25c96,0,121-24.4,123-31.8c-0.8-18.8,12.9-35.5,31.9-38.1c20.1-2.7,38.6,11.5,41.3,31.6
		C697.2,684.9,699.5,712.2,675.8,739.2z M804.5,529.3c0,21.5-17.5,39-39,39H551.7c-21.5,0-39-17.5-39-39V395.9c0-21.5,17.5-39,39-39
		h213.8c21.5,0,39,17.5,39,39V529.3z"/>
</g>
</svg>
