<svg id="レイヤー_2" data-name="レイヤー 2" xmlns="http://www.w3.org/2000/svg" viewBox="0 0 591.02 591.02"><defs><style>.cls-1{fill:#040000;}</style></defs><title>cutted-tag-thin</title><path class="cls-1" d="M543.63,106.33a11.6,11.6,0,0,0-16,3.86C515.61,130,512,142.69,508,169.13c-2.13,14-3.75,20.07-7.85,26.9a58.47,58.47,0,0,1-13.49,15,41.17,41.17,0,0,1-17.28,8.69l4.71-80.94a11.61,11.61,0,0,0-11.45-12.28l-53.54-.63c2-4.73,3.29-10.27,4.7-18.39,3.7-21.21,6.52-29.54,16.69-41.88a11.61,11.61,0,0,0-17.92-14.76c-13.41,16.27-17.3,27.77-21.64,52.66-1.65,9.47-2.83,13.45-5.08,16.61a67.52,67.52,0,0,1-4.26,5.44L261,124.11a11.63,11.63,0,0,0-8,3.12L45.52,320.61A11.61,11.61,0,0,0,45,337l190,203.72a11.6,11.6,0,0,0,16.4.57L458.71,347.92a11.63,11.63,0,0,0,3.67-7.81L468,243.57c12-1.35,23.16-6.19,33.42-14.63a81.81,81.81,0,0,0,18.64-21c6.09-10.16,8.34-18.55,10.89-35.36,3.58-23.64,6.47-33.82,16.55-50.33A11.6,11.6,0,0,0,543.63,106.33ZM446.19,218.52a79.18,79.18,0,0,1-12.09-4.62,42.07,42.07,0,1,0-13.17,19.28,104.62,104.62,0,0,0,23.89,8.89l-5.35,92.05L244,516.42,69.84,329.67,265.33,147.38l184.87,2.17Zm-55.09-4.85q3.64,2.9,7.24,5.5a18.77,18.77,0,1,1,14.65-18q-3.67-2.65-7.47-5.66a11.61,11.61,0,1,0-14.42,18.19Z"/></svg>