<?xml version="1.0" encoding="utf-8"?>
<!-- Generator: Adobe Illustrator 21.0.2, SVG Export Plug-In . SVG Version: 6.00 Build 0)  -->
<svg version="1.1" id="レイヤー_2" xmlns="http://www.w3.org/2000/svg" xmlns:xlink="http://www.w3.org/1999/xlink" x="0px"
	 y="0px" viewBox="0 0 1000 1000" style="enable-background:new 0 0 1000 1000;" xml:space="preserve">
<style type="text/css">
	.st0{fill:#040000;}
	.st1{fill:#070001;}
</style>
<path class="st0" d="M921.2,196c-9.2-5.6-21.3-2.7-26.9,6.5c-20.3,33.3-26.4,54.8-33.2,99.4c-3.6,23.6-6.3,33.8-13.2,45.3
	c-5.1,8.5-12.4,16.7-22.7,25.3c-8.9,7.4-18.6,12.3-29.1,14.6l7.9-136.4c0.6-11.1-8.1-20.6-19.3-20.7l-90.2-1.1
	c3.4-8,5.5-17.3,7.9-31c6.2-35.7,11-49.8,28.1-70.6c6.9-8.3,5.7-20.7-2.7-27.5s-20.7-5.7-27.5,2.7c-22.6,27.4-29.2,46.8-36.5,88.8
	c-2.8,16-4.8,22.7-8.6,28c-3,4.3-5.4,7.2-7.2,9.2L444.8,226c-5-0.1-9.9,1.8-13.6,5.3L81.7,557.2c-7.9,7.4-8.3,19.7-1,27.6
	l320.2,343.4c7.4,7.9,19.7,8.3,27.6,1l349.5-325.9c3.7-3.4,5.9-8.1,6.2-13.2l9.5-162.7c20.2-2.3,39-10.4,56.3-24.7
	c13.7-11.3,23.9-22.9,31.4-35.3c10.3-17.1,14.1-31.3,18.4-59.6c6-39.8,10.9-57,27.9-84.8C933.4,213.7,930.5,201.6,921.2,196z
	 M757,385.1c-6.5-1.9-13.3-4.5-20.4-7.8c7.8-23.7,2.8-50.6-15.3-70.1c-26.6-28.5-71.2-29.9-99.8-3.2s-30.3,71.3-3.8,99.8
	c25.6,27.4,68.1,29.7,96.7,6c13.8,7,27.3,12,40.3,15l-9,155.2L416.2,887.2L122.7,572.4l329.5-307.3l311.6,3.7L757,385.1z
	 M664.2,376.9c4.1,3.2,8.2,6.3,12.2,9.3c-10.6,2.5-22.1-0.6-30-9c-11.8-12.6-11-32.6,1.8-44.5c12.8-12,32.8-11.3,44.5,1.3
	c5.7,6.1,8.5,14,8.3,21.9c-4.1-3-8.3-6.1-12.6-9.5c-8.5-6.7-20.8-5.3-27.5,3.2C654.3,357.9,655.7,370.2,664.2,376.9z"/>
</svg>
