<?xml version="1.0" encoding="UTF-8"?><svg id="_レイヤー_2" xmlns="http://www.w3.org/2000/svg" viewBox="0 0 591.02334 591.02334"><defs><style>.cls-1{fill:#040000;}</style></defs><path class="cls-1" d="m543.6335,106.32954c-5.47066-3.3408-12.61345-1.6142-15.95425,3.85646-12.06911,19.76364-15.68802,32.50152-19.69396,58.94747-2.1203,13.9985-3.74956,20.06681-7.84531,26.89803-3.02126,5.0393-7.33458,9.91883-13.48631,14.98333-5.30814,4.3701-11.05024,7.28171-17.27875,8.68022l4.70354-80.93324c.38414-6.60975-4.82985-12.20107-11.45032-12.279l-53.53823-.6298c2.00384-4.73091,3.28807-10.27443,4.70209-18.3951,3.69336-21.20981,6.51415-29.53414,16.68516-41.87441,4.07692-4.9463,3.3718-12.26118-1.57451-16.3381-4.9463-4.07692-12.26118-3.37209-16.3381,1.57436-13.41099,16.27133-17.30801,27.77104-21.64103,52.65625-1.64925,9.47182-2.83209,13.45054-5.0813,16.61216-1.79729,2.52588-3.21246,4.25595-4.26349,5.44125l-120.62419-1.4188c-2.98505-.0352-5.8687,1.08115-8.05187,3.11715L45.52171,320.61356c-4.68804,4.37169-4.94457,11.71582-.57288,16.40386l189.97197,203.72003c4.37154,4.68804,11.71597,4.94442,16.40386.57288l207.38094-193.38592c2.18316-2.03585,3.4981-4.83477,3.67134-7.8149l5.61058-96.5442c11.98017-1.34434,23.15759-6.18085,33.42015-14.62975,8.12748-6.6913,14.20042-13.56149,18.64091-20.96777,6.08772-10.15392,8.34128-18.54676,10.88772-35.35808,3.58067-23.64009,6.47185-33.81646,16.55364-50.32577,3.3408-5.47066,1.6142-12.6136-3.85646-15.9544Zm-97.44226,112.18978c-3.87877-1.10592-7.90731-2.64407-12.09345-4.62358,4.61112-14.03167,1.68257-30.0401-9.069-41.56965-15.7532-16.89345-42.27274-17.7175-59.23109-1.90361-16.95835,15.81389-17.98619,42.32648-2.23299,59.21979,15.18626,16.28523,40.37435,17.63102,57.36051,3.5404,8.21091,4.16108,16.18456,7.13005,23.89777,8.88287l-5.34985,92.05417-195.49116,182.29845-174.14099-186.74343,195.49116-182.29845,184.86735,2.17462-4.00826,68.96842Zm-55.09159-4.84766c2.4297,1.92562,4.8423,3.75637,7.23898,5.50151-6.29282,1.46326-13.12796-.35488-17.79702-5.36188-6.98288-7.48812-6.52429-19.31432,1.08695-26.41206,7.61153-7.09775,19.44077-6.73027,26.42365.75785,3.40106,3.64701,5.03148,8.32303,4.93559,12.98079-2.44476-1.7647-4.93356-3.64788-7.47044-5.65838-5.02365-3.98132-12.32376-3.13642-16.30508,1.88724-3.98103,5.0238-3.13627,12.32361,1.88738,16.30493Z"/></svg>