<?xml version="1.0" encoding="utf-8"?>
<!-- Generator: Adobe Illustrator 21.0.2, SVG Export Plug-In . SVG Version: 6.00 Build 0)  -->
<svg version="1.1" id="レイヤー_2" xmlns="http://www.w3.org/2000/svg" xmlns:xlink="http://www.w3.org/1999/xlink" x="0px"
	 y="0px" viewBox="0 0 1000 1000" style="enable-background:new 0 0 1000 1000;" xml:space="preserve">
<style type="text/css">
	.st0{fill:#040000;}
	.st1{fill:#070001;}
	.st2{fill:#231916;}
	.st3{fill-rule:evenodd;clip-rule:evenodd;fill:#070102;}
</style>
<g>
	<path class="st0" d="M500.7,892.9c-53,0.1-104.5-10.2-153-30.6c-46.8-19.7-88.9-48-125-84c-36.1-36-64.5-78-84.4-124.7
		c-20.6-48.4-31.1-99.9-31.2-152.9s10.2-104.5,30.6-153c19.7-46.8,48-88.9,84-125c36-36.1,78-64.5,124.7-84.4
		c48.4-20.6,99.9-31.1,152.9-31.2s104.5,10.2,153,30.6c46.8,19.7,88.9,48,125,84c36.1,36,64.5,78,84.4,124.7
		c20.6,48.4,31.1,99.9,31.2,152.9c0.1,53-10.2,104.5-30.6,153c-19.7,46.8-48,88.9-84,125c-36,36.1-78,64.5-124.7,84.4
		C605.2,882.3,553.7,892.8,500.7,892.9z M499.4,197.1c-80.9,0.1-156.9,31.8-214,89.1c-57.1,57.3-88.5,133.5-88.3,214.4
		s31.8,156.9,89.1,214c57.3,57.1,133.5,88.5,214.4,88.3c80.9-0.1,156.9-31.8,214-89.1c57.1-57.3,88.5-133.5,88.3-214.4
		c-0.1-80.9-31.8-156.9-89.1-214C656.5,228.3,580.4,196.9,499.4,197.1z"/>
</g>
</svg>
