<?xml version="1.0" encoding="UTF-8"?><svg id="_レイヤー_2" xmlns="http://www.w3.org/2000/svg" viewBox="0 0 591.02334 591.02334"><defs><style>.cls-1{fill:#040000;}</style></defs><path class="cls-1" d="m295.93784,528.63769c-31.46.05749-62.00453-6.05437-90.78475-18.16564-27.78521-11.69187-52.74469-28.45225-74.18521-49.81425-21.44023-21.36201-38.29143-46.26036-50.08506-74.00235-12.21609-28.73605-18.43955-59.25775-18.49704-90.71775-.05749-31.46,6.05437-62.00482,18.16535-90.78475,11.69215-27.7855,28.45225-52.74469,49.81455-74.18492,21.36201-21.44081,46.26007-38.29172,74.00235-50.08564,28.73576-12.2158,59.25775-18.43926,90.71775-18.49675,31.46-.05749,62.00424,6.05437,90.78474,18.16506,27.78492,11.69244,52.7444,28.45225,74.18463,49.81484,21.44052,21.36201,38.29172,46.25978,50.08535,74.00235,12.21638,28.73547,18.43955,59.25775,18.49704,90.71775.05749,31.46-6.05408,62.00424-18.16535,90.78475-11.69216,27.78492-28.45225,52.74469-49.81426,74.18492-21.3623,21.44023-46.26035,38.29172-74.00235,50.08506-28.73576,12.21638-59.25775,18.43984-90.71775,18.49733Zm-.75447-412.85499c-48.00753.08773-93.10709,18.86556-126.99152,52.87378-33.88415,34.00822-52.49672,79.17611-52.40899,127.18363.08773,48.00753,18.86527,93.10709,52.87377,126.99124,34.00822,33.88415,79.1764,52.49701,127.18364,52.40928,48.00724-.08773,93.1068-18.86556,126.99095-52.87377,33.88444-34.00822,52.49701-79.17669,52.40928-127.18364-.08773-48.00753-18.86527-93.10709-52.87377-126.99124-34.00822-33.88415-79.17611-52.49701-127.18335-52.40928Z"/></svg>