<svg id="レイヤー_2" data-name="レイヤー 2" xmlns="http://www.w3.org/2000/svg" viewBox="0 0 591.02 591.02"><defs><style>.cls-1{fill:#040000;}</style></defs><path class="cls-1" d="M434.6,170.86V365.25a28.28,28.28,0,0,1,.17,3.07h0a28.17,28.17,0,0,1-25.37,28,28.9,28.9,0,0,1-3,.15H191.7l28.2,28.19a28.17,28.17,0,0,1,0,39.82h0a28.17,28.17,0,0,1-39.82,0l-73-72.95a26.35,26.35,0,0,1-2.45-2.18h0a28.15,28.15,0,0,1,0-39.82l75.13-75.13a28.15,28.15,0,0,1,39.82,0h0a28.15,28.15,0,0,1,0,39.82l-25.94,25.93H378.28V143.33c0-.21,0-.42,0-.63h0a28.15,28.15,0,0,1,28.15-28.16h.6a28.16,28.16,0,0,1,28.16,28.16Z"/></svg>