<?xml version="1.0" encoding="UTF-8"?><svg id="_レイヤー_2" xmlns="http://www.w3.org/2000/svg" viewBox="0 0 591.02334 591.02334"><defs><style>.cls-1{fill:#040000;}</style></defs><path class="cls-1" d="m434.59693,170.85653l.00005,194.39075c.10954,1.00947.16996,2.03354.16996,3.0721h0c-.00009,14.60764-11.12485,26.61525-25.36384,28.0172-.97365.10185-1.96155.15597-2.96213.15597l-.00009-.00009c-.22839.00017-.45385-.01174-.68095-.01718h-214.05616s28.19273,28.19274,28.19273,28.19274c10.99554,10.99555,10.99563,28.82298.00008,39.81852l-.00009.00009c-10.99563,10.99563-28.82298,10.99545-39.81852-.00009l-72.9483-72.94832c-.84772-.67163-1.66919-1.39263-2.45247-2.17592l-.00004-.00004c-10.99559-10.99559-10.9955-28.82302.00005-39.81856l75.13529-75.13526c10.99555-10.99554,28.82298-10.99563,39.81856-.00004l.00004.00004c10.99559,10.99559,10.9955,28.82302-.00005,39.81856l-25.93629,25.93628,184.59013.00008.00012-196.82963c-.00466-.21122-.01601-.42084-.01601-.63318l.00004-.00004c-.00004-15.55009,12.60583-28.15596,28.15592-28.15591l.59639-.00004c15.55009.00005,28.15587,12.60583,28.15591,28.15592l-.58034,28.15605Z"/></svg>