<?xml version="1.0" encoding="utf-8"?>
<!-- Generator: Adobe Illustrator 21.0.2, SVG Export Plug-In . SVG Version: 6.00 Build 0)  -->
<svg version="1.1" id="レイヤー_2" xmlns="http://www.w3.org/2000/svg" xmlns:xlink="http://www.w3.org/1999/xlink" x="0px"
	 y="0px" viewBox="0 0 1000 1000" style="enable-background:new 0 0 1000 1000;" xml:space="preserve">
<style type="text/css">
	.st0{fill:#040000;}
	.st1{fill:#070001;}
</style>
<g>
	<path class="st0" d="M544.6,330.9c-11.8,0-21.4,9.7-21.4,21.4v76.2c0,11.8,9.7,21.4,21.4,21.4h14.9c11.8,0,21.4-9.7,21.4-21.4
		v-76.2c0-11.8-9.7-21.4-21.4-21.4H544.6z"/>
	<path class="st0" d="M443.9,330.9h-14.9c-11.8,0-21.4,9.7-21.4,21.4v76.2c0,11.8,9.7,21.4,21.4,21.4h14.9
		c11.8,0,21.4-9.7,21.4-21.4v-76.2C465.4,340.5,455.7,330.9,443.9,330.9z"/>
	<path class="st0" d="M338.8,404.4c2.9,0,5.3-1,7.2-3c1.9-2,2.9-4.4,2.9-7.3s-1-5.3-2.9-7.3c-1.9-2-4.3-3-7.2-3h-29.2l33.1-53.1
		c1-1.6,1.5-3.3,1.5-5c0-1.9-0.6-3.7-1.7-5.6c-2.1-3.5-5.2-5.2-9.2-5.2c-4.1,0-7.2,1.6-9.2,4.9l-37,62.8l-37-62.8
		c-2-3.2-5-4.9-9.2-4.9c-4.1,0-7.2,1.7-9.2,5.2c-1.3,1.9-1.9,3.7-1.9,5.6c0,1.7,0.5,3.4,1.5,5l33.3,53.1h-29.2c-3,0-5.5,1-7.4,3
		c-1.9,2-2.9,4.4-2.9,7.3s1,5.3,3,7.3c2,2,4.4,3,7.3,3H276v14.8h-40.4c-3,0-5.5,1-7.4,3c-1.9,2-2.9,4.4-2.9,7.3c0,2.9,1,5.3,3,7.3
		c2,2,4.4,3,7.3,3H276v25.1c0,3.1,1.2,5.8,3.5,7.9c2.3,2.2,5,3.3,8.1,3.3c3.1,0,5.9-1.1,8.2-3.4c2.4-2.3,3.6-4.9,3.6-7.9v-25.1h39.4
		c2.9,0,5.3-1,7.2-3.1c1.9-2.1,2.9-4.5,2.9-7.2c0-2.9-1-5.3-2.9-7.3c-1.9-2-4.3-3-7.2-3h-39.4v-14.8H338.8z"/>
	<path class="st0" d="M433.7,742.5H228.9c-36.9,0-67-30-67-67V269c0-36.9,30-67,67-67h69.9v20.5c0,4.4,3.5,7.9,7.9,7.9h205.5
		c4.4,0,7.9-3.5,7.9-7.9V202h77.1c36.9,0,67,30,67,67v165.8c4.5,0,8.9,0.2,13.3,0.4c0.6,0,1.3,0.1,1.9,0.1c3.9,0.3,7.7,0.6,11.5,1
		c0.5,0.1,1,0.1,1.5,0.2c4,0.5,8,1.1,12,1.8c0.2,0,0.4,0.1,0.6,0.1c4.3,0.8,8.5,1.6,12.7,2.6V269c0-66.5-54.1-120.6-120.6-120.6
		h-77.1v-28.3c0-4.4-3.5-7.9-7.9-7.9H306.7c-4.4,0-7.9,3.5-7.9,7.9v28.3h-69.9c-66.5,0-120.6,54.1-120.6,120.6v406.5
		c0,66.5,54.1,120.6,120.6,120.6h226.9c0,0,0,0,0,0C446.4,779.4,439,761.4,433.7,742.5z"/>
	<path class="st0" d="M894.4,872.6l-81.8-82.9c23.1-31.4,36.8-70.4,36.8-112.7c0-104.2-83.2-188.6-185.9-188.6
		S477.7,572.8,477.7,677c0,104.2,83.2,188.6,185.9,188.6c41.8,0,80.4-14,111.4-37.6l82,83.1c5.2,5.3,12,8,18.7,8
		c6.8,0,13.6-2.7,18.7-8C904.7,900.5,904.7,883.3,894.4,872.6z M663.5,811.8c-73.3,0-132.8-60.3-132.8-134.7
		c0-74.4,59.4-134.7,132.8-134.7c73.3,0,132.8,60.3,132.8,134.7C796.3,751.4,736.9,811.8,663.5,811.8z"/>
</g>
</svg>
