<svg id="レイヤー_2" data-name="レイヤー 2" xmlns="http://www.w3.org/2000/svg" viewBox="0 0 591.02 591.02"><defs><style>.cls-1{fill:#040000;}</style></defs><title>estimate</title><path class="cls-1" d="M327.69,185.9a12.77,12.77,0,0,1,12.73,12.73v45.23a12.77,12.77,0,0,1-12.73,12.72h-8.82a12.77,12.77,0,0,1-12.72-12.72V198.63a12.77,12.77,0,0,1,12.72-12.73Zm-68.53,0h-8.82a12.76,12.76,0,0,0-12.72,12.73v45.23a12.76,12.76,0,0,0,12.72,12.72h8.82a12.76,12.76,0,0,0,12.72-12.72V198.63A12.76,12.76,0,0,0,259.16,185.9ZM196.8,229.51a5.69,5.69,0,0,0,4.27-1.78,6.3,6.3,0,0,0,0-8.65,5.72,5.72,0,0,0-4.27-1.77H179.49l19.64-31.51a5.65,5.65,0,0,0,.89-3,6.36,6.36,0,0,0-1-3.33,6,6,0,0,0-5.43-3.11,5.93,5.93,0,0,0-5.44,2.89l-22,37.27-22-37.27a6,6,0,0,0-5.44-2.89,6.89,6.89,0,0,0-6.54,6.44,5.63,5.63,0,0,0,.88,3l19.75,31.51h-17.3a5.86,5.86,0,0,0-4.39,1.77,6,6,0,0,0-1.72,4.33,6.08,6.08,0,0,0,6.11,6.1h24v8.76h-24a5.87,5.87,0,0,0-4.39,1.78,6,6,0,0,0-1.72,4.32,6.08,6.08,0,0,0,6.11,6.11h24v14.86a6.27,6.27,0,0,0,2.06,4.72A6.81,6.81,0,0,0,166.4,272a6.92,6.92,0,0,0,4.89-2,6.23,6.23,0,0,0,2.1-4.66V250.48H196.8a5.63,5.63,0,0,0,4.27-1.83,6.06,6.06,0,0,0,1.72-4.28,6,6,0,0,0-1.72-4.32,5.73,5.73,0,0,0-4.27-1.78H173.39v-8.76ZM253.1,430.1H131.56a39.79,39.79,0,0,1-39.74-39.74V149.19a39.78,39.78,0,0,1,39.74-39.74H173v12.13a4.7,4.7,0,0,0,4.7,4.7H299.66a4.7,4.7,0,0,0,4.69-4.7V109.45h45.74a39.78,39.78,0,0,1,39.74,39.74v98.36c2.65,0,5.28.1,7.89.25.38,0,.76.07,1.14.09,2.29.16,4.57.36,6.84.62l.89.12c2.4.3,4.78.65,7.14,1.07l.38.07q3.81.67,7.54,1.56V149.19a71.64,71.64,0,0,0-71.56-71.56H304.35V60.83a4.69,4.69,0,0,0-4.69-4.69H177.72a4.69,4.69,0,0,0-4.7,4.69v16.8H131.56A71.64,71.64,0,0,0,60,149.19V390.36a71.63,71.63,0,0,0,71.55,71.55H266.17A143.93,143.93,0,0,1,253.1,430.1Zm273.3,100a15.4,15.4,0,0,1-22.23,0l-48.62-49.3a108.74,108.74,0,0,1-66.1,22.32c-60.92,0-110.3-50.1-110.3-111.91s49.38-111.91,110.3-111.91,110.29,50.11,110.29,111.91a112.53,112.53,0,0,1-21.84,66.86l48.5,49.19A16.44,16.44,0,0,1,526.4,530.15ZM468.22,391.26c0-44.15-35.27-79.93-78.77-79.93s-78.78,35.78-78.78,79.93,35.27,79.94,78.78,79.94S468.22,435.41,468.22,391.26Z"/></svg>