<?xml version="1.0" encoding="UTF-8"?><svg id="_レイヤー_2" xmlns="http://www.w3.org/2000/svg" viewBox="0 0 591.02334 591.02334"><defs><style>.cls-1{fill:#040000;}</style></defs><path class="cls-1" d="m327.69299,185.90362c6.99931,0,12.72488,5.72635,12.72488,12.72488v45.22677c0,6.99853-5.72558,12.72488-12.72488,12.72488h-8.81826c-6.99775,0-12.72488-5.72635-12.72488-12.72488v-45.22677c0-6.99853,5.72713-12.72488,12.72488-12.72488h8.81826Zm-68.5345,0h-8.8167c-6.99931,0-12.72488,5.72635-12.72488,12.72488v45.22677c0,6.99853,5.72558,12.72488,12.72488,12.72488h8.8167c6.99931,0,12.72488-5.72635,12.72488-12.72488v-45.22677c0-6.99853-5.72558-12.72488-12.72488-12.72488Zm-62.36001,43.6082c1.70245,0,3.1253-.59027,4.27477-1.77701,1.14325-1.18053,1.72109-2.62202,1.72109-4.32447s-.57784-3.14394-1.72109-4.33069c-1.14946-1.18053-2.57232-1.7708-4.27477-1.7708h-17.3041l19.6341-31.50776c.59648-.95685.88851-1.9572.88851-2.99482,0-1.11218-.32931-2.21816-.99413-3.33034-1.2613-2.06904-3.07559-3.10666-5.43666-3.10666-2.44184,0-4.25613.96306-5.43666,2.88919l-21.96409,37.27372-21.97031-37.27372c-1.18053-1.92613-2.99482-2.88919-5.43666-2.88919-2.43562,0-4.24991,1.03762-5.43044,3.10666-.7456,1.11218-1.11218,2.21816-1.11218,3.33034,0,1.03762.29203,2.03797.88851,2.99482l19.74594,31.50776h-17.3041c-1.77701,0-3.23714.59027-4.38661,1.7708-1.14325,1.18674-1.71488,2.62824-1.71488,4.33069s.59027,3.14394,1.7708,4.32447c1.18674,1.18674,2.62824,1.77701,4.33069,1.77701h23.95857v8.76078h-23.95857c-1.77701,0-3.23714.59648-4.38661,1.77701-1.14325,1.18674-1.71488,2.62824-1.71488,4.32447,0,1.70245.59027,3.14394,1.7708,4.33069,1.18674,1.18053,2.62824,1.7708,4.33069,1.7708h23.95857v14.86848c0,1.84536.68347,3.41733,2.05661,4.71591,1.36693,1.29237,2.97618,1.93856,4.82154,1.93856,1.85157,0,3.47946-.66483,4.88367-1.99448,1.40421-1.33586,2.10632-2.88298,2.10632-4.65999v-14.86848h23.40558c1.70245,0,3.1253-.60891,4.27477-1.82672,1.14325-1.22402,1.72109-2.64688,1.72109-4.27477,0-1.69624-.57784-3.13773-1.72109-4.32447-1.14946-1.18053-2.57232-1.77701-4.27477-1.77701h-23.40558v-8.76078h23.40558Zm56.29891,200.58467h-121.53258c-21.91439,0-39.74041-17.82602-39.74041-39.74041v-241.17009c0-21.91439,17.82602-39.74041,39.74041-39.74041h41.45839v12.13462c0,2.59329,2.10166,4.69572,4.69572,4.69572h121.93644c2.59406,0,4.69572-2.10243,4.69572-4.69572v-12.13462h45.74248c21.91439,0,39.74041,17.82602,39.74041,39.74041v98.3631c2.64688.00777,5.272.10097,7.88315.25475.38212.0233.75958.06213,1.1417.08854,2.29582.15378,4.57611.35727,6.84087.62133.29824.03573.59493.07922.89317.1165,2.39679.29513,4.77494.65007,7.13445,1.06558.12737.02252.25475.0466.38367.0699,2.53659.45357,5.04677.97549,7.53521,1.56498v-102.14468c0-39.45459-32.09802-71.55262-71.55262-71.55262h-45.74248v-16.80238c0-2.59329-2.10166-4.69572-4.69572-4.69572h-121.93644c-2.59406,0-4.69572,2.10243-4.69572,4.69572v16.80238h-41.45839c-39.45459,0-71.55262,32.09802-71.55262,71.55262v241.17009c0,39.45459,32.09802,71.55262,71.55262,71.55262h134.6023s-.00155-.00233-.00155-.00311c-5.55005-9.932-9.96151-20.59328-13.06817-31.8091Zm273.30384,100.05545c-3.07249,3.15714-7.09406,4.7361-11.11408,4.7361s-8.04004-1.57896-11.11253-4.7361l-48.62856-49.29727c-18.42095,14.0157-41.30461,22.31825-66.10043,22.31825-60.9123,0-110.29113-50.10423-110.29113-111.91125s49.37882-111.91047,110.29113-111.91047,110.29113,50.10423,110.29113,111.91047c0,25.06609-8.12237,48.20684-21.84138,66.86156l48.50585,49.18621c6.14653,6.31351,6.14653,16.52821,0,22.8425Zm-58.17689-138.89027c0-44.14721-35.27148-79.93594-78.77871-79.93594s-78.77871,35.78873-78.77871,79.93594,35.26992,79.93672,78.77871,79.93672,78.77871-35.78873,78.77871-79.93672Z"/></svg>