<svg id="レイヤー_2" data-name="レイヤー 2" xmlns="http://www.w3.org/2000/svg" viewBox="0 0 591.02 591.02"><defs><style>.cls-1{fill:#040000;}</style></defs><path class="cls-1" d="M447.72,189.3q-7.1-7.1-14.73-13.43l29-60.79A30,30,0,0,0,407.8,89.26l-26.15,54.87a213.22,213.22,0,0,0-56.14-15.8V66.13a30,30,0,0,0-60,0v62.2a213.84,213.84,0,0,0-49.43,13L191.26,89.26a30,30,0,0,0-54.16,25.82l26.75,56.11A219.11,219.11,0,0,0,143.3,189.3a215.25,215.25,0,1,0,304.42,0ZM295.51,496.77c-85.6,0-155.25-69.65-155.25-155.26s69.65-155.25,155.25-155.25S450.76,255.9,450.76,341.51,381.12,496.77,295.51,496.77Z"/><path class="cls-1" d="M295.51,246.2a95.32,95.32,0,1,0,95.32,95.31A95.31,95.31,0,0,0,295.51,246.2Zm-25.9,110.48a36,36,0,1,1,36-36A36,36,0,0,1,269.61,356.68Z"/></svg>