<?xml version="1.0" encoding="UTF-8"?><svg id="_レイヤー_2" xmlns="http://www.w3.org/2000/svg" viewBox="0 0 591.02334 591.02334"><defs><style>.cls-1{fill:#040000;}</style></defs><path class="cls-1" d="m447.71866,189.30465c-4.73242-4.73242-9.65332-9.2063-14.73315-13.43701l28.97632-60.78564c7.12988-14.95605.78516-32.86035-14.1709-39.98975-14.95508-7.12842-32.85938-.78467-39.98926,14.17139l-26.1543,54.86572c-17.8031-7.77466-36.6543-13.09473-56.13574-15.79517v-62.20093c0-16.56836-13.43164-30-30-30s-30,13.43164-30,30v62.20093c-17.05249,2.36377-33.62061,6.7373-49.42749,13.00562l-24.82446-52.07617c-7.12891-14.95703-25.03613-21.30029-39.98926-14.17139-14.95605,7.12939-21.30078,25.03369-14.1709,39.98975l26.74609,56.10718c-7.16248,5.5603-14.02563,11.6001-20.54102,18.11548-40.65527,40.65625-63.0459,94.71094-63.0459,152.20703s22.39062,111.55127,63.0459,152.20703c40.65625,40.65625,94.71094,63.04639,152.20703,63.04639s111.55078-22.39014,152.20703-63.04639c40.65527-40.65576,63.0459-94.71094,63.0459-152.20703s-22.39062-111.55078-63.0459-152.20703Zm-152.20703,307.46045c-85.60645,0-155.25293-69.64648-155.25293-155.25342s69.64648-155.25293,155.25293-155.25293,155.25293,69.646,155.25293,155.25293-69.64648,155.25342-155.25293,155.25342Z"/><path class="cls-1" d="m295.51162,246.19601c-52.64136,0-95.31567,42.67432-95.31567,95.31567s42.67432,95.31567,95.31567,95.31567,95.31567-42.67432,95.31567-95.31567-42.67419-95.31567-95.31567-95.31567Zm-25.90344,110.48291c-19.88379,0-36.00281-16.1189-36.00281-36.00269s16.11902-36.00269,36.00281-36.00269,36.00281,16.1189,36.00281,36.00269-16.11914,36.00269-36.00281,36.00269Z"/></svg>