<?xml version="1.0" encoding="UTF-8"?><svg id="_レイヤー_2" xmlns="http://www.w3.org/2000/svg" viewBox="0 0 591.02334 591.02334"><defs><style>.cls-1{fill:#040000;}</style></defs><g id="Icons"><path id="Icons_Nomal" class="cls-1" d="m237.18902,212.321c0,21.48499-17.24852,38.73351-38.73351,38.73351s-38.73351-17.24852-38.73351-38.73351,17.24852-38.73351,38.73351-38.73351,38.73351,17.24852,38.73351,38.73351Zm170.42744,0c0,21.48499-17.24852,38.73351-38.73351,38.73351s-38.73351-17.24852-38.73351-38.73351,17.24852-38.73351,38.73351-38.73351,38.73351,17.24852,38.73351,38.73351Zm85.21372,85.21372c0-115.36529-93.79566-209.16095-209.16095-209.16095s-209.16095,93.79566-209.16095,209.16095,93.79566,209.16095,209.16095,209.16095,209.16095-93.79566,209.16095-209.16095Zm38.73351,0c0,136.85832-111.03614,247.89446-247.89446,247.89446S35.77478,434.39304,35.77478,297.53472,146.81091,49.64026,283.66924,49.64026s247.89446,111.03614,247.89446,247.89446Zm-371.84169,77.45094v15.52556c0,8.61906,6.98853,15.47733,15.60924,15.47733h201.18257c8.65405,0,15.60924-6.92943,15.60924-15.47733v-15.52556c0-8.61906-6.98853-15.47733-15.60924-15.47733h-201.18257c-8.65405,0-15.60924,6.92943-15.60924,15.47733Z"/></g></svg>