<?xml version="1.0" encoding="UTF-8"?><svg id="_レイヤー_2" xmlns="http://www.w3.org/2000/svg" viewBox="0 0 591.02334 591.02334"><defs><style>.cls-1{fill:#070001;}</style></defs><path class="cls-1" d="m514.26199,236.66606c-11.9847-28.3005-29.07178-53.63447-50.84596-75.46796-4.39045-4.39043-8.89952-8.54354-13.58662-12.57799.11867-10.02679-4.9244-19.87561-14.17992-25.39331-36.42874-21.71484-100.38665-64.49189-116.88043-86.91869-5.69568-7.77225-14.89186-12.22201-24.56268-11.86603-9.67081.35598-18.51102,5.5177-23.55408,13.7646-2.84784,4.56842-13.64594,18.27369-52.6852,46.27753-25.15599,18.03637-51.20193,34.35217-65.26318,43.13303-2.84785,1.7799-5.16172,3.20383-6.82297,4.27177-8.78082,5.57703-13.52723,15.06986-13.52723,24.74068-1.60191,1.48325-3.20383,3.02584-4.74641,4.62775-21.77417,21.77418-38.92059,47.16748-50.84595,75.46798-12.40001,29.3091-18.689,60.3981-18.689,92.43639s6.289,63.12731,18.689,92.43639c11.98469,28.3005,29.07178,53.63448,50.84595,75.46798,21.77417,21.77418,47.16748,38.92057,75.46798,50.84596,29.3091,12.40002,60.3981,18.689,92.43639,18.689s63.12731-6.28898,92.43639-18.689c28.3005-11.9847,53.63448-29.07178,75.46798-50.84596,21.77418-21.77418,38.92057-47.16748,50.84596-75.46798,12.40002-29.30912,18.689-60.3981,18.689-92.43639s-6.34833-63.24594-18.689-92.49572Zm-73.21265,238.34843c-22.50035,22.50035-49.30791,39.15062-78.49405,49.17933l-5.7858-39.27916c-1.22146-8.10011-7.58582-14.52878-15.75024-15.75024l-8.6787-1.28573c-9.45015-1.41432-18.32171,4.56434-20.7646,13.69306-2.25003-6.49294-7.90726-11.37875-14.91452-12.40733l-8.6787-1.28573c-9.77159-1.47859-19.02887,5.01435-20.95747,14.72167l-1.80002,8.93587-.9643-6.62152c-1.22144-8.10011-7.58582-14.52878-15.75024-15.75024l-8.6787-1.28573c-9.77159-1.47859-19.02887,5.01435-20.95747,14.72167l-7.13583,34.90767c-22.62893-10.15729-43.52209-24.42895-61.58667-42.49349-38.89346-38.89346-60.30093-90.57998-60.30093-145.54511,0-25.13609,4.50007-49.56505,13.0502-72.45112v50.59364c0,13.82164,11.25017,25.07181,25.07181,25.07181h137.31638c13.82164,0,25.07181-11.25017,25.07181-25.07181v-85.75852c0-13.82164-11.25017-25.07181-25.07181-25.07181h-127.09481c3.72863-4.37149,7.65012-8.6787,11.76447-12.79305,4.88579-4.88579,10.02873-9.51442,15.30023-13.88593.64287-.32143,1.28573-.70716,1.86431-1.09288,1.73575-1.09288,4.05005-2.57147,6.94296-4.37149,8.22869-5.14294,20.12173-12.6002,33.75052-21.47175,27.06471-12.79305,56.82944-19.47887,87.68706-19.47887,54.96515,0,106.65164,21.40747,145.54509,60.30093,4.11436,4.11435,8.03584,8.42156,11.76446,12.79305h-124.07334c-13.82164,0-25.07181,11.25017-25.07181,25.07181v85.75844c0,13.82164,11.25017,25.07181,25.07181,25.07181h137.44496c13.82164,0,25.07181-11.25017,25.07181-25.07181v-42.0435c6.62152,20.37889,10.09302,41.85065,10.09302,63.90098-.06427,55.02944-21.47174,106.71593-60.30088,145.54511Zm-309.80405-173.03518v-75.94261h129.89616v75.94261h-129.89616Zm339.25324-77.12921v78.31582h-142.3924v-78.31582h142.3924Z"/><path class="cls-1" d="m367.36048,352.77519c-8.89952,1.1866-15.30718,9.01819-14.95121,17.79905-.94927,3.44114-12.63732,14.89186-57.55026,14.89186-50.54931,0-62.59332-9.78948-64.43256-11.68805-.05933-.29665-.17798-.65262-.29665-1.06794-3.02584-9.01819-12.75599-13.88327-21.77418-10.85741-8.54354,2.84784-13.40862,11.80672-11.27273,20.40959,2.19522,9.90814,9.43349,18.39235,20.94354,24.5627,16.49378,8.84021,41.64977,13.11195,76.83256,13.11195,40.28518,0,67.87371-8.24691,82.11295-24.44404,11.09475-12.63732,10.02681-25.3933,9.73016-27.82586-1.24592-9.55214-9.90811-16.13778-19.34162-14.89186Z"/></svg>