<?xml version="1.0" encoding="UTF-8"?><svg id="_レイヤー_2" xmlns="http://www.w3.org/2000/svg" viewBox="0 0 591.02334 591.02334"><defs><style>.cls-1{fill:#040000;}</style></defs><g id="Icons"><path id="Icons_Sad" class="cls-1" d="m295.51167,543.35601c-136.90844,0-247.89446-110.96356-247.89446-247.84434S158.60323,47.66733,295.51167,47.66733s247.89446,110.9638,247.89446,247.84434-110.98602,247.84434-247.89446,247.84434Zm-1.45275-38.08226c114.9824,0,208.19405-93.89131,208.19405-209.71196s-93.21166-209.71196-208.19405-209.71196-208.19381,93.89131-208.19381,209.71196,93.21166,209.71196,208.19381,209.71196Zm117.26485-112.86897c3.47831,10.74841-2.52936,21.81289-12.96381,25.29026-10.75053,3.47736-22.13347-2.52888-25.61154-13.27729-10.43445-33.82586-41.73734-56.587-77.15094-56.587s-66.71648,22.76114-77.15094,56.587c-3.47807,10.74841-14.86101,16.75465-25.29546,13.27729-10.75053-3.47736-16.7582-14.54185-13.27989-25.29026,15.80948-50.8966,62.2897-85.03854,115.72629-85.03854s99.9168,34.14194,115.72629,85.03854Zm-15.87663-123.32878c-34.74455,0-63.75851-29.70144-63.75757-64.99092,0-13.00566,10.55195-23.55548,23.56021-23.55548s23.56044,10.54982,23.56044,23.55548c0,9.67983,7.85687,17.87973,16.63692,17.87973,13.00991,0,23.56021,10.54344,23.56021,23.55571s-10.55029,23.55548-23.56021,23.55548Zm-138.12454-64.37224c0,34.74195-29.70381,63.76159-64.98832,63.76041-13.00991,0-23.56021-10.54344-23.56021-23.55548,0-13.01109,10.54935-23.56328,23.56021-23.56328,9.67321,0,17.86791-7.85451,17.86791-16.64165,0-13.01204,10.55029-23.55548,23.56021-23.55548s23.56021,10.54344,23.56021,23.55548Z"/></g></svg>