<?xml version="1.0" encoding="utf-8"?>
<!-- Generator: Adobe Illustrator 26.3.1, SVG Export Plug-In . SVG Version: 6.00 Build 0)  -->
<svg version="1.1" id="_イヤー_2" xmlns="http://www.w3.org/2000/svg" xmlns:xlink="http://www.w3.org/1999/xlink" x="0px"
	 y="0px" viewBox="0 0 591 591" style="enable-background:new 0 0 591 591;" xml:space="preserve">
<style type="text/css">
	.st0{fill:#040000;}
</style>
<g id="Icons" transform="translate(103.000000, 44.000000)">
	<path id="Icons_Nomal" class="st0" d="M146,166.3c0,21.5-17.2,38.7-38.7,38.7s-38.7-17.2-38.7-38.7s17.2-38.7,38.7-38.7
		S146,144.8,146,166.3z M316.5,166.3c0,21.5-17.2,38.7-38.7,38.7S239,187.8,239,166.3s17.2-38.7,38.7-38.7S316.5,144.8,316.5,166.3z
		 M401.7,251.5c0-115.4-93.8-209.2-209.2-209.2S-16.6,136.1-16.6,251.5s93.8,209.2,209.2,209.2S401.7,366.9,401.7,251.5z
		 M440.4,251.5c0,136.9-111,247.9-247.9,247.9s-247.9-111-247.9-247.9S55.7,3.6,192.5,3.6S440.4,114.7,440.4,251.5L440.4,251.5z
		 M68.6,329v15.5c0,8.6,7,15.5,15.6,15.5h201.2c8.7,0,15.6-6.9,15.6-15.5V329c0-8.6-7-15.5-15.6-15.5H84.2
		C75.5,313.5,68.6,320.4,68.6,329L68.6,329z"/>
</g>
</svg>
