<svg id="レイヤー_2" data-name="レイヤー 2" xmlns="http://www.w3.org/2000/svg" viewBox="0 0 591.02 591.02"><defs><style>.cls-1{fill:#070001;}</style></defs><title>face-cto</title><path class="cls-1" d="M514.26,236.67a237.42,237.42,0,0,0-50.84-75.47c-4.39-4.39-8.9-8.55-13.59-12.58a29.07,29.07,0,0,0-14.18-25.39c-36.43-21.72-100.39-64.5-116.88-86.92a29,29,0,0,0-48.12,1.9C267.8,42.78,257,56.48,218,84.48c-25.16,18-51.2,34.36-65.27,43.14-2.84,1.78-5.16,3.2-6.82,4.27a29.23,29.23,0,0,0-13.53,24.74c-1.6,1.48-3.2,3-4.74,4.63A237.45,237.45,0,1,0,514.26,421.6a238.07,238.07,0,0,0,0-184.93ZM441.05,475a205.14,205.14,0,0,1-78.49,49.18l-5.79-39.28A18.77,18.77,0,0,0,341,469.16l-8.68-1.28a18.65,18.65,0,0,0-20.76,13.69,18.69,18.69,0,0,0-14.92-12.41L288,467.88a18.55,18.55,0,0,0-21,14.72l-1.8,8.94-1-6.63a18.76,18.76,0,0,0-15.75-15.75l-8.68-1.28a18.57,18.57,0,0,0-21,14.72l-7.13,34.91A206.8,206.8,0,0,1,150.15,475a204.49,204.49,0,0,1-60.3-145.54A206.56,206.56,0,0,1,102.9,257v50.59A25.1,25.1,0,0,0,128,332.68H265.29a25.1,25.1,0,0,0,25.07-25.07V221.85a25.1,25.1,0,0,0-25.07-25.07H138.19c3.73-4.37,7.65-8.68,11.77-12.79,4.88-4.89,10-9.52,15.3-13.89a16.19,16.19,0,0,0,1.86-1.09c1.74-1.09,4-2.57,6.95-4.37,8.23-5.14,20.12-12.6,33.75-21.47A206.25,206.25,0,0,1,441.05,184c4.11,4.11,8,8.42,11.76,12.79H328.74a25.1,25.1,0,0,0-25.07,25.07v85.76a25.1,25.1,0,0,0,25.07,25.07H466.19a25.1,25.1,0,0,0,25.07-25.07v-42A206.23,206.23,0,0,1,441.05,475ZM131.25,302V226H261.14V302ZM470.5,224.85v78.32H328.11V224.85Z"/><path class="cls-1" d="M367.36,352.78a17.27,17.27,0,0,0-14.95,17.79c-1,3.45-12.64,14.9-57.55,14.9-50.55,0-62.59-9.79-64.43-11.69-.06-.3-.18-.65-.3-1.07a17.22,17.22,0,0,0-33,9.55c2.2,9.91,9.44,18.39,20.95,24.56,16.49,8.85,41.65,13.12,76.83,13.12,40.28,0,67.87-8.25,82.11-24.45,11.1-12.63,10-25.39,9.73-27.82A17.19,17.19,0,0,0,367.36,352.78Z"/></svg>