<?xml version="1.0" encoding="utf-8"?>
<!-- Generator: Adobe Illustrator 21.0.2, SVG Export Plug-In . SVG Version: 6.00 Build 0)  -->
<svg version="1.1" id="レイヤー_2" xmlns="http://www.w3.org/2000/svg" xmlns:xlink="http://www.w3.org/1999/xlink" x="0px"
	 y="0px" viewBox="0 0 1000 1000" style="enable-background:new 0 0 1000 1000;" xml:space="preserve">
<style type="text/css">
	.st0{fill:#040000;}
	.st1{fill:#070001;}
</style>
<g>
	<path class="st1" d="M851.7,399.9c-20.2-47.7-49-90.4-85.7-127.2c-7.4-7.4-15-14.4-22.9-21.2c0.2-16.9-8.3-33.5-23.9-42.8
		C657.8,172.1,550,100,522.2,62.2c-9.6-13.1-25.1-20.6-41.4-20c-16.3,0.6-31.2,9.3-39.7,23.2c-4.8,7.7-23,30.8-88.8,78
		c-42.4,30.4-86.3,57.9-110,72.7c-4.8,3-8.7,5.4-11.5,7.2C216,232.7,208,248.7,208,265c-2.7,2.5-5.4,5.1-8,7.8
		c-36.7,36.7-65.6,79.5-85.7,127.2c-20.9,49.4-31.5,101.8-31.5,155.8s10.6,106.4,31.5,155.8c20.2,47.7,49,90.4,85.7,127.2
		c36.7,36.7,79.5,65.6,127.2,85.7C376.6,945.4,429,956,483,956s106.4-10.6,155.8-31.5c47.7-20.2,90.4-49,127.2-85.7
		c36.7-36.7,65.6-79.5,85.7-127.2c20.9-49.4,31.5-101.8,31.5-155.8S872.5,449.2,851.7,399.9z M728.3,801.6
		c-37.9,37.9-83.1,66-132.3,82.9l-9.8-66.2c-2.1-13.7-12.8-24.5-26.5-26.5l-14.6-2.2c-15.9-2.4-30.9,7.7-35,23.1
		c-3.8-10.9-13.3-19.2-25.1-20.9l-14.6-2.2c-16.5-2.5-32.1,8.5-35.3,24.8l-3,15.1l-1.6-11.2c-2.1-13.7-12.8-24.5-26.5-26.5
		l-14.6-2.2c-16.5-2.5-32.1,8.5-35.3,24.8l-12,58.8c-38.1-17.1-73.4-41.2-103.8-71.6C172.5,736.1,136.4,649,136.4,556.3
		c0-42.4,7.6-83.5,22-122.1v85.3c0,23.3,19,42.3,42.3,42.3h231.4c23.3,0,42.3-19,42.3-42.3V374.9c0-23.3-19-42.3-42.3-42.3H217.9
		c6.3-7.4,12.9-14.6,19.8-21.6c8.2-8.2,16.9-16,25.8-23.4c1.1-0.5,2.2-1.2,3.1-1.8c2.9-1.8,6.8-4.3,11.7-7.4
		c13.9-8.7,33.9-21.2,56.9-36.2c45.6-21.6,95.8-32.8,147.8-32.8c92.6,0,179.8,36.1,245.3,101.6c6.9,6.9,13.5,14.2,19.8,21.6H539
		c-23.3,0-42.3,19-42.3,42.3v144.5c0,23.3,19,42.3,42.3,42.3h231.7c23.3,0,42.3-19,42.3-42.3v-70.9c11.2,34.3,17,70.5,17,107.7
		C829.9,649.1,793.8,736.2,728.3,801.6z M206.2,510V382h218.9v128H206.2z M778,380v132H538V380H778z"/>
	<path class="st1" d="M604.1,595.6c-15,2-25.8,15.2-25.2,30c-1.6,5.8-21.3,25.1-97,25.1c-85.2,0-105.5-16.5-108.6-19.7
		c-0.1-0.5-0.3-1.1-0.5-1.8c-5.1-15.2-21.5-23.4-36.7-18.3c-14.4,4.8-22.6,19.9-19,34.4c3.7,16.7,15.9,31,35.3,41.4
		c27.8,14.9,70.2,22.1,129.5,22.1c67.9,0,114.4-13.9,138.4-41.2c18.7-21.3,16.9-42.8,16.4-46.9C634.6,604.6,620,593.5,604.1,595.6z"
		/>
</g>
</svg>
