<?xml version="1.0" encoding="utf-8"?>
<!-- Generator: Adobe Illustrator 21.0.2, SVG Export Plug-In . SVG Version: 6.00 Build 0)  -->
<svg version="1.1" id="レイヤー_2" xmlns="http://www.w3.org/2000/svg" xmlns:xlink="http://www.w3.org/1999/xlink" x="0px"
	 y="0px" viewBox="0 0 1000 1000" style="enable-background:new 0 0 1000 1000;" xml:space="preserve">
<style type="text/css">
	.st0{fill:#040000;}
	.st1{fill:#070001;}
</style>
<g id="Icon_x2F_Font">
	<g id="SliceIcon_2_" transform="translate(-319.000000, -143.000000)">
		<g id="Icons_2_" transform="translate(103.000000, 44.000000)">
			<path id="Icons_x2F_Smile-Icon" class="st0" d="M897.1,694.4C870.6,778,792.6,834,702.9,834c-89.7,0-167.7-56.1-194.2-139.6
				c-5.8-17.7,4.2-35.8,22.3-41.5c17.5-5.7,36.6,4.2,42.4,21.8c17.5,55.5,70,92.9,129.5,92.9c59.4,0,112-37.4,129.5-92.9
				c5.8-17.7,24.9-27.5,43-21.8C892.9,658.6,903,676.7,897.1,694.4z M637.7,455.4c0,36.2-29.1,65.3-65.3,65.3s-65.3-29.1-65.3-65.3
				s29.1-65.3,65.3-65.3S637.7,419.2,637.7,455.4z M924.9,455.4c0,36.2-29.1,65.3-65.3,65.3s-65.3-29.1-65.3-65.3
				s29.1-65.3,65.3-65.3S924.9,419.2,924.9,455.4z M1068.5,599c0-194.4-158.1-352.5-352.5-352.5S363.5,404.6,363.5,599
				S521.6,951.5,716,951.5S1068.5,793.4,1068.5,599z M1133.8,599c0,230.7-187.1,417.8-417.8,417.8S298.2,829.7,298.2,599
				S485.3,181.2,716,181.2S1133.8,368.3,1133.8,599z"/>
		</g>
	</g>
</g>
</svg>
