<?xml version="1.0" encoding="utf-8"?>
<!-- Generator: Adobe Illustrator 26.3.1, SVG Export Plug-In . SVG Version: 6.00 Build 0)  -->
<svg version="1.1" id="_イヤー_2" xmlns="http://www.w3.org/2000/svg" xmlns:xlink="http://www.w3.org/1999/xlink" x="0px"
	 y="0px" viewBox="0 0 591 591" style="enable-background:new 0 0 591 591;" xml:space="preserve">
<style type="text/css">
	.st0{fill:#040000;}
</style>
<g id="Icons" transform="translate(103.000000, 44.000000)">
	<path id="Icons_Sad" class="st0" d="M192.5,499.4c-136.9,0-247.9-111-247.9-247.8S55.6,3.7,192.5,3.7s247.9,111,247.9,247.8
		S329.4,499.4,192.5,499.4z M191.1,461.3c115,0,208.2-93.9,208.2-209.7S306,41.8,191.1,41.8S-17.1,135.7-17.1,251.6
		S76.1,461.3,191.1,461.3L191.1,461.3z M308.3,348.4c3.5,10.7-2.5,21.8-13,25.3c-10.8,3.5-22.1-2.5-25.6-13.3
		c-10.4-33.8-41.7-56.6-77.2-56.6s-66.7,22.8-77.2,56.6c-3.5,10.7-14.9,16.8-25.3,13.3c-10.8-3.5-16.8-14.5-13.3-25.3
		c15.8-50.9,62.3-85,115.7-85S292.5,297.5,308.3,348.4z M292.4,225.1c-34.7,0-63.8-29.7-63.8-65c0-13,10.6-23.6,23.6-23.6
		s23.6,10.5,23.6,23.6c0,9.7,7.9,17.9,16.6,17.9c13,0,23.6,10.5,23.6,23.6S305.5,225.1,292.4,225.1z M154.3,160.7
		c0,34.7-29.7,63.8-65,63.8c-13,0-23.6-10.5-23.6-23.6c0-13,10.5-23.6,23.6-23.6c9.7,0,17.9-7.9,17.9-16.6c0-13,10.6-23.6,23.6-23.6
		S154.3,147.7,154.3,160.7L154.3,160.7z"/>
</g>
</svg>
