<svg id="レイヤー_2" data-name="レイヤー 2" xmlns="http://www.w3.org/2000/svg" viewBox="0 0 591.02 591.02"><defs><style>.cls-1{fill:#040000;}</style></defs><title>face-normal</title><g id="Icon_Font" data-name="Icon/Font"><g id="SliceIcon"><g id="Icons"><path id="Icons_Nomal" data-name="Icons/Nomal" class="cls-1" d="M237.19,212.32a38.74,38.74,0,1,1-38.73-38.73A38.61,38.61,0,0,1,237.19,212.32Zm170.43,0a38.74,38.74,0,1,1-38.74-38.73A38.61,38.61,0,0,1,407.62,212.32Zm85.21,85.21c0-115.36-93.8-209.16-209.16-209.16S74.51,182.17,74.51,297.53,168.3,506.7,283.67,506.7,492.83,412.9,492.83,297.53Zm38.73,0c0,136.86-111,247.9-247.89,247.9s-247.9-111-247.9-247.9,111-247.89,247.9-247.89S531.56,160.68,531.56,297.53ZM159.72,375v15.52A15.5,15.5,0,0,0,175.33,406H376.51a15.52,15.52,0,0,0,15.61-15.48V375a15.5,15.5,0,0,0-15.61-15.48H175.33A15.53,15.53,0,0,0,159.72,375Z"/></g></g></g></svg>