<svg id="レイヤー_2" data-name="レイヤー 2" xmlns="http://www.w3.org/2000/svg" viewBox="0 0 591.02 591.02"><defs><style>.cls-1{fill:#040000;}</style></defs><title>face-sad</title><g id="Icon_Font" data-name="Icon/Font"><g id="SliceIcon"><g id="Icons"><path id="Icons_Sad" data-name="Icons/Sad" class="cls-1" d="M295.51,543.36c-136.91,0-247.89-111-247.89-247.85S158.6,47.67,295.51,47.67s247.9,111,247.9,247.84S432.42,543.36,295.51,543.36Zm-1.45-38.09c115,0,208.19-93.89,208.19-209.71S409,85.85,294.06,85.85,85.87,179.74,85.87,295.56,179.08,505.27,294.06,505.27ZM411.32,392.4a20.1,20.1,0,0,1-13,25.3,20.36,20.36,0,0,1-25.61-13.28,80.88,80.88,0,0,0-154.3,0c-3.48,10.75-14.86,16.75-25.3,13.28-10.75-3.48-16.76-14.55-13.28-25.3a121.27,121.27,0,0,1,231.45,0ZM395.45,269.08c-34.75,0-63.76-29.71-63.76-65a23.56,23.56,0,1,1,47.12,0c0,9.67,7.86,17.87,16.64,17.87a23.56,23.56,0,1,1,0,47.12ZM257.32,204.7c0,34.75-29.7,63.77-65,63.76a23.56,23.56,0,1,1,0-47.11c9.68,0,17.87-7.86,17.87-16.65a23.56,23.56,0,0,1,47.12,0Z"/></g></g></g></svg>