<svg id="レイヤー_2" data-name="レイヤー 2" xmlns="http://www.w3.org/2000/svg" viewBox="0 0 591.02 591.02"><defs><style>.cls-1{fill:#040000;}</style></defs><g id="Icon_Font" data-name="Icon/Font"><g id="SliceIcon"><g id="Icons"><path id="Icons_Smile-Icon" data-name="Icons/Smile-Icon" class="cls-1" d="M403,352.1C387.24,401.69,341,435,287.76,435s-99.47-33.26-115.21-82.85c-3.46-10.47,2.52-21.25,13.22-24.64A20.14,20.14,0,0,1,211,340.4c10.39,33,41.56,55.13,76.81,55.13s66.43-22.18,76.81-55.13a20.36,20.36,0,0,1,25.5-12.94C400.46,330.85,406.44,341.63,403,352.1ZM249,210.3a38.74,38.74,0,1,1-38.73-38.74A38.62,38.62,0,0,1,249,210.3Zm170.43,0a38.74,38.74,0,1,1-38.73-38.74A38.62,38.62,0,0,1,419.46,210.3Zm85.21,85.21c0-115.36-93.79-209.16-209.16-209.16S86.35,180.15,86.35,295.51s93.8,209.16,209.16,209.16S504.67,410.88,504.67,295.51Zm38.74,0c0,136.86-111,247.9-247.9,247.9s-247.89-111-247.89-247.9,111-247.89,247.89-247.89S543.41,158.65,543.41,295.51Z"/></g></g></g></svg>