<?xml version="1.0" encoding="UTF-8"?><svg id="_レイヤー_2" xmlns="http://www.w3.org/2000/svg" viewBox="0 0 591.02334 591.02334"><defs><style>.cls-1{fill:#040000;}</style></defs><path id="Icons_Smile-Icon" class="cls-1" d="m402.97966,352.10068c-15.73974,49.58783-62.01499,82.85162-115.21588,82.85162s-99.4759-33.2638-115.21588-82.85162c-3.46271-10.47192,2.51848-21.25189,13.2215-24.63989,10.38835-3.388,21.72117,2.46399,25.18387,12.93591,10.38835,32.95587,41.55318,55.13177,76.81051,55.13177s66.42239-22.1759,76.81051-55.13177c3.46294-10.47192,14.79552-16.32391,25.49877-12.93591,10.38812,3.388,16.3693,14.16797,12.9066,24.63989Zm-153.94821-141.80273c0,21.48499-17.24852,38.73351-38.73351,38.73351s-38.73351-17.24852-38.73351-38.73351,17.24852-38.73351,38.73351-38.73351,38.73351,17.24852,38.73351,38.73351Zm170.42744,0c0,21.48499-17.24852,38.73351-38.73351,38.73351s-38.73351-17.24852-38.73351-38.73351,17.24852-38.73351,38.73351-38.73351,38.73351,17.24852,38.73351,38.73351Zm85.21372,85.21372c0-115.36529-93.79566-209.16095-209.16095-209.16095s-209.16095,93.79566-209.16095,209.16095,93.79566,209.16095,209.16095,209.16095,209.16095-93.79566,209.16095-209.16095Zm38.73351,0c0,136.85844-111.03614,247.89446-247.89446,247.89446S47.61721,432.37011,47.61721,295.51167,158.65335,47.61721,295.51167,47.61721s247.89446,111.03602,247.89446,247.89446Z"/></svg>