<svg id="レイヤー_2" data-name="レイヤー 2" xmlns="http://www.w3.org/2000/svg" viewBox="0 0 591.02 591.02"><defs><style>.cls-1{fill:#040000;}</style></defs><path class="cls-1" d="M530.61,113.64a20.06,20.06,0,0,0-20-20H80.41a20.06,20.06,0,0,0-20,20v16.52c0,11,6.87,25.81,15.26,32.92L209.46,276.4c8.39,7.11,17.44,15.52,20.11,18.7s4.84,14.77,4.84,25.77V517.38c0,11,7.42,14.9,16.48,8.66l89.8-61.79c9.07-6.24,16.48-20.34,16.48-31.34v-112c0-11,2.32-22.77,5.15-26.15s12-12,20.39-19.08L515.36,163.1c8.39-7.12,15.25-21.94,15.25-32.94Z"/></svg>