<?xml version="1.0" encoding="UTF-8"?><svg id="_イヤー_2" xmlns="http://www.w3.org/2000/svg" viewBox="0 0 591.02334 591.02334"><defs><style>.cls-1{fill:#040000;}</style></defs><path class="cls-1" d="M530.61189,113.64253c0-11-9-20-20-20H80.41145c-11,0-20,9-20,20v16.51404c0,11,6.86756,25.81693,15.26124,32.9265l133.78513,113.31801c8.39368,7.10958,17.44197,15.52367,20.10731,18.69799,2.66534,3.17432,4.84607,14.77148,4.84607,25.77148v196.51025c0,11,7.41439,14.89835,16.47642,8.663l89.80717-61.79401c9.06203-6.23535,16.47642-20.337,16.47642-31.337v-112.04224c0-11,2.31515-22.76614,5.14478-26.14697,2.82963-3.38083,12.00759-11.9695,20.39548-19.08591l132.64972-112.54216c8.38789-7.11642,15.2507-21.93894,15.2507-32.93894v-16.51404Z"/></svg>