<?xml version="1.0" encoding="UTF-8"?><svg id="_レイヤー_2" xmlns="http://www.w3.org/2000/svg" viewBox="0 0 591.02334 591.02334"><defs><style>.cls-1{fill:#040000;}</style></defs><g id="Components"><g id="SliceIcon"><g id="Icons"><g id="Icons_Gear-Icon"><path id="Gear-Icon" class="cls-1" d="m525.53568,358.3862l-22.90638,55.24222c-3.11916,7.52232-11.74114,11.09571-19.23348,7.9914l-26.04475-10.79113c-11.92121-4.93932-29.10383-1.42502-38.12718,7.59808-9.9298,9.92955-13.34221,26.96919-8.39225,38.90974l10.7914,26.03155c3.10888,7.49939-.29665,16.04063-7.97702,19.23133l-55.18443,22.92551c-7.51447,3.1218-16.13383-.45249-19.24183-7.95908l-10.80394-26.09422c-4.94517-11.94384-19.58463-21.62623-32.34287-21.62623-14.03989,0-28.50975,9.65693-33.46547,21.62623l-10.80393,26.09422c-3.11249,7.51744-11.56779,11.15612-19.25641,7.97368l-55.24364-22.86634c-7.52253-3.1137-11.09893-11.72819-7.99815-19.21675l10.77887-26.03152c4.9337-11.91518,1.41466-29.09269-7.60868-38.11582-9.9298-9.92955-26.97452-13.34185-38.92112-8.392l-26.04474,10.7911c-7.50321,3.10882-16.03699-.30932-19.21404-8.00598l-22.82746-55.30142c-3.10842-7.5304.47685-16.16257,7.98362-19.27049l26.09488-10.80366c11.94415-4.94506,21.62679-19.54492,21.62679-32.25575,0-13.98771-9.65719-28.41857-21.62679-33.37415l-26.09488-10.80365c-7.51765-3.11242-11.15219-11.5675-7.96417-19.25591l22.90638-55.24223c3.11916-7.52233,11.73821-11.10451,19.22696-8.01101l26.03221,10.75351c11.91546,4.92211,29.09344,1.39387,38.11679-7.62925,9.9298-9.92955,13.34683-26.96919,8.40262-38.90974l-10.77886-26.03154c-3.10527-7.49941.30318-16.03428,7.98356-19.21674l55.18445-22.86633c7.51447-3.11371,16.13382.4671,19.24181,7.97369l10.80393,26.0942c4.94518,11.94384,19.58466,21.62624,32.3429,21.62624,14.03988,0,28.50975-9.65694,33.46544-21.62624l10.80394-26.0942c3.11249-7.51746,11.56779-11.15615,19.25641-7.97369l55.24365,22.86633c7.52251,3.11371,11.0989,11.72818,7.99813,19.21674l-10.7087,25.86212c-4.97245,12.00872-1.48483,29.26211,7.53853,38.28522,9.9298,9.92955,26.90084,13.37238,39.09061,8.32179l25.87523-10.72088c7.50322-3.1088,16.03701.30934,19.21405,8.006l22.82745,55.3014c3.10844,7.5304-.47683,16.1626-7.9836,19.27052l-26.09488,10.80365c-11.94417,4.94504-21.62679,19.54492-21.62679,32.25575,0,13.98773,9.65718,28.41857,21.62679,33.37415l26.09488,10.80366c7.51764,3.11241,11.15218,11.56749,7.96415,19.25591Zm-230.02401-178.46549c-63.83912,0-115.59096,51.75184-115.59096,115.59096s51.75184,115.59096,115.59096,115.59096,115.59096-51.75184,115.59096-115.59096c0-30.65663-12.17831-60.05764-33.8558-81.73516-21.67752-21.67751-51.07852-33.8558-81.73516-33.8558h0Zm0,173.38645c-31.91956,0-57.79548-25.87592-57.79548-57.79548s25.87592-57.79548,57.79548-57.79548,57.79548,25.87592,57.79548,57.79548c0,15.32831-6.08914,30.02882-16.92792,40.86757-10.83875,10.83877-25.53926,16.92792-40.86757,16.92792h0Z"/></g></g></g></g></svg>