<svg id="レイヤー_2" data-name="レイヤー 2" xmlns="http://www.w3.org/2000/svg" viewBox="0 0 591.02 591.02"><defs><style>.cls-1{fill:#040000;}</style></defs><title>gear</title><g id="Components"><g id="SliceIcon"><g id="Icons"><g id="Icons_Gear-Icon" data-name="Icons/Gear-Icon"><path id="Gear-Icon" class="cls-1" d="M525.54,358.39l-22.91,55.24a14.74,14.74,0,0,1-19.23,8l-26-10.79c-11.92-4.94-29.1-1.43-38.13,7.6-9.93,9.93-13.34,27-8.39,38.91l10.79,26a14.61,14.61,0,0,1-8,19.23l-55.19,22.92a14.71,14.71,0,0,1-19.24-7.95l-10.8-26.1c-4.95-11.94-19.59-21.62-32.35-21.62-14,0-28.51,9.65-33.46,21.62l-10.81,26.1a14.62,14.62,0,0,1-19.25,8L177.3,502.67a14.71,14.71,0,0,1-8-19.21l10.77-26c4.94-11.91,1.42-29.09-7.6-38.11-9.93-9.93-27-13.34-38.93-8.39l-26,10.79a14.58,14.58,0,0,1-19.21-8L65.47,358.4a14.77,14.77,0,0,1,8-19.27l26.1-10.8c11.94-4.95,21.62-19.55,21.62-32.26,0-14-9.65-28.42-21.62-33.37l-26.1-10.81a14.6,14.6,0,0,1-8-19.25l22.9-55.25a14.76,14.76,0,0,1,19.23-8l26,10.76c11.92,4.92,29.1,1.39,38.12-7.63,9.93-9.93,13.35-27,8.4-38.91l-10.78-26a14.61,14.61,0,0,1,8-19.22l55.18-22.87a14.73,14.73,0,0,1,19.24,8l10.81,26.09c4.94,12,19.58,21.63,32.34,21.63,14,0,28.51-9.66,33.47-21.63l10.8-26.09a14.63,14.63,0,0,1,19.26-8l55.24,22.87a14.73,14.73,0,0,1,8,19.22L411,133.43c-5,12-1.49,29.26,7.54,38.28,9.93,9.93,26.9,13.38,39.09,8.33l25.87-10.72a14.59,14.59,0,0,1,19.22,8l22.83,55.3a14.77,14.77,0,0,1-8,19.27L491.48,262.7c-12,4.94-21.63,19.54-21.63,32.25,0,14,9.66,28.42,21.63,33.38l26.09,10.8A14.63,14.63,0,0,1,525.54,358.39Zm-230-178.47a115.59,115.59,0,1,0,81.74,33.86,115.59,115.59,0,0,0-81.74-33.86Zm0,173.39a57.8,57.8,0,1,1,40.87-16.93,57.79,57.79,0,0,1-40.87,16.93Z"/></g></g></g></g></svg>