<?xml version="1.0" encoding="utf-8"?>
<!-- Generator: Adobe Illustrator 21.0.2, SVG Export Plug-In . SVG Version: 6.00 Build 0)  -->
<svg version="1.1" id="レイヤー_2" xmlns="http://www.w3.org/2000/svg" xmlns:xlink="http://www.w3.org/1999/xlink" x="0px"
	 y="0px" viewBox="0 0 1000 1000" style="enable-background:new 0 0 1000 1000;" xml:space="preserve">
<style type="text/css">
	.st0{fill:#040000;}
	.st1{fill:#070001;}
</style>
<g id="Components_13_">
	<g id="SliceIcon_13_" transform="translate(-362.000000, -90.000000)">
		<g id="Icons_13_" transform="translate(46.000000, 54.000000)">
			<g id="Icons_x2F_Gear-Icon" transform="translate(316.000000, 36.000000)">
				<path id="Gear-Icon" class="st0" d="M897.6,620.2L859,713.3c-5.3,12.7-19.8,18.7-32.4,13.5l-43.9-18.2
					c-20.1-8.3-49.1-2.4-64.3,12.8c-16.7,16.7-22.5,45.5-14.1,65.6l18.2,43.9c5.2,12.6-0.5,27-13.4,32.4l-93,38.6
					c-12.7,5.3-27.2-0.8-32.4-13.4l-18.2-44c-8.3-20.1-33-36.5-54.5-36.5c-23.7,0-48.1,16.3-56.4,36.5l-18.2,44
					c-5.2,12.7-19.5,18.8-32.5,13.4l-93.1-38.5c-12.7-5.2-18.7-19.8-13.5-32.4l18.2-43.9c8.3-20.1,2.4-49-12.8-64.2
					c-16.7-16.7-45.5-22.5-65.6-14.1L193,726.9c-12.6,5.2-27-0.5-32.4-13.5l-38.5-93.2c-5.2-12.7,0.8-27.2,13.5-32.5l44-18.2
					c20.1-8.3,36.5-32.9,36.5-54.4c0-23.6-16.3-47.9-36.5-56.3l-44-18.2c-12.7-5.2-18.8-19.5-13.4-32.5l38.6-93.1
					c5.3-12.7,19.8-18.7,32.4-13.5l43.9,18.1c20.1,8.3,49,2.3,64.2-12.9c16.7-16.7,22.5-45.5,14.2-65.6l-18.2-43.9
					c-5.2-12.6,0.5-27,13.5-32.4l93-38.5c12.7-5.2,27.2,0.8,32.4,13.4l18.2,44c8.3,20.1,33,36.5,54.5,36.5
					c23.7,0,48.1-16.3,56.4-36.5l18.2-44c5.2-12.7,19.5-18.8,32.5-13.4l93.1,38.5c12.7,5.2,18.7,19.8,13.5,32.4l-18,43.6
					c-8.4,20.2-2.5,49.3,12.7,64.5c16.7,16.7,45.3,22.5,65.9,14l43.6-18.1c12.6-5.2,27,0.5,32.4,13.5l38.5,93.2
					c5.2,12.7-0.8,27.2-13.5,32.5l-44,18.2c-20.1,8.3-36.5,32.9-36.5,54.4c0,23.6,16.3,47.9,36.5,56.3l44,18.2
					C896.8,593,902.9,607.3,897.6,620.2z M509.9,319.4c-107.6,0-194.8,87.2-194.8,194.8s87.2,194.8,194.8,194.8
					s194.8-87.2,194.8-194.8c0-51.7-20.5-101.2-57.1-137.8C611.1,339.9,561.5,319.4,509.9,319.4L509.9,319.4L509.9,319.4
					L509.9,319.4L509.9,319.4z M509.9,611.6c-53.8,0-97.4-43.6-97.4-97.4s43.6-97.4,97.4-97.4s97.4,43.6,97.4,97.4
					c0,25.8-10.3,50.6-28.5,68.9S535.7,611.6,509.9,611.6L509.9,611.6L509.9,611.6L509.9,611.6L509.9,611.6z"/>
			</g>
		</g>
	</g>
</g>
</svg>
