<svg id="レイヤー_2" data-name="レイヤー 2" xmlns="http://www.w3.org/2000/svg" viewBox="0 0 591.02 591.02"><defs><style>.cls-1{fill:#040000;}</style></defs><title>heart-filled</title><g id="Components"><g id="SliceIcon"><g id="Icons"><g id="Icons_Heart-Filled-Icon" data-name="Icons/Heart-Filled-Icon"><path id="Heart-Filled-Icon" class="cls-1" d="M400.41,424.77c-20.21,21.72-41.59,42.71-63,62.26-12.91,11.77-23.11,20.53-29.17,25.59a57.73,57.73,0,0,1-73.77,0c-6.09-5-16.26-13.82-29.17-25.59-21.43-19.55-42.89-40.48-63.05-62.23a638.29,638.29,0,0,1-57.6-70.61,209,209,0,0,1-44.39-116,140.18,140.18,0,0,1,41.59-105,142.41,142.41,0,0,1,189.5-8.68,142.28,142.28,0,0,1,189.51,8.68,140.2,140.2,0,0,1,41.5,104.64A207.92,207.92,0,0,1,458.06,354,637.22,637.22,0,0,1,400.3,424.8Z"/></g></g></g></g></svg>