<svg id="レイヤー_2" data-name="レイヤー 2" xmlns="http://www.w3.org/2000/svg" viewBox="0 0 591.02 591.02"><defs><style>.cls-1{fill:#040000;}</style></defs><title>heart</title><g id="Components"><g id="SliceIcon"><g id="Icons"><g id="Icons_Heart-Icon" data-name="Icons/Heart-Icon"><path id="Heart-Icon" class="cls-1" d="M361.62,473.33c-12.91,11.77-23.11,20.53-29.17,25.59a57.7,57.7,0,0,1-73.77,0c-6.1-5-16.26-13.82-29.18-25.59-21.43-19.55-42.89-40.48-63.05-62.23a638.2,638.2,0,0,1-57.59-70.61,209,209,0,0,1-44.39-116,140.16,140.16,0,0,1,41.59-105,142.42,142.42,0,0,1,189.5-8.68,142.27,142.27,0,0,1,189.5,8.68A140.24,140.24,0,0,1,526.57,224.1a207.89,207.89,0,0,1-44.28,116.22,637.43,637.43,0,0,1-57.76,70.78C404.42,432.79,383.05,453.78,361.62,473.33ZM325.43,160.61l-29.87,29.55L265.7,160.61a85.05,85.05,0,0,0-119,0,82.47,82.47,0,0,0-24.55,62.95c-1.13,86.19,173.3,230.8,173.3,230.8S469.9,309.78,468.75,223.5a82.47,82.47,0,0,0-24.47-62.89A84.72,84.72,0,0,0,325.43,160.61Z"/></g></g></g></g></svg>