<?xml version="1.0" encoding="UTF-8"?><svg id="_イヤー_2" xmlns="http://www.w3.org/2000/svg" viewBox="0 0 591.02334 591.02334"><defs><style>.cls-1{fill:#040000;}</style></defs><g id="Components"><g id="SliceIcon" transform="translate(-163.000000, -124.000000)"><g id="Icons" transform="translate(46.000000, 54.000000)"><g id="Icons_Heart-Filled-Icon" transform="translate(116.000000, 70.000000)"><path id="Heart-Filled-Icon" class="cls-1" d="M400.41355,424.7724c-20.21833,21.71588-41.59196,42.70884-63.02338,62.25602-12.91083,11.76878-23.10662,20.53029-29.17212,25.59057-21.38815,17.76428-52.3798,17.76428-73.76795,0-6.09438-5.03137-16.26129-13.82179-29.17213-25.59057-21.43141-19.54718-42.89169-40.48232-63.05224-62.22708-20.853-22.13442-40.09976-45.73207-57.5933-70.61272-26.20361-33.25915-41.68627-73.70878-44.39363-115.98179-1.48299-39.31012,13.61071-77.43329,41.59195-105.05158,51.79622-50.6627,133.30504-54.39388,189.50331-8.67478,56.17633-45.78576,137.73506-42.05229,189.50333,8.67478,27.83777,27.54071,42.88924,65.48985,41.50534,104.64675-2.55886,42.35555-18.01082,82.91113-44.27813,116.21314-17.53807,24.94939-36.84329,48.60562-57.76657,70.7862l.11553-.02894Z"/></g></g></g></g></svg>