<?xml version="1.0" encoding="UTF-8"?><svg id="_レイヤー_2" xmlns="http://www.w3.org/2000/svg" viewBox="0 0 591.02335 591.02334"><defs><style>.cls-1{fill:#040000;}</style></defs><g id="Components"><g id="SliceIcon"><g id="Icons"><g id="Icons_Heart-Icon"><path id="Heart-Icon" class="cls-1" d="m361.61717,473.33095c-12.91083,11.76878-23.10662,20.53029-29.17212,25.59057-21.38815,17.76428-52.3798,17.76428-73.76795,0-6.09438-5.03137-16.26129-13.82179-29.17213-25.59057-21.43141-19.54718-42.89169-40.48232-63.05224-62.22708-20.853-22.13442-40.09976-45.73207-57.5933-70.61272-26.20361-33.25915-41.68627-73.70878-44.39363-115.98179-1.48299-39.31012,13.61071-77.43329,41.59195-105.05158,51.79622-50.6627,133.30504-54.39388,189.50331-8.67478,56.17633-45.78576,137.73506-42.05229,189.50333,8.67478,27.83777,27.54071,42.88924,65.48985,41.50534,104.64675-2.55886,42.35555-18.01082,82.91113-44.27813,116.21314-17.53807,24.94939-36.84329,48.60562-57.76657,70.7862-20.1028,21.68695-41.47643,42.6799-62.90785,62.22708Zm-36.19077-312.7258l-29.86534,29.55208-29.86531-29.55208c-33.07747-32.36975-85.92174-32.36975-118.9992,0-16.78978,16.50907-25.7248,39.41909-24.5508,62.94997-1.12645,86.19839,173.29979,230.80697,173.29979,230.80697,0,0,174.45513-144.57965,173.2998-230.86479,1.18358-23.49853-7.7184-46.38365-24.46415-62.89215-32.92073-32.44331-85.81853-32.44331-118.85478,0Z"/></g></g></g></g></svg>