<?xml version="1.0" encoding="utf-8"?>
<!-- Generator: Adobe Illustrator 22.1.0, SVG Export Plug-In . SVG Version: 6.00 Build 0)  -->
<svg version="1.1" id="レイヤー_2" xmlns="http://www.w3.org/2000/svg" xmlns:xlink="http://www.w3.org/1999/xlink" x="0px"
	 y="0px" viewBox="0 0 1000 1000" style="enable-background:new 0 0 1000 1000;" xml:space="preserve">
<style type="text/css">
	.st0{fill:#040000;}
	.st1{fill:#070001;}
	.st2{fill:#231916;}
	.st3{fill-rule:evenodd;clip-rule:evenodd;fill:#070102;}
	.st4{fill:#050101;}
</style>
<g>
	<path class="st0" d="M500,78.9c-139,0-261.9,68.6-336.8,173.8l-42.5-19.8c-6.3-2.9-13.4,2-12.8,9l17.4,198.3
		c0.6,6.9,8.5,10.6,14.2,6.6l163.1-114.2c5.7-4,4.9-12.7-1.4-15.6L247,291.7c59.1-74.6,150.5-122.4,253-122.4
		c178.2,0,322.7,144.5,322.7,322.7S678.2,814.7,500,814.7c-160.2,0-293.2-116.8-318.4-269.9l-0.7-10.6c0-1.7-1.3-3-3-3H92.5
		c-1.7,0-3,1.3-3,3l0.3,4.4h-0.3c0.2,2.1,0.5,4.1,0.7,6.2l0,0.1h0c26,203.2,199.5,360.2,409.7,360.2c228.2,0,413.1-185,413.1-413.1
		S728.2,78.9,500,78.9z"/>
	<path class="st0" d="M490,211.3L490,211.3c-19.7,0-35.7,16-35.7,35.7v205.7c-14.3,10.8-23.6,28-23.6,47.3
		c0,32.7,26.5,59.3,59.3,59.3c4,0,7.9-0.4,11.7-1.2l95.4,95.4c12.4,12.4,32.6,12.4,45.1,0l0,0c12.4-12.4,12.4-32.6,0-45.1
		l-94.6-94.6c1.1-4.4,1.6-9.1,1.6-13.9c0-19.3-9.3-36.5-23.6-47.3V247C525.6,227.3,509.7,211.3,490,211.3z"/>
</g>
</svg>
