<?xml version="1.0" encoding="UTF-8"?><svg id="_レイヤー_2" xmlns="http://www.w3.org/2000/svg" viewBox="0 0 591.02334 591.02334"><defs><style>.cls-1{fill:#040000;}</style></defs><path class="cls-1" d="m294.73528,50.41319c-82.44373,0-155.37551,40.70866-199.80331,103.11803l-25.20663-11.75392c-3.74029-1.74427-7.96612,1.2147-7.60631,5.3261l10.29529,117.67854c.35981,4.11111,5.03524,6.29137,8.41573,3.92425l96.76495-67.75545c3.38078-2.36712,2.93117-7.50608-.80942-9.25035l-32.17271-15.00259c35.06766-44.25167,89.2751-72.6444,150.12241-72.6444,105.73951,0,191.45827,85.71876,191.45827,191.45827s-85.71876,191.45827-191.45827,191.45827c-95.07311,0-173.94254-69.30389-188.8901-160.1448l-.43049-6.26095c0-.98266-.79667-1.77933-1.77962-1.77933h-50.66385c-.98381,0-1.78164.79783-1.78164,1.78164l.18425,2.61858h-.18425c.13703,1.2205.28651,2.43723.4415,3.65222l.00406.05591h.00319c15.4073,120.5425,118.36629,213.71693,243.09695,213.71693,135.36432,0,245.09847-109.73444,245.09847-245.09847S430.0996,50.41319,294.73528,50.41319Z"/><path class="cls-1" d="m288.78169,128.99177h0c-11.6899,0-21.16621,9.47631-21.16621,21.16621v122.04487c-8.50467,6.41942-14.004,16.60955-14.004,28.08623,0,19.42397,15.74625,35.17022,35.17022,35.17022,2.38653,0,4.71657-.24045,6.96956-.69354l56.62873,56.62873c7.3844,7.3844,19.35676,7.3844,26.74116,0h0c7.3844-7.3844,7.3844-19.35705,0-26.74145l-56.14493-56.14493c.63183-2.6377.9757-5.38752.9757-8.21902,0-11.47668-5.49934-21.66681-14.004-28.08623v-122.04487c0-11.6899-9.47631-21.16621-21.16621-21.16621Z"/></svg>