<svg id="レイヤー_2" data-name="レイヤー 2" xmlns="http://www.w3.org/2000/svg" viewBox="0 0 591.02 591.02"><defs><style>.cls-1{fill:#040000;}</style></defs><path class="cls-1" d="M294.74,50.41A244.79,244.79,0,0,0,94.93,153.53l-25.2-11.75a5.36,5.36,0,0,0-7.61,5.32L72.41,264.78a5.37,5.37,0,0,0,8.42,3.93L177.59,201a5.36,5.36,0,0,0-.8-9.25l-32.18-15a191.12,191.12,0,0,1,150.13-72.65c105.73,0,191.45,85.72,191.45,191.46S400.47,487,294.74,487c-95.08,0-173.95-69.3-188.89-160.14l-.44-6.27a1.78,1.78,0,0,0-1.77-1.78H53a1.79,1.79,0,0,0-1.78,1.79l.18,2.62h-.18c.14,1.22.29,2.43.44,3.65v.05h0C67.05,447.44,170,540.61,294.74,540.61c135.36,0,245.09-109.73,245.09-245.1S430.1,50.41,294.74,50.41Z"/><path class="cls-1" d="M288.78,129h0a21.16,21.16,0,0,0-21.16,21.17v122a35.17,35.17,0,0,0,21.16,63.26,35.51,35.51,0,0,0,7-.69l56.63,56.62a18.9,18.9,0,0,0,26.74,0h0a18.9,18.9,0,0,0,0-26.74L323,308.51a35.21,35.21,0,0,0-13-36.31v-122A21.17,21.17,0,0,0,288.78,129Z"/></svg>