<svg id="レイヤー_2" data-name="レイヤー 2" xmlns="http://www.w3.org/2000/svg" viewBox="0 0 591.02 591.02"><defs><style>.cls-1{fill:#050101;}</style></defs><path class="cls-1" d="M437.72,293.94a20,20,0,0,0-20,20V467.31H356.08l-.65-76.72a20,20,0,0,0-20-19.83h-80a20,20,0,0,0-20,19.74l-1,76.81H171.76V313.94a20,20,0,0,0-40,0V487.31a20,20,0,0,0,20,20H254.2a20,20,0,0,0,20-19.74l1-76.81H315.6l.66,76.72a20,20,0,0,0,20,19.83H437.72a20,20,0,0,0,20-20V313.94A20,20,0,0,0,437.72,293.94Z"/><path class="cls-1" d="M510.88,280,308.93,78.08a20,20,0,0,0-28.28,0l-202,202a20,20,0,1,0,28.28,28.29l187.9-187.9,187.8,187.81A20,20,0,0,0,510.88,280Z"/></svg>