<?xml version="1.0" encoding="UTF-8"?><svg xmlns="http://www.w3.org/2000/svg" viewBox="0 0 591.02334 591.02334"><defs><style>.cls-1{fill:none;isolation:isolate;}.cls-2{fill:#231815;mix-blend-mode:multiply;}</style></defs><g class="cls-1"><g id="_レイヤー_2"><path class="cls-2" d="m511.64448,290.0206l-201.94238-201.94336c-3.75098-3.75-8.83789-5.85742-14.14258-5.85742s-10.3916,2.10742-14.1416,5.85742l-202.03809,202.03711c-7.81055,7.81055-7.81152,20.47461-.00098,28.28516,3.90527,3.90527,9.02441,5.85742,14.14258,5.85742h39.01074v173.05566c0,11.0459,8.9541,20,20,20h82.43359c10.94531,0,19.85742-8.79785,19.99805-19.74219l.98926-76.80957h80.41309l.65918,76.72363c.09375,10.97852,9.02051,19.82812,19.99902,19.82812h81.46777c11.0459,0,20-8.9541,20-20v-173.05566h39.40234l-.10791-.10718c5.02319-.07104,10.0249-2.01147,13.85693-5.84399,7.81055-7.81055,7.81152-20.47461.00098-28.28516Z"/></g></g></svg>