<?xml version="1.0" encoding="UTF-8"?><svg id="_レイヤー_2" xmlns="http://www.w3.org/2000/svg" viewBox="0 0 591.02334 591.02334"><defs><style>.cls-1{fill:#231815;}</style></defs><path class="cls-1" d="m438.49214,295.18891c-13.50977,0-24.5,10.99072-24.5,24.5v148.86914h-52.67676l-.62109-72.26221c-.11426-13.39355-11.10449-24.28955-24.49902-24.28955h-79.98633c-13.33691,0-24.32617,10.84912-24.49805,24.18408l-.93164,72.36768h-53.74707v-148.86914c0-13.50928-10.99023-24.5-24.5-24.5s-24.5,10.99072-24.5,24.5v173.36914c0,13.50928,10.99023,24.5,24.5,24.5h102.43359c13.33691,0,24.32617-10.84912,24.49805-24.18408l.93164-72.36768h31.50879l.62109,72.26221c.11426,13.39307,11.10449,24.28955,24.49902,24.28955h101.46777c13.50977,0,24.5-10.99072,24.5-24.5v-173.36914c0-13.50928-10.99023-24.5-24.5-24.5Z"/><path class="cls-1" d="m514.82612,282.58393l-201.94238-201.94385c-4.62793-4.62695-10.78027-7.1748-17.32422-7.1748s-12.69629,2.54834-17.32324,7.17529l-202.03809,202.03711c-9.55371,9.55322-9.55371,25.09668-.00098,34.64893,4.62695,4.62744,10.7793,7.17578,17.32422,7.17578s12.69727-2.54834,17.32422-7.17578l184.71387-184.71338,184.61816,184.62012c9.55469,9.55127,25.09668,9.55273,34.64746-.00049,9.55371-9.55273,9.55371-25.09619.00098-34.64893Z"/></svg>