<?xml version="1.0" encoding="UTF-8"?><svg id="_レイヤー_2" xmlns="http://www.w3.org/2000/svg" viewBox="0 0 591.02334 591.02334"><defs><style>.cls-1{fill:#040000;}</style></defs><path class="cls-1" d="m485.32992,433.14621L208.23708,156.05343h40.85596c15.95978,0,28.89777-12.93799,28.89777-28.89795s-12.93799-28.89746-28.89777-28.89746h-109.66003c-7.72028-.26172-15.52533,2.54736-21.41846,8.44043-2.8869,2.88672-5.03027,6.23389-6.44019,9.80371-1.46429,3.45947-2.27429,7.26318-2.27429,11.25586v110.29297c0,15.95947,12.93799,28.89746,28.89777,28.89746s28.89777-12.93799,28.89777-28.89746v-41.40381l228.65009,228.6499H138.55801c-15.95978,0-28.89777,12.93799-28.89777,28.89795s12.93799,28.89746,28.89777,28.89746h325.32574c5.66467,0,10.94397-1.63623,15.40393-4.45264,2.15991-1.2417,4.19604-2.78027,6.04224-4.62598,11.28516-11.28564,11.28516-29.58252,0-40.86768Z"/></svg>