<svg id="レイヤー_2" data-name="レイヤー 2" xmlns="http://www.w3.org/2000/svg" viewBox="0 0 591.02 591.02"><defs><style>.cls-1{fill:#231815;}.cls-2{fill:#fff;}</style></defs><path class="cls-1" d="M544.06,267.17c0-118-111.28-213.64-248.55-213.64S47,149.18,47,267.17c0,100.61,80.9,185,189.83,207.65,13,2.71,21,15.48,17.57,27.93-4.16,14.86-4.88,29.29,5.47,34C283.74,547.62,446.88,436.64,447,436.56,506,397.5,544.06,336.15,544.06,267.17Z"/><path class="cls-2" d="M137,324.55c-9.79,0-15.6.14-21,.42.85-4.92,1.14-11.11,1.14-20.54V230.18a169.08,169.08,0,0,0-1.14-22.65H147c-1,7.32-1.14,11.25-1.14,22.22v69.76h34.32c12.06,0,16.88-.14,23.54-1v27c-5.24-.7-12.19-1-23.54-1Z"/><path class="cls-2" d="M244.53,207.53c-.85,5.77-1.13,10.55-1.13,20.82v75.38c0,9.71.28,14.91,1.13,20.82h-31.2c.85-5.49,1.14-11.4,1.14-20.82V228.35c0-10.55-.29-14.63-1.14-20.82Z"/><path class="cls-2" d="M329.9,265.06a187.26,187.26,0,0,1,10.21,16.73c-.57-6.47-.85-12.94-.85-20.81V228.91a152,152,0,0,0-1.13-21.38h30.2a152,152,0,0,0-1.13,21.38v74.68a170.88,170.88,0,0,0,1.13,21H337.27c-2.55-5.35-5.81-10.55-10.63-17.87L300.4,267.45a166.73,166.73,0,0,1-10.21-17.3,199.33,199.33,0,0,1,1,21v31.51c0,9.7.28,15.89,1.13,21.94H262.11c.85-5.49,1.14-11.68,1.14-22.08v-74a155.8,155.8,0,0,0-1.14-21h30.78c1.42,3.8,4.54,9.43,10.07,17.58Z"/><path class="cls-2" d="M475,325.53c-6.1-.7-11.2-1-23.4-1H406.9c-10.78,0-14.75.14-20.85.42.86-5.63,1.14-10.83,1.14-20.54V227.65a146.49,146.49,0,0,0-1.14-20.54c5.82.28,9.79.42,20.85.42h45.24a176.45,176.45,0,0,0,21.13-1v26.3a176.06,176.06,0,0,0-21.13-1H415.27v20.68H445.9a170.11,170.11,0,0,0,21.27-1v26a177.24,177.24,0,0,0-21.27-1H415.27v23.62h36.59a194.46,194.46,0,0,0,23.11-1Z"/></svg>