<?xml version="1.0" encoding="UTF-8"?><svg id="_レイヤー_2" xmlns="http://www.w3.org/2000/svg" viewBox="0 0 591.02334 591.02334"><defs><style>.cls-1{fill:#fff;}.cls-2{fill:#231815;}</style></defs><path class="cls-2" d="m544.0616,267.17237c0-117.99183-111.27947-213.6431-248.54993-213.6431S46.96174,149.18054,46.96174,267.17237c0,100.60416,80.89985,184.96461,189.83109,207.64357,13.02445,2.71163,21.04621,15.47929,17.56619,27.92951-4.15443,14.86301-4.87929,29.29326,5.46627,33.99859,23.91057,10.87496,187.05642-100.10519,187.17664-100.18701,59.02493-39.0609,97.05968-100.40416,97.05968-169.38466Z"/><path class="cls-1" d="m137.03953,324.54585c-9.78501,0-15.59923.14052-20.9879.42155.85063-4.92203,1.13451-11.11018,1.13451-20.53318v-74.25788c0-9.84504-.28388-15.89219-1.13451-22.64291h30.91509c-.99282,7.31328-1.13451,11.25119-1.13451,22.22086v69.75741h34.31861c12.05452,0,16.87593-.14052,23.54129-.98411v27.00287c-5.24697-.70357-12.19621-.9846-23.54129-.9846h-43.1113Z"/><path class="cls-1" d="m244.53041,207.53343c-.85063,5.76611-1.13451,10.54763-1.13451,20.81471v75.383c0,9.70403.28388,14.90759,1.13451,20.81471h-31.19847c.85063-5.48508,1.13451-11.39171,1.13451-20.81471v-75.383c0-10.54812-.28388-14.62655-1.13451-20.81471h31.19847Z"/><path class="cls-1" d="m329.90038,265.05504c4.11247,6.04764,6.80705,10.54812,10.21057,16.73628-.56725-6.46968-.85063-12.93887-.85063-20.81471v-32.0659c0-9.28248-.28388-14.90808-1.13451-21.37727h30.20615c-.85113,6.32867-1.13451,12.2358-1.13451,21.37727v74.67943c0,8.57941.42556,15.0486,1.13451,20.95572h-31.05727c-2.55239-5.34456-5.81423-10.54812-10.63613-17.86139l-26.23537-39.23866c-3.82909-5.6256-6.23979-9.84455-10.21057-17.29834.70894,6.32867.99282,14.0635.99282,20.95523v31.50334c0,9.70403.28338,15.89219,1.13451,21.93983h-30.20615c.85063-5.48508,1.13451-11.67324,1.13451-22.08084v-73.97636c0-8.15736-.28388-14.48604-1.13451-20.95523h30.7734c1.41789,3.79691,4.53803,9.42251,10.06888,17.57987l26.94431,39.94174Z"/><path class="cls-1" d="m474.97171,325.53046c-6.0981-.70357-11.20289-.9846-23.3991-.9846h-44.67137c-10.77782,0-14.7486.14052-20.8467.42155.85113-5.6256,1.13451-10.82915,1.13451-20.53318v-76.78916c0-8.71992-.28338-13.64244-1.13451-20.53368,5.81473.28153,9.7855.42204,20.8467.42204h45.23862c9.64332,0,14.46473-.28153,21.13008-.9846v26.29979c-6.52317-.70308-11.62846-.9846-21.13008-.9846h-36.8715v20.67419h30.63171c9.35944,0,12.76296-.14052,21.27227-.9846v26.01826c-6.66536-.70308-11.48726-.9846-21.27227-.9846h-30.63171v23.62751h36.58763c10.77832,0,17.01762-.28103,23.11572-.98411v26.29979Z"/></svg>