<svg id="レイヤー_2" data-name="レイヤー 2" xmlns="http://www.w3.org/2000/svg" viewBox="0 0 591.02 591.02"><path d="M467.26,123.76h0a124.4,124.4,0,0,0-175.91,0L256.15,159a152.53,152.53,0,0,1,68,3.15l2.79-2.78A74.1,74.1,0,0,1,431.7,264.12l-12.44,12.44-5.32,5.31-17.31,17.31-30.1,30.11a74.19,74.19,0,0,1-104.79,0c-12.66-12.66-16-19.9-17.53-36.46l-.16.15-40.86,40.87c6.07,14.5,11.18,19.19,23,31h0a124.27,124.27,0,0,0,175.91,0L418,348.91l4.38-4.39,44.85-44.84A124.39,124.39,0,0,0,467.26,123.76Z"/><path d="M266.91,428.91l-2.79,2.79A74.1,74.1,0,0,1,159.33,326.91l9.13-9.14,22.63-22.62L221.19,265A74.19,74.19,0,0,1,326,265c12.66,12.66,16.59,19.26,18.16,35.82l.16-.15,40.87-40.86c-6.07-14.51-11.82-18.57-23.63-30.37h0a124.27,124.27,0,0,0-175.91,0L165.31,249.8l-41.55,41.54a124.41,124.41,0,0,0,0,175.92h0a124.39,124.39,0,0,0,175.92,0l35.19-35.19A152.48,152.48,0,0,1,266.91,428.91Z"/></svg>