<?xml version="1.0" encoding="UTF-8"?><svg id="_イヤー_2" xmlns="http://www.w3.org/2000/svg" viewBox="0 0 591.02334 591.02334"><defs><style>.cls-1{fill:#040000;}</style></defs><path class="cls-1" d="M369.78383,72.74115h128.28097c7.67777,0,14.62773,3.11578,19.65559,8.15116,5.03507,5.02754,8.15085,11.9775,8.15054,19.65559l.00031,128.28066c0,15.34111-12.43615,27.77726-27.77695,27.77695h-6.45555c-15.3408,.00031-27.77695-12.43583-27.77663-27.77663l-.00031-47.66123-137.12857,137.12857c-11.29392,11.29392-29.60463,11.29392-40.89886-.00031l-4.75241-4.75241c-11.29392-11.29392-11.29424-29.60494-.00031-40.89886l137.89403-137.89403h-49.19182c-15.34111,0-27.77695-12.43583-27.77695-27.77695v-6.45555c0-15.34049,12.43615-27.77663,27.77695-27.77695Zm63.0041,256.17772v111.56252c0,12.70722-10.30124,23.00845-23.00845,23.00845H144.75626c-12.70722,0-23.00845-10.30124-23.00845-23.00845V185.36889c0-12.70724,10.30125-23.00849,23.00849-23.00849h127.24776c4.91507,0,8.89952-3.98445,8.89952-8.89952v-36.99332c0-4.91507-3.98445-8.89952-8.89952-8.89952H90.3427c-13.91239,0-25.1906,11.27822-25.1906,25.1906V493.09162c0,13.91237,11.2782,25.19057,25.19057,25.19057H464.19275c13.91239,0,25.1906-11.27822,25.1906-25.1906v-164.1727c0-4.79642-3.88827-8.68469-8.68469-8.68469h-39.22604c-4.79642,0-8.68469,3.88827-8.68469,8.68469Z"/></svg>