<svg id="レイヤー_2" data-name="レイヤー 2" xmlns="http://www.w3.org/2000/svg" viewBox="0 0 591.02 591.02"><defs><style>.cls-1{fill:#040000;}</style></defs><path class="cls-1" d="M369.78,72.74H498.06a27.83,27.83,0,0,1,27.81,27.81V228.83a27.78,27.78,0,0,1-27.78,27.78h-6.45a27.78,27.78,0,0,1-27.78-27.78V181.17L326.73,318.3a28.93,28.93,0,0,1-40.9,0l-4.75-4.76a28.93,28.93,0,0,1,0-40.9L419,134.75h-49.2A27.77,27.77,0,0,1,342,107v-6.45A27.77,27.77,0,0,1,369.78,72.74Zm63,256.18V440.48a23,23,0,0,1-23,23h-265a23,23,0,0,1-23-23V185.37a23,23,0,0,1,23-23H272a8.89,8.89,0,0,0,8.9-8.9v-37a8.89,8.89,0,0,0-8.9-8.9H90.34a25.19,25.19,0,0,0-25.19,25.19V493.09a25.19,25.19,0,0,0,25.19,25.19H464.19a25.19,25.19,0,0,0,25.19-25.19V328.92a8.68,8.68,0,0,0-8.68-8.69H441.47A8.69,8.69,0,0,0,432.79,328.92Z"/></svg>