<svg id="レイヤー_2" data-name="レイヤー 2" xmlns="http://www.w3.org/2000/svg" viewBox="0 0 591.02 591.02"><path d="M468.08,109.4h0a119.51,119.51,0,0,0-169,0l-59.43,59.43a120.16,120.16,0,0,0-8.84,9.88,137.93,137.93,0,0,1,68.29-1l34.15-34.15A71.19,71.19,0,1,1,433.91,244.24l-34.15,34.15L385.1,293.05l-10.62,10.62a70.73,70.73,0,0,1-37.6,19.66,71.77,71.77,0,0,1-17.86,1,71,71,0,0,1-65.83-65.84,53.68,53.68,0,0,0-24.44,14l-18.17,18.17a119,119,0,0,0,29.06,47.22h0a119.38,119.38,0,0,0,159.13,8.84,122.09,122.09,0,0,0,9.87-8.84l59.44-59.44A119.5,119.5,0,0,0,468.08,109.4Z"/><path d="M291.94,386.21l-34.15,34.15A71.19,71.19,0,0,1,157.11,319.69l34.15-34.15,14.67-14.67,10.62-10.62a70.77,70.77,0,0,1,37.59-19.66,71.79,71.79,0,0,1,17.86-1,71,71,0,0,1,65.84,65.83,53.47,53.47,0,0,0,24.43-14l18.17-18.17a119,119,0,0,0-29.05-47.21h0a119.38,119.38,0,0,0-159.13-8.84,122,122,0,0,0-9.88,8.84L123,285.52a119.51,119.51,0,0,0,0,169h0a119.5,119.5,0,0,0,169,0l59.44-59.44a120.09,120.09,0,0,0,8.83-9.87A137.77,137.77,0,0,1,291.94,386.21Z"/></svg>