<svg id="レイヤー_2" data-name="レイヤー 2" xmlns="http://www.w3.org/2000/svg" viewBox="0 0 1000 1000"><defs><style>.cls-1{fill:#040000;}</style></defs><title>link-alt</title><path class="cls-1" d="M647.18,124.52H863.4a46.91,46.91,0,0,1,46.87,46.87V387.61a46.82,46.82,0,0,1-46.82,46.81H852.57a46.82,46.82,0,0,1-46.82-46.81V307.28L574.62,538.4a48.73,48.73,0,0,1-68.93,0l-8-8a48.73,48.73,0,0,1,0-68.93L730.1,229H647.18a46.82,46.82,0,0,1-46.81-46.82V171.34A46.82,46.82,0,0,1,647.18,124.52Zm106.2,431.79v188a38.78,38.78,0,0,1-38.78,38.78H267.9a38.78,38.78,0,0,1-38.78-38.78v-430a38.78,38.78,0,0,1,38.78-38.78H482.38a15,15,0,0,0,15-15V198.22a15,15,0,0,0-15-15H176.19a42.46,42.46,0,0,0-42.46,42.46V833a42.46,42.46,0,0,0,42.46,42.46H806.31A42.46,42.46,0,0,0,848.77,833V556.31a14.64,14.64,0,0,0-14.64-14.64H768A14.63,14.63,0,0,0,753.38,556.31Z"/></svg>