<?xml version="1.0" encoding="UTF-8"?><svg id="_レイヤー_2" xmlns="http://www.w3.org/2000/svg" viewBox="0 0 591.02334 591.02334"><path d="m467.25935,123.76407l-.00016-.00016c-48.5774-48.5774-127.33699-48.5774-175.91416-.00023l-35.19134,35.19134c22.53512-4.06784,45.8183-3.01561,67.96412,3.15902l2.78879-2.78879c28.89067-28.89067,75.90011-28.89067,104.79117.00039,28.89114,28.89114,28.89098,75.90042.00031,104.7911l-12.44227,12.44227-5.31557,5.31557-17.30575,17.30575-30.10616,30.10616c-7.18375,7.18375-15.48881,12.57769-24.35594,16.18911-11.17376,4.55062-23.24069,6.26703-35.08786,5.14464-16.56197-1.56873-32.69294-8.67908-45.34776-21.3339-12.6549-12.6549-15.95516-19.89556-17.52389-36.45752-.05232.05186-.10783.09992-.16023.15232l-40.86443,40.86443c6.06734,14.50131,11.18369,19.19906,22.98698,31.00234l.00016.00016c11.80321,11.80321,25.39128,20.72965,39.89212,26.79714,9.6186,4.02427,19.63789,6.79159,29.80965,8.2925,28.54115,4.21163,58.26281-1.5123,83.58828-17.16909,8.04421-4.97325,15.64694-10.94299,22.6245-17.92055l15.93958-15.93958,4.38473-4.38473,44.84544-44.84544c48.57716-48.57716,48.57716-127.33676-.00031-175.91424Z"/><path d="m266.90552,428.9093l-2.78848,2.78848c-28.89098,28.89098-75.90034,28.89106-104.79156-.00016-28.89106-28.89106-28.89091-75.90034.00008-104.79133l9.13845-9.13845,22.62163-22.62163,30.10616-30.10616c7.18375-7.18375,15.48873-12.57777,24.35602-16.18903,11.1733-4.55047,23.23976-6.26672,35.08716-5.14472,16.56189,1.56866,32.69309,8.67923,45.34799,21.33414,12.65475,12.65475,16.58995,19.26029,18.15892,35.82188.05263-.05217.10783-.09992.16023-.15232l40.86443-40.86443c-6.06718-14.50115-11.81879-18.56348-23.622-30.3667l-.00016-.00016c-11.80329-11.80329-25.39143-20.7298-39.89243-26.79745-9.61844-4.02412-19.63726-6.79159-29.80895-8.29242-28.54115-4.21163-58.26281,1.5123-83.5882,17.16917-8.04436,4.97309-15.64702,10.94292-22.62458,17.92047l-20.32462,20.32462-41.54162,41.54162c-48.57747,48.57747-48.57747,127.33707-.00008,175.91447l.00016.00016c48.57747,48.57747,127.33707,48.57747,175.91455,0l35.19165-35.19165c-22.53536,4.06823-45.81853,3.016-67.96474-3.1584Z"/></svg>