<?xml version="1.0" encoding="utf-8"?>
<!-- Generator: Adobe Illustrator 22.1.0, SVG Export Plug-In . SVG Version: 6.00 Build 0)  -->
<svg version="1.1" id="レイヤー_2" xmlns="http://www.w3.org/2000/svg" xmlns:xlink="http://www.w3.org/1999/xlink" x="0px"
	 y="0px" viewBox="0 0 1000 1000" style="enable-background:new 0 0 1000 1000;" xml:space="preserve">
<style type="text/css">
	.st0{fill:#040000;}
	.st1{fill:#070001;}
	.st2{fill:#231916;}
	.st3{fill-rule:evenodd;clip-rule:evenodd;fill:#070102;}
	.st4{fill:#050101;}
</style>
<path class="st0" d="M693.2,314l-7.7,7.7c-18.3,18.3-18.3,47.9,0,66.2l58.6,58.6H415.4c-26.9,0-48.7,21.8-48.7,48.7v11.3
	c0,26.9,21.8,48.7,48.7,48.7h326.9l-56.8,56.8c-18.3,18.3-18.3,47.9,0,66.2l7.7,7.7c18.3,18.3,47.9,18.3,66.2,0l152.9-152.9
	C921.4,524,926,512,926,500c0-12-4.6-24-13.7-33.1L759.4,314C741.1,295.7,711.5,295.7,693.2,314z"/>
<path class="st0" d="M610.6,325.1c6.9,0,12.6-5.7,12.6-12.6V99.5c0-6.9-5.6-12.6-12.5-12.6c-6.9,0-18.2,0-25.1,0h-56.2
	c-6.9,0-18.2,0-25.1,0H238.8c-6.9,0-18.2,0-25.1,0h-53.2c-6.9,0-18.2,0-25.1,0h-2.9c-6.9,0-12.6,5.7-12.6,12.6v801.1
	c0,6.9,5.7,12.6,12.6,12.6h2.9c6.9,0,18.2,0,25.1,0h53.2c6.9,0,18.2,0,25.1,0h265.4c6.9,0,18.2,0,25.1,0h56.2c6.9,0,18.2,0,25.1,0
	c6.9,0,12.5-5.7,12.5-12.6v-185c0-6.9-5.7-12.6-12.6-12.6h-81.3c-6.9,0-12.6,5.7-12.6,12.6v78.6c0,6.9-5.7,12.6-12.6,12.6H238.8
	c-6.9,0-12.6-5.7-12.6-12.6V205.9c0-6.9,5.7-12.6,12.6-12.6h265.4c6.9,0,12.6,5.7,12.6,12.6v106.7c0,6.9,5.7,12.6,12.6,12.6H610.6z"
	/>
</svg>
