<svg id="レイヤー_2" data-name="レイヤー 2" xmlns="http://www.w3.org/2000/svg" viewBox="0 0 591.02 591.02"><defs><style>.cls-1{fill:#040000;}</style></defs><title>logout</title><path class="cls-1" d="M396.54,185.14,392,189.71A27.77,27.77,0,0,0,392,229l34.78,34.78h-195a28.92,28.92,0,0,0-28.92,28.92v6.72a28.92,28.92,0,0,0,28.92,28.92H425.68L392,362a27.77,27.77,0,0,0,0,39.28l4.56,4.56a27.78,27.78,0,0,0,39.29,0l90.7-90.71a27.81,27.81,0,0,0,0-39.32l-90.7-90.71A27.78,27.78,0,0,0,396.54,185.14Z"/><path class="cls-1" d="M347.55,191.73a7.47,7.47,0,0,0,7.45-7.45V57.87a7.48,7.48,0,0,0-7.44-7.46H63.81a7.49,7.49,0,0,0-7.46,7.46V533.16a7.48,7.48,0,0,0,7.46,7.45H347.56a7.47,7.47,0,0,0,7.44-7.45V423.39a7.47,7.47,0,0,0-7.45-7.45H299.33a7.47,7.47,0,0,0-7.45,7.45V470a7.48,7.48,0,0,1-7.46,7.45H126.94a7.48,7.48,0,0,1-7.46-7.45V121a7.48,7.48,0,0,1,7.46-7.45H284.42a7.48,7.48,0,0,1,7.46,7.45v63.29a7.47,7.47,0,0,0,7.45,7.45Z"/></svg>