<?xml version="1.0" encoding="UTF-8"?><svg id="_イヤー_2" xmlns="http://www.w3.org/2000/svg" viewBox="0 0 591.02334 591.02334"><defs><style>.cls-1{fill:#040000;}</style></defs><path class="cls-1" d="M396.54275,185.14098l-4.56476,4.56476c-10.84781,10.84781-10.84781,28.43473,0,39.28253l34.78387,34.78387H231.75025c-15.97202,0-28.91964,12.94807-28.91964,28.92009v6.72093c0,15.97246,12.94762,28.92009,28.91964,28.92009h193.92909l-33.70135,33.7018c-10.84781,10.84736-10.84781,28.43473,0,39.28209l4.56476,4.56476c10.84736,10.84781,28.43473,10.84781,39.28253,0l90.7079-90.70834c5.42945-5.429,8.14062-12.54656,8.1353-19.6619,.00532-7.11578-2.70585-14.23334-8.13486-19.66234l-90.70834-90.70834c-10.84781-10.84736-28.43517-10.84736-39.28253,0Z"/><path class="cls-1" d="M347.55061,191.7313c4.09927,0,7.45321-3.35395,7.45321-7.45321V57.86641c0-4.09927-3.35034-7.45321-7.44521-7.45321H63.80806c-4.09927,0-7.45321,3.35395-7.45321,7.45321v475.29052c0,4.09927,3.35395,7.45321,7.45321,7.45321H347.55862c4.09486,0,7.44521-3.35395,7.44521-7.45321v-109.76459c0-4.09927-3.35395-7.45321-7.45321-7.45321h-48.22099c-4.09927,0-7.45321,3.35395-7.45321,7.45321v46.63718c0,4.09927-3.35395,7.45321-7.45321,7.45321H126.93548c-4.09927,0-7.45321-3.35395-7.45321-7.45321V120.99382c0-4.09927,3.35395-7.45321,7.45321-7.45321h157.48773c4.09927,0,7.45321,3.35395,7.45321,7.45321v63.28427c0,4.09927,3.35395,7.45321,7.45321,7.45321h48.22099Z"/></svg>