<?xml version="1.0" encoding="UTF-8"?><svg id="_レイヤー_2" xmlns="http://www.w3.org/2000/svg" viewBox="0 0 591.02334 591.02334"><defs><style>.cls-1{fill:#040000;}</style></defs><path class="cls-1" d="m510.18655,266.475l-.00012-.00006c-1.31641-1.31647-2.73291-2.47083-4.22192-3.47205l-70.85962-70.85968c-10.99561-10.99561-28.823-10.99561-39.8186,0v.00006c-10.99561,10.99554-10.99561,28.82288,0,39.81848l26.87378,26.87372H98.76656c-15.55011,0-28.15594,12.60583-28.15594,28.15594v.00006c0,15.55011,12.60583,28.15594,28.15594,28.15594h322.92889l-26.40918,26.40918c-10.99561,10.99561-10.99561,28.82294,0,39.81854s28.823,10.99561,39.8186,0l70.85986-70.85986c1.48877-1.00122,2.90527-2.15546,4.22168-3.47186l.00012-.00006c5.59314-5.59314,8.33472-12.95392,8.23767-20.28418.09705-7.3302-2.64453-14.69098-8.23767-20.28418Z"/></svg>