<?xml version="1.0" encoding="utf-8"?>
<!-- Generator: Adobe Illustrator 21.0.2, SVG Export Plug-In . SVG Version: 6.00 Build 0)  -->
<svg version="1.1" id="レイヤー_2" xmlns="http://www.w3.org/2000/svg" xmlns:xlink="http://www.w3.org/1999/xlink" x="0px"
	 y="0px" viewBox="0 0 1000 1000" style="enable-background:new 0 0 1000 1000;" xml:space="preserve">
<style type="text/css">
	.st0{fill:#040000;}
	.st1{fill:#070001;}
</style>
<g id="Components_16_">
	<g id="SliceIcon_16_" transform="translate(-89.000000, -55.000000)">
		<g id="Icons_16_" transform="translate(46.000000, 54.000000)">
			<g id="Icons_x2F_Loupe-Icon" transform="translate(43.000000, 1.000000)">
				<path id="Loupe-Icon" class="st0" d="M799,865.8c19,19.3,49.8,19.3,68.8,0c19-19.3,19-50.4,0-69.7l-150.1-150
					c42.4-56.9,67.6-127.5,67.6-203.9c0-188.5-152.8-341.3-341.3-341.3S102.7,253.7,102.7,442.2S255.5,783.5,444,783.5
					c76.7,0,147.5-25.3,204.5-68.1L799,865.8z M200.2,442.2c0-134.6,109.1-243.8,243.8-243.8s243.8,109.1,243.8,243.8
					S578.6,686,444,686S200.2,576.8,200.2,442.2z"/>
			</g>
		</g>
	</g>
</g>
</svg>
