<?xml version="1.0" encoding="UTF-8"?><svg id="_レイヤー_2" xmlns="http://www.w3.org/2000/svg" viewBox="0 0 591.02334 591.02334"><defs><style>.cls-1{fill:#060001;}</style></defs><path class="cls-1" d="m523.17272,453.02467l-78.09533-78.0381c22.72483-34.52223,34.67265-74.44359,34.67265-116.2148,0-56.60216-22.04303-109.82295-62.07508-149.85041-40.01181-40.02802-93.2381-62.06863-149.84581-62.06863s-109.82388,22.04061-149.84581,62.06863c-40.03143,40.02746-62.07416,93.24825-62.07416,149.85041s22.04273,109.82297,62.07416,149.8504c40.03208,40.02747,93.24826,62.06864,149.85595,62.06864,41.94189,0,82.00255-12.04377,116.61614-34.93186l78.2706,78.20415c8.07837,8.15495,18.81662,12.64715,30.23761,12.64715s22.19895-4.51155,30.28657-12.69603c16.56637-16.76937,16.56637-44.05189-.06828-60.8794l-.00922-.01014Zm-129.03079-194.26306c0,69.64882-56.66676,126.31925-126.31277,126.31925s-126.31185-56.66029-126.31185-126.31925,56.66581-126.30907,126.31185-126.30907,126.31277,56.66029,126.31277,126.30907Z"/></svg>