<?xml version="1.0" encoding="UTF-8"?><svg id="_イヤー_2" xmlns="http://www.w3.org/2000/svg" viewBox="0 0 591.02334 591.02334"><defs><style>.cls-1{fill:#040000;}</style></defs><g id="Components"><g id="SliceIcon" transform="translate(-89.000000, -55.000000)"><g id="Icons" transform="translate(46.000000, 54.000000)"><g id="Icons_Loupe-Icon" transform="translate(43.000000, 1.000000)"><path id="Loupe-Icon" class="cls-1" d="M477.42259,518.12494c11.28421,11.42487,29.52363,11.42487,40.80785,0,11.28421-11.42487,11.28421-29.90715,0-41.33202l-89.04687-88.9963c25.18422-33.75362,40.09341-75.62427,40.09341-120.97743,0-111.83183-90.65051-202.48945-202.4736-202.48945S64.32974,154.98736,64.32974,266.81919s90.65053,202.48945,202.47363,202.48945c45.52022,0,87.53198-15.02276,121.34857-40.38129l89.27065,89.19759ZM122.17935,266.81919c0-79.87987,64.75038-144.63532,144.62402-144.63532s144.62402,64.75545,144.62402,144.63532-64.75039,144.63532-144.62402,144.63532-144.62402-64.75543-144.62402-144.63532Z"/></g></g></g></g></svg>