<?xml version="1.0" encoding="UTF-8"?><svg id="_イヤー_2" xmlns="http://www.w3.org/2000/svg" viewBox="0 0 591.02335 591.02334"><defs><style>.cls-1{fill:#040000;}</style></defs><g id="Components"><g id="SliceIcon" transform="translate(-125.000000, -56.000000)"><g id="Icons" transform="translate(46.000000, 54.000000)"><g id="Icons_Mail-Icon" transform="translate(79.000000, 2.000000)"><path id="Mail-Icon" class="cls-1" d="M468.69584,497.79586H122.32751c-31.93936-.03147-57.8547-25.85644-57.99777-57.79548V151.02296c-.00009-15.36343,6.11682-30.09467,16.99936-40.93926,10.88254-10.84459,25.63507-16.90999,40.9984-16.85622H468.69584c31.93935,.03148,57.85471,25.85643,57.99777,57.79548V440.00037c.00011,15.36342-6.11681,30.09468-16.99935,40.93927-10.88257,10.84456-25.63508,16.90997-40.99842,16.85621h0Zm.20228-57.79548V193.53154l-142.89932,147.0895c-8.13104,8.14391-19.16684,12.72023-30.67495,12.72023s-22.54392-4.57632-30.67495-12.72023L122.12523,193.87832v246.12206H468.89812Zm-39.61881-288.97741H161.39726l133.94103,138.1023,133.94102-138.1023h0Z"/></g></g></g></g></svg>