<?xml version="1.0" encoding="utf-8"?>
<!-- Generator: Adobe Illustrator 21.0.2, SVG Export Plug-In . SVG Version: 6.00 Build 0)  -->
<svg version="1.1" id="レイヤー_2" xmlns="http://www.w3.org/2000/svg" xmlns:xlink="http://www.w3.org/1999/xlink" x="0px"
	 y="0px" viewBox="0 0 1000 1000" style="enable-background:new 0 0 1000 1000;" xml:space="preserve">
<style type="text/css">
	.st0{fill:#040000;}
	.st1{fill:#070001;}
</style>
<g id="Components_17_">
	<g id="SliceIcon_17_" transform="translate(-125.000000, -56.000000)">
		<g id="Icons_17_" transform="translate(46.000000, 54.000000)">
			<g id="Icons_x2F_Mail-Icon" transform="translate(79.000000, 2.000000)">
				<path id="Mail-Icon" class="st0" d="M802.1,862.3H218.3c-53.8-0.1-97.5-43.6-97.8-97.4V277.8c0-25.9,10.3-50.7,28.7-69
					s43.2-28.5,69.1-28.4h583.8c53.8,0.1,97.5,43.6,97.8,97.4v487.1c0,25.9-10.3,50.7-28.7,69C852.8,852.1,828,862.4,802.1,862.3
					L802.1,862.3L802.1,862.3z M802.4,764.9V349.4L561.5,597.4c-13.7,13.7-32.3,21.4-51.7,21.4c-19.4,0-38-7.7-51.7-21.4L217.9,350
					v414.8H802.4L802.4,764.9L802.4,764.9z M735.6,277.8H284.1l225.8,232.8L735.6,277.8L735.6,277.8z"/>
			</g>
		</g>
	</g>
</g>
</svg>
