<?xml version="1.0" encoding="UTF-8"?><svg id="_レイヤー_2" xmlns="http://www.w3.org/2000/svg" viewBox="0 0 591.02334 591.02334"><defs><style>.cls-1{fill:#040000;}.cls-2{fill:#231815;}</style></defs><path class="cls-1" d="m66.46831,384.43965l38.73804,8.52795,138.52588-226.01263c6.55225-10.69043,22.22119-9.85278,30.41553,1.62598l154.53174,216.47601c8.22095,11.51654,3.86353,26.65381-8.43872,29.3147l-258.47021,55.9057-4.70996,41.06873c-1.67285,14.58624-19.69189,17.63678-28.80103,4.87592l-75.75928-106.12744c-9.10937-12.76086-.37061-28.81146,13.96802-25.65491Z"/><path class="cls-2" d="m387.45047,252.62597c4.05664,0,8.15039-1.22998,11.69141-3.78613l61.63867-44.50439c8.95508-6.46631,10.97266-18.96777,4.50684-27.92285-6.46484-8.95508-18.96484-10.97412-27.92285-4.50781l-61.63867,44.50439c-8.95508,6.46631-10.97266,18.96777-4.50684,27.92285,3.90918,5.41504,10.02637,8.29395,16.23145,8.29395Z"/><path class="cls-2" d="m431.32254,313.43164c.29395,0,.58984-.00635.88672-.01953l90.9082-3.96631c11.03516-.48145,19.59082-9.81738,19.10938-20.85254-.48145-11.03516-9.81641-19.59717-20.85352-19.10938l-90.9082,3.96631c-11.03516.48145-19.59082,9.81738-19.10938,20.85254.46875,10.73828,9.32227,19.12891,19.9668,19.12891Z"/><path class="cls-2" d="m343.52567,191.82324c8.06152,0,15.65723-4.90869,18.69531-12.89062l32.37012-85.04248c3.92969-10.32324-1.25391-21.87695-11.57715-25.80664-10.32422-3.92822-21.87695,1.25439-25.80566,11.57715l-32.37012,85.04248c-3.92969,10.32324,1.25391,21.87695,11.57617,25.80664,2.3418.89111,4.74707,1.31348,7.11133,1.31348Z"/></svg>