<?xml version="1.0" encoding="UTF-8"?><svg id="_レイヤー_2" xmlns="http://www.w3.org/2000/svg" viewBox="0 0 591.02334 591.02334"><defs><style>.cls-1{fill:#040000;}.cls-2{fill:#231815;}</style></defs><path class="cls-1" d="m260.42003,235.40867l100.40845,140.65729-209.62842,45.3414-5.51147,1.19211,2.14746-3.50356,112.58398-183.68724m-3.05298-75.97974c-5.41309.00021-10.54077,2.47775-13.63501,7.52606l-138.52588,226.01254-38.73804-8.52782c-1.24194-.27338-2.4397-.40254-3.5896-.40254-12.12695,0-18.69897,14.40175-10.37842,26.05745l75.75928,106.12746c3.90186,5.46599,9.43823,8.03088,14.62476,8.03088,6.92188,0,13.21997-4.56861,14.17627-12.90688l4.70996-41.06873,258.47021-55.90563c12.30225-2.6609,16.65967-17.79819,8.43872-29.31473l-154.53174-216.476c-4.32471-6.05814-10.73071-9.15228-16.78052-9.15207h0Z"/><path class="cls-2" d="m387.45028,252.62599c4.05664,0,8.15039-1.22998,11.69141-3.78613l61.63867-44.50439c8.95508-6.46631,10.97266-18.96777,4.50684-27.92285-6.46484-8.95508-18.96484-10.97412-27.92285-4.50781l-61.63867,44.50439c-8.95508,6.46631-10.97266,18.96777-4.50684,27.92285,3.90918,5.41504,10.02637,8.29395,16.23145,8.29395Z"/><path class="cls-2" d="m431.32235,313.43166c.29395,0,.58984-.00635.88672-.01953l90.9082-3.96631c11.03516-.48145,19.59082-9.81738,19.10938-20.85254-.48145-11.03516-9.81641-19.59717-20.85352-19.10938l-90.9082,3.96631c-11.03516.48145-19.59082,9.81738-19.10938,20.85254.46875,10.73828,9.32227,19.12891,19.9668,19.12891Z"/><path class="cls-2" d="m343.52548,191.82326c8.06152,0,15.65723-4.90869,18.69531-12.89062l32.37012-85.04248c3.92969-10.32324-1.25391-21.87695-11.57715-25.80664-10.32422-3.92822-21.87695,1.25439-25.80566,11.57715l-32.37012,85.04248c-3.92969,10.32324,1.25391,21.87695,11.57617,25.80664,2.3418.89111,4.74707,1.31348,7.11133,1.31348Z"/></svg>