<?xml version="1.0" encoding="utf-8"?>
<!-- Generator: Adobe Illustrator 21.0.2, SVG Export Plug-In . SVG Version: 6.00 Build 0)  -->
<svg version="1.1" id="レイヤー_2" xmlns="http://www.w3.org/2000/svg" xmlns:xlink="http://www.w3.org/1999/xlink" x="0px"
	 y="0px" viewBox="0 0 1000 1000" style="enable-background:new 0 0 1000 1000;" xml:space="preserve">
<style type="text/css">
	.st0{fill:#040000;}
	.st1{fill:#070001;}
</style>
<g id="Components_18_">
	<g id="SliceIcon_18_" transform="translate(-47.000000, -57.000000)">
		<g id="Icons_18_" transform="translate(46.000000, 54.000000)">
			<g id="Icons_x2F_Menu-Icon" transform="translate(1.000000, 3.000000)">
				<path id="Menu-Icon" class="st0" d="M158.9,781.6h681.9c26.9,0,48.7-21.8,48.7-48.7c0-26.9-21.8-48.7-48.7-48.7H158.9
					c-26.9,0-48.7,21.8-48.7,48.7C110.2,759.8,132,781.6,158.9,781.6L158.9,781.6z M158.9,538h681.9c26.9,0,48.7-21.8,48.7-48.7
					c0-26.9-21.8-48.7-48.7-48.7H158.9c-26.9,0-48.7,21.8-48.7,48.7C110.2,516.2,132,538,158.9,538L158.9,538z M158.9,294.5h681.9
					c26.9,0,48.7-21.8,48.7-48.7s-21.8-48.7-48.7-48.7H158.9c-26.9,0-48.7,21.8-48.7,48.7S132,294.5,158.9,294.5L158.9,294.5z"/>
			</g>
		</g>
	</g>
</g>
</svg>
