<?xml version="1.0" encoding="UTF-8"?><svg id="_イヤー_2" xmlns="http://www.w3.org/2000/svg" viewBox="0 0 591.02334 591.02334"><defs><style>.cls-1{fill:#040000;}</style></defs><g id="Components"><g id="SliceIcon" transform="translate(-47.000000, -57.000000)"><g id="Icons" transform="translate(46.000000, 54.000000)"><g id="Icons_Menu-Icon" transform="translate(1.000000, 3.000000)"><path id="Menu-Icon" class="cls-1" d="M93.22748,468.89811H497.79586c15.95977,0,28.89774-12.93797,28.89774-28.89774s-12.93797-28.89774-28.89774-28.89774H93.22748c-15.95978,0-28.89774,12.93797-28.89774,28.89774s12.93796,28.89774,28.89774,28.89774h0Zm0-144.4887H497.79586c15.95977,0,28.89774-12.93796,28.89774-28.89774s-12.93797-28.89774-28.89774-28.89774H93.22748c-15.95978,0-28.89774,12.93796-28.89774,28.89774s12.93796,28.89774,28.89774,28.89774h0Zm0-144.4887H497.79586c15.95977,0,28.89774-12.93796,28.89774-28.89774s-12.93797-28.89774-28.89774-28.89774H93.22748c-15.95978,0-28.89774,12.93796-28.89774,28.89774s12.93796,28.89774,28.89774,28.89774h0Z"/></g></g></g></g></svg>