<svg id="レイヤー_2" data-name="レイヤー 2" xmlns="http://www.w3.org/2000/svg" viewBox="0 0 591.02 591.02"><defs><style>.cls-1{fill:#040000;}</style></defs><g id="Components"><g id="SliceIcon"><g id="Icons"><g id="Icons_Pencil-Icon" data-name="Icons/Pencil-Icon"><path id="Pencil-Icon" class="cls-1" d="M476.7,224.36,226.49,474.5a127.36,127.36,0,0,1-50,28.32l-76.33,19.09h0l-34.2,8.63A16.47,16.47,0,0,1,44.2,508.83l8.62-34.19h0L71.9,398.31a127.19,127.19,0,0,1,28.31-50.06L350.42,98.11A89.34,89.34,0,1,1,476.7,224.36ZM140.79,388.82a74.52,74.52,0,0,0-13.22,23.35L115.9,458.8l46.62-11.67a76.4,76.4,0,0,0,23.36-13.2L383,236.78l-1-1-43.11-43.13-1-1L140.79,388.82Zm295.3-250.14a32,32,0,0,0-45.12,0l-12.42,12.45,1,1,43.11,43.13,1,1,12.45-12.42a32,32,0,0,0,0-45.23v.06Z"/></g></g></g></g></svg>