<?xml version="1.0" encoding="utf-8"?>
<!-- Generator: Adobe Illustrator 21.0.2, SVG Export Plug-In . SVG Version: 6.00 Build 0)  -->
<svg version="1.1" id="レイヤー_2" xmlns="http://www.w3.org/2000/svg" xmlns:xlink="http://www.w3.org/1999/xlink" x="0px"
	 y="0px" viewBox="0 0 1000 1000" style="enable-background:new 0 0 1000 1000;" xml:space="preserve">
<style type="text/css">
	.st0{fill:#040000;}
	.st1{fill:#070001;}
</style>
<g id="Components_23_">
	<g id="SliceIcon_23_" transform="translate(-362.000000, -123.000000)">
		<g id="Icons_23_" transform="translate(46.000000, 54.000000)">
			<g id="Icons_x2F_Pencil-Icon" transform="translate(316.000000, 69.000000)">
				<path id="Pencil-Icon" class="st0" d="M841.7,371.2L420,792.8c-24.1,22.1-53,38.5-84.3,47.7L207,872.7l0,0l-57.6,14.5
					c-10.5,4.6-22.7,2.3-30.8-5.8c-8.1-8.1-10.4-20.3-5.8-30.8l14.5-57.6l0,0l32.2-128.7c9.3-31.4,25.6-60.3,47.7-84.4l421.7-421.6
					c37.5-40.4,94-57,147.4-43.4c53.4,13.6,95.1,55.3,108.7,108.7C898.6,277.1,882,333.7,841.7,371.2L841.7,371.2L841.7,371.2z
					 M275.5,648.4c-9.8,11.7-17.3,25-22.3,39.4l-19.7,78.6l78.6-19.7c14.3-5,27.7-12.6,39.4-22.2l332.3-332.3l-1.7-1.7l-72.7-72.7
					l-1.7-1.7L275.5,648.4L275.5,648.4z M773.2,226.8c-21-20.9-55-20.9-76.1,0l-20.9,21l1.7,1.7l72.7,72.7l1.7,1.7l21-20.9
					C794.3,281.9,794.3,247.8,773.2,226.8L773.2,226.8L773.2,226.8z"/>
			</g>
		</g>
	</g>
</g>
</svg>
