<?xml version="1.0" encoding="UTF-8"?><svg id="_レイヤー_2" xmlns="http://www.w3.org/2000/svg" viewBox="0 0 591.02335 591.02334"><defs><style>.cls-1{fill:#040000;}</style></defs><g id="Components"><g id="SliceIcon"><g id="Icons"><g id="Icons_Pencil-Filled-Icon"><path id="Pencil-Filled-Icon" class="cls-1" d="m500.43036,217.64725l-12.65183,12.62664-127.09595-126.95988,12.65183-12.62664c22.67254-22.71017,55.735-31.59603,86.7331-23.31035,30.9981,8.28568,55.22246,32.4841,63.54799,63.47995,8.32556,30.99584-.51257,64.08011-23.18514,86.79029h0Zm-53.46695,53.45375l-84.31664,84.28356-113.69311,113.66869c-14.37894,13.19221-31.57919,22.92639-50.28956,28.46052l-111.09343,27.76708c-6.24854,2.76158-13.55128,1.39945-18.38491-3.4292-4.83363-4.82865-6.20501-12.13171-3.45249-18.38573l27.7878-111.06822c5.51641-18.7227,15.24969-35.93144,28.45217-50.30433l113.69312-113.66868,84.31663-84.28356,126.98042,126.95988Z"/></g></g></g></g></svg>