<?xml version="1.0" encoding="UTF-8"?><svg id="_イヤー_2" xmlns="http://www.w3.org/2000/svg" viewBox="0 0 591.02334 591.02334"><defs><style>.cls-1{fill:#040000;}</style></defs><g id="Components"><g id="SliceIcon" transform="translate(-362.000000, -123.000000)"><g id="Icons" transform="translate(46.000000, 54.000000)"><g id="Icons_Pencil-Icon" transform="translate(316.000000, 69.000000)"><path id="Pencil-Icon" class="cls-1" d="M476.69848,224.35696l-250.20561,250.14418c-14.30627,13.1275-31.41957,22.81395-50.03537,28.3209l-76.33197,19.09147h0l-34.19994,8.62567c-6.21696,2.74808-13.48278,1.39261-18.29198-3.41236-4.8092-4.80497-6.17364-12.07221-3.43503-18.29556l8.62183-34.18637h0l19.08299-76.33709c5.48852-18.63087,15.17261-35.7552,28.30835-50.05759L350.41734,98.10603c22.251-23.94899,55.79938-33.82803,87.47077-25.75766,31.67142,8.07038,56.40841,32.80146,64.49682,64.4814,8.08844,31.67996-1.76331,65.24996-25.68645,87.52718h0ZM140.79185,388.81956c-5.78601,6.91542-10.26572,14.82657-13.22014,23.3468l-11.66821,46.63606,46.61538-11.67337c8.50542-2.98602,16.41573-7.45397,23.36517-13.19728l197.15258-197.15385-1.00588-1.00633-43.10916-43.1283-1.03462-1.03508-197.09512,197.21135h0ZM436.08964,138.67539c-12.47837-12.42039-32.64257-12.42039-45.12092,0l-12.41545,12.4497,1.00588,1.00633,43.10916,43.12831,1.00588,1.00632,12.4442-12.42095c12.46423-12.50182,12.45136-32.74127-.02874-45.22722v.0575h0Z"/></g></g></g></g></svg>