<?xml version="1.0" encoding="utf-8"?>
<!-- Generator: Adobe Illustrator 21.0.2, SVG Export Plug-In . SVG Version: 6.00 Build 0)  -->
<svg version="1.1" id="レイヤー_2" xmlns="http://www.w3.org/2000/svg" xmlns:xlink="http://www.w3.org/1999/xlink" x="0px"
	 y="0px" viewBox="0 0 1000 1000" style="enable-background:new 0 0 1000 1000;" xml:space="preserve">
<style type="text/css">
	.st0{fill:#040000;}
	.st1{fill:#070001;}
</style>
<g id="Components_22_">
	<g id="SliceIcon_22_" transform="translate(-46.000000, -158.000000)">
		<g id="Icons_22_" transform="translate(46.000000, 54.000000)">
			<g id="Icons_x2F_Pencil-Filled-Icon" transform="translate(0.000000, 104.000000)">
				<path id="Pencil-Filled-Icon" class="st0" d="M845.4,368.8L824.1,390l-214.2-214l21.3-21.3c38.2-38.3,93.9-53.3,146.2-39.3
					s93.1,54.8,107.1,107C898.5,274.7,883.6,330.5,845.4,368.8L845.4,368.8z M755.3,458.9L613.2,600.9L421.5,792.5
					c-24.2,22.2-53.2,38.6-84.8,48l-187.2,46.8c-10.5,4.7-22.8,2.4-31-5.8s-10.5-20.4-5.8-31l46.8-187.2c9.3-31.6,25.7-60.6,48-84.8
					l191.6-191.6l142.1-142.1L755.3,458.9z"/>
			</g>
		</g>
	</g>
</g>
</svg>
