<?xml version="1.0" encoding="UTF-8"?><svg id="_レイヤー_2" xmlns="http://www.w3.org/2000/svg" viewBox="0 0 591.02334 591.02334"><defs><style>.cls-1{fill:#040000;}</style></defs><path class="cls-1" d="m295.51114,323.30294c-69.69465,0-126.3951-56.70045-126.3951-126.39617s56.70045-126.3951,126.3951-126.3951,126.39617,56.70045,126.39617,126.3951-56.70045,126.39617-126.39617,126.39617Zm0-208.41236c-45.22347,0-82.0162,36.79272-82.0162,82.0162s36.79272,82.01726,82.0162,82.01726,82.01726-36.79272,82.01726-82.01726-36.79272-82.0162-82.01726-82.0162Z"/><path class="cls-1" d="m451.747,520.51167c-12.97179,0-23.48781-10.51602-23.48781-23.48781v-62.25795c0-26.82978-20.32307-48.65728-45.30249-48.65728h-174.89008c-24.97942,0-45.30249,21.82749-45.30249,48.65728v62.25795c0,12.97179-10.51602,23.48781-23.48781,23.48781s-23.48781-10.51602-23.48781-23.48781v-62.25795c0-52.73171,41.39568-95.63289,92.2781-95.63289h174.89008c50.88242,0,92.2781,42.90117,92.2781,95.63289v62.25795c0,12.97179-10.51602,23.48781-23.48781,23.48781Z"/></svg>