<svg id="レイヤー_2" data-name="レイヤー 2" xmlns="http://www.w3.org/2000/svg" viewBox="0 0 1000 1000"><defs><style>.cls-1{fill:#040000;}</style></defs><title>picture</title><path class="cls-1" d="M830.85,209.11H169.15a50.15,50.15,0,0,0-50,50V740.89a50.15,50.15,0,0,0,50,50h661.7a50.15,50.15,0,0,0,50-50V259.11A50.15,50.15,0,0,0,830.85,209.11ZM313.69,270.39A68.73,68.73,0,1,1,245,339.12,68.73,68.73,0,0,1,313.69,270.39ZM782.23,741.44H217.77c-27.5,0-38.26-19.19-23.9-42.65L281.24,556c14.36-23.46,40.31-25.2,57.66-3.87L394,619.91c17.36,21.33,46.26,21.74,64.21.91l145.3-168.5c18-20.83,47.19-20.7,65,.29L799.92,607.8c17.77,21,32.31,59.64,32.31,85.9S809.73,741.44,782.23,741.44Z"/></svg>