<?xml version="1.0" encoding="UTF-8"?><svg id="_レイヤー_2" xmlns="http://www.w3.org/2000/svg" viewBox="0 0 591.02334 591.02334"><defs><style>.cls-1{fill:#040000;}</style></defs><path class="cls-1" d="m491.80601,122.92607H99.21732c-16.3158,0-29.66508,13.34929-29.66508,29.66508v285.84103c0,16.3158,13.34929,29.66508,29.66508,29.66508h392.58869c16.3158,0,29.66508-13.34929,29.66508-29.66508V152.59115c0-16.3158-13.34929-29.66508-29.66508-29.66508Zm-306.834,36.35827c22.52113,0,40.7779,18.25706,40.7779,40.7779s-18.25677,40.77848-40.7779,40.77848-40.77819-18.25735-40.77819-40.77848,18.25706-40.7779,40.77819-40.7779Zm277.98848,279.4726H128.06285c-16.3158,0-22.6964-11.386-14.17898-25.30194l51.83828-84.69671c8.51741-13.91623,23.91197-14.94784,34.21016-2.29296l32.70373,40.18808c10.29848,12.65488,27.44165,12.8991,38.09617.5426l86.20285-99.97365c10.65452-12.35678,27.99903-12.27943,38.54317.1715l77.976,92.07764c10.54414,12.45093,19.17135,35.38372,19.17135,50.96166s-13.34929,28.32378-29.66508,28.32378Z"/></svg>