<svg id="レイヤー_2" data-name="レイヤー 2" xmlns="http://www.w3.org/2000/svg" viewBox="0 0 591.02 591.02"><defs><style>.cls-1{fill:#040000;}</style></defs><title>picture</title><path class="cls-1" d="M491.81,122.93H99.22a29.75,29.75,0,0,0-29.67,29.66V438.43A29.76,29.76,0,0,0,99.22,468.1H491.81a29.75,29.75,0,0,0,29.66-29.67V152.59A29.75,29.75,0,0,0,491.81,122.93ZM185,159.28a40.78,40.78,0,1,1-40.78,40.78A40.78,40.78,0,0,1,185,159.28ZM463,438.76H128.06c-16.31,0-22.69-11.39-14.18-25.31l51.84-84.69c8.52-13.92,23.91-14.95,34.21-2.29l32.71,40.18c10.29,12.66,27.44,12.9,38.09.55l86.21-100c10.65-12.35,28-12.28,38.54.17l78,92.08c10.55,12.45,19.18,35.39,19.18,51S479.28,438.76,463,438.76Z"/></svg>