<?xml version="1.0" encoding="UTF-8"?><svg id="_レイヤー_2" xmlns="http://www.w3.org/2000/svg" viewBox="0 0 591.02334 591.02334"><defs><style>.cls-1,.cls-2{fill:#231815;}.cls-2{fill-rule:evenodd;}</style></defs><path class="cls-1" d="m205.36355,138.93889v317.16751h55.17754v-133.24261h53.54248c76.02292,0,116.48644-34.74136,116.48644-93.18865s-35.14916-90.73624-113.21633-90.73624h-111.99014Zm55.17754,41.28085h53.95135c42.09853,0,60.49081,18.39264,60.49081,49.86425,0,32.28897-20.43616,51.49894-62.53439,51.49894h-51.90777v-101.36319Z"/><path class="cls-2" d="m299.96678,529.41131c128.06764,0,231.88862-103.82098,231.88862-231.88862s-103.82098-231.88871-231.88862-231.88871-231.88871,103.82008-231.88871,231.88871,103.82008,231.88862,231.88871,231.88862Zm0,49.10784c155.19084,0,280.9965-125.80566,280.9965-280.9965S455.15763,16.52614,299.96679,16.52614,18.97029,142.33249,18.97029,297.52264s125.80635,280.9965,280.9965,280.9965Z"/></svg>