<svg id="レイヤー_2" data-name="レイヤー 2" xmlns="http://www.w3.org/2000/svg" viewBox="0 0 591.02 591.02"><defs><style>.cls-1{fill:#040000;}</style></defs><path class="cls-1" d="M502,184H375.51c4.94-3.63,10.17-6.9,16.8-11l1.73-1.11c5.76-3.53,17.27-8.95,27.47-13.76,25.24-11.84,32.82-15.41,35.8-26.78a21.66,21.66,0,0,0-3.1-17.85c-5.55-8.1-34.84-31.52-49.5-35.4a41.25,41.25,0,0,0-10.26-1.45,28.74,28.74,0,0,0-12.61,2.83C345,97.77,316.54,128,297.33,149.87c-22.67-23.42-55.92-52.25-82.48-69.26a26.43,26.43,0,0,0-14.31-4.1,40.46,40.46,0,0,0-10.47,1.59c-14.66,3.88-43.95,27.3-49.57,35.42a22,22,0,0,0-3.21,17.29c2.73,11.49,10.6,15.76,39.85,31.67,7.92,4.28,16.14,8.73,20.51,11.48,3.87,2.44,7.69,4.75,11.47,7,1.7,1.05,3.41,2.07,5,3.07H89.06a18.76,18.76,0,0,0-18.55,18.93v88.39H264.56V202.62h61.9v88.71H520.51V202.94A18.74,18.74,0,0,0,502,184ZM390.85,102.52a8.13,8.13,0,0,1,3.6-.74,20.18,20.18,0,0,1,5.1.79c9.21,2.43,30.47,18.13,33.84,23,1.82,2.68-35,19-50,28.41-14.12,8.72-24.06,14.68-36.31,27.65H299.45C315,158,346.7,124.33,390.85,102.52ZM208.43,156.07c-13.7-8.6-48.86-27.81-47-30.49,3.37-4.88,24.63-20.58,33.82-23a21.26,21.26,0,0,1,5.31-.94,6.42,6.42,0,0,1,3.41.89c39.26,25.15,75.79,55.72,91.72,79.12h-48C235.18,171.46,221.79,164.47,208.43,156.07Z"/><path class="cls-1" d="M326.46,507.52h-61.9v-190H99.14V507.6a18.77,18.77,0,0,0,18.53,18.91H473.33a18.75,18.75,0,0,0,18.53-18.91V317.52H326.46Z"/></svg>