<svg id="レイヤー_2" data-name="レイヤー 2" xmlns="http://www.w3.org/2000/svg" viewBox="0 0 591.02 591.02"><defs><style>.cls-1{fill:#040000;}</style></defs><title>present-box-thin</title><path class="cls-1" d="M502.5,175.18H362.14a3.86,3.86,0,0,1-2.84-6.47c13-14,36.24-33.47,59.65-43.88l4.23-2a14.24,14.24,0,0,0,7.5-8.55,14.6,14.6,0,0,0-.95-11.47c-3.39-6.44-20.69-28.4-29.89-31.58a13.71,13.71,0,0,0-8.77-.06c-45.05,14.93-78.62,73.23-93.51,104h-.3c-14.93-30.75-48.44-89.05-93.49-104a13.71,13.71,0,0,0-8.77.06c-9.19,3.18-26.54,25.14-29.93,31.58a14.78,14.78,0,0,0-1,11.47,14.3,14.3,0,0,0,7.54,8.55l4.23,2c30,13.23,48.48,29.74,60.31,44a3.85,3.85,0,0,1-3,6.32H88.61a18.36,18.36,0,0,0-18.1,18.59v96.06a18.36,18.36,0,0,0,18.1,18.59,17.83,17.83,0,0,0,3.61-.43,4.13,4.13,0,0,1,.78-.08h6.25V502c0,10.24,8.07,18.56,18,18.56H473.79c9.94,0,18-8.32,18-18.56v-194H498a4,4,0,0,1,.78.08,18.09,18.09,0,0,0,3.68.43c10,0,18-8.33,18-18.59V193.77C520.51,183.51,512.45,175.18,502.5,175.18ZM477.55,287.26H337.44a10.9,10.9,0,0,1-10.9-10.9V219.11a10.9,10.9,0,0,1,10.9-10.9H477.55a10.9,10.9,0,0,1,10.9,10.9v57.25A10.9,10.9,0,0,1,477.55,287.26ZM264.48,219.11v57.25a10.9,10.9,0,0,1-10.9,10.9H113.47a10.9,10.9,0,0,1-10.9-10.9V219.11a10.9,10.9,0,0,1,10.9-10.9H253.58A10.9,10.9,0,0,1,264.48,219.11Zm-122.27,88.8H253.58a10.9,10.9,0,0,1,10.9,10.9V476.64a10.9,10.9,0,0,1-10.9,10.9h-108a14.27,14.27,0,0,1-14.27-14.27V318.81A10.9,10.9,0,0,1,142.21,307.91ZM448.88,487.54H337.44a10.9,10.9,0,0,1-10.9-10.9V318.81a10.9,10.9,0,0,1,10.9-10.9H448.88a10.9,10.9,0,0,1,10.9,10.9V476.64A10.9,10.9,0,0,1,448.88,487.54Z"/></svg>