<svg id="レイヤー_2" data-name="レイヤー 2" xmlns="http://www.w3.org/2000/svg" viewBox="0 0 591.02 591.02"><defs><style>.cls-1{fill:#040000;}</style></defs><title>question-circle</title><path d="M281.08,400.22a41,41,0,0,0-1.66,82.06h.93a38.59,38.59,0,0,0,28-11.59A41.67,41.67,0,0,0,309.57,413,38.6,38.6,0,0,0,281.08,400.22Z"/><path d="M395.54,137.7h0c-23-18.43-53.69-28.16-91.31-28.92-37.92-.77-69.81,8.07-94.78,26.28-25.89,18.87-39.32,43.72-39.94,73.84-.35,17.47,5,32.23,15.78,43.87,8.87,9.54,16.17,15,29.2,16.62,1,.16,2,.26,3,.32l1.18.3,1.45-.28a27.39,27.39,0,0,0,18.74-8.36,28.15,28.15,0,0,0-6.26-44.06c-5.15-4.09-5.76-7.8-5.7-10.59.25-12.55,6.93-23,20.4-32,14.56-9.66,32.88-14.34,54.45-13.91,21.12.43,38,5.44,50.22,14.88,11.37,8.8,16.76,19.88,16.48,33.87-.21,10.42-2.77,18.18-7.84,23.72-4.07,4.47-14.67,12.76-42,26.83l-.06,0c-27.46,14.36-46.11,28.27-57,42.52l-.11.15c-9.19,12.45-14,27.64-14.38,45.13-.22,10.79,2.11,19.4,6.92,25.6,3.68,4.74,10.71,10.45,23.29,10.7h.94c14.23,0,21-6.7,24.21-12.4l.14-.26c2.54-4.84,3.77-11.9,4-22.9.19-9.32,2.73-16.37,7.77-21.54,4.05-4.16,13.43-10.94,35.16-19.63,9.1-3.68,16.75-7,22.72-9.83l.07,0c18.67-9,33.06-20.78,42.79-34.92,9.87-14.35,15.07-31.31,15.45-50.4C431.13,181.94,419.36,156.82,395.54,137.7Z"/><path class="cls-1" d="M295.51,576.51A281,281,0,0,1,96.82,96.82,281,281,0,0,1,494.21,494.21,279.19,279.19,0,0,1,295.51,576.51Zm0-512.89a231.89,231.89,0,0,0-164,395.86A231.89,231.89,0,1,0,459.48,131.54,230.37,230.37,0,0,0,295.51,63.62Z"/></svg>