<?xml version="1.0" encoding="utf-8"?>
<!-- Generator: Adobe Illustrator 21.0.2, SVG Export Plug-In . SVG Version: 6.00 Build 0)  -->
<svg version="1.1" id="レイヤー_2" xmlns="http://www.w3.org/2000/svg" xmlns:xlink="http://www.w3.org/1999/xlink" x="0px"
	 y="0px" viewBox="0 0 1000 1000" style="enable-background:new 0 0 1000 1000;" xml:space="preserve">
<style type="text/css">
	.st0{fill:#040000;}
	.st1{fill:#070001;}
	.st2{fill:#231916;}
</style>
<g>
	<path d="M465.1,765.8c-19-0.4-35.4,6.1-49.2,19.4c-13.8,13.3-20.9,29.6-21.3,48.7c-0.4,19.1,6,35.6,19.3,49.5
		c13.2,13.9,29.4,21,48.4,21.4c19,0.4,35.2-6.1,48.6-19.4c13.4-13.3,20.3-29.6,20.7-48.7s-5.9-35.6-18.7-49.5
		C500,773.3,484.1,766.1,465.1,765.8z"/>
	<path d="M713.5,190.8c-48.7-39.1-113.8-59.4-195.1-61.1c-82.1-1.7-149.8,16.9-203,55.7c-53.2,38.8-80.4,88.9-81.7,150.3
		c-0.7,33.6,9.2,61.5,29.6,83.5c17.4,18.7,29.4,27.8,52.5,30.5c2.2,0.4,4.5,0.6,6.8,0.6c0,0,0,0,0,0c0,0,0,0,0,0c0,0,0,0,0,0
		c22,0,39-17.9,39-39.9c0-14.8-9.1-28-21.7-35.1c-16.4-12.4-24.5-27.7-24.2-45.7c0.8-37.4,20.1-68.7,58.1-93.9
		c38-25.2,84.6-37.3,139.7-36.2c54.4,1.1,97.9,14.3,130.4,39.5c32.6,25.2,48.5,58,47.6,98.2c-0.6,30.1-8.8,53.7-24.6,71
		c-15.8,17.3-50.3,39.7-103.7,67.2c-59.4,31.1-100.4,61.4-123,90.9C422.4,591,413,620.9,412.2,656c-0.8,38.1,14.2,57.5,45.1,58.1
		c17.6,0.4,29.5-4.9,35.6-15.8c3.8-7.2,5.9-21.1,6.3-41.6c0.6-27.8,8.9-50,25-66.5c16.1-16.5,45.9-33.5,89.5-50.9
		c20.7-8.4,37.7-15.7,51-22c78.4-38,118.4-96.1,120-174.5C785.9,280.5,762.2,229.9,713.5,190.8z"/>
</g>
</svg>
