<?xml version="1.0" encoding="UTF-8"?><svg id="_レイヤー_2" xmlns="http://www.w3.org/2000/svg" viewBox="0 0 591.02334 591.02334"><path d="m269.64154,438.54876c-15.30533-.30882-28.69286,4.96514-39.79177,15.68483-11.05633,10.68986-16.81958,23.89256-17.13072,39.24018-.31114,15.35921,4.91444,28.78614,15.53245,39.90881,10.6493,11.15396,23.81028,16.96646,39.11851,17.27759.42528.00869.84853.01275,1.27062.01275,14.84007,0,27.72816-5.32465,38.32474-15.83837,10.75707-10.67364,16.36852-23.83346,16.6785-39.11272.3094-15.26709-4.76264-28.64129-15.08052-39.75643-10.45057-11.2455-23.5455-17.10493-38.92181-17.41665Z"/><path d="m426.01216,79.9205l-.00377-.0029c-31.38531-25.17187-73.35445-38.46321-124.74138-39.50439-51.80671-1.04813-95.37092,11.02823-129.47882,35.89881-35.36663,25.78718-53.72219,59.72937-54.55652,100.88446-.48322,23.85953,6.76851,44.02136,21.55296,59.92521,12.11286,13.03004,22.08803,20.52801,39.892,22.699,1.35753.21959,2.72403.36734,4.09083.44266l1.61883.40384,1.98298-.37429c9.75355-.37893,18.79561-4.40283,25.6012-11.42743,7.00055-7.22681,10.85586-16.83493,10.85586-27.0549,0-13.39216-7.40729-25.98012-19.41267-33.1374-7.03213-5.5848-7.86675-10.64525-7.7894-14.45999.34764-17.15013,9.46588-31.43108,27.87504-43.6575,19.88632-13.20386,44.91073-19.5888,74.37882-18.99956,28.85596.58461,51.93823,7.42206,68.6063,20.32232,15.53825,12.02711,22.90353,27.15919,22.51649,46.26189-.28854,14.23518-3.78867,24.83582-10.7055,32.412-5.57292,6.11031-20.05232,17.42939-57.38281,36.65666l-.08372.04345c-37.51851,19.62762-62.9876,38.63124-77.86331,58.09721l-.1489.19815c-12.5558,17.01223-19.16758,37.75751-19.65167,61.65934-.29868,14.73289,2.88192,26.49637,9.45285,34.96308,5.02974,6.47997,14.63352,14.27806,31.82333,14.62686.43281.00869.85895.01275,1.28191.01275,19.437,0,28.70444-9.16257,33.06585-16.9456l.19091-.35111c3.47406-6.61091,5.15894-16.26075,5.46342-31.28913.25783-12.73281,3.72783-22.356,10.60758-29.42116,5.53265-5.68214,18.34716-14.94263,48.02904-26.81619,12.43616-5.0309,22.88035-9.54787,31.0426-13.42403l.09879-.04751c25.49662-12.34056,45.16132-28.39215,58.44803-47.7098,13.48139-19.60097,20.58508-42.76523,21.11349-68.85022.84302-41.58848-15.22943-75.9177-47.77063-102.03456Z"/></svg>