<?xml version="1.0" encoding="UTF-8"?><svg id="_イヤー_2" xmlns="http://www.w3.org/2000/svg" viewBox="0 0 591.02334 591.02334"><defs><style>.cls-1{fill:#040000;}</style></defs><g><path d="M281.07951,400.21581c-11.20361-.22606-21.00337,3.63451-29.12785,11.48141-8.09331,7.82505-12.31205,17.48952-12.5398,28.72409-.22775,11.24305,3.5974,21.07165,11.36986,29.21352,7.79536,8.16477,17.42929,12.41956,28.63502,12.64732,.31131,.00636,.62113,.00933,.9301,.00933,10.86304,0,20.29721-3.89768,28.05397-11.5938,7.87425-7.81318,11.98187-17.44626,12.20878-28.63078,.22648-11.17562-3.48628-20.96562-11.03905-29.10198-7.64989-8.23178-17.23547-12.52093-28.49103-12.74911Z"/><path d="M395.54389,137.69743l-.00276-.00212c-22.97427-18.42598-53.69597-28.15534-91.31156-28.91749-37.92287-.76724-69.81218,8.07274-94.77939,26.27818-25.88862,18.8764-39.32502,43.72231-39.93575,73.84812-.35372,17.46534,4.95459,32.22394,15.77691,43.86567,8.86669,9.53808,16.16859,15.02664,29.20122,16.61583,.99372,.16074,1.99401,.26889,2.99451,.32403l1.185,.29561,1.45156-.27398c7.13967-.27738,13.75852-3.2229,18.74026-8.36496,5.12445-5.29007,7.94656-12.32329,7.94656-19.80438,0-9.80316-5.42219-19.01763-14.21021-24.25681-5.14757-4.08811-5.75852-7.79239-5.7019-10.58481,.25447-12.55401,6.92909-23.00777,20.40472-31.95759,14.55693-9.66532,32.87497-14.33914,54.44581-13.90781,21.12276,.42794,38.01915,5.433,50.22029,14.87608,11.3741,8.80392,16.76554,19.88072,16.48223,33.86402-.21121,10.42025-2.77333,18.17999-7.8365,23.72581-4.07942,4.47279-14.67844,12.75844-42.00462,26.83293l-.06129,.03181c-27.46381,14.36756-46.10736,28.27834-56.99648,42.52756l-.109,.14505c-9.19094,12.45307-14.0308,27.63876-14.38516,45.13506-.21863,10.78457,2.10958,19.39552,6.91955,25.59322,3.6818,4.74338,10.71184,10.45164,23.2949,10.70696,.31682,.00636,.62876,.00933,.93837,.00933,14.22802,0,21.01185-6.70707,24.20443-12.4043l.13975-.25702c2.54304-4.83923,3.77638-11.90298,3.99926-22.90386,.18873-9.32051,2.7288-16.36475,7.76483-21.53649,4.04994-4.15936,13.43025-10.93811,35.15759-19.62964,9.10335-3.68265,16.74858-6.98911,22.7234-9.82648l.07231-.03478c18.6637-9.03337,33.0584-20.78325,42.78437-34.9239,9.86847-14.34805,15.06842-31.30445,15.45522-50.39884,.6171-30.44305-11.14805-55.57228-34.96844-74.69001Z"/></g><path class="cls-1" d="M295.51167,576.50825c-75.05712,0-145.6214-29.22874-198.69422-82.30193C43.74365,441.13301,14.51515,370.56849,14.51515,295.51173S43.74365,149.89033,96.81745,96.81714C149.89027,43.74383,220.45454,14.51509,295.51167,14.51509s145.6214,29.22886,198.6952,82.30205c53.07282,53.07319,82.30132,123.63771,82.30132,198.69459s-29.2285,145.6214-82.30132,198.69447c-53.0738,53.07331-123.63808,82.30205-198.6952,82.30205Zm0-512.88524c-61.93974,0-120.1719,24.12059-163.96978,67.91859-43.79788,43.79812-67.91882,102.03051-67.91882,163.97014s24.12094,120.1719,67.91882,163.97002c43.79788,43.79788,102.03004,67.91859,163.96978,67.91859s120.1719-24.12071,163.96978-67.91859c43.79788-43.79788,67.91882-102.03028,67.91882-163.97002s-24.12094-120.17214-67.91882-163.97014c-43.79788-43.798-102.03004-67.91859-163.96978-67.91859Z"/></svg>