<?xml version="1.0" encoding="utf-8"?>
<!-- Generator: Adobe Illustrator 21.0.2, SVG Export Plug-In . SVG Version: 6.00 Build 0)  -->
<svg version="1.1" id="レイヤー_2" xmlns="http://www.w3.org/2000/svg" xmlns:xlink="http://www.w3.org/1999/xlink" x="0px"
	 y="0px" viewBox="0 0 1000 1000" style="enable-background:new 0 0 1000 1000;" xml:space="preserve">
<style type="text/css">
	.st0{fill:#040000;}
	.st1{fill:#070001;}
	.st2{fill:#231916;}
	.st3{stroke:#000000;stroke-width:50;stroke-miterlimit:10;}
</style>
<g>
	<path d="M465.6,741.8c-25.8-0.5-48.4,8.4-67.1,26.4c-18.6,18-28.3,40.3-28.9,66.1c-0.5,25.9,8.3,48.5,26.2,67.3
		c17.9,18.8,40.1,28.6,65.9,29.1c0.7,0,1.4,0,2.1,0c25,0,46.7-9,64.6-26.7c18.1-18,27.6-40.2,28.1-65.9c0.5-25.7-8-48.3-25.4-67
		C513.6,752.2,491.5,742.3,465.6,741.8z"/>
	<path d="M729.1,137.3L729.1,137.3c-52.9-42.4-123.6-64.8-210.3-66.6c-87.3-1.8-160.7,18.6-218.2,60.5c-59.6,43.5-90.5,100.7-92,170
		c-0.8,40.2,11.4,74.2,36.3,101c20.4,22,37.2,34.6,67.2,38.3c2.3,0.4,4.6,0.6,6.9,0.7l2.7,0.7l3.3-0.6c16.4-0.6,31.7-7.4,43.2-19.3
		c11.8-12.2,18.3-28.4,18.3-45.6c0-22.6-12.5-43.8-32.7-55.9c-11.9-9.4-13.3-17.9-13.1-24.4c0.6-28.9,16-53,47-73.6
		c33.5-22.3,75.7-33,125.4-32c48.6,1,87.5,12.5,115.6,34.3c26.2,20.3,38.6,45.8,38,78c-0.5,24-6.4,41.9-18,54.6
		c-9.4,10.3-33.8,29.4-96.7,61.8l-0.1,0.1c-63.2,33.1-106.2,65.1-131.2,97.9l-0.3,0.3c-21.2,28.7-32.3,63.6-33.1,103.9
		c-0.5,24.8,4.9,44.7,15.9,58.9c8.5,10.9,24.7,24.1,53.6,24.7c0.7,0,1.4,0,2.2,0c32.8,0,48.4-15.4,55.7-28.6l0.3-0.6
		c5.9-11.1,8.7-27.4,9.2-52.7c0.4-21.5,6.3-37.7,17.9-49.6c9.3-9.6,30.9-25.2,81-45.2c21-8.5,38.6-16.1,52.3-22.6l0.2-0.1
		c43-20.8,76.1-47.9,98.5-80.4c22.7-33,34.7-72.1,35.6-116C811.1,239.2,784,181.3,729.1,137.3z"/>
</g>
</svg>
