<svg id="レイヤー_2" data-name="レイヤー 2" xmlns="http://www.w3.org/2000/svg" viewBox="0 0 591.02 591.02"><title>question</title><path d="M269.64,438.55a56.07,56.07,0,0,0-2.27,112.11h1.27A52.68,52.68,0,0,0,307,534.83,56.92,56.92,0,0,0,308.56,456,52.76,52.76,0,0,0,269.64,438.55Z"/><path d="M426,79.92h0c-31.39-25.17-73.36-38.47-124.74-39.51-51.81-1-95.37,11-129.48,35.9C136.42,102.1,118.07,136,117.23,177.2c-.48,23.86,6.77,44,21.55,59.92,12.12,13,22.09,20.53,39.9,22.7a37.31,37.31,0,0,0,4.09.44l1.62.41,2-.38A37.43,37.43,0,0,0,212,248.87a38.67,38.67,0,0,0,10.86-27.06c0-13.39-7.41-26-19.42-33.14-7-5.58-7.86-10.64-7.79-14.46.35-17.15,9.47-31.43,27.88-43.65,19.89-13.21,44.91-19.59,74.38-19,28.85.58,51.94,7.42,68.6,20.32C382,143.91,389.39,159,389,178.14c-.29,14.24-3.79,24.84-10.7,32.41-5.58,6.11-20.06,17.43-57.39,36.66l-.08,0c-37.52,19.63-63,38.63-77.86,58.1l-.15.2c-12.56,17-19.17,37.76-19.66,61.66-.29,14.73,2.89,26.49,9.46,35,5,6.48,14.63,14.28,31.82,14.63h1.28c19.44,0,28.71-9.16,33.07-16.95l.19-.35c3.47-6.61,5.16-16.26,5.46-31.29.26-12.73,3.73-22.35,10.61-29.42,5.53-5.68,18.35-14.94,48-26.81,12.44-5,22.88-9.55,31-13.43l.1,0c25.5-12.35,45.16-28.4,58.45-47.71C466.15,231.2,473.25,208,473.78,182,474.63,140.37,458.55,106,426,79.92Z"/></svg>