<?xml version="1.0" encoding="UTF-8"?><svg id="_イヤー_2" xmlns="http://www.w3.org/2000/svg" viewBox="0 0 591.02334 591.02334"><defs><style>.cls-1{fill:#040000;}</style></defs><path class="cls-1" d="M526.40121,507.3095l-48.50589-49.18624c13.71894-18.65482,21.8415-41.79561,21.8415-66.86145,0-61.8065-49.37904-111.91066-110.29124-111.91066s-110.29124,50.10415-110.29124,111.91066,49.37904,111.91109,110.29124,111.91109c24.79584,0,47.67938-8.3026,66.10041-22.31819l48.62872,49.2972c3.07225,3.15727,7.09239,4.73613,11.11253,4.73613,4.01985,0,8.04144-1.57885,11.11398-4.73613,6.14652-6.31426,6.14652-16.52887,0-22.8424Zm-136.95563-36.11101c-43.50888,0-78.77876-35.78872-78.77876-79.93668s35.26987-79.9361,78.77876-79.9361,78.77876,35.78872,78.77876,79.9361-35.27161,79.93668-78.77876,79.93668Zm-123.28015-9.29293l.00174,.00319H131.56476c-39.45456,0-71.55253-32.09797-71.55253-71.55253V149.18604c0-39.45456,32.09797-71.55253,71.55253-71.55253h41.4584v-16.80249c0-2.59338,2.10176-4.69572,4.69572-4.69572h121.93653c2.59396,0,4.69572,2.10234,4.69572,4.69572v16.80249h45.74246c39.45456,0,71.55253,32.09797,71.55253,71.55253v102.14464c-2.48851-.58954-4.99845-1.11128-7.53505-1.56495-.12892-.02347-.25638-.04751-.38385-.06982-2.3593-.41572-4.73772-.7706-7.13439-1.0658-.2981-.03708-.59504-.08054-.89314-.11646-2.26486-.26391-4.54507-.46757-6.84093-.6214-.38211-.02636-.75959-.06518-1.1417-.08836-2.61105-.15383-5.23629-.24711-7.88297-.25493v-98.36292c0-21.9145-17.82628-39.74049-39.74049-39.74049h-45.74246v12.13458c0,2.59338-2.10176,4.69572-4.69572,4.69572h-121.93653c-2.59396,0-4.69572-2.10234-4.69572-4.69572v-12.13458h-41.4584c-21.9145,0-39.74049,17.82599-39.74049,39.74049v241.17017c0,21.91421,17.82599,39.7402,39.74049,39.7402h121.53269c3.10643,11.21595,7.51795,21.87713,13.06799,31.80914Zm71.50096-287.57372H142.22912c-6.52632,0-11.86603,5.33971-11.86603,11.86603v13.68708c0,6.52632,5.33971,11.86603,11.86603,11.86603h195.43727c6.52632,0,11.86603-5.33971,11.86603-11.86603v-13.68708c0-6.52632-5.33971-11.86603-11.86603-11.86603Zm-47.45754,99.60562c0-6.52632-5.33971-11.86603-11.86603-11.86603H142.22909c-6.52632,0-11.86603,5.33971-11.86603,11.86603v13.68709c0,6.52632,5.33971,11.86603,11.86603,11.86603h136.11374c6.52632,0,11.86603-5.33971,11.86603-11.86603v-13.68709Zm-37.4818,87.01179c0-6.52632-5.33971-11.86603-11.86603-11.86603h-98.63193c-6.52632,0-11.86603,5.33971-11.86603,11.86603v13.68709c0,6.52632,5.33971,11.86603,11.86603,11.86603h98.63193c6.52632,0,11.86603-5.33971,11.86603-11.86603v-13.68709Z"/></svg>