<svg id="レイヤー_2" data-name="レイヤー 2" xmlns="http://www.w3.org/2000/svg" viewBox="0 0 1000 1000"><defs><style>.cls-1{fill:#040000;}</style></defs><title>review</title><path class="cls-1" d="M920.38,872.62l-81.75-82.9A189.65,189.65,0,0,0,875.44,677c0-104.17-83.23-188.62-185.89-188.62S503.65,572.85,503.65,677s83.23,188.63,185.9,188.63A183.34,183.34,0,0,0,801,828l82,83.09a26,26,0,0,0,37.46,0A27.73,27.73,0,0,0,920.38,872.62ZM689.55,811.75c-73.34,0-132.78-60.32-132.78-134.73s59.44-134.73,132.78-134.73S822.33,602.61,822.33,677,762.88,811.75,689.55,811.75ZM481.76,796.09H254.89a120.74,120.74,0,0,1-120.6-120.6V269a120.74,120.74,0,0,1,120.6-120.6h69.88V120.09a7.92,7.92,0,0,1,7.91-7.92H538.21a7.92,7.92,0,0,1,7.91,7.92v28.32h77.1A120.74,120.74,0,0,1,743.82,269V441.17q-6.3-1.49-12.7-2.64l-.65-.11c-4-.71-8-1.3-12-1.8l-1.51-.2q-5.73-.66-11.53-1c-.64-.05-1.28-.11-1.92-.15-4.4-.26-8.83-.42-13.29-.43V269a67.05,67.05,0,0,0-67-67h-77.1v20.45a7.91,7.91,0,0,1-7.91,7.91H332.68a7.91,7.91,0,0,1-7.91-7.91V202H254.89a67,67,0,0,0-67,67V675.5a67.05,67.05,0,0,0,67,67H459.73A242.62,242.62,0,0,0,481.76,796.09Zm120.51-484.7H272.87a20.06,20.06,0,0,0-20,20v23.07a20.06,20.06,0,0,0,20,20h329.4a20.06,20.06,0,0,0,20-20V331.39A20.06,20.06,0,0,0,602.27,311.39Zm-80,167.88a20.06,20.06,0,0,0-20-20H272.87a20.06,20.06,0,0,0-20,20v23.07a20.06,20.06,0,0,0,20,20H502.28a20.06,20.06,0,0,0,20-20ZM459.11,625.93a20.06,20.06,0,0,0-20-20H272.87a20.06,20.06,0,0,0-20,20V649a20.06,20.06,0,0,0,20,20H439.11a20.06,20.06,0,0,0,20-20Z"/></svg>