<svg id="レイヤー_2" data-name="レイヤー 2" xmlns="http://www.w3.org/2000/svg" viewBox="0 0 591.02 591.02"><defs><style>.cls-1{fill:#040000;}</style></defs><path class="cls-1" d="M526.4,507.31l-48.5-49.19a112.53,112.53,0,0,0,21.84-66.86c0-61.8-49.38-111.91-110.29-111.91s-110.3,50.11-110.3,111.91,49.38,111.91,110.3,111.91a108.76,108.76,0,0,0,66.1-22.32l48.62,49.3a15.4,15.4,0,0,0,22.23,0A16.44,16.44,0,0,0,526.4,507.31ZM389.45,471.2c-43.51,0-78.78-35.79-78.78-79.94s35.27-79.93,78.78-79.93,78.77,35.78,78.77,79.93S433,471.2,389.45,471.2Zm-123.28-9.29H131.56A71.63,71.63,0,0,1,60,390.36V149.19a71.64,71.64,0,0,1,71.55-71.56H173V60.83a4.69,4.69,0,0,1,4.7-4.69H299.66a4.69,4.69,0,0,1,4.69,4.69v16.8h45.74a71.64,71.64,0,0,1,71.56,71.56V251.33q-3.73-.89-7.54-1.56l-.38-.07c-2.36-.42-4.74-.77-7.14-1.07l-.89-.12c-2.27-.26-4.55-.46-6.84-.62-.38,0-.76-.06-1.14-.09-2.61-.15-5.24-.24-7.89-.25V149.19a39.78,39.78,0,0,0-39.74-39.74H304.35v12.13a4.7,4.7,0,0,1-4.69,4.7H177.72a4.7,4.7,0,0,1-4.7-4.7V109.45H131.56a39.78,39.78,0,0,0-39.74,39.74V390.36a39.79,39.79,0,0,0,39.74,39.74H253.1A143.93,143.93,0,0,0,266.17,461.91Zm71.5-287.58H142.23a11.9,11.9,0,0,0-11.87,11.87v13.68a11.9,11.9,0,0,0,11.87,11.87H337.67a11.9,11.9,0,0,0,11.86-11.87V186.2A11.9,11.9,0,0,0,337.67,174.33Zm-47.46,99.61a11.9,11.9,0,0,0-11.87-11.87H142.23a11.9,11.9,0,0,0-11.87,11.87v13.68a11.9,11.9,0,0,0,11.87,11.87H278.34a11.9,11.9,0,0,0,11.87-11.87Zm-37.48,87a11.9,11.9,0,0,0-11.87-11.87H142.23A11.9,11.9,0,0,0,130.36,361v13.69a11.9,11.9,0,0,0,11.87,11.86h98.63a11.9,11.9,0,0,0,11.87-11.86Z"/></svg>