<svg id="レイヤー_2" data-name="レイヤー 2" xmlns="http://www.w3.org/2000/svg" viewBox="0 0 1000 1000"><defs><style>.cls-1{fill:#040000;}</style></defs><title>review</title><rect class="cls-1" x="230.08" y="348.06" width="404.81" height="57.76" rx="21.45"/><rect class="cls-1" x="230.08" y="464.63" width="305.14" height="57.76" rx="21.45"/><rect class="cls-1" x="230.08" y="587.11" width="254.46" height="57.76" rx="21.45"/><path class="cls-1" d="M459.73,742.48H254.89a67.06,67.06,0,0,1-67-67V269a67.05,67.05,0,0,1,67-67h69.88v20.45a7.91,7.91,0,0,0,7.91,7.91H538.21a7.91,7.91,0,0,0,7.91-7.91V202h77.1a67.05,67.05,0,0,1,67,67V434.8c4.46,0,8.89.17,13.29.43.64,0,1.28.1,1.92.15q5.8.38,11.53,1l1.51.2c4,.5,8,1.09,12,1.8l.65.11q6.4,1.16,12.7,2.64V269a120.74,120.74,0,0,0-120.6-120.6h-77.1V120.09a7.92,7.92,0,0,0-7.91-7.92H332.68a7.92,7.92,0,0,0-7.91,7.92v28.32H254.89A120.74,120.74,0,0,0,134.29,269V675.5a120.74,120.74,0,0,0,120.6,120.6H481.76A242.62,242.62,0,0,1,459.73,742.48Z"/><path class="cls-1" d="M920.38,872.62l-81.75-82.9A189.65,189.65,0,0,0,875.44,677c0-104.17-83.23-188.62-185.89-188.62S503.65,572.85,503.65,677s83.23,188.63,185.9,188.63A183.34,183.34,0,0,0,801,828l82,83.09a26,26,0,0,0,37.46,0A27.73,27.73,0,0,0,920.38,872.62ZM689.55,811.75c-73.34,0-132.78-60.32-132.78-134.73s59.44-134.73,132.78-134.73S822.33,602.61,822.33,677,762.88,811.75,689.55,811.75Z"/></svg>