<?xml version="1.0" encoding="UTF-8"?><svg id="_イヤー_2" xmlns="http://www.w3.org/2000/svg" viewBox="0 0 591.02334 591.02334"><defs><style>.cls-1{fill:#040000;}</style></defs><g id="Components"><g id="SliceIcon" transform="translate(-49.000000, -90.000000)"><g id="Icons" transform="translate(46.000000, 54.000000)"><g id="Icons_Ribbon-Icon" transform="translate(2.000000, 36.000000)"><path id="Ribbon-Icon" class="cls-1" d="M411.10395,122.02019l.49127,336.10961-101.14209-60.25179c-9.11555-5.43332-20.47576-5.43332-29.59129,0l-100.79532,60.68527V122.02019h231.03744ZM122.12654,479.74532c-1.30363,16.82112,7.23242,32.8801,21.90459,41.20938,14.67217,8.3293,32.83649,7.4279,46.61196-2.313l104.8699-62.27465,104.75431,62.27465c13.78635,9.7613,31.97209,10.67593,46.66825,2.34707,14.69616-8.32886,23.25508-24.40063,21.96389-41.24344V122.16468c0-31.91957-25.87592-57.79549-57.79548-57.79549H179.92202c-31.91956,0-57.79548,25.87592-57.79548,57.79549V479.74532h0Z"/></g></g></g></g></svg>