<svg id="レイヤー_2" data-name="レイヤー 2" xmlns="http://www.w3.org/2000/svg" viewBox="0 0 591.02 591.02"><defs><style>.cls-1{fill:#040000;}</style></defs><path class="cls-1" d="M499.55,176.8a250.21,250.21,0,0,0-390.77-38.91l.14-33.52a28.15,28.15,0,0,0-28-28.27h0a28.15,28.15,0,0,0-28.28,28L52.17,207.3a27.08,27.08,0,0,0-.21,3.27h0a28.14,28.14,0,0,0,28,28.27l106.26.46a28.14,28.14,0,0,0,28.27-28h0a28.15,28.15,0,0,0-28-28.28l-36.68-.16-7.59-.07A195,195,0,0,1,330.72,121c105.09,23.09,171.8,127.36,148.72,232.45a194.78,194.78,0,0,1-24.91,61.33,27.5,27.5,0,1,0,46.68,29.08,250.45,250.45,0,0,0-1.66-267.07Z"/><path class="cls-1" d="M363.75,529.59H190.94A32.61,32.61,0,0,1,158.37,497V289.45a32.61,32.61,0,0,1,32.57-32.58H363.75a32.62,32.62,0,0,1,32.58,32.58V497A32.62,32.62,0,0,1,363.75,529.59Zm-160.38-45h148V301.87h-148Z"/></svg>