<?xml version="1.0" encoding="UTF-8"?><svg id="_レイヤー_2" xmlns="http://www.w3.org/2000/svg" viewBox="0 0 591.02334 591.02334"><defs><style>.cls-1{fill:#040000;}</style></defs><path class="cls-1" d="m499.54949,176.79638c-36.00488-56.27832-91.77051-95.16699-157.02539-109.50195-86.25171-18.94873-174.35352,8.97559-233.74487,70.59692l.14478-33.51636c.06738-15.5498-12.48389-28.21045-28.03369-28.27734h-.00024c-15.55005-.06738-28.21021,12.48389-28.27734,28.03394l-.44604,103.16357c-.12891,1.07373-.20483,2.16406-.20947,3.27173v.00024c-.06738,15.55005,12.48389,28.21021,28.03394,28.27734l106.25635.45923c15.5498.06738,28.21021-12.48389,28.27734-28.03394h0c.06738-15.55005-12.48413-28.21021-28.03394-28.27734l-36.6792-.15869-7.59473-.07642c46.25732-52.70337,118.17041-77.19531,188.50635-61.74414,105.08496,23.08545,171.79688,127.36035,148.71191,232.44531-4.80664,21.88037-13.18652,42.51416-24.90723,61.32959-8.03027,12.89111-4.08984,29.85156,8.80176,37.88184,4.52441,2.81836,9.54883,4.16211,14.51367,4.16211,9.18164,0,18.15625-4.59668,23.36816-12.96387,15.04102-24.146,25.78809-50.59375,31.94238-78.6084,14.33496-65.25439,2.40137-132.18506-33.60449-188.46338Z"/><path class="cls-1" d="m363.75068,529.58774h-172.80957c-17.96191,0-32.5752-14.61328-32.5752-32.57568v-207.56348c0-17.9624,14.61328-32.57568,32.5752-32.57568h172.80957c17.96191,0,32.5752,14.61328,32.5752,32.57568v207.56348c0,17.9624-14.61328,32.57568-32.5752,32.57568Zm-160.38477-45h147.95996v-182.71484h-147.95996v182.71484Z"/></svg>