<svg id="レイヤー_2" data-name="レイヤー 2" xmlns="http://www.w3.org/2000/svg" viewBox="0 0 591.02 591.02"><defs><style>.cls-1{fill:#040000;}</style></defs><path class="cls-1" d="M539.07,210.57a29.28,29.28,0,0,0-.21-3.27l-.45-103.17a28.15,28.15,0,0,0-28.28-28h0a28.15,28.15,0,0,0-28,28.27l.14,33.52a250.21,250.21,0,0,0-392.43,306,27.5,27.5,0,1,0,46.68-29.08,195.2,195.2,0,0,1,312.32-232l-7.6.07-36.68.16a28.15,28.15,0,0,0-28,28.28h0a28.15,28.15,0,0,0,28.28,28L511,238.84a28.15,28.15,0,0,0,28-28.27Z"/><path class="cls-1" d="M400.08,256.87H227.27a32.61,32.61,0,0,0-32.57,32.58V497a32.61,32.61,0,0,0,32.57,32.58H400.08A32.62,32.62,0,0,0,432.66,497V289.45A32.62,32.62,0,0,0,400.08,256.87ZM387.66,484.59h-148V301.87h148Z"/></svg>