<?xml version="1.0" encoding="UTF-8"?><svg id="_イヤー_2" xmlns="http://www.w3.org/2000/svg" viewBox="0 0 591.02334 591.02334"><defs><style>.cls-1{fill:#040000;}</style></defs><path class="cls-1" d="M539.06611,210.56679c-.00464-1.10767-.08057-2.198-.20947-3.27173l-.44604-103.16357c-.06714-15.55005-12.72729-28.10132-28.27734-28.03394h-.00024c-15.5498,.06689-28.10107,12.72754-28.03369,28.27734l.14478,33.51685c-59.39185-61.62134-147.49829-89.54614-233.74536-70.59741-65.25391,14.33545-121.02051,53.22363-157.02539,109.50195s-47.93945,123.20947-33.60352,188.46387c6.15527,28.01709,16.90234,54.46484,31.94336,78.60889,5.21191,8.3667,14.18555,12.96289,23.36719,12.96289,4.96484,0,9.99023-1.34424,14.51465-4.1626,12.89062-8.03076,16.83105-24.99121,8.7998-37.88232-11.71875-18.8125-20.09863-39.44629-24.90625-61.32861-11.18359-50.90527-1.87305-103.11865,26.21484-147.02148,28.08789-43.90332,71.59082-74.24072,122.49609-85.42383,70.33374-15.44922,142.24902,9.04028,188.50635,61.74414l-7.59424,.07642-36.6792,.15869c-15.5498,.06714-28.10132,12.72729-28.03418,28.27734h0c.06738,15.55005,12.72754,28.10132,28.27759,28.03394l106.25635-.45923c15.5498-.06714,28.10132-12.72729,28.03394-28.27734v-.00024Z"/><path class="cls-1" d="M400.08174,256.87295H227.27314c-17.96289,0-32.57617,14.61328-32.57617,32.57568v207.56348c0,17.9624,14.61328,32.57568,32.57617,32.57568h172.80859c17.96289,0,32.57617-14.61328,32.57617-32.57568v-207.56348c0-17.9624-14.61328-32.57568-32.57617-32.57568Zm-12.42383,227.71484H239.69697v-182.71484h147.96094v182.71484Z"/></svg>