<?xml version="1.0" encoding="utf-8"?>
<!-- Generator: Adobe Illustrator 21.0.2, SVG Export Plug-In . SVG Version: 6.00 Build 0)  -->
<svg version="1.1" id="レイヤー_2" xmlns="http://www.w3.org/2000/svg" xmlns:xlink="http://www.w3.org/1999/xlink" x="0px"
	 y="0px" viewBox="0 0 1000 1000" style="enable-background:new 0 0 1000 1000;" xml:space="preserve">
<style type="text/css">
	.st0{fill:#040000;}
	.st1{fill:#070001;}
	.st2{fill:#231916;}
	.st3{stroke:#000000;stroke-width:50;stroke-miterlimit:10;}
	.st4{fill-rule:evenodd;clip-rule:evenodd;fill:#070102;}
</style>
<path class="st4" d="M100.7,517.1c19.9,18.8,52.2,18.8,72.1,0l272.1-262.4v609c0,28.2,22.8,51,51,51s51-22.8,51-51V258.6
	l268.1,258.5c19.9,18.8,52.2,18.8,72.1,0c19.9-18.9,19.9-49.4,0-68.3L548.1,122.1C533.6,108.5,514.5,101,494,101
	c-20.5,0-39.7,7.5-54.1,21.2L100.7,448.8C80.8,467.7,80.8,498.2,100.7,517.1z"/>
</svg>
