<?xml version="1.0" encoding="utf-8"?>
<!-- Generator: Adobe Illustrator 21.0.2, SVG Export Plug-In . SVG Version: 6.00 Build 0)  -->
<svg version="1.1" id="レイヤー_2" xmlns="http://www.w3.org/2000/svg" xmlns:xlink="http://www.w3.org/1999/xlink" x="0px"
	 y="0px" viewBox="0 0 1000 1000" style="enable-background:new 0 0 1000 1000;" xml:space="preserve">
<style type="text/css">
	.st0{fill:#040000;}
	.st1{fill:#070001;}
	.st2{fill:#231916;}
	.st3{stroke:#000000;stroke-width:50;stroke-miterlimit:10;}
	.st4{fill-rule:evenodd;clip-rule:evenodd;fill:#070102;}
</style>
<path class="st4" d="M902.9,494.7c-19.9-18.8-52.2-18.8-72.1,0L558.7,757v-609c0-28.2-22.8-51-51-51c-28.2,0-51,22.8-51,51v605.1
	L188.6,494.7c-19.9-18.8-52.2-18.8-72.1,0c-19.9,18.9-19.9,49.4,0,68.3l339.1,326.7c14.5,13.6,33.6,21.2,54.1,21.2
	c20.5,0,39.7-7.5,54.1-21.2L902.9,563C922.8,544.1,922.8,513.6,902.9,494.7z"/>
</svg>
