<?xml version="1.0" encoding="UTF-8"?><svg id="_レイヤー_2" xmlns="http://www.w3.org/2000/svg" viewBox="0 0 591.02334 591.02334"><defs><style>.cls-1{fill:#040000;}</style></defs><path class="cls-1" d="m293.57029,44.27637h-.45529c-42.16965,0-175.14797,20.5886-252.94753,153.24208,11.16556,44.05413,20.77469,82.16578,29.51798,115.23722,23.55121,89.07703,40.626,140.43376,63.42392,164.10902,31.26306,32.46524,132.43543,52.92212,160.00562,73.95642.07801-.63882.15091-1.32368.22765-1.97464.03005.25067.05883.50453.08761.76095.04668.40861.09208.82106.14004,1.21369,27.5702-21.03431,128.74256-41.49118,160.00498-73.95642,22.86763-23.74688,39.97503-75.33126,63.63686-164.90898-4.23513-.64585-8.69278-1.31217-13.32501-1.99127,4.60729.67719,9.09436,1.34606,13.32501,1.99127,8.68703-32.88601,18.23093-70.74251,29.30505-114.43726C468.71826,64.86498,335.7393,44.27637,293.57029,44.27637ZM82.40042,310.52334c.63178-.10871,1.26421-.2155,1.9043-.32484-.63306.10807-1.27955.21678-1.9043.32484Zm350.76722,143.50315c-27.28052,28.32987-115.56782,46.1816-139.62612,64.53658-.03837-.31142-.07482-.63882-.11127-.96302v-227.05015c-2.54888-.02622-5.10543-.05819-7.6153-.05819-7.47334,0-15.02852.15283-22.60481.37472-1.38698.04093-2.76501.07354-4.15455.12086-7.28981.24875-14.59305.5883-21.89565,1.01034-1.37036.07929-2.7292.16818-4.09828.25323-15.20885.94128-30.31986,2.20932-45.07406,3.70438-1.24374.12597-2.48429.24747-3.72292.376-7.13442.74305-14.16078,1.5315-21.06756,2.35896-1.18491.14196-2.34105.28584-3.51765.43035-14.27716,1.74636-27.93533,3.62508-40.70657,5.5313-.94192.14068-1.8832.2788-2.81553.41948-6.1714.93233-12.1062,1.8621-17.79482,2.78484-.00512.00064-.01023.00192-.01535.00256.00512-.00064.01023-.00192.01535-.00256-.29991.0486-.64074.09848-.93872.14708-7.42921-28.20006-15.58869-60.56683-25.01109-97.74487,67.89053-115.75838,183.93283-133.72457,220.73168-133.72457h.28584v214.0161c7.29365.07482,14.77146.28264,22.31706.55377,1.2706.0454,2.53161.08313,3.80797.13429,7.22778.28712,14.54126.65672,21.90333,1.09475,1.45093.08697,2.90569.18033,4.36046.27177,7.47589.47128,14.98248.99308,22.49674,1.59161.76031.06011,1.51935.12917,2.2803.1912,7.20412.58446,14.39738,1.22328,21.55418,1.90047,1.18683.11254,2.37942.21869,3.5637.33316,7.34736.71044,14.63206,1.46628,21.8381,2.24897,1.51679.16434,3.02911.3306,4.53759.49814,7.14593.79293,14.21577,1.6076,21.12575,2.44464,1.04743.12725,2.06609.25706,3.10648.38431,6.65803.81595,13.192,1.64404,19.54373,2.4779.74433.0972,1.51487.19439,2.25409.29223,6.72581.88948,13.21566,1.78089,19.49961,2.66334.5608.07865,1.12033.15731,1.67794.23596-20.96397,79.58812-35.98034,125.23514-56.12964,146.1601Zm56.16928-146.15434c4.90911.69317,9.68138,1.37739,14.26309,2.05074-4.59578-.67335-9.35974-1.35885-14.26309-2.05074Z"/></svg>