<svg id="レイヤー_2" data-name="レイヤー 2" xmlns="http://www.w3.org/2000/svg" viewBox="0 0 1000 1000"><defs><style>.cls-1{fill:#040000;}</style></defs><title>security</title><path class="cls-1" d="M500.38,73.11h-.76c-71.08,0-295.21,34.71-426.34,258.29,18.82,74.25,35,138.49,49.75,194.23,39.7,150.14,68.47,236.7,106.9,276.6,52.69,54.72,223.22,89.2,269.69,124.66.13-1.08.25-2.23.38-3.33l.15,1.28c.08.69.15,1.38.23,2,46.47-35.46,217-69.94,269.69-124.66,38.54-40,67.38-127,107.26-278-7.14-1.09-14.65-2.21-22.46-3.35,7.77,1.14,15.33,2.27,22.46,3.35C892,468.85,908.06,405.05,926.72,331.4,795.59,107.82,571.46,73.11,500.38,73.11ZM144.46,521.87l3.21-.55ZM735.67,763.74c-46,47.75-194.78,77.84-235.33,108.78-.07-.53-.13-1.08-.19-1.63V488.2c-4.3,0-8.61-.09-12.84-.09-12.59,0-25.33.25-38.1.63-2.34.07-4.66.12-7,.2q-18.43.63-36.9,1.7l-6.91.43c-25.64,1.59-51.11,3.72-76,6.24l-6.28.64q-18,1.88-35.51,4l-5.93.73c-24.06,2.94-47.08,6.11-68.61,9.32l-4.74.71q-15.6,2.36-30,4.69h0l-1.58.25c-12.52-47.53-26.27-102.08-42.15-164.75,114.43-195.11,310-225.39,372-225.39h.48V488.2c12.29.13,24.9.48,37.61.94l6.42.22c12.18.49,24.51,1.11,36.92,1.85l7.35.46q18.9,1.18,37.92,2.68l3.84.32q18.21,1.49,36.33,3.2c2,.19,4,.37,6,.57q18.57,1.79,36.8,3.79,3.84.4,7.65.84c12,1.33,24,2.71,35.61,4.12l5.23.64c11.23,1.38,22.24,2.78,32.95,4.18l3.79.49q17,2.25,32.87,4.49l2.83.4C794.94,651.53,769.63,728.47,735.67,763.74ZM830.35,517.4c8.27,1.17,16.31,2.32,24,3.46C846.64,519.72,838.61,518.57,830.35,517.4Z"/></svg>