<svg id="レイヤー_2" data-name="レイヤー 2" xmlns="http://www.w3.org/2000/svg" viewBox="0 0 591.02 591.02"><defs><style>.cls-1{fill:#040000;}</style></defs><title>security</title><path class="cls-1" d="M293.57,44.28h-.46C251,44.28,118,64.86,40.17,197.52c11.16,44,20.77,82.16,29.52,115.24,23.55,89.07,40.62,140.43,63.42,164.1,31.26,32.47,132.43,52.93,160,74,.08-.64.16-1.32.23-2l.09.76c.05.41.09.82.14,1.21,27.57-21,128.74-41.49,160-74,22.86-23.74,40-75.33,63.63-164.9-4.23-.65-8.69-1.32-13.32-2,4.6.68,9.09,1.35,13.32,2,8.69-32.89,18.23-70.75,29.31-114.44C468.72,64.86,335.74,44.28,293.57,44.28ZM82.4,310.52l1.9-.32ZM433.17,454c-27.28,28.33-115.57,46.18-139.63,64.53,0-.31-.07-.64-.11-1v-227c-2.55,0-5.11-.06-7.62-.06-7.47,0-15,.15-22.6.38l-4.15.12q-10.94.38-21.9,1l-4.1.25c-15.21.94-30.32,2.21-45.07,3.71l-3.73.37q-10.69,1.11-21.06,2.36l-3.52.43c-14.28,1.75-27.94,3.63-40.71,5.53l-2.81.42q-9.25,1.4-17.8,2.79h0l-.94.14c-7.43-28.2-15.58-60.56-25-97.74C140.3,94.5,256.35,76.53,293.14,76.53h.29v214c7.29.07,14.77.28,22.32.55l3.81.14c7.22.29,14.54.65,21.9,1.09l4.36.27q11.21.72,22.5,1.6l2.28.19q10.8.87,21.55,1.9l3.56.33q11,1.06,21.84,2.25l4.54.5c7.15.79,14.22,1.61,21.13,2.44l3.1.39c6.66.81,13.19,1.64,19.55,2.47l2.25.3q10.1,1.33,19.5,2.66l1.68.24C468.33,387.45,453.32,433.1,433.17,454Zm56.17-146.16c4.91.7,9.68,1.38,14.26,2.05Q496.7,308.91,489.34,307.87Z"/></svg>