<?xml version="1.0" encoding="utf-8"?>
<!-- Generator: Adobe Illustrator 21.0.2, SVG Export Plug-In . SVG Version: 6.00 Build 0)  -->
<svg version="1.1" id="レイヤー_2" xmlns="http://www.w3.org/2000/svg" xmlns:xlink="http://www.w3.org/1999/xlink" x="0px"
	 y="0px" viewBox="0 0 1000 1000" style="enable-background:new 0 0 1000 1000;" xml:space="preserve">
<style type="text/css">
	.st0{fill:#040000;}
	.st1{fill:#070001;}
	.st2{fill:#231916;}
</style>
<g id="Icon_x2F_Font_3_">
	<g id="SliceIcon_20_" transform="translate(-263.000000, -358.000000)">
		<g id="Icons_29_" transform="translate(103.000000, 44.000000)">
			<path id="Icons_x2F_Shop-Icon" class="st2" d="M954.5,1131.8H757.8V899.5H562.2v232.3H365.5v-306c22.9,17.5,51,27.4,80.7,27.4
				c42.8,0,82.2-20.6,107-54.1c24.8,33.5,64.1,54.1,106.9,54.1c42.8,0,82.2-20.6,106.9-54.1c24.8,33.5,64.1,54.1,107,54.1
				c29.7,0,57.8-9.9,80.7-27.4V1131.8z M522.5,745.8c-10.9,32.3-41.4,55.1-76.4,55.1c-35,0-65.4-22.8-76.3-55.1H522.5z M444.5,578.1
				h109.8l-22.7,115.3H382.9L444.5,578.1z M585,693.4l22.7-115.3H660h52.3L735,693.4h-75H585z M660,745.8h76.4
				c-10.9,32.3-41.4,55.1-76.4,55.1c-35,0-65.5-22.8-76.4-55.1H660z M455,496.2H865v29.5H455V496.2z M950.2,745.8
				c-10.9,32.3-41.3,55.1-76.3,55.1c-35,0-65.5-22.8-76.4-55.1H950.2z M937.1,693.4H788.5l-22.7-115.3h109.8L937.1,693.4z M1007,719
				c-0.1-4-1.2-8.1-3.1-11.7l-86.4-161.9V470c0-14.5-11.7-26.2-26.2-26.2H428.7c-14.5,0-26.2,11.7-26.2,26.2v75.4l-86.4,161.9
				c-1.9,3.5-2.9,7.7-3.1,11.7l0,439c0,14.5,11.7,26.2,26.2,26.2H660h320.8c14.5,0,26.2-11.7,26.2-26.2L1007,719z"/>
		</g>
	</g>
</g>
</svg>
