<?xml version="1.0" encoding="utf-8"?>
<!-- Generator: Adobe Illustrator 26.3.1, SVG Export Plug-In . SVG Version: 6.00 Build 0)  -->
<svg version="1.1" id="_イヤー_2" xmlns="http://www.w3.org/2000/svg" xmlns:xlink="http://www.w3.org/1999/xlink" x="0px"
	 y="0px" viewBox="0 0 591 591" style="enable-background:new 0 0 591 591;" xml:space="preserve">
<style type="text/css">
	.st0{fill:#231916;}
</style>
<g id="Icons" transform="translate(103.000000, 44.000000)">
	<path id="Icons_Shop-Icon" class="st0" d="M367.3,440.1H250.6V302.2H134.5v137.8H17.8V258.5c13.6,10.4,30.3,16.3,47.9,16.3
		c25.4,0,48.8-12.2,63.5-32.1c14.7,19.9,38,32.1,63.4,32.1c25.4,0,48.7-12.2,63.4-32.1c14.7,19.9,38,32.1,63.5,32.1
		c17.6,0,34.3-5.8,47.9-16.3L367.3,440.1L367.3,440.1z M110.9,211c-6.5,19.2-24.5,32.7-45.3,32.7c-20.8,0-38.8-13.5-45.3-32.7
		L110.9,211L110.9,211z M64.6,111.6h65.1L116.3,180H28.1L64.6,111.6L64.6,111.6z M148,180l13.5-68.4h62.1L237,180H148z M192.5,211
		h45.3c-6.5,19.2-24.5,32.7-45.3,32.7c-20.8,0-38.8-13.5-45.3-32.7H192.5L192.5,211z M70.9,63h243.3v17.5H70.9V63z M364.7,211
		c-6.5,19.2-24.5,32.7-45.3,32.7c-20.8,0-38.9-13.5-45.3-32.7L364.7,211L364.7,211z M356.9,180h-88.2l-13.5-68.4h65.1L356.9,180
		L356.9,180z M398.4,195.1c-0.1-2.4-0.7-4.8-1.8-6.9l-51.3-96.1V47.4c0-8.6-7-15.5-15.6-15.5H55.3c-8.6,0-15.6,7-15.6,15.5v44.7
		l-51.3,96.1c-1.1,2.1-1.7,4.6-1.8,6.9l0,260.5c0,8.6,7,15.5,15.6,15.5h380.6c8.6,0,15.6-7,15.6-15.5L398.4,195.1L398.4,195.1z"/>
</g>
</svg>
