<?xml version="1.0" encoding="UTF-8"?><svg id="_レイヤー_2" xmlns="http://www.w3.org/2000/svg" viewBox="0 0 591.02334 591.02334"><defs><style>.cls-1{fill:#040000;}</style></defs><path class="cls-1" d="m523.60177,486.74018l-15.21008-107.81982-1.38989-9.94043-20.90002-143.7998,9.21997-96.5498.82996-8.76025c1.61792-17.8208-4.82422-35.43018-17.55994-48-12.83997-12.85986-30.46008-19.93994-49.58997-19.93994H172.00179c-5.68445.00098-11.35034.64502-16.89001,1.91992-3.17639.73779-6.30261,1.67627-9.35999,2.81006-1.96997.74023-3.94995,1.58008-5.87,2.49023-.92004.40967-1.87.91992-2.80005,1.40967-7.22266,3.80225-13.73218,8.82617-19.23999,14.8501-.67004.72998-1.34998,1.51025-2,2.29004-8.14026,9.64258-13.17078,21.52393-14.43005,34.08008l-.77002,8.12988v.16016l-23.90991,250.69971v.2002l-9.25,97c-.21875,2.40674-.27856,4.80811-.20801,7.19531-.01367.53809-.03833,1.07373-.03833,1.61572,0,21.39209,10.64697,40.12842,26.59375,50.51074,1.29785,1.24072,3.84558,2.54492,11.04468,5.74463l1.26855.20557c5.21362,1.73389,10.75732,2.66846,16.50586,2.66846.95703,0,1.90833-.02588,2.85339-.07715,1.66833-.00488,3.33569-.11328,4.9906-.35254,2.11157-.30518,3.97705-.75879,5.69043-1.35449,19.11426-5.12109,34.2749-20.83691,39.70508-40.95703,2.19019-5.44336,3.61377-11.16943,4.17407-17.05908l2.78992-29.18018h174.75l-2,21c-.04199.46094-.05579.92041-.08704,1.38086-.33813,2.79883-.52515,5.6543-.52515,8.56152,0,33.81104,23.64673,61.2207,52.81653,61.2207,26.40503,0,48.28235-22.46094,52.19275-51.79785.49976-1.70166.93347-3.42725,1.29297-5.17529l.6499,4.62012c1.67993,12.02979,14.28003,21.77979,28.15002,21.77979h11.44006c13.86987,0,23.75-9.77979,22.06995-21.77979Zm-118.59998-332.33008l-17.34009,181.87012c-.91992,9.62988-9.56006,17-19.91992,17h-170.93994v.04004c-11.74011,0-20.92017-9.38037-19.92017-20.27002l9.16016-96,8.19995-85.90039c.91992-9.63965,9.56006-17,19.91992-17h170.92004c11.73999,0,20.92004,9.37012,19.92004,20.26025Z"/></svg>