<?xml version="1.0" encoding="UTF-8"?><svg id="_イヤー_2" xmlns="http://www.w3.org/2000/svg" viewBox="0 0 591.02334 591.02334"><defs><style>.cls-1{fill:#231916;fill-rule:evenodd;}</style></defs><path class="cls-1" d="M522.00308,491.25314l-15.20996-107.81982-1.39014-9.94043-20.8999-143.7998,9.21997-96.5498,.83008-8.76025c1.61768-17.8208-4.82446-35.43018-17.56006-48-12.84009-12.85986-30.45996-19.93994-49.59009-19.93994H170.40298c-5.68433,.00098-11.35034,.64551-16.88989,1.91992-3.17639,.73779-6.30273,1.67627-9.36011,2.81006-1.96997,.74023-3.94995,1.58008-5.86987,2.49023-.92004,.40967-1.87012,.91992-2.80005,1.40967-7.22266,3.80225-13.73218,8.82617-19.23999,14.8501-.66992,.72998-1.3501,1.51025-2,2.29004-8.14014,9.64258-13.1709,21.52393-14.42993,34.08008l-.77002,8.12988v.16016l-23.91003,250.69971v.2002l-9.25,97c-1.62195,17.83789,4.82385,35.46582,17.56995,48.0498,12.84009,12.8501,30.44995,19.93018,49.59009,19.93018h8.86987c17.39038,.07471,34.24963-5.98779,47.61011-17.12012,13.22998-11.1499,21.37988-26.31982,22.93994-42.71973l2.79004-29.18018h100.75l-2,21c-1.62598,17.83691,4.81616,35.46484,17.56006,48.0498,12.83984,12.8501,30.44995,19.93018,49.58984,19.93018h8.87012c17.39062,.07666,34.25037-5.98633,47.60999-17.12012,11.31897-9.35059,19.10242-22.28906,22.05994-36.66992l.65002,4.62012c1.68005,12.02979,14.28003,21.77979,28.15002,21.77979h11.43994c13.87012,0,23.75-9.77979,22.07007-21.77979Zm-63.83008-371.70996l-.82996,8.83008-24.75,261.71973-8.38,88.61035c-1.32996,14.12988-14.34998,25.19971-29.64001,25.19971h-8.87c-7.28809,.12109-14.31873-2.69336-19.51001-7.81006-4.9585-4.92188-7.4314-11.81836-6.72998-18.77002l4.07007-43c1-10.85986-8.08008-20.20996-19.69006-20.20996H200.33304c-10.23999,0-18.77991,7.34033-19.69006,16.91992l-4.51001,47.66016c-1.32983,14.12988-14.34985,25.2002-29.63989,25.2002h-8.86011c-7.29102,.12158-14.32495-2.69287-19.5199-7.81006-4.94958-4.92236-7.41492-11.81494-6.71008-18.76025l9.26001-97.91992v-.06006l23.91003-252.91992v-.06006l.78003-8.19971c.53186-5.21582,2.62268-10.15039,6-14.16016,.26001-.31982,.54993-.6499,.83997-1,2.34729-2.58252,5.12524-4.73779,8.20996-6.37012,.39014-.20996,.79004-.40967,1.19006-.6001,.79993-.38965,1.64001-.75,2.47998-1.05957,1.27832-.48779,2.58801-.88867,3.92004-1.2002,2.29565-.52979,4.64392-.79785,7-.7998H431.93301c7.28967-.12451,14.32349,2.68604,19.52002,7.7998,4.95361,4.9248,7.42249,11.82031,6.71997,18.77002Z"/><path class="cls-1" d="M383.48306,138.6633H212.56314c-10.36011,0-19,7.35986-19.92017,17l-8.19995,85.8999-9.15991,96c-1,10.89014,8.17993,20.27002,19.91992,20.27002v-.04004h170.93994c10.36011,0,19-7.37012,19.92017-17l17.33984-181.87012c1-10.89014-8.17993-20.25977-19.91992-20.25977Z"/></svg>