<svg id="レイヤー_2" data-name="レイヤー 2" xmlns="http://www.w3.org/2000/svg" viewBox="0 0 591.02 591.02"><defs><style>.cls-1{fill:#231916;fill-rule:evenodd;}</style></defs><path class="cls-1" d="M522,491.25,506.79,383.43l-1.39-9.94-20.9-143.8,9.22-96.55.83-8.76a59.82,59.82,0,0,0-17.56-48c-12.84-12.86-30.46-19.94-49.59-19.94h-257a75.63,75.63,0,0,0-16.89,1.92,78.65,78.65,0,0,0-9.36,2.81c-2,.74-4,1.58-5.87,2.49-.92.41-1.87.92-2.8,1.41a71,71,0,0,0-19.24,14.85c-.67.73-1.35,1.51-2,2.29a62.55,62.55,0,0,0-14.43,34.08L99,124.42v.16L75.13,375.28v.2l-9.25,97a59.92,59.92,0,0,0,17.57,48c12.84,12.85,30.45,19.93,49.59,19.93h8.87a73.81,73.81,0,0,0,47.61-17.12c13.23-11.15,21.38-26.32,22.94-42.72l2.79-29.18H316l-2,21a59.91,59.91,0,0,0,17.56,48.05c12.84,12.85,30.45,19.93,49.59,19.93H390a73.81,73.81,0,0,0,47.61-17.12,64.34,64.34,0,0,0,22.06-36.67l.65,4.62c1.68,12,14.28,21.78,28.15,21.78h11.44C513.8,513,523.68,503.25,522,491.25ZM458.17,119.54l-.83,8.83L432.59,390.09l-8.38,88.61c-1.33,14.13-14.35,25.2-29.64,25.2H385.7a27.14,27.14,0,0,1-19.51-7.81,23.17,23.17,0,0,1-6.73-18.77l4.07-43c1-10.86-8.08-20.21-19.69-20.21H200.33c-10.24,0-18.78,7.34-19.69,16.92l-4.51,47.66c-1.33,14.13-14.35,25.2-29.64,25.2h-8.86a27.18,27.18,0,0,1-19.52-7.81,23.17,23.17,0,0,1-6.71-18.76l9.26-97.92v-.06l23.91-252.92v-.06l.78-8.2a26.15,26.15,0,0,1,6-14.16c.26-.32.55-.65.84-1a30.47,30.47,0,0,1,8.21-6.37c.39-.21.79-.41,1.19-.6.8-.39,1.64-.75,2.48-1.06A30.46,30.46,0,0,1,175,93H431.93a27.19,27.19,0,0,1,19.52,7.8A23.14,23.14,0,0,1,458.17,119.54Z"/><path class="cls-1" d="M383.48,138.66H212.56c-10.36,0-19,7.36-19.92,17l-8.2,85.9-9.16,96c-1,10.89,8.18,20.27,19.92,20.27v0H366.14c10.36,0,19-7.37,19.92-17L403.4,158.92C404.4,148,395.22,138.66,383.48,138.66Z"/></svg>