<svg id="レイヤー_2" data-name="レイヤー 2" xmlns="http://www.w3.org/2000/svg" viewBox="0 0 591.02 591.02"><defs><style>.cls-1{fill:#231916;}</style></defs><g id="Icon_Font" data-name="Icon/Font"><g id="SliceIcon"><g id="Icons"><path id="Icons_Shop-Icon" data-name="Icons/Shop-Icon" class="cls-1" d="M470.27,484.05H353.56V346.24H237.46V484.05H120.76V302.52a78.7,78.7,0,0,0,111.31-15.85,78.76,78.76,0,0,0,126.89,0,78.7,78.7,0,0,0,111.31,15.85ZM213.94,255a47.75,47.75,0,0,1-90.62,0Zm-46.29-99.47h65.12L219.29,224H131.12ZM251,224l13.47-68.42h62.06L340,224H251ZM295.51,255h45.33a47.77,47.77,0,0,1-90.65,0ZM173.87,107H417.16V124.5H173.87ZM467.71,255a47.76,47.76,0,0,1-90.63,0ZM459.9,224H371.73l-13.47-68.42h65.12Zm41.48,15.14a16.08,16.08,0,0,0-1.82-6.92l-51.28-96V91.44a15.55,15.55,0,0,0-15.56-15.53H158.31a15.55,15.55,0,0,0-15.56,15.53v44.71l-51.29,96a16.23,16.23,0,0,0-1.82,6.92V499.58a15.54,15.54,0,0,0,15.56,15.53H485.83a15.55,15.55,0,0,0,15.56-15.53Z"/></g></g></g></svg>