<?xml version="1.0" encoding="UTF-8"?><svg id="_レイヤー_2" xmlns="http://www.w3.org/2000/svg" viewBox="0 0 591.02334 591.02334"><defs><style>.cls-1{fill:#231916;}</style></defs><g id="Icons"><path id="Icons_Shop-Icon" class="cls-1" d="m470.26822,484.05455h-116.70918v-137.81435h-116.09473v137.81435h-116.70918v-181.53924c13.55722,10.40179,30.25375,16.25108,47.85667,16.25108,25.42228,0,48.75532-12.21333,63.45496-32.09838,14.69964,19.88086,38.02871,32.09461,63.44491,32.0967,25.41621-.00209,48.74715-12.21585,63.44491-32.0967,14.70174,19.88504,38.03478,32.09838,63.45496,32.09838,17.60502,0,34.29945-5.84928,47.85667-16.25108v181.53924ZM213.94404,255.03414c-6.48154,19.15917-24.54185,32.67346-45.33224,32.67346-20.77217,0-38.81845-13.51429-45.29601-32.67346h90.62826Zm-46.29728-99.47422h65.12116l-13.4768,68.41753h-88.17211l36.52775-68.41753Zm83.35886,68.41753l13.47471-68.41753h62.0627l13.4768,68.41753h-89.01421Zm44.50606,31.05669h45.32408c-6.48154,19.15708-24.53766,32.67179-45.32408,32.67346-20.78432-.00168-38.84065-13.51638-45.32219-32.67346h45.32219Zm-121.64537-148.06326h243.29283v17.53025h-243.29283v-17.53025Zm293.84126,148.06326c-6.47547,19.15917-24.52175,32.67346-45.29392,32.67346-20.79039,0-38.8507-13.51429-45.33434-32.67346h90.62826Zm-7.80323-31.05669h-88.17001l-13.4768-68.41753h65.12116l36.52565,68.41753Zm41.47796,15.1474c-.08272-2.36861-.70723-4.83189-1.82348-6.92113l-51.28163-96.05387v-44.70836c0-8.57601-6.96511-15.52939-15.56018-15.52939H158.30633c-8.59298,0-15.56018,6.95338-15.56018,15.52939v44.70836l-51.28163,96.05387c-1.11415,2.08924-1.74075,4.55251-1.82348,6.92113l-.00398,260.4591c0,8.57601,6.96699,15.5273,15.55997,15.5273h380.63115c8.59298,0,15.55808-6.95128,15.55808-15.5273l-.00398-260.4591Z"/></g></svg>