<?xml version="1.0" encoding="utf-8"?>
<!-- Generator: Adobe Illustrator 22.0.1, SVG Export Plug-In . SVG Version: 6.00 Build 0)  -->
<svg version="1.1" id="レイヤー_2" xmlns="http://www.w3.org/2000/svg" xmlns:xlink="http://www.w3.org/1999/xlink" x="0px"
	 y="0px" viewBox="0 0 1000 1000" style="enable-background:new 0 0 1000 1000;" xml:space="preserve">
<style type="text/css">
	.st0{fill:#040000;}
	.st1{fill:#070001;}
	.st2{fill:#231916;}
	.st3{fill-rule:evenodd;clip-rule:evenodd;fill:#070102;}
	.st4{fill:#050101;}
</style>
<g>
	<path class="st0" d="M762,245.6L655.3,145.3c-19.9-18.7-46.6-29.2-74.3-29.2H288.4c-58.8,0-106.5,46-106.5,102.7v590.5
		c0,56.7,47.7,102.7,106.5,102.7h399.3c58.8,0,106.5-46,106.5-102.7V319.2C794.2,291.5,782.6,264.9,762,245.6z M740.9,809.4
		c0,28.4-23.8,51.4-53.2,51.4H288.4c-29.4,0-53.2-23-53.2-51.4V218.8c0-28.4,23.8-51.4,53.2-51.4H581c13.9,0,27.2,5.2,37.2,14.6
		l106.7,100.3c10.3,9.7,16.1,22.9,16.1,36.8V809.4z"/>
	<path class="st0" d="M634.4,501.3H341.6c-29.4,0-53.2,23-53.2,51.4V758c0,28.4,23.8,51.4,53.2,51.4H528h53.2h53.2
		c29.4,0,53.2-23,53.2-51.4V552.6C687.7,524.3,663.8,501.3,634.4,501.3z M581.2,629.7h53.2v25.7h-53.2V629.7z M634.4,578.3h-53.2
		v-25.7h53.2V578.3z M394.9,552.6V604h-53.2v-51.4H394.9z M394.9,681h-53.2v-25.7h53.2V681z M341.6,732.4h53.2V758h-53.2V732.4z
		 M448.1,758V552.6H528V758H448.1z M581.2,758v-51.4h53.2V758H581.2z"/>
</g>
</svg>
