<svg id="レイヤー_2" data-name="レイヤー 2" xmlns="http://www.w3.org/2000/svg" viewBox="0 0 591.02 591.02"><defs><style>.cls-1{fill:#040000;}</style></defs><path class="cls-1" d="M458.06,136.21,394.74,76.69A64.4,64.4,0,0,0,350.65,59.4H177.06c-34.89,0-63.18,27.28-63.18,60.93V470.69c0,33.66,28.29,60.94,63.18,60.94H414c34.9,0,63.18-27.28,63.18-60.94V179.85A59.89,59.89,0,0,0,458.06,136.21ZM445.55,470.69c0,16.83-14.14,30.47-31.59,30.47H177.06c-17.45,0-31.59-13.64-31.59-30.47V120.33c0-16.83,14.14-30.47,31.59-30.47H350.65a32.19,32.19,0,0,1,22,8.65L436,158a29.94,29.94,0,0,1,9.54,21.82Z"/><path class="cls-1" d="M382.38,287.9H208.65c-17.45,0-31.59,13.64-31.59,30.46V440.23c0,16.82,14.14,30.46,31.59,30.46H382.38c17.44,0,31.58-13.64,31.58-30.46V318.36C414,301.54,399.82,287.9,382.38,287.9Zm-31.59,76.16h31.59v15.23H350.79Zm31.59-30.47H350.79V318.36h31.59ZM240.23,318.36v30.47H208.65V318.36Zm0,76.17H208.65V379.29h31.58ZM208.65,425h31.58v15.24H208.65Zm63.17,15.24V318.36H319.2V440.23Zm79,0V409.76h31.59v30.47Z"/></svg>