<?xml version="1.0" encoding="UTF-8"?><svg id="_レイヤー_2" xmlns="http://www.w3.org/2000/svg" viewBox="0 0 591.02334 591.02334"><defs><style>.cls-1{fill:#040000;}</style></defs><path class="cls-1" d="m458.05764,136.21032l-63.31612-59.51847c-11.79737-11.08964-27.61952-17.29613-44.09321-17.29613h-173.58955c-34.89051,0-63.17489,27.28087-63.17489,60.93306v350.36577c0,33.65249,28.28438,60.93306,63.17489,60.93306h236.90567c34.89066,0,63.17504-27.28058,63.17504-60.93306V179.84696c0-16.43196-6.8812-32.16807-19.08183-43.63664Zm-12.50569,334.48424c0,16.82624-14.14219,30.46639-31.58752,30.46639h-236.90567c-17.44518,0-31.58737-13.64014-31.58737-30.46639V120.32878c0-16.82624,14.14219-30.46668,31.58737-30.46668h173.58955c8.23699,0,16.14777,3.10325,22.0466,8.64807l63.31612,59.51847c6.10046,5.73457,9.54092,13.60248,9.54092,21.81832v290.84759Z"/><path class="cls-1" d="m382.37691,287.89507h-173.73078c-17.44504,0-31.58737,13.64014-31.58737,30.46639v121.86642c0,16.82624,14.14234,30.46668,31.58737,30.46668h173.73078c17.44533,0,31.58752-13.64043,31.58752-30.46668v-121.86642c0-16.82624-14.14219-30.46639-31.58752-30.46639Zm-31.58723,76.16626h31.58723v15.23348h-31.58723v-15.23348Zm31.58723-30.46639h-31.58723v-15.23348h31.58723v15.23348Zm-142.14326-15.23348v30.46668h-31.58752v-30.46668h31.58752Zm0,76.16655h-31.58752v-15.23319h31.58752v15.23319Zm-31.58752,30.46668h31.58752v15.23319h-31.58752v-15.23319Zm63.17504,15.23319v-121.86642h47.38099v121.86642h-47.38099Zm78.96851,0v-30.46668h31.58723v30.46668h-31.58723Z"/></svg>