<svg id="レイヤー_2" data-name="レイヤー 2" xmlns="http://www.w3.org/2000/svg" viewBox="0 0 591.02 591.02"><defs><style>.cls-1{fill:#040000;}</style></defs><title>smartphone</title><path class="cls-1" d="M409.1,539.36H181.93a40.13,40.13,0,0,1-40.08-40.08V91.74a40.13,40.13,0,0,1,40.08-40.08H409.1a40.13,40.13,0,0,1,40.08,40.08V499.28A40.13,40.13,0,0,1,409.1,539.36Zm-227.17-458a10.42,10.42,0,0,0-10.42,10.41V499.28a10.42,10.42,0,0,0,10.42,10.41H409.1a10.42,10.42,0,0,0,10.41-10.41V91.74A10.42,10.42,0,0,0,409.1,81.33Z"/><circle class="cls-1" cx="294.72" cy="475.28" r="24.5"/><path class="cls-1" d="M356.89,113.18H233.6c-18.82,0-34.14,16.28-34.14,36.3V392.11c0,20,15.32,36.3,34.14,36.3H356.89c18.83,0,34.14-16.28,34.14-36.3V149.48C391,129.46,375.72,113.18,356.89,113.18Z"/></svg>