<?xml version="1.0" encoding="utf-8"?>
<!-- Generator: Adobe Illustrator 22.0.1, SVG Export Plug-In . SVG Version: 6.00 Build 0)  -->
<svg version="1.1" id="レイヤー_2" xmlns="http://www.w3.org/2000/svg" xmlns:xlink="http://www.w3.org/1999/xlink" x="0px"
	 y="0px" viewBox="0 0 1000 1000" style="enable-background:new 0 0 1000 1000;" xml:space="preserve">
<style type="text/css">
	.st0{fill:#040000;}
	.st1{fill:#070001;}
	.st2{fill:#231916;}
	.st3{fill-rule:evenodd;clip-rule:evenodd;fill:#070102;}
	.st4{fill:#050101;}
</style>
<g>
	<path class="st0" d="M691.4,919H308.5c-37.2,0-67.6-30.3-67.6-67.6V164.5c0-37.3,30.3-67.6,67.6-67.6h382.9
		c37.2,0,67.6,30.3,67.6,67.6v686.9C758.9,888.7,728.6,919,691.4,919z M308.5,147c-9.7,0-17.6,7.9-17.6,17.6v686.9
		c0,9.7,7.9,17.6,17.6,17.6h382.9c9.7,0,17.6-7.9,17.6-17.6V164.5c0-9.7-7.9-17.6-17.6-17.6H308.5z"/>
</g>
<g>
	<circle class="st0" cx="498.6" cy="811" r="41.3"/>
</g>
<path class="st0" d="M603.4,200.7H395.6c-31.7,0-57.5,27.4-57.5,61.2v409c0,33.7,25.8,61.2,57.5,61.2h207.8
	c31.7,0,57.5-27.4,57.5-61.2v-409C660.9,228.1,635.1,200.7,603.4,200.7z"/>
</svg>
