<?xml version="1.0" encoding="UTF-8"?><svg id="_レイヤー_2" xmlns="http://www.w3.org/2000/svg" viewBox="0 0 591.02334 591.02334"><defs><style>.cls-1{fill:#040000;}</style></defs><path class="cls-1" d="m409.09649,539.35865h-227.16964c-22.10049,0-40.08031-17.97982-40.08031-40.08031V91.745c0-22.10049,17.97982-40.08031,40.08031-40.08031h227.16964c22.10049,0,40.08031,17.97982,40.08031,40.08031v407.53334c0,22.10049-17.97982,40.08031-40.08031,40.08031ZM181.92685,81.32977c-5.74297,0-10.41523,4.67225-10.41523,10.41523v407.53334c0,5.74297,4.67225,10.41523,10.41523,10.41523h227.16964c5.74297,0,10.41523-4.67225,10.41523-10.41523V91.745c0-5.74297-4.67225-10.41523-10.41523-10.41523h-227.16964Z"/><circle class="cls-1" cx="294.7206" cy="475.28207" r="24.49996"/><path class="cls-1" d="m356.89459,113.17918h-123.29369c-18.82435,0-34.13891,16.28335-34.13891,36.29772v242.63662c0,20.01437,15.31456,36.29772,34.13891,36.29772h123.29369c18.82409,0,34.13865-16.28335,34.13865-36.29772v-242.63662c0-20.01437-15.31456-36.29772-34.13865-36.29772Z"/></svg>