<?xml version="1.0" encoding="utf-8"?>
<!-- Generator: Adobe Illustrator 22.0.1, SVG Export Plug-In . SVG Version: 6.00 Build 0)  -->
<svg version="1.1" id="レイヤー_2" xmlns="http://www.w3.org/2000/svg" xmlns:xlink="http://www.w3.org/1999/xlink" x="0px"
	 y="0px" viewBox="0 0 1000 1000" style="enable-background:new 0 0 1000 1000;" xml:space="preserve">
<style type="text/css">
	.st0{fill:#040000;}
	.st1{fill:#070001;}
	.st2{fill:#231916;}
	.st3{fill-rule:evenodd;clip-rule:evenodd;fill:#070102;}
	.st4{fill:#050101;}
</style>
<g>
	<path class="st0" d="M883.8,670.2l-5-5c-11.9-11.9-31.3-11.9-43.2,0l-38.3,38.3V488.8c0-17.6-14.3-31.8-31.8-31.8h-7.4
		c-17.6,0-31.8,14.2-31.8,31.8v213.4l-37.1-37.1c-11.9-11.9-31.3-11.9-43.2,0l-5,5c-11.9,11.9-11.9,31.3,0,43.2l99.8,99.8
		c6,6,13.8,9,21.6,9c7.8,0,15.7-3,21.6-9l99.8-99.8C895.8,701.5,895.8,682.1,883.8,670.2z"/>
	<path class="st0" d="M632.7,290.9l37.1,37.1c11.9,11.9,31.3,11.9,43.2,0l5-5c11.9-11.9,11.9-31.3,0-43.2l-99.8-99.8
		c-6-6-13.8-9-21.6-9c-7.8,0-15.7,3-21.6,9l-99.8,99.8c-11.9,11.9-11.9,31.3,0,43.2l5,5c11.9,11.9,31.3,11.9,43.2,0l38.3-38.3v214.6
		c0,17.6,14.2,31.8,31.8,31.8h7.4c17.6,0,31.8-14.3,31.8-31.8V290.9z"/>
	<path class="st0" d="M144.6,382.4h222.2c7.5,0,13.5-6,13.5-13.5v-44.1c0-7.5-6-13.5-13.5-13.5H144.6c-7.5,0-13.5,6-13.5,13.5v44.1
		C131.1,376.3,137.2,382.4,144.6,382.4z"/>
	<path class="st0" d="M144.6,541.4h289.9c7.5,0,13.5-6,13.5-13.5v-44.1c0-7.5-6-13.5-13.5-13.5H144.6c-7.5,0-13.5,6-13.5,13.5v44.1
		C131.1,535.4,137.2,541.4,144.6,541.4z"/>
	<path class="st0" d="M502.8,629.4H144.6c-7.5,0-13.5,6-13.5,13.5V687c0,7.5,6,13.5,13.5,13.5h358.1c7.5,0,13.5-6,13.5-13.5v-44.1
		C516.3,635.5,510.2,629.4,502.8,629.4z"/>
</g>
</svg>
