<svg id="レイヤー_2" data-name="レイヤー 2" xmlns="http://www.w3.org/2000/svg" viewBox="0 0 591.02 591.02"><defs><style>.cls-1{fill:#040000;}</style></defs><title>sort</title><path class="cls-1" d="M516.14,424.18l-59.23,59.23a18.18,18.18,0,0,1-25.68,0L372,424.18a18.14,18.14,0,0,1,0-25.65l3-3a18.12,18.12,0,0,1,25.65,0l22,22V290.92A18.88,18.88,0,0,1,441.53,272h4.38a18.88,18.88,0,0,1,18.89,18.88V418.26l22.71-22.71a18.12,18.12,0,0,1,25.65,0l3,3A18.12,18.12,0,0,1,516.14,424.18Zm-149-250.71,22,22a18.14,18.14,0,0,0,25.65,0l3-3a18.12,18.12,0,0,0,0-25.65l-59.23-59.23a18.17,18.17,0,0,0-25.67,0l-59.24,59.23a18.14,18.14,0,0,0,0,25.65l3,3a18.14,18.14,0,0,0,25.65,0L325,172.76V300.1A18.88,18.88,0,0,0,343.89,319h4.39a18.89,18.89,0,0,0,18.89-18.89ZM77.58,227.77H209.42a8,8,0,0,0,8-8V193.62a8,8,0,0,0-8-8H77.58a8,8,0,0,0-8,8v26.14A8,8,0,0,0,77.58,227.77Zm0,94.36h172a8,8,0,0,0,8-8V288a8,8,0,0,0-8-8h-172a8,8,0,0,0-8,8v26.14A8,8,0,0,0,77.58,322.13Zm212.48,52.21H77.58a8,8,0,0,0-8,8v26.14a8,8,0,0,0,8,8H290.06a8,8,0,0,0,8-8V382.35A8,8,0,0,0,290.06,374.34Z"/></svg>