<?xml version="1.0" encoding="UTF-8"?><svg id="_レイヤー_2" xmlns="http://www.w3.org/2000/svg" viewBox="0 0 591.02334 591.02334"><defs><style>.cls-1{fill:#040000;}</style></defs><path class="cls-1" d="m516.14319,424.1794l-59.2308,59.2308c-3.54504,3.54504-8.19266,5.31538-12.83913,5.3119-4.64618.00348-9.2938-1.76687-12.83884-5.31219l-59.2308-59.23051c-7.08341-7.08341-7.08341-18.56762,0-25.65074l2.9807-2.9807c7.08312-7.08341,18.56733-7.08341,25.65045,0l22.00662,22.00633v-126.63195c0-10.42942,8.45455-18.88397,18.88426-18.88397h4.38864c10.42942,0,18.88426,8.45455,18.88426,18.88397v127.33882l22.7132-22.7132c7.08341-7.08341,18.56733-7.08341,25.65074,0l2.9807,2.9807c7.08312,7.08312,7.08312,18.56733,0,25.65074Zm-148.97636-250.71036l22.00633,22.00648c7.08312,7.08312,18.56733,7.08312,25.65074,0l2.9807-2.98085c7.08312-7.08312,7.08312-18.56733,0-25.65059l-59.2308-59.2308c-3.54504-3.54504-8.19266-5.31553-12.83913-5.31205-4.64647-.00348-9.2938,1.76701-12.83884,5.31205l-59.23109,59.2308c-7.08312,7.08326-7.08312,18.56747,0,25.65059l2.98099,2.98085c7.08312,7.08312,18.56733,7.08312,25.65045,0l22.71349-22.71334v127.33867c0,10.42942,8.45455,18.88426,18.88397,18.88426h4.38893c10.42942,0,18.88426-8.45484,18.88426-18.88426v-126.63181Zm-289.59175,54.30057h131.84739c4.42253,0,8.00754-3.5853,8.00754-8.00769v-26.14206c0-4.42239-3.58501-8.00754-8.00754-8.00754H77.57507c-4.42224,0-8.00725,3.58516-8.00725,8.00754v26.14206c0,4.42239,3.58501,8.00769,8.00725,8.00769Zm0,94.36538h172.0146c4.42253,0,8.00754-3.5853,8.00754-8.00754v-26.14206c0-4.42253-3.58501-8.00754-8.00754-8.00754H77.57507c-4.42224,0-8.00725,3.58501-8.00725,8.00754v26.14206c0,4.42224,3.58501,8.00754,8.00725,8.00754Zm212.48832,52.20823H77.57507c-4.42224,0-8.00725,3.58501-8.00725,8.00754v26.14206c0,4.42224,3.58501,8.00754,8.00725,8.00754h212.48832c4.42224,0,8.00754-3.5853,8.00754-8.00754v-26.14206c0-4.42253-3.5853-8.00754-8.00754-8.00754Z"/></svg>