<?xml version="1.0" encoding="UTF-8"?><svg id="_レイヤー_2" xmlns="http://www.w3.org/2000/svg" viewBox="0 0 591.02334 591.02334"><defs><style>.cls-1{fill:#040000;fill-rule:evenodd;}</style></defs><path class="cls-1" d="m295.51167,36.41446l-103.09342,133.62143L23.08687,234.34654l97.73874,138.7943,6.32742,181.46803,163.4858-58.26506,173.24057,58.26506,3.22735-181.46803,100.82972-138.7943-167.42225-57.65594-105.00255-140.27614Zm-128.09402,335.10815l-.48183-13.87307-8.0002-11.34571-63.16517-89.6931,113.20276-42.99195,12.2912-4.68194,8.06384-10.42752,65.61976-85.05661,68.24711,91.18403,8.6002,11.47302,13.5458,4.66374,107.86627,37.13728-63.81065,87.82942-8.63658,11.89119-.25455,14.68219-2.10004,117.82104-112.90275-37.98275-15.30946-5.14556-15.20038,5.41828-103.47524,36.88274-4.10009-117.78469Z"/></svg>