<?xml version="1.0" encoding="utf-8"?>
<!-- Generator: Adobe Illustrator 21.0.2, SVG Export Plug-In . SVG Version: 6.00 Build 0)  -->
<svg version="1.1" id="レイヤー_2" xmlns="http://www.w3.org/2000/svg" xmlns:xlink="http://www.w3.org/1999/xlink" x="0px"
	 y="0px" viewBox="0 0 1000 1000" style="enable-background:new 0 0 1000 1000;" xml:space="preserve">
<style type="text/css">
	.st0{fill:#040000;}
	.st1{fill:#070001;}
</style>
<g id="Symbols">
	<g id="Lv1_x2F_Icons_x2F_stop">
		<g id="Lv1_x2F_Icon_x2F_stop">
			<path id="Oval" class="st0" d="M492.1,928.1c-228.6,0-413.9-185.3-413.9-413.9s185.3-413.9,413.9-413.9S906,285.7,906,514.2
				S720.7,928.1,492.1,928.1z M492.1,887.7c206.3,0,373.5-167.2,373.5-373.5S698.4,140.7,492.1,140.7S118.6,308,118.6,514.2
				S285.8,887.7,492.1,887.7z"/>
			<path id="Rectangle-4" class="st0" d="M300.3,504.1h363.4c11.1,0,20.2,9,20.2,20.2l0,0c0,11.1-9,20.2-20.2,20.2H300.3
				c-11.1,0-20.2-9-20.2-20.2l0,0C280.1,513.2,289.1,504.1,300.3,504.1z"/>
		</g>
	</g>
</g>
</svg>
