<svg id="レイヤー_2" data-name="レイヤー 2" xmlns="http://www.w3.org/2000/svg" viewBox="0 0 591.02 591.02"><defs><style>.cls-1{fill:#040000;}</style></defs><g id="Symbols"><g id="Lv1_Icons_stop" data-name="Lv1/Icons/stop"><g id="Lv1_Icon_stop" data-name="Lv1/Icon/stop"><path id="Oval" class="cls-1" d="M295.51,541.06C159.9,541.06,50,431.12,50,295.51S159.9,50,295.51,50,541.06,159.9,541.06,295.51,431.12,541.06,295.51,541.06Zm0-24c122.38,0,221.59-99.21,221.59-221.59S417.89,73.92,295.51,73.92,73.92,173.13,73.92,295.51,173.13,517.1,295.51,517.1Z"/><path id="Rectangle-4" class="cls-1" d="M181.72,289.52h215.6a12,12,0,0,1,12,12h0a12,12,0,0,1-12,12H181.72a12,12,0,0,1-12-12h0A12,12,0,0,1,181.72,289.52Z"/></g></g></g></svg>