<?xml version="1.0" encoding="UTF-8"?><svg id="_レイヤー_2" xmlns="http://www.w3.org/2000/svg" viewBox="0 0 591.02334 591.02334"><defs><style>.cls-1{fill:#040000;}</style></defs><g id="Symbols"><g id="Lv1_Icons_stop"><g id="Lv1_Icon_stop"><path id="Oval" class="cls-1" d="m295.51167,541.05745c-135.61119,0-245.54579-109.9346-245.54579-245.54579S159.90048,49.96588,295.51167,49.96588s245.54579,109.93459,245.54579,245.54579-109.9346,245.54579-245.54579,245.54579Zm0-23.95569c122.38083,0,221.5901-99.20927,221.5901-221.5901s-99.20927-221.5901-221.5901-221.5901-221.5901,99.20927-221.5901,221.5901,99.20927,221.5901,221.5901,221.5901Z"/><path id="Rectangle-4" class="cls-1" d="m181.72216,289.52275h215.60118c6.61517,0,11.97784,5.36267,11.97784,11.97784h0c0,6.61517-5.36267,11.97784-11.97784,11.97784h-215.60118c-6.61519,0-11.97784-5.36267-11.97784-11.97784h0c0-6.61517,5.36266-11.97784,11.97784-11.97784Z"/></g></g></g></svg>