<svg id="レイヤー_2" data-name="レイヤー 2" xmlns="http://www.w3.org/2000/svg" viewBox="0 0 591.02 591.02"><defs><style>.cls-1{fill:#050101;}</style></defs><title>storage</title><path class="cls-1" d="M537.52,145.26c0-20.54-13.86-35.51-25.5-44.45C499,90.8,481,82,458.38,74.67,414.57,60.43,356.73,52.59,295.51,52.59S176.45,60.43,132.65,74.67C110.07,82,92,90.8,79,100.81c-11.63,8.94-25.5,23.91-25.5,44.45a45.93,45.93,0,0,0,5,20.75h0a25.59,25.59,0,0,0-5,15.18v65.22a46,46,0,0,0,4.58,19.87,25.63,25.63,0,0,0-4.58,14.59v65.21A45.88,45.88,0,0,0,58.08,366a25.65,25.65,0,0,0-4.58,14.59v65.22c0,20.55,13.87,35.52,25.5,44.45,13,10,31.07,18.81,53.65,26.14,43.8,14.24,101.64,22.08,162.86,22.08s119.06-7.84,162.87-22.08C481,509,499,500.22,512,490.21c11.64-8.93,25.5-23.9,25.5-44.45V380.54a21.74,21.74,0,0,0-4.95-13.81,46.06,46.06,0,0,0,4.95-20.65V280.87a21.78,21.78,0,0,0-4.95-13.82,46,46,0,0,0,4.95-20.64V181.19a21.73,21.73,0,0,0-5.42-14.37A46.18,46.18,0,0,0,537.52,145.26ZM496,445.76c0,3.81-9.27,17.71-50.45,31.1-39.77,12.92-93.05,20-150,20s-110.25-7.12-150-20C104.3,463.47,95,449.57,95,445.76V400.87a218.75,218.75,0,0,0,37.62,15.81c43.8,14.23,101.64,22.08,162.86,22.08s119.06-7.85,162.87-22.08A218.63,218.63,0,0,0,496,400.87Zm0-99.68c0,3.82-9.27,17.72-50.45,31.1-39.77,12.93-93.05,20-150,20s-110.25-7.11-150-20C104.3,363.8,95,349.9,95,346.08V301.2A219.56,219.56,0,0,0,132.65,317c43.8,14.24,101.64,22.08,162.86,22.08S414.57,331.24,458.38,317A219.44,219.44,0,0,0,496,301.2Zm0-99.67c0,3.81-9.27,17.71-50.45,31.1-39.77,12.92-93.05,20-150,20s-110.25-7.12-150-20C104.3,264.12,95,250.22,95,246.41V200.05h0a220.47,220.47,0,0,0,37.63,15.81c43.8,14.23,101.64,22.08,162.86,22.08s119.06-7.85,162.87-22.08A218.63,218.63,0,0,0,496,200.05Zm-50.45-70c-39.77,12.93-93.05,20-150,20s-110.25-7.11-150-20C104.3,163,95,149.08,95,145.26s9.27-17.71,50.45-31.09c39.78-12.93,93.06-20,150-20s110.26,7.12,150,20C486.72,127.55,496,141.45,496,145.26S486.72,163,445.54,176.36Z"/></svg>