<?xml version="1.0" encoding="UTF-8"?><svg id="_レイヤー_2" xmlns="http://www.w3.org/2000/svg" viewBox="0 0 591.02334 591.02334"><defs><style>.cls-1{fill:#050101;}</style></defs><path class="cls-1" d="m537.52428,145.2644c0-20.5477-13.86727-35.51582-25.4998-44.45475-13.02425-10.00733-31.07417-18.80198-53.64919-26.13888-43.80525-14.23692-101.6452-22.07731-162.86362-22.07731s-119.0578,7.84039-162.86362,22.07731c-22.57443,7.33689-40.62494,16.13155-53.64919,26.13888-11.63254,8.93892-25.4998,23.90704-25.4998,44.45475,0,7.71002,1.95264,14.63439,5.00685,20.74962-.00087-.00145-.00181-.00319-.00261-.00492-3.2486,4.44658-5.00424,9.69475-5.00424,15.1825v65.21799c0,7.34443,1.77759,13.97214,4.58563,19.87068-2.97824,4.3165-4.58563,9.34102-4.58563,14.58601v65.21799c0,7.34443,1.77759,13.97214,4.58563,19.87068-2.97824,4.3165-4.58563,9.34102-4.58563,14.58601v65.21799c0,20.5477,13.86727,35.5164,25.4998,44.45475,13.02425,10.00791,31.07475,18.80198,53.64919,26.13888,43.80582,14.23692,101.6452,22.07731,162.86362,22.07731s119.05838-7.84039,162.86362-22.07731c22.57501-7.33689,40.62494-16.13097,53.64919-26.13888,11.63254-8.93834,25.4998-23.90704,25.4998-44.45475v-65.21799c0-5.06856-1.75007-9.88768-4.95644-13.81136,3.02459-6.08974,4.95644-12.97876,4.95644-20.64533v-65.21799c0-5.06856-1.75007-9.88768-4.95644-13.81136,3.02459-6.08974,4.95644-12.97876,4.95644-20.64533v-65.21799c0-5.3119-1.91824-10.35265-5.42489-14.37279,3.28996-6.31136,5.42489-13.50254,5.42489-21.55441Zm-41.53112,300.49454c0,3.81301-9.26918,17.71098-50.4544,31.09619-39.77033,12.92517-93.05102,20.04363-150.0271,20.04363s-110.25619-7.11846-150.0271-20.04363c-41.18522-13.38521-50.4544-27.28319-50.4544-31.09619v-44.88408c10.6049,5.82032,23.18121,11.11108,37.61787,15.80303,43.80582,14.23692,101.6452,22.07731,162.86362,22.07731s119.05838-7.84039,162.86362-22.07731c14.43696-4.69195,27.01319-9.98271,37.61787-15.80303v44.88408Zm0-99.67468c0,3.81301-9.26918,17.71098-50.4544,31.09619-39.77033,12.92517-93.05102,20.04363-150.0271,20.04363s-110.25619-7.11846-150.0271-20.04363c-41.18522-13.38521-50.4544-27.28319-50.4544-31.09619v-44.88408c10.6049,5.82032,23.18121,11.11108,37.61787,15.80303,43.80582,14.23692,101.6452,22.07731,162.86362,22.07731s119.05838-7.84039,162.86362-22.07731c14.43696-4.69195,27.01319-9.98271,37.61787-15.80303v44.88408Zm0-99.67468c0,3.81301-9.26918,17.71098-50.4544,31.09619-39.77033,12.92517-93.05102,20.04363-150.0271,20.04363s-110.25619-7.11846-150.0271-20.04363c-41.18522-13.38521-50.4544-27.28319-50.4544-31.09619v-46.35459c-.00377-.00203-.00746-.00406-.0113-.00637,10.60729,5.82293,23.18736,11.11572,37.62917,15.8094,43.80582,14.23692,101.6452,22.07731,162.86362,22.07731s119.05838-7.84039,162.86362-22.07731c14.43696-4.69195,27.01319-9.98271,37.61787-15.80303v46.35459Zm-50.4544-70.04899c-39.77033,12.92517-93.05102,20.04363-150.0271,20.04363s-110.25619-7.11846-150.0271-20.04363c-41.18522-13.38521-50.4544-27.28319-50.4544-31.09619s9.26918-17.7104,50.4544-31.09619c39.77091-12.92517,93.0516-20.04363,150.0271-20.04363s110.25677,7.11846,150.0271,20.04363c41.18522,13.38579,50.4544,27.28319,50.4544,31.09619s-9.26918,17.71098-50.4544,31.09619Z"/></svg>