<?xml version="1.0" encoding="utf-8"?>
<!-- Generator: Adobe Illustrator 22.0.1, SVG Export Plug-In . SVG Version: 6.00 Build 0)  -->
<svg version="1.1" id="レイヤー_2" xmlns="http://www.w3.org/2000/svg" xmlns:xlink="http://www.w3.org/1999/xlink" x="0px"
	 y="0px" viewBox="0 0 1000 1000" style="enable-background:new 0 0 1000 1000;" xml:space="preserve">
<style type="text/css">
	.st0{fill:#040000;}
	.st1{fill:#070001;}
	.st2{fill:#231916;}
	.st3{fill-rule:evenodd;clip-rule:evenodd;fill:#070102;}
	.st4{fill:#050101;}
</style>
<path class="st4" d="M915.7,258.6c0-34.6-23.4-59.9-43-74.9c-22-16.9-52.4-31.7-90.4-44.1c-73.8-24-171.3-37.2-274.5-37.2
	s-200.7,13.2-274.5,37.2c-38,12.4-68.5,27.2-90.4,44.1c-19.6,15.1-43,40.3-43,74.9c0,13,3.3,24.7,8.4,35c0,0,0,0,0,0
	c-5.5,7.5-8.4,16.3-8.4,25.6v109.9c0,12.4,3,23.5,7.7,33.5c-5,7.3-7.7,15.7-7.7,24.6v109.9c0,12.4,3,23.5,7.7,33.5
	c-5,7.3-7.7,15.7-7.7,24.6v109.9c0,34.6,23.4,59.9,43,74.9c22,16.9,52.4,31.7,90.4,44.1c73.8,24,171.3,37.2,274.5,37.2
	c103.2,0,200.7-13.2,274.5-37.2c38-12.4,68.5-27.2,90.4-44.1c19.6-15.1,43-40.3,43-74.9V655.2c0-8.5-2.9-16.7-8.4-23.3
	c5.1-10.3,8.4-21.9,8.4-34.8V487.2c0-8.5-2.9-16.7-8.4-23.3c5.1-10.3,8.4-21.9,8.4-34.8V319.2c0-9-3.2-17.4-9.1-24.2
	C912.1,284.3,915.7,272.2,915.7,258.6z M845.7,765.1c0,6.4-15.6,29.9-85,52.4c-67,21.8-156.8,33.8-252.9,33.8s-185.8-12-252.9-33.8
	c-69.4-22.6-85-46-85-52.4v-75.7c17.9,9.8,39.1,18.7,63.4,26.6c73.8,24,171.3,37.2,274.5,37.2c103.2,0,200.7-13.2,274.5-37.2
	c24.3-7.9,45.5-16.8,63.4-26.6V765.1z M845.7,597.1c0,6.4-15.6,29.9-85,52.4c-67,21.8-156.8,33.8-252.9,33.8s-185.8-12-252.9-33.8
	c-69.4-22.6-85-46-85-52.4v-75.7c17.9,9.8,39.1,18.7,63.4,26.6c73.8,24,171.3,37.2,274.5,37.2c103.2,0,200.7-13.2,274.5-37.2
	c24.3-7.9,45.5-16.8,63.4-26.6V597.1z M845.7,429.1c0,6.4-15.6,29.9-85,52.4c-67,21.8-156.8,33.8-252.9,33.8s-185.8-12-252.9-33.8
	c-69.4-22.6-85-46-85-52.4V351c0,0,0,0,0,0c17.9,9.8,39.1,18.7,63.4,26.6c73.8,24,171.3,37.2,274.5,37.2
	c103.2,0,200.7-13.2,274.5-37.2c24.3-7.9,45.5-16.8,63.4-26.6V429.1z M760.6,311c-67,21.8-156.8,33.8-252.9,33.8
	s-185.8-12-252.9-33.8c-69.4-22.6-85-46-85-52.4c0-6.4,15.6-29.9,85-52.4c67-21.8,156.8-33.8,252.9-33.8c96,0,185.8,12,252.9,33.8
	c69.4,22.6,85,46,85,52.4C845.7,265,830,288.5,760.6,311z"/>
</svg>
