<svg id="レイヤー_2" data-name="レイヤー 2" xmlns="http://www.w3.org/2000/svg" viewBox="0 0 591.02 591.02"><defs><style>.cls-1{fill:#040000;}</style></defs><path class="cls-1" d="M498.05,222.54V175.86a48.65,48.65,0,0,0-48.59-48.59H327.9a48.36,48.36,0,0,0-32.36,12.39,48.41,48.41,0,0,0-32.42-12.41H141.57A48.59,48.59,0,0,0,93,175.84v46.7a48.47,48.47,0,0,0-17.26,37.12V415.18a48.58,48.58,0,0,0,48.59,48.59h342.4a48.58,48.58,0,0,0,48.59-48.59V259.66A48.46,48.46,0,0,0,498.05,222.54ZM327.9,159.67H449.46a16.2,16.2,0,0,1,16.19,16.19v35H311.71V175.84h0A16.21,16.21,0,0,1,327.9,159.67ZM116.75,245.33l8.62-4.56V175.84a16.19,16.19,0,0,1,16.2-16.19H263.12a16.18,16.18,0,0,1,16.19,16.18v67.46h0v.18h187.4a16.19,16.19,0,0,1,16.2,16.19V415.18a16.2,16.2,0,0,1-16.2,16.2H124.31a16.2,16.2,0,0,1-16.2-16.2V259.66a16.21,16.21,0,0,1,8.64-14.33"/></svg>