<?xml version="1.0" encoding="UTF-8"?><svg id="_イヤー_2" xmlns="http://www.w3.org/2000/svg" viewBox="0 0 591.02334 591.02334"><defs><style>.cls-1{fill:#040000;}</style></defs><path class="cls-1" d="M498.04689,222.53926v-46.67773c0-26.79395-21.7959-48.58984-48.58997-48.58984h-121.55383c-12.42236,0-23.76514,4.69043-32.36487,12.38672-8.60034-7.71094-19.96045-12.40625-32.42004-12.40625h-121.54944c-26.83557,0-48.58997,21.75439-48.58997,48.58984v46.69385c-10.53564,8.90039-17.25842,22.21924-17.25842,37.12891v155.5166c0,26.83594,21.75452,48.58984,48.58997,48.58984H466.71302c26.8363,0,48.58997-21.75391,48.58997-48.58984v-155.5166c0-14.89209-6.7063-28.2124-17.2561-37.12549Zm-170.1438-62.87402h121.55383c8.93665,0,16.19666,7.26758,16.19666,16.19629v35.03467h-153.94556v-35.0542l-.00024-.00684c.01465-8.9165,7.2677-16.16992,16.19531-16.16992ZM116.75355,245.33174l8.61853-4.5625v-64.92725c0-8.94482,7.25146-16.19629,16.19666-16.19629h121.54944c8.93884,0,16.18799,7.24365,16.1958,16.18213l-.00073,.03369v67.42822h.00146v.17822h187.39832c8.94543,0,16.19666,7.25195,16.19666,16.19678v155.5166c0,8.94531-7.25122,16.19629-16.19666,16.19629H124.31031c-8.94519,0-16.19678-7.25098-16.19678-16.19629v-155.5166c0-6.18896,3.46655-11.59424,8.64001-14.33301"/></svg>