<?xml version="1.0" encoding="utf-8"?>
<!-- Generator: Adobe Illustrator 22.1.0, SVG Export Plug-In . SVG Version: 6.00 Build 0)  -->
<svg version="1.1" id="レイヤー_2" xmlns="http://www.w3.org/2000/svg" xmlns:xlink="http://www.w3.org/1999/xlink" x="0px"
	 y="0px" viewBox="0 0 1000 1000" style="enable-background:new 0 0 1000 1000;" xml:space="preserve">
<style type="text/css">
	.st0{fill:#040000;}
	.st1{fill:#070001;}
	.st2{fill:#231916;}
	.st3{fill-rule:evenodd;clip-rule:evenodd;fill:#070102;}
	.st4{fill:#050101;}
</style>
<path class="st0" d="M707.3,704c-37-34.9-89.8-72.9-116.6-56.8s-23.4,65.1-30.2,63.2c-6.8-1.9-87.8-48-159.4-160.1
	c-70.4-112-61.4-211.8-59.7-218.6c1.7-6.8,42.6,20.4,69.8,5.1c27.3-15.3,20.4-80,8.5-129.4c-11.9-49.4-39.2-97.1-61.3-103.9
	c-22.1-6.8-56.2,18.7-92,66.4c-35.8,47.7-75,166.9,62.7,420C472.6,829.2,604.6,863,663.8,855.6c59.1-7.4,98.2-24.3,103.3-46.9
	S744.2,738.8,707.3,704z"/>
</svg>
