<?xml version="1.0" encoding="UTF-8"?><svg id="_イヤー_2" xmlns="http://www.w3.org/2000/svg" viewBox="0 0 591.02334 591.02334"><defs><style>.cls-1{fill:#040000;}</style></defs><path class="cls-1" d="M418.46899,428.71475c-21.93432-20.6797-53.26868-43.23902-69.18586-33.71299-15.91718,9.52603-13.91092,38.60348-17.92147,37.47551-4.01087-1.12797-52.11703-28.4952-94.55934-94.9657-41.76862-66.4705-36.44261-125.63602-35.43208-129.67782,1.01053-4.04212,25.26196,12.12572,41.4298,3.03126,16.16751-9.09445,12.12572-47.49266,5.05233-76.79642-7.07339-29.30409-23.24123-57.59732-36.37748-61.63944-13.13625-4.0418-33.34588,11.11519-54.56572,39.40874-21.22017,28.29356-44.51447,99.02043,37.20873,249.20284,85.12673,141.97338,163.44125,162.05275,198.53484,157.6649,35.09359-4.38752,58.28021-14.4152,61.28779-27.82612,3.00758-13.41092-13.53724-41.4854-35.47155-62.16477Z"/></svg>