<svg id="レイヤー_2" data-name="レイヤー 2" xmlns="http://www.w3.org/2000/svg" viewBox="0 0 591.02 591.02"><defs><style>.cls-1{fill:#070001;}</style></defs><path class="cls-1" d="M503.73,273.15a63.19,63.19,0,0,0-12.79-65.21,63.44,63.44,0,0,0-21.57-61.49,59,59,0,0,0-57.68-67.72,530.41,530.41,0,0,0-67.49,0h-4a58.8,58.8,0,0,0-14,1.68c-38.73,4.58-63.5,14.16-81.64,21.17-10,3.88-18,7-25.39,8.19-29.72,5-49.4,8.89-61.72,11.57A23.57,23.57,0,0,0,141,114.65H94.54a23.67,23.67,0,0,0-23.66,23.66V296.87a23.66,23.66,0,0,0,23.66,23.66H141A23.68,23.68,0,0,0,163.2,305c1.41,3.37,2.88,7.3,4.11,10.62,6.27,16.81,14.84,39.84,34.52,63.8,27,32.88,28,59.74,28.86,81.33.59,15.36,1.2,31.24,13.47,42.36,9.36,8.47,21.63,10.23,31.76,10.23,2.27,0,4.43-.08,6.43-.21,19.78-1.2,39.11-17.86,51.72-44.57a121.08,121.08,0,0,0,11.77-50.07,92.38,92.38,0,0,0-8.09-39.71H457a63.18,63.18,0,0,0,46.78-105.65Zm-386,13.61A16.77,16.77,0,1,1,134.53,270,16.77,16.77,0,0,1,117.76,286.76ZM457,338.8H322.7l-.78.06c-6.54.52-23.9,1.89-30.8,16.85-4.54,9.86-2.41,21,6.33,33,12.45,17.16,9.25,41.76,2.1,59.06-7.44,18-17.19,25.05-19.63,25.45a43.91,43.91,0,0,1-8.27-.12,124.62,124.62,0,0,1-1-13.88c-.89-23.15-2.38-61.89-37.92-105.18-15.43-18.79-22.37-37.41-27.94-52.37s-10.36-27.82-21.61-36.06a68.23,68.23,0,0,0-17.63-9.48V160.52c11.48-2.51,30.64-6.33,60.24-11.3,11.43-1.92,22-6,33.19-10.33,17.25-6.67,38.72-15,73.15-18.9l1.53-.18,1.48-.4a19.11,19.11,0,0,1,5-.68h5.45l.71,0a490.19,490.19,0,0,1,63.51,0l1.19,0a19,19,0,0,1,19,19,18.79,18.79,0,0,1-2,8.55l-9.7,19.13L438,173.74a23.17,23.17,0,0,1,14.19,21.39,22.93,22.93,0,0,1-2.44,10.35l-8.08,16.16L457,231.31a23.18,23.18,0,0,1,5.68,34.15l-14.79,18.33,20.49,11.63A23.19,23.19,0,0,1,457,338.8Z"/></svg>