<?xml version="1.0" encoding="UTF-8"?><svg id="_イヤー_2" xmlns="http://www.w3.org/2000/svg" viewBox="0 0 591.02334 591.02334"><defs><style>.cls-1{fill:#040000;}</style></defs><path class="cls-1" d="M504.22773,317.87056c10.39453-11.4707,16.41406-26.56299,16.41406-42.45557,0-34.84521-28.34863-63.19385-63.19434-63.19385h-119.19531c5.4707-11.89062,8.23926-25.36768,8.08887-39.70996-.17578-16.81689-4.24609-34.13135-11.77246-50.07227-12.6084-26.70654-31.94238-43.36816-51.71777-44.5708-10.91504-.66211-26.73535-.34473-38.1875,10.02539-12.27832,11.11816-12.8877,27.00244-13.47754,42.36377-.82812,21.58496-1.85938,48.44775-28.85938,81.3291-19.6709,23.95654-28.24902,46.98291-34.5127,63.79639-2.47754,6.65088-5.8623,15.73486-7.91406,17.86475-.81018,.58832-1.58423,1.09912-2.32568,1.5531-4.30756-4.5014-10.37024-7.30939-17.09253-7.30939h-46.4386c-13.06775,0-23.66125,10.59351-23.66125,23.66125v158.55792c0,13.06775,10.59351,23.66125,23.66125,23.66125h46.4386c12.63837,0,22.96094-9.90924,23.62579-22.3819,12.3996,2.58282,30.37811,6.03149,55.57074,10.26068,7.42383,1.24512,15.35254,4.31055,25.39062,8.19043,18.14551,7.01367,42.91602,16.58984,81.6416,21.17285,4.57812,1.11523,9.26953,1.67969,13.97363,1.67969h4.01758c10.21387,.71387,20.98633,1.07129,32.25,1.07129,11.2793,0,23.05273-.3584,35.23438-1.0752,32.22754-.34863,58.33496-26.67285,58.33496-58.98145,0-2.92188-.2207-5.84277-.65527-8.73145,14.26855-11.80273,22.86621-29.50098,22.86621-48.68164,0-4.35547-.43359-8.63281-1.29492-12.80957,10.7373-11.53223,16.84668-26.75586,16.84668-42.98047,0-7.62402-1.39746-15.16504-4.05566-22.23438ZM117.2621,459.59798c-9.26056,0-16.7677-7.50714-16.7677-16.7677s7.50714-16.7677,16.7677-16.7677,16.7677,7.50714,16.7677,16.7677-7.50714,16.7677-16.7677,16.7677Zm351.58868-163.99109l-20.49707,11.62207,14.79688,18.33691c2.3418,2.90137,5.13281,7.77832,5.13281,14.53906,0,7.9834-4.04199,15.3125-10.8125,19.60547l-15.2627,9.67871,8.08789,16.16211c1.61621,3.22949,2.43555,6.70898,2.43555,10.34375,0,9.35352-5.56934,17.74805-14.18945,21.38672l-19.7627,8.33984,9.70117,19.13184c1.35352,2.66895,2.04004,5.54688,2.04004,8.55469,0,10.46875-8.5166,18.98535-18.98535,18.98535l-1.19043,.03516c-23.09668,1.37793-44.46387,1.38086-63.50391,.0166l-.71484-.05176h-5.44238c-1.69238,0-3.38379-.22852-5.0293-.67871l-1.4834-.40625-1.52734-.1748c-34.42969-3.93359-55.90039-12.2334-73.15234-18.90234-11.19043-4.3252-21.75977-8.41113-33.19238-10.3291-29.61035-4.9707-48.76465-8.79395-60.24316-11.29297v-95.62109c5.37988-1.90723,11.3623-4.88672,17.63086-9.48145,11.24805-8.24414,16.0498-21.13379,21.61035-36.06006,5.57324-14.96143,12.50977-33.58105,27.94336-52.37646,35.54004-43.28223,37.02734-82.02832,37.91602-105.17871,.17773-4.61816,.4082-10.62207,.99219-13.87793,1.47852-.20752,4.04688-.37598,8.19531-.12646,2.51953,.40381,12.26074,7.45605,19.70312,25.45947,7.15137,17.30029,10.35645,41.89893-2.09668,59.0542-8.74609,12.04883-10.87402,23.15723-6.32617,33.01709,6.90137,14.96143,24.25879,16.32715,30.79297,16.8418l.7832,.06152h134.24707c12.78906,0,23.19434,10.40479,23.19434,23.19385,0,8.33154-4.51758,16.06885-11.79102,20.19189Z"/></svg>