<?xml version="1.0" encoding="UTF-8"?><svg id="_レイヤー_2" xmlns="http://www.w3.org/2000/svg" viewBox="0 0 591.02334 591.02334"><defs><style>.cls-1{fill:#070001;}</style></defs><path class="cls-1" d="m503.72847,273.15364c2.6582-7.07031,4.05566-14.61035,4.05566-22.23535,0-16.22461-6.10938-31.44727-16.84766-42.98047.8623-4.17773,1.2959-8.4541,1.2959-12.80859,0-19.18066-8.59863-36.87988-22.86621-48.68262.43457-2.88867.65527-5.80957.65527-8.73145,0-32.30859-26.10742-58.63281-58.33398-58.98145-24.35645-1.43262-47.05176-1.43262-67.48535-.00391h-4.01855c-4.7041,0-9.39551.56445-13.97363,1.67969-38.72754,4.58398-63.49707,14.15918-81.64258,21.17383-10.03711,3.87988-17.96582,6.94531-25.38867,8.19141-29.71545,4.98743-49.39673,8.88983-61.71948,11.56567-4.26074-4.13715-10.06958-6.68854-16.47754-6.68854h-46.4386c-13.06775,0-23.66125,10.59351-23.66125,23.66125v158.55792c0,13.06775,10.59351,23.66125,23.66125,23.66125h46.4386c10.20325,0,18.89771-6.45837,22.21936-15.51007,1.41101,3.36639,2.87476,7.29553,4.11243,10.61774,6.26367,16.81348,14.84082,39.84082,34.5127,63.79785,27,32.88086,28.03125,59.74414,28.86035,81.32812.58984,15.36133,1.19922,31.24609,13.47754,42.36426,9.35645,8.47168,21.63086,10.23438,31.75879,10.23438,2.26953,0,4.43164-.08789,6.42871-.20996,19.77539-1.20215,39.10938-17.86426,51.71777-44.57031,7.52637-15.94043,11.59668-33.25586,11.77246-50.07227.15039-14.3418-2.61816-27.81934-8.08887-39.70996h119.19531c34.84473,0,63.19336-28.34863,63.19336-63.19336,0-15.8916-6.01953-30.98438-16.41309-42.45508Zm-385.96606,13.60504c-9.26062,0-16.76782-7.5072-16.76782-16.76776s7.5072-16.7677,16.76782-16.7677,16.76758,7.5072,16.76758,16.7677-7.50708,16.76776-16.76758,16.76776Zm339.18579,52.0434h-134.24707l-.78418.06152c-6.53418.51465-23.89258,1.88184-30.79297,16.84277-4.54785,9.86035-2.41895,20.96875,6.32715,33.0166,12.45312,17.1543,9.24805,41.75293,2.09668,59.05371-7.44238,18.00391-17.18359,25.05566-19.62402,25.45215-4.2002.25586-6.78711.08594-8.27539-.12109-.58398-3.25586-.81445-9.25879-.99121-13.87598-.88965-23.15039-2.37695-61.89551-37.91699-105.17871-15.43359-18.79492-22.36914-37.41504-27.94336-52.37598-5.55957-14.92578-10.36133-27.81641-21.60938-36.06055-6.26758-4.59473-12.25195-7.5752-17.63184-9.48145v-95.61914c11.4873-2.50195,30.63965-6.32422,60.24414-11.29395,11.43262-1.91895,22.00098-6.00391,33.19043-10.3291,17.25195-6.66992,38.72266-14.96973,73.15332-18.90332l1.52734-.1748,1.4834-.40625c1.64551-.4502,3.33691-.67871,5.0293-.67871h5.44336l.71484-.05176c19.03418-1.36523,40.40039-1.36035,63.50488.0166l1.18945.03516c10.46875,0,18.98535,8.5166,18.98535,18.98535,0,3.00684-.68652,5.88574-2.04102,8.55762l-9.7002,19.13184,19.7627,8.33887c8.62012,3.63672,14.18945,12.03125,14.18945,21.38574,0,3.63281-.82031,7.11426-2.4375,10.34766l-8.08301,16.16016,15.26074,9.67676c6.76953,4.29297,10.81152,11.62207,10.81152,19.60449,0,6.75977-2.79102,11.6377-5.13281,14.54004l-14.7959,18.33594,20.49512,11.62109c7.27344,4.12402,11.79102,11.86133,11.79102,20.19336,0,12.78906-10.4043,23.19336-23.19336,23.19336Z"/></svg>