<svg id="レイヤー_2" data-name="レイヤー 2" xmlns="http://www.w3.org/2000/svg" viewBox="0 0 591.02 591.02"><defs><style>.cls-1{fill:#040000;}</style></defs><path class="cls-1" d="M504.23,317.87a63.18,63.18,0,0,0-46.78-105.65H338.25a92.38,92.38,0,0,0,8.09-39.71,121.24,121.24,0,0,0-11.77-50.07C322,95.73,302.63,79.07,282.85,77.87c-10.91-.66-26.73-.35-38.19,10-12.28,11.12-12.88,27-13.47,42.37-.83,21.58-1.86,48.45-28.86,81.33-19.67,23.95-28.25,47-34.52,63.79-2.47,6.65-5.86,15.74-7.91,17.87-.81.59-1.58,1.1-2.33,1.55a23.58,23.58,0,0,0-17.09-7.31H94a23.66,23.66,0,0,0-23.66,23.66V469.71A23.66,23.66,0,0,0,94,493.37h46.44A23.67,23.67,0,0,0,164.11,471c12.4,2.58,30.38,6,55.57,10.26,7.42,1.25,15.35,4.31,25.39,8.19,18.14,7,42.91,16.59,81.64,21.17a58.8,58.8,0,0,0,14,1.68h4c10.22.72,21,1.07,32.25,1.07s23.05-.35,35.24-1.07a59,59,0,0,0,57.68-67.71,63.44,63.44,0,0,0,21.57-61.49,63.21,63.21,0,0,0,12.79-65.22Zm-387,141.73A16.77,16.77,0,1,1,134,442.83,16.77,16.77,0,0,1,117.26,459.6Zm351.59-164-20.5,11.62,14.8,18.34a23.17,23.17,0,0,1-5.68,34.14l-15.26,9.68,8.09,16.16a23.22,23.22,0,0,1-11.76,31.73l-19.76,8.34,9.7,19.13a18.8,18.8,0,0,1,2,8.56,19,19,0,0,1-19,19l-1.2,0a490.16,490.16,0,0,1-63.5,0l-.71-.06h-5.45a19.11,19.11,0,0,1-5-.68l-1.48-.4-1.53-.18c-34.43-3.93-55.9-12.23-73.15-18.9-11.19-4.32-21.76-8.41-33.19-10.33-29.61-5-48.77-8.79-60.24-11.29V334.89a68.85,68.85,0,0,0,17.63-9.48c11.24-8.25,16.05-21.14,21.61-36.06s12.51-33.58,27.94-52.38c35.54-43.28,37-82,37.92-105.18a124.62,124.62,0,0,1,1-13.88,43.14,43.14,0,0,1,8.19-.12c2.52.4,12.26,7.45,19.71,25.46,7.15,17.3,10.35,41.9-2.1,59.05-8.75,12-10.87,23.16-6.33,33,6.91,15,24.26,16.32,30.8,16.84l.78.06H457.45a23.19,23.19,0,0,1,11.4,43.39Z"/></svg>