<?xml version="1.0" encoding="UTF-8"?><svg id="_レイヤー_2" xmlns="http://www.w3.org/2000/svg" viewBox="0 0 591.02334 591.02334"><defs><style>.cls-1{fill:#040000;}</style></defs><path class="cls-1" d="m40.61228,385.21319v27.9629c0,5.2934,4.29076,9.58554,9.58567,9.58554h25.01265c.37262-18.64911,8.44501-35.30314,21.16201-47.13411h-46.17467c-5.29491,0-9.58567,4.29076-9.58567,9.58567Z"/><path class="cls-1" d="m313.83155,375.62752h-127.33614c12.71713,11.83097,20.78952,28.485,21.16214,47.13411h106.174c5.29504,0,9.58567-4.29214,9.58567-9.58554v-27.9629c0-5.29491-4.29063-9.58567-9.58567-9.58567Z"/><path class="cls-1" d="m141.43408,379.04371c-24.87325,0-45.03703,20.16378-45.03703,45.03703s20.16378,45.03552,45.03703,45.03552,45.03552-20.16239,45.03552-45.03552-20.16239-45.03703-45.03552-45.03703Zm0,69.1061c-13.29388,0-24.07058-10.77519-24.07058-24.06907s10.7767-24.07058,24.07058-24.07058,24.07046,10.7767,24.07046,24.07058-10.77657,24.06907-24.07046,24.06907Z"/><path class="cls-1" d="m453.30378,379.04371c-24.87186,0-45.03552,20.16378-45.03552,45.03703s20.16365,45.03552,45.03552,45.03552c24.87312,0,45.03703-20.16239,45.03703-45.03552s-20.16391-45.03703-45.03703-45.03703Zm0,69.1061c-13.2925,0-24.0692-10.77519-24.0692-24.06907s10.7767-24.07058,24.0692-24.07058c13.29401,0,24.07046,10.7767,24.07046,24.07058s-10.77645,24.06907-24.07046,24.06907Z"/><path class="cls-1" d="m557.98478,322.43336c-.30047-.82999-.11938-1.75355-.69336-2.48709l-77.5399-93.37653s-3.832-3.74561-9.85188-3.46656h-114.36816c-4.7208,0-8.54701,3.82621-8.54701,8.54714v181.50272c0,4.72093,3.82621,8.54714,8.54701,8.54714h31.65814c1.28321-35.51747,30.28301-63.97527,66.11417-63.97527s64.83247,28.4578,66.11542,63.97527h31.12169c4.72106,0,8.54726-3.82621,8.54726-8.54714v-86.75118c0-1.4585-.45888-2.76753-1.10338-3.96851Zm-57.40244-15.30483c-8.29364-.4143-112.52759,0-112.52759,0,0,0-7.05098,0-7.46554-9.12389-.41405-9.12389-.41405-43.95958-.41405-43.95958,0,0,.41405-7.87972,7.46403-7.46541,7.05098.4143,63.41653,0,63.41653,0,0,0,8.7082.82999,16.17349,9.53819,7.46529,8.70958,37.50021,43.96097,37.50021,43.96097,0,0,4.14707,7.46541-4.14707,7.04972Z"/><path class="cls-1" d="m110.75906,285.80192h133.56229c8.27715,0,14.98712-6.70997,14.98712-14.98712s-6.70997-14.98724-14.98712-14.98724H110.75906c-8.27715,0-14.98712,6.70997-14.98712,14.98724s6.70997,14.98712,14.98712,14.98712Z"/><path class="cls-1" d="m54.55734,191.33725c-8.27715,0-14.98712,6.70997-14.98712,14.98712v125.23011c-.08714.65382-.14771,1.31583-.14771,1.99345,0,8.27727,6.70997,14.98724,14.98712,14.98724h253.34411c5.70733,0,10.66765-3.19153,13.19881-7.88639,1.20791-2.16068,1.90303-4.64714,1.90303-7.29856v-188.92582c0-4.15627-1.69348-7.91573-4.42613-10.63062-2.71829-2.76073-6.49539-4.47575-10.6757-4.47575H54.40963c-8.27715,0-14.98712,6.70997-14.98712,14.98712s6.70997,14.98724,14.98712,14.98724h238.47147v159.26843H69.54446v-112.23644c0-8.27715-6.70997-14.98712-14.98712-14.98712Z"/><path class="cls-1" d="m110.75906,221.88609h133.56229c8.27715,0,14.98712-6.70997,14.98712-14.98712s-6.70997-14.98724-14.98712-14.98724H110.75906c-8.27715,0-14.98712,6.71009-14.98712,14.98724s6.70997,14.98712,14.98712,14.98712Z"/></svg>