<svg id="レイヤー_2" data-name="レイヤー 2" xmlns="http://www.w3.org/2000/svg" viewBox="0 0 591.02 591.02"><defs><style>.cls-1{fill:#040000;}</style></defs><path class="cls-1" d="M40.61,385.21v28a9.58,9.58,0,0,0,9.59,9.58h25a65.94,65.94,0,0,1,21.16-47.13H50.2A9.58,9.58,0,0,0,40.61,385.21Z"/><path class="cls-1" d="M313.83,375.63H186.5a66,66,0,0,1,21.16,47.13H313.83a9.58,9.58,0,0,0,9.59-9.58v-28A9.58,9.58,0,0,0,313.83,375.63Z"/><path class="cls-1" d="M141.43,379a45,45,0,1,0,45,45A45,45,0,0,0,141.43,379Zm0,69.11a24.07,24.07,0,1,1,24.07-24.07A24.07,24.07,0,0,1,141.43,448.15Z"/><path class="cls-1" d="M453.3,379a45,45,0,1,0,45,45A45,45,0,0,0,453.3,379Zm0,69.11a24.07,24.07,0,1,1,24.07-24.07A24.07,24.07,0,0,1,453.3,448.15Z"/><path class="cls-1" d="M558,322.43c-.3-.83-.11-1.75-.69-2.48l-77.54-93.38a14.05,14.05,0,0,0-9.85-3.47H355.53a8.55,8.55,0,0,0-8.55,8.55v181.5a8.55,8.55,0,0,0,8.55,8.55h31.66a66.15,66.15,0,0,1,132.23,0h31.12a8.55,8.55,0,0,0,8.55-8.55V326.4A8.27,8.27,0,0,0,558,322.43Zm-57.4-15.3c-8.29-.42-112.53,0-112.53,0s-7.05,0-7.46-9.13-.41-43.95-.41-43.95.41-7.88,7.46-7.47,63.42,0,63.42,0,8.7.83,16.17,9.54,37.5,44,37.5,44S508.88,307.54,500.58,307.13Z"/><path class="cls-1" d="M110.76,285.8H244.32a15,15,0,1,0,0-30H110.76a15,15,0,1,0,0,30Z"/><path class="cls-1" d="M54.56,191.34a15,15,0,0,0-15,15V331.55a14.71,14.71,0,0,0-.15,2,15,15,0,0,0,15,15H307.75a15.29,15.29,0,0,0,15.11-15.19V144.42a15.19,15.19,0,0,0-15.11-15.1H54.41a15,15,0,1,0,0,30H292.88V318.56H69.54V206.32A15,15,0,0,0,54.56,191.34Z"/><path class="cls-1" d="M110.76,221.89H244.32a15,15,0,1,0,0-30H110.76a15,15,0,0,0,0,30Z"/></svg>