<?xml version="1.0" encoding="UTF-8"?><svg id="_イヤー_2" xmlns="http://www.w3.org/2000/svg" viewBox="0 0 591.02334 591.02334"><defs><style>.cls-1{fill:#050101;}</style></defs><path class="cls-1" d="M295.51169,459.82061c6.61566,0,11.97876-5.3631,11.97876-11.97876V232.242c0-6.61572-5.3631-11.97876-11.97876-11.97876s-11.97876,5.36304-11.97876,11.97876v215.59985c0,6.61566,5.36304,11.97876,11.97876,11.97876Z"/><path class="cls-1" d="M370.19711,459.18212c6.5816,.67084,12.46088-4.12073,13.13171-10.70233l21.86261-214.48853c.67084-6.58154-4.12079-12.46094-10.70233-13.13171-6.5816-.67078-12.46088,4.12073-13.13171,10.70227l-21.86261,214.48859c-.67084,6.5816,4.12073,12.46082,10.70233,13.13171Z"/><path class="cls-1" d="M207.7363,448.48852c.67084,6.58154,6.55011,11.37317,13.13171,10.70233,6.5816-.6709,11.37317-6.55017,10.70233-13.13171l-21.86267-214.48853c-.67084-6.58154-6.55011-11.37317-13.13165-10.70239-6.5816,.6709-11.37323,6.55017-10.70233,13.13184l21.86261,214.48846Z"/><path class="cls-1" d="M522.91831,124.94341h-48.07147c-1.91034-.23181-3.84052-.32739-5.78253-.27881h-66.86072l-7.33759-47.45825c-3.4649-20.51636-17.4787-35.31934-33.81824-35.71094l-131.78412,.51025c-16.33362,.50439-30.22278,15.4259-33.52155,35.98975l-7.20673,46.66919H119.82913c-1.93488-.04688-3.85754,.0481-5.75995,.27881h-45.96411c-15.03357,0-27.22064,12.18701-27.22064,27.2207v.00586c0,15.03357,12.18707,27.2207,27.22064,27.2207h.4646c.15833,1.0625,.34869,2.18787,.57367,3.3877l46.81744,303.8595c6.06354,36.06091,31.08307,62.11273,60.38031,62.88995h236.25867c29.28534-.78314,54.28705-26.82904,60.35059-62.88995l49.20258-303.72888c.23334-1.24976,.41687-2.41614,.55908-3.51831h.2063c15.03351,0,27.22064-12.18713,27.22064-27.2207v-.00586c0-15.03369-12.18713-27.2207-27.22064-27.2207Zm-104.15417,347.46112c-1.03235,15.84711-3.35803,18.22034-6.16437,18.8136H176.37668c-2.81818-.534-5.18542-2.96649-6.19403-6.30084L125.68503,182.80816H463.41605l-44.65192,289.59637ZM225.99448,85.9931c.52808-9.02405,1.83331-10.40051,3.39966-10.72693l131.75452-.50427c1.57227,.29675,2.89532,1.66711,3.4649,3.55981l6.86517,46.3429H220.31406l5.68042-38.67151Z"/></svg>