<svg id="レイヤー_2" data-name="レイヤー 2" xmlns="http://www.w3.org/2000/svg" viewBox="0 0 591.02 591.02"><defs><style>.cls-1{fill:#050101;}</style></defs><path class="cls-1" d="M295.51,459.82a12,12,0,0,0,12-12V232.24a12,12,0,0,0-24,0v215.6A12,12,0,0,0,295.51,459.82Z"/><path class="cls-1" d="M370.2,459.18a12,12,0,0,0,13.13-10.7L405.19,234a12,12,0,1,0-23.83-2.43L359.49,446.05A12,12,0,0,0,370.2,459.18Z"/><path class="cls-1" d="M207.74,448.49a12,12,0,1,0,23.83-2.43L209.71,231.57A12,12,0,0,0,185.87,234Z"/><path class="cls-1" d="M522.92,124.94H474.85a41.29,41.29,0,0,0-5.79-.28H402.2l-7.33-47.45c-3.47-20.52-17.48-35.32-33.82-35.71L229.26,42c-16.33.5-30.22,15.42-33.52,36l-7.2,46.66H119.83a40.86,40.86,0,0,0-5.76.28h-46a27.23,27.23,0,0,0-27.23,27.22h0a27.23,27.23,0,0,0,27.23,27.22h.46q.24,1.59.57,3.39L116,486.64C122,522.7,147,548.75,176.34,549.53H412.6c29.29-.79,54.29-26.83,60.35-62.89l49.2-303.73c.24-1.25.42-2.42.56-3.52h.21a27.22,27.22,0,0,0,27.22-27.22h0A27.22,27.22,0,0,0,522.92,124.94ZM418.76,472.4c-1,15.85-3.35,18.22-6.16,18.82H176.38c-2.82-.54-5.19-3-6.2-6.3L125.69,182.81H463.42ZM226,86c.53-9,1.84-10.4,3.4-10.72l131.76-.51a4.83,4.83,0,0,1,3.46,3.56l6.87,46.34H220.31Z"/></svg>