<svg id="レイヤー_2" data-name="レイヤー 2" xmlns="http://www.w3.org/2000/svg" viewBox="0 0 1000 1000"><defs><style>.cls-1{fill:#010100;}</style></defs><title>trash</title><g id="Components"><g id="SliceIcon"><g id="Icons"><g id="Icons_Cart-Icon" data-name="Icons/Cart-Icon"><path class="cls-1" d="M859.58,243.44c-16.33-25.41-41.08-39.91-67.06-39.26H203.89c-26-.63-50.71,13.87-67,39.29s-24.39,26.87-18.43,58.66l78.91,512.15c10.22,60.78,52.39,104.69,101.77,106H697.35c49.36-1.32,91.5-45.22,101.72-106L882,302.35C887.94,270.54,875.91,268.86,859.58,243.44ZM707.74,790.29C706,817,702.08,821,697.35,822H299.2c-4.75-.9-8.74-5-10.44-10.62l-75-509.2H783Z"/></g></g></g></g><g id="Components-2" data-name="Components"><g id="SliceIcon-2" data-name="SliceIcon"><g id="Icons-2" data-name="Icons"><g id="Icons_Cart-Icon-2" data-name="Icons/Cart-Icon"><path class="cls-1" d="M382.83,139c.89-15.21,3.09-17.53,5.73-18.08l222.07-.85c2.65.5,4.88,2.81,5.84,6l17.87,120.63,52.23,1.09-19.11-123.6C661.62,89.61,638,64.66,610.46,64l-222.12.86c-27.53.85-50.94,26-56.5,60.66L313.43,244.74l53.48,2.64Z"/><path class="cls-1" d="M366.91,247.38c-17.79.18-35.73-1.49-53.48-2.64"/><path class="cls-1" d="M686.57,247.85c-17.38.09-34.73-.16-52.23-1.09"/></g></g></g></g><rect class="cls-1" x="479.81" y="365.31" width="40.38" height="403.77" rx="20.19" ry="20.19"/><rect class="cls-1" x="626.12" y="365.31" width="40.38" height="403.77" rx="20.19" ry="20.19" transform="translate(60.89 -62.65) rotate(5.82)"/><rect class="cls-1" x="333.5" y="365.31" width="40.38" height="403.77" rx="20.19" ry="20.19" transform="translate(763.1 1095.58) rotate(174.18)"/><rect class="cls-1" x="70.83" y="204.65" width="858.34" height="91.77" rx="45.88" ry="45.88"/></svg>