<?xml version="1.0" encoding="UTF-8"?><svg id="_レイヤー_2" xmlns="http://www.w3.org/2000/svg" viewBox="0 0 591.02334 591.02334"><defs><style>.cls-1{fill:#040000;}</style></defs><path class="cls-1" d="m204.93409,493.63187c183.8852,0,284.50528-152.49015,284.50528-284.50528,0-4.29,0-8.58001-.19501-12.87001,19.50002-14.04001,36.46506-31.78502,49.92006-51.87005-17.94004,7.99501-37.24505,13.26002-57.52506,15.79501,20.67003-12.28502,36.46506-31.98004,44.07006-55.38006-19.30501,11.50501-40.75503,19.69502-63.57008,24.18003-18.33001-19.50002-44.26504-31.59003-72.93006-31.59003-55.18506,0-100.03511,44.85004-100.03511,100.0351,0,7.80001.975,15.40502,2.53501,22.81502-83.0701-4.095-156.78016-44.07004-206.11521-104.5201-8.58003,14.82001-13.45503,31.98002-13.45503,50.31004,0,34.71004,17.74502,65.32507,44.46005,83.26508-16.38002-.58501-31.78504-5.07-45.24004-12.48002v1.365c0,48.36004,34.51503,88.92009,80.14508,98.08509-8.38501,2.34-17.16002,3.51001-26.32503,3.51001-6.43501,0-12.67501-.58501-18.72002-1.75499,12.67501,39.78003,49.72505,68.64006,93.40508,69.42005-34.32003,26.91003-77.41507,42.90004-124.21512,42.90004-7.99501,0-15.99001-.38999-23.79003-1.365,44.07004,28.08005,96.72009,44.65506,153.07517,44.65506"/></svg>