<svg id="レイヤー_2" data-name="レイヤー 2" xmlns="http://www.w3.org/2000/svg" viewBox="0 0 591.02 591.02"><defs><style>.cls-1{fill:#040000;}</style></defs><path class="cls-1" d="M204.93,493.63c183.89,0,284.51-152.49,284.51-284.5,0-4.29,0-8.58-.2-12.87a203.71,203.71,0,0,0,49.92-51.87,202.62,202.62,0,0,1-57.52,15.79,100.61,100.61,0,0,0,44.07-55.38A198.76,198.76,0,0,1,462.14,129a100,100,0,0,0-173,68.45,110.47,110.47,0,0,0,2.54,22.81c-83.07-4.09-156.78-44.07-206.12-104.52a100.41,100.41,0,0,0,31,133.58,101.19,101.19,0,0,1-45.24-12.48v1.36a100.21,100.21,0,0,0,80.14,98.09,100.44,100.44,0,0,1-45,1.75,100,100,0,0,0,93.4,69.42,200.54,200.54,0,0,1-124.21,42.9A193.35,193.35,0,0,1,51.86,449a284.42,284.42,0,0,0,153.07,44.65"/></svg>