<?xml version="1.0" encoding="utf-8"?>
<!-- Generator: Adobe Illustrator 21.0.2, SVG Export Plug-In . SVG Version: 6.00 Build 0)  -->
<svg version="1.1" id="レイヤー_2" xmlns="http://www.w3.org/2000/svg" xmlns:xlink="http://www.w3.org/1999/xlink" x="0px"
	 y="0px" viewBox="0 0 1000 1000" style="enable-background:new 0 0 1000 1000;" xml:space="preserve">
<style type="text/css">
	.st0{fill:#040000;}
	.st1{fill:#070001;}
</style>
<g>
	<path class="st0" d="M361.6,855.3c309.9,0,479.5-257,479.5-479.5c0-7.2,0-14.5-0.3-21.7c32.9-23.7,61.5-53.6,84.1-87.4
		c-30.2,13.5-62.8,22.3-97,26.6c34.8-20.7,61.5-53.9,74.3-93.3c-32.5,19.4-68.7,33.2-107.1,40.8c-30.9-32.9-74.6-53.2-122.9-53.2
		c-93,0-168.6,75.6-168.6,168.6c0,13.1,1.6,26,4.3,38.5c-140-6.9-264.3-74.3-347.4-176.2c-14.5,25-22.7,53.9-22.7,84.8
		c0,58.5,29.9,110.1,74.9,140.3c-27.6-1-53.6-8.5-76.3-21c0,0.7,0,1.3,0,2.3c0,81.5,58.2,149.9,135.1,165.3
		c-14.1,3.9-28.9,5.9-44.4,5.9c-10.8,0-21.4-1-31.6-3c21.4,67,83.8,115.7,157.4,117c-57.8,45.4-130.5,72.3-209.4,72.3
		c-13.5,0-27-0.7-40.1-2.3C177.9,827.3,266.6,855.3,361.6,855.3"/>
</g>
</svg>
