<?xml version="1.0" encoding="UTF-8"?><svg id="_イヤー_2" xmlns="http://www.w3.org/2000/svg" viewBox="0 0 591.02334 591.02334"><defs><style>.cls-1{fill:#212121;}</style></defs><rect class="cls-1" x="404.18403" y="207.97084" width="23.86816" height="154.55444"/><path class="cls-1" d="M215.82173,258.58558c-14.69824,0-26.64844,11.94995-26.64844,26.64844s11.9502,26.64941,26.64844,26.64941,26.64941-11.95093,26.64941-26.64941-11.95068-26.64844-26.64941-26.64844Z"/><path class="cls-1" d="M215.8227,218.64711c-36.73242,0-66.61426,29.88184-66.61426,66.61499s29.88184,66.61426,66.61426,66.61426,66.61523-29.88184,66.61523-66.61426-29.88184-66.61499-66.61523-66.61499Zm-.00098,123.08081c-31.1499,0-56.49268-25.34302-56.49268-56.4939s25.34277-56.4939,56.49268-56.4939,56.49414,25.34399,56.49414,56.4939-25.34326,56.4939-56.49414,56.4939Z"/><path class="cls-1" d="M515.57808,84.94435H75.44526c-16.04541,0-29.10498,12.99719-29.10498,28.96655V456.32313c0,15.96875,13.05957,28.9668,29.10498,28.9668h19.6167v8.05566c0,7.03223,5.72852,12.7334,12.79492,12.7334h23.95117c7.06592,0,12.79443-5.70117,12.79443-12.7334v-8.05566H451.97261v8.05566c0,7.03223,5.72754,12.7334,12.79395,12.7334h23.95166c7.06641,0,12.79395-5.70117,12.79395-12.7334v-8.05566h14.06592c16.04492,0,29.10498-12.99805,29.10498-28.9668V113.9109c0-15.97974-13.06006-28.96655-29.10498-28.96655ZM215.8227,382.82875c-53.80225,0-97.57959-43.77734-97.57959-97.57983s43.77734-97.57959,97.57959-97.57959,97.58057,43.77734,97.58057,97.57959-43.77734,97.57983-97.58057,97.57983Zm241.38232-16.74902c0,14.89233-11.55225,27.00684-25.75098,27.00684v.01318h-30.6709c-14.19971,0-25.75098-12.11548-25.75098-27.00781V204.40419c0-14.89209,11.55127-27.00781,25.75098-27.00781h30.6709c14.19873,0,25.75098,12.11572,25.75098,27.00781v161.67554Z"/></svg>