<?xml version="1.0" encoding="UTF-8"?><svg id="_イヤー_2" xmlns="http://www.w3.org/2000/svg" viewBox="0 0 591.02334 591.02334"><defs><style>.cls-1{fill:#212121;}</style></defs><path class="cls-1" d="M215.82266,382.82878c-53.80229,0-97.57969-43.7774-97.57969-97.57969s43.7774-97.57969,97.57969-97.57969,97.58064,43.7774,97.58064,97.57969-43.77742,97.57969-97.58064,97.57969Zm0-164.18167c-36.73229,0-66.61414,29.88185-66.61414,66.61508s29.88185,66.61414,66.61414,66.61414,66.61508-29.88185,66.61508-66.61414-29.88185-66.61508-66.61508-66.61508Z"/><path class="cls-1" d="M431.45388,393.09979h-30.67078c-14.19972,0-25.75096-12.11559-25.75096-27.00782V204.40434c0-14.89225,11.55124-27.00782,25.75096-27.00782h30.67078c14.19879,0,25.75096,12.11557,25.75096,27.00782v161.67546c0,14.89226-11.55217,27.00689-25.75096,27.00689v.0131Zm-27.26989-30.57436h23.86804V207.97089h-23.86804v154.55454Z"/><path class="cls-1" d="M215.82173,341.72792c-31.14993,0-56.49288-25.34295-56.49288-56.4938s25.34295-56.4938,56.49288-56.4938,56.4938,25.34387,56.4938,56.4938-25.34295,56.4938-56.4938,56.4938Zm0-83.14227c-14.69854,0-26.64846,11.94992-26.64846,26.64846s11.94992,26.64941,26.64846,26.64941,26.64939-11.95087,26.64939-26.64941-11.95087-26.64846-26.64939-26.64846Z"/><path class="cls-1" d="M515.57785,84.94437H75.44521c-16.04523,0-29.1048,12.99715-29.1048,28.96657V456.32331c0,15.96851,13.05957,28.96657,29.1048,28.96657h19.61664v8.05585c0,7.03201,5.72837,12.73323,12.795,12.73323h23.95133c7.0657,0,12.79407-5.70122,12.79407-12.73323v-8.05585H451.97247v8.05585c0,7.03201,5.72746,12.73323,12.79407,12.73323h23.95136c7.06664,0,12.79407-5.70122,12.79407-12.73323v-8.05585h14.06588c16.04523,0,29.10509-12.99806,29.10509-28.96657V113.91094c0-15.97971-13.05985-28.96657-29.10509-28.96657h0Zm-10.70337,360.72613H86.14942V124.56377H504.87448V445.6705h0Z"/></svg>