<svg id="レイヤー_2" data-name="レイヤー 2" xmlns="http://www.w3.org/2000/svg" viewBox="0 0 1000 1000">
  <defs>
    <style>.cls-1{fill:#040000;}</style>
  </defs>
  <title>wakaba</title>
  <path class="cls-1" d="M692.4,112.29l-193.7,161L305,112.29c-19.85-16.48-52-3.81-52,20.5v563a26.68,26.68,0,0,0,10,20.49L475.37,892.7a32.43,32.43,0,0,0,23.33,7.35A32.43,32.43,0,0,0,522,892.7L734.42,716.23a26.68,26.68,0,0,0,10-20.49V132.79C744.39,108.48,712.25,95.81,692.4,112.29Zm23.24,55V696.85L498.8,879.27V312.4L715.64,130Z"/>
</svg>