<?xml version="1.0" encoding="utf-8"?>
<!-- Generator: Adobe Illustrator 22.0.1, SVG Export Plug-In . SVG Version: 6.00 Build 0)  -->
<svg version="1.1" id="レイヤー_2" xmlns="http://www.w3.org/2000/svg" xmlns:xlink="http://www.w3.org/1999/xlink" x="0px"
	 y="0px" viewBox="0 0 1000 1000" style="enable-background:new 0 0 1000 1000;" xml:space="preserve">
<style type="text/css">
	.st0{fill:#040000;}
	.st1{fill:#070001;}
	.st2{fill:#231916;}
	.st3{fill-rule:evenodd;clip-rule:evenodd;fill:#070102;}
	.st4{fill:#050101;}
</style>
<g>
	<path class="st0" d="M905.8,883.4H105.5c-18.7,0-35.9-10-45.3-26.1c-9.3-16.2-9.3-36.1,0-52.3l400.2-693.1
		c9.3-16.2,26.6-26.1,45.3-26.1c18.7,0,35.9,10,45.3,26.1l400.2,693.1c9.3,16.2,9.3,36.1,0,52.3
		C941.8,873.4,924.5,883.4,905.8,883.4z M131.3,819.8H880L505.7,171.3L131.3,819.8z"/>
</g>
<path class="st0" d="M459.5,374c-1.5-16.4,10.8-30,27.3-30.2l22.1-0.2c16.5-0.2,29.1,13.1,27.9,29.6l-17.5,255.4
	c-1.1,16.5-9.3,30-18.1,30.1c-8.8,0.1-17.2-13.3-18.7-29.7L459.5,374z"/>
<circle class="st0" cx="499.8" cy="731.9" r="36.6"/>
</svg>
