<svg id="レイヤー_2" data-name="レイヤー 2" xmlns="http://www.w3.org/2000/svg" viewBox="0 0 591.02 591.02"><defs><style>.cls-1{fill:#040000;}</style></defs><path class="cls-1" d="M533.33,527.39,58.52,533.71A31,31,0,0,1,31,487.54L263,73.18a31,31,0,0,1,53.72-.72l242.89,408a31,31,0,0,1-26.25,46.89Zm-460-31.62,444.18-5.91L290.3,108.14Z"/><path class="cls-1" d="M269,228.66a16.21,16.21,0,0,1,15.95-18.13l13.11-.32a16.22,16.22,0,0,1,16.81,17.34l-8.36,151.64c-.54,9.78-5.26,17.88-10.49,18s-10.33-7.74-11.35-17.48Z"/><circle class="cls-1" cx="294.73" cy="440.69" r="21.71"/></svg>