<?xml version="1.0" encoding="UTF-8"?><svg id="_レイヤー_2" xmlns="http://www.w3.org/2000/svg" viewBox="0 0 591.02334 591.02334"><defs><style>.cls-1{fill:#040000;}</style></defs><path class="cls-1" d="m533.33114,527.39085l-474.81311,6.3206c-11.08226.14752-21.40109-5.62854-27.06998-15.15204-5.66889-9.5235-5.82629-21.34826-.41292-31.01928L262.96788,73.17913c5.41337-9.67103,15.5748-15.71972,26.65706-15.86724,11.08226-.14752,21.40109,5.62854,27.06998,15.15204l242.88036,408.04039c5.66889,9.5235,5.82629,21.34826.41292,31.01928-5.41337,9.67103-15.5748,15.71972-26.65706,15.86724Zm-460.0005-31.61702l444.18328-5.91286L290.30159,108.14266,73.33065,495.77382Z"/><path class="cls-1" d="m268.97511,228.66306c-1.01069-9.73716,6.16962-17.89756,15.95624-18.13421l13.10698-.31694c9.78662-.23665,17.35298,7.56716,16.81414,17.34179l-8.35936,151.64069c-.53884,9.77464-5.25948,17.87556-10.49031,18.00204-5.23083.12649-10.33753-7.7368-11.34822-17.47396l-15.67947-151.05942Z"/><circle class="cls-1" cx="294.72834" cy="440.68717" r="21.70708"/></svg>