<svg id="レイヤー_2" data-name="レイヤー 2" xmlns="http://www.w3.org/2000/svg" viewBox="0 0 1000 1000"><defs><style>.cls-1{fill:#040000;}.cls-2{fill:#050101;}</style></defs><title>zoom-out</title><g id="Components"><g id="SliceIcon"><g id="Icons"><g id="Icons_Loupe-Icon" data-name="Icons/Loupe-Icon"><path id="Loupe-Icon" class="cls-1" d="M806.61,875.21a48.16,48.16,0,0,0,68.78,0,49.65,49.65,0,0,0,0-69.66l-150.09-150a339.77,339.77,0,0,0,67.58-203.9c0-188.49-152.79-341.29-341.27-341.29S110.35,263.15,110.35,451.64,263.14,792.93,451.61,792.93a339.71,339.71,0,0,0,204.53-68.06ZM207.85,451.64C207.85,317,317,207.86,451.61,207.86S695.37,317,695.37,451.64,586.24,695.42,451.61,695.42,207.85,586.28,207.85,451.64Z"/></g></g></g></g><rect class="cls-2" x="277.87" y="410.91" width="347.48" height="81.45" rx="40.73" ry="40.73"/></svg>