<svg id="レイヤー_2" data-name="レイヤー 2" xmlns="http://www.w3.org/2000/svg" viewBox="0 0 591.02 591.02"><defs><style>.cls-1{fill:#050101;}</style></defs><title>zoom-out</title><path class="cls-1" d="M518.23,476.79l-89.05-89a201.6,201.6,0,0,0,40.1-121C469.28,155,378.63,64.33,266.8,64.33S64.33,155,64.33,266.82,155,469.31,266.8,469.31a201.55,201.55,0,0,0,121.35-40.38l89.27,89.19a28.57,28.57,0,0,0,40.81,0A29.47,29.47,0,0,0,518.23,476.79ZM266.8,411.45A144.64,144.64,0,1,1,411.43,266.82,144.62,144.62,0,0,1,266.8,411.45ZM369.88,266.67v.3a24,24,0,0,1-24,24H187.74a24,24,0,0,1-24-24v-.3a24,24,0,0,1,24-24H345.87A24,24,0,0,1,369.88,266.67Z"/></svg>