<svg id="レイヤー_2" data-name="レイヤー 2" xmlns="http://www.w3.org/2000/svg" viewBox="0 0 591.02 591.02"><defs><style>.cls-1{fill:#040000;}.cls-2{fill:#050101;}</style></defs><title>zoom-in</title><g id="Components"><g id="SliceIcon"><g id="Icons"><g id="Icons_Loupe-Icon" data-name="Icons/Loupe-Icon"><path id="Loupe-Icon" class="cls-1" d="M477.42,518.12a28.57,28.57,0,0,0,40.81,0,29.47,29.47,0,0,0,0-41.33l-89.05-89a201.6,201.6,0,0,0,40.1-121C469.28,155,378.63,64.33,266.8,64.33S64.33,155,64.33,266.82,155,469.31,266.8,469.31a201.55,201.55,0,0,0,121.35-40.38ZM122.18,266.82A144.63,144.63,0,1,1,266.8,411.45,144.63,144.63,0,0,1,122.18,266.82Z"/></g></g></g></g><path class="cls-2" d="M345.72,242.66H291V187.9a24.17,24.17,0,0,0-24.17-24.16h0a24.16,24.16,0,0,0-24.16,24.16v54.76H187.88a24.16,24.16,0,0,0-24.16,24.16h0A24.16,24.16,0,0,0,187.88,291h54.76v54.76A24.16,24.16,0,0,0,266.8,369.9h0A24.17,24.17,0,0,0,291,345.74V291h54.75a24.16,24.16,0,0,0,24.16-24.16h0A24.15,24.15,0,0,0,345.72,242.66Z"/></svg>