<?xml version="1.0" encoding="UTF-8"?><svg id="_レイヤー_2" xmlns="http://www.w3.org/2000/svg" viewBox="0 0 591.02334 591.02334"><defs><style>.cls-1{fill:#050101;}</style></defs><path class="cls-1" d="m518.23043,476.79285l-89.04688-88.99622c25.1842-33.75354,40.09344-75.62427,40.09344-120.97742,0-111.83179-90.65051-202.4895-202.47363-202.4895s-202.47363,90.65771-202.47363,202.4895,90.65051,202.4895,202.47363,202.4895c45.5202,0,87.53198-15.02283,121.34857-40.38135l89.27063,89.19751c11.28424,11.42493,29.52368,11.42493,40.80786,0,11.28424-11.4248,11.28424-29.9071,0-41.33203Zm-251.42706-65.33838c-79.87366,0-144.62402-64.75537-144.62402-144.63525s64.75037-144.63525,144.62402-144.63525,144.62402,64.75537,144.62402,144.63525-64.75037,144.63525-144.62402,144.63525Zm103.08154-144.78345v.29626c0,13.26282-10.75171,24.01453-24.01453,24.01453h-158.13403c-13.26282,0-24.01453-10.75171-24.01453-24.01453v-.29626c0-13.2627,10.75171-24.0144,24.01453-24.0144h158.13403c13.26282,0,24.01453,10.75171,24.01453,24.0144Z"/></svg>